<?xml version="1.0" encoding="utf-8"?><svg width="445" height="416" viewBox="0 0 445 416" xmlns="http://www.w3.org/2000/svg" xmlns:xlink="http://www.w3.org/1999/xlink"><view id="icon--ad" viewBox="111 0 101 93"/><svg viewBox="-10 -10 101 93" width="101" height="93" x="111"><defs><style>.aacls-1{fill:none;stroke:#2962ff;stroke-miterlimit:10;stroke-width:3px}</style></defs><title>Asset 6icon</title><g id="aaLayer_2" data-name="Layer 2"><g id="aaLayer_1-2" data-name="Layer 1"><path class="aacls-1" d="M31.21 45.66l3.09 9.84H30"/><path class="aacls-1" d="M26.89 44.96l8.34 26.54h-16l-8.34-26.54"/><path class="aacls-1" d="M9.42 44.81l1.74 6.55L30.5 45.5M7 20.5H1.5v23H7M79.5 62.5h-4v-61h4v61zM35.5 17.84v27.39l40 16.11V2.42l-40 15.42z"/><path class="aacls-1" d="M35.5 45.5h-29v-27h29v27zM10 23.5h16"/></g></g></svg><view id="icon--ad_1" viewBox="306.81 57.92 73 63"/><svg viewBox="-10 -10 73 63" width="73" height="63" x="306.81" y="57.92"><defs><style>.abcls-1{fill:none;stroke:#2962ff;stroke-miterlimit:10;stroke-width:3px}.abcls-2{fill:#2962ff}</style></defs><title>Asset 7icon</title><g id="abLayer_2" data-name="Layer 2"><g id="abLayer_1-2" data-name="Layer 1"><path class="abcls-1" d="M51 9.5H1M48 5.5h-2M45 5.5h-2M42 5.5h-2M51.5 41.5h-50V3.33A1.83 1.83 0 0 1 3.33 1.5h46.34a1.83 1.83 0 0 1 1.83 1.83z"/><path class="abcls-1" d="M8.5 15.5h12v17h-12z"/><path class="abcls-2" d="M40.84 27.78l-5.25.48 3 6.63-2 .88-2.89-6.71-3.7 3.49V17.63z"/></g></g></svg><view id="icon--ad_2" viewBox="203.38000000000002 279.03 62.99 62.53"/><svg viewBox="-10 -10 62.99 62.53" width="62.99" height="62.53" x="203.38000000000002" y="279.03"><defs><style>.accls-1{fill:#2962ff}</style></defs><title>Asset 8icon</title><g id="acLayer_2" data-name="Layer 2"><g id="acLayer_1-2" data-name="Layer 1"><path class="accls-1" transform="rotate(-45 33.519 35.776)" d="M32.02 27.73h3v16.1h-3z"/><path class="accls-1" d="M30.94 17.88c0 .37.06.74.06 1.12a14.05 14.05 0 1 1-3.36-9.08l2.12-2.08a17 17 0 1 0 3.8 7.48z"/><path class="accls-1" d="M20.25 24.86l-5.83-8.72-6.81 6.21-6.66-4.78 1.75-2.44 4.68 3.37 7.6-6.93 5.75 8.61L38.76 2.53l2.1 2.14-20.61 20.19z"/><path class="accls-1" d="M42.99 14h-3V3h-11V0h14v14z"/></g></g></svg><view id="icon--ad_3" viewBox="0 279.03 70.14 69.82"/><svg viewBox="-10 -10 70.14 69.82" width="70.14" height="69.82" y="279.03"><defs><style>.adcls-1{fill:none;stroke:#2962ff;stroke-miterlimit:10;stroke-width:3px}</style></defs><title>Asset 9icon</title><g id="adLayer_2" data-name="Layer 2"><g id="adLayer_1-2" data-name="Layer 1"><path class="adcls-1" d="M40.82 25.9a13.52 13.52 0 0 1 .18 2.67A19.75 19.75 0 1 1 21.25 8.82a14.05 14.05 0 0 1 3 .22"/><path class="adcls-1" d="M32.79 24.46a8.91 8.91 0 0 1 .71 4.11 12.25 12.25 0 1 1-12.25-12.25 8.27 8.27 0 0 1 4 .68"/><path class="adcls-1" d="M26.81 29.4c-.69 4.54-6.81 6.31-9.81 2.81s-.09-9.47 4.58-9.26M31.92 18.27l-1.88-7.7 7.54-7.85 2.83 7.07-8.49 8.48zM38.11 12.09L21.04 29.15"/><path class="adcls-1" d="M31.92 18.27l7.78 2.12 7.78-7.77-7.07-2.83-8.49 8.48z"/></g></g></svg><view id="icon--ad_4" viewBox="212 94.81 90.07 63"/><svg viewBox="-10 -10 90.07 63" width="90.07" height="63" x="212" y="94.81"><defs><style>.aecls-1{fill:none;stroke:#2962ff;stroke-miterlimit:10;stroke-width:3px}</style></defs><title>Asset 10icon</title><g id="aeLayer_2" data-name="Layer 2"><g id="aeLayer_1-2" data-name="Layer 1"><path class="aecls-1" d="M22.47 22.33L30 38.43A5.32 5.32 0 0 0 37 41l28.5-13.27a5.32 5.32 0 0 0 2.57-7.06l-7.51-16.1A5.32 5.32 0 0 0 53.5 2L25 15.27a5.32 5.32 0 0 0-2.53 7.06z"/><path class="aecls-1" d="M21.57 20.39l25.53 5.03L59.65 2.63M41.27 24.27L33.06 41.5M68.57 25.03l-18.6-4.81M24 10.3H0M16 18.3H6M19 25.3h-7"/></g></g></svg><view id="icon--ad_5" viewBox="266.37 279.03 60.43 60.1"/><svg viewBox="-10 -10 60.43 60.1" width="60.43" height="60.1" x="266.37" y="279.03"><defs><style>.afcls-1,.afcls-2{fill:none;stroke:#2962ff;stroke-miterlimit:10}.afcls-1{stroke-width:2.98px}.afcls-2{stroke-width:3px}</style></defs><title>Asset 11icon</title><g id="afLayer_2" data-name="Layer 2"><g id="afLayer_1-2" data-name="Layer 1"><circle class="afcls-1" cx="16.99" cy="16.99" r="15.5"/><path class="afcls-2" d="M27.98 27.65l11.39 11.38"/><path class="afcls-1" d="M10.15 17.66l4.81 4.81 9.92-9.92"/></g></g></svg><view id="icon--ad_6" viewBox="381.73 0 63 70"/><svg viewBox="-10 -10 63 70" width="63" height="70" x="381.73"><defs><style>.agcls-1{fill:#2962ff}.agcls-2{fill:none;stroke:#2962ff;stroke-miterlimit:10;stroke-width:3px}</style></defs><title>Asset 12icon</title><g id="agLayer_2" data-name="Layer 2"><g id="agLayer_1-2" data-name="Layer 1"><path class="agcls-1" d="M38 45H0V0h38zM3 42h32V3H3z"/><path class="agcls-2" d="M17.5 12.5h4v3h-4zM7.5 28.5h4v3h-4zM27.5 28.5h4v3h-4zM17.5 28.5h4v3h-4zM19.5 27V15M29.5 28v-6.5h-20V28"/><path class="agcls-1" d="M37.51 5s-.23 1.08-.75 3H40v39H8v-3.1c.16.26-.77.31-1.75.08A6.36 6.36 0 0 0 5 43.91V50h38V5z"/></g></g></svg><view id="icon--brand" viewBox="212 0 94.81 94.81"/><svg viewBox="-10 -10 94.81 94.81" width="94.81" height="94.81" x="212"><defs><style>.ahcls-1{fill:none;stroke:#2962ff;stroke-miterlimit:10;stroke-width:3px}</style></defs><title>Asset 20icon</title><g id="ahLayer_2" data-name="Layer 2"><g id="ahLayer_1-2" data-name="Layer 1"><path class="ahcls-1" d="M2.53 8l3.7 3.7 5.51-5.51L8 2.53a.77.77 0 0 0-1 .17L2.7 7a.77.77 0 0 0-.17 1zm32.22 21.2l-23-23-5.52 5.54 23 23M39.51 45L62 67.54 67.54 62 44.77 39.26m19.55 25.06A13.57 13.57 0 0 0 62 67.46l9.89 4.39L67.46 62a13.57 13.57 0 0 0-3.14 2.35zM10.84 16.39l5.58-5.58-4.74-4.74-5.58 5.57 4.74 4.74z"/><path class="ahcls-1" d="M70.42 68.63c-.3.26-.6.52-.89.8a12.92 12.92 0 0 0-.89 1l3.22 1.43-1.44-3.23zM72.12 12.04L12.04 72.12l-9.92-9.91L62.21 2.12l9.91 9.92zM6.93 58.6l3.9 3.91M11.13 54.4l2.11 2.1M15.34 50.19l3.91 3.91M19.55 45.98l2.1 2.11M23.75 41.78l3.91 3.9M27.96 37.57l2.1 2.11M32.16 33.37l3.91 3.9M36.37 29.16l2.1 2.1M40.58 24.95l3.9 3.91M44.78 20.75l2.11 2.1M48.99 16.54l3.9 3.91M53.19 12.34l2.11 2.1M57.4 8.13l3.91 3.91"/></g></g></svg><view id="icon--brand_1" viewBox="0 348.84999999999997 64.45 66.44"/><svg viewBox="-10 -10 64.45 66.44" width="64.45" height="66.44" y="348.84999999999997"><defs><style>.aicls-1{fill:none;stroke:#2962ff;stroke-miterlimit:10;stroke-width:3px}</style></defs><title>Asset 21icon</title><g id="aiLayer_2" data-name="Layer 2"><path class="aicls-1" d="M25.44 29.71L23.75 29h-13m-.06 16H1.5v-1.28c1.78-.33 3.57-1.9 5.29-6.39l14-35.83h4l14.85 38.33c1.13 2.91 3.58 5.05 4.74 5.11-2.38-.12-17.38-.12-19.38 0 2.91-.12 4.28-1.78 4.28-3.45a8.5 8.5 0 0 0-.71-2.88l-3.37-9.13m-.65-.88l-7-17.38" id="aiLayer_1-2" data-name="Layer 1"/></g></svg><view id="icon--brand_2" viewBox="381.73 204 56.51 66"/><svg viewBox="-10 -10 56.51 66" width="56.51" height="66" x="381.73" y="204"><defs><style>.ajcls-1{fill:none;stroke:#2962ff;stroke-miterlimit:10;stroke-width:3px}</style></defs><title>Asset 22icon</title><g id="ajLayer_2" data-name="Layer 2"><g id="ajLayer_1-2" data-name="Layer 1"><path class="ajcls-1" d="M31 44.5H5.5a4 4 0 0 1-4-4.62l2.75-22a4 4 0 0 1 4-3.38h20.26a4 4 0 0 1 3.93 3.26l2.5 22A4 4 0 0 1 31 44.5z"/><path class="ajcls-1" d="M11.75 19V8a6.5 6.5 0 0 1 6.5-6.5 6.5 6.5 0 0 1 6.5 6.5v11"/></g></g></svg><view id="icon--brand_3" viewBox="306.81 0 74.92 57.92"/><svg viewBox="-10 -10 74.92 57.92" width="74.92" height="57.92" x="306.81"><defs><style>.akcls-1,.akcls-2{fill:none;stroke:#2962ff;stroke-miterlimit:10}.akcls-1{stroke-width:2.92px}.akcls-2{stroke-width:3px}</style></defs><title>Asset 23icon</title><g id="akLayer_2" data-name="Layer 2"><g id="akLayer_1-2" data-name="Layer 1"><rect class="akcls-1" x="1.46" y="1.46" width="52" height="35" rx="6" ry="6"/><path class="akcls-2" d="M23.46 12.46l11.13 6.5-11.13 6.5v-13z"/></g></g></svg><view id="icon--brand_4" viewBox="381.73 138 57.01 66"/><svg viewBox="-10 -10 57.01 66" width="57.01" height="66" x="381.73" y="138"><defs><style>.alcls-1{fill:none;stroke:#2962ff;stroke-miterlimit:10;stroke-width:3px}</style></defs><title>Asset 24icon</title><g id="alLayer_2" data-name="Layer 2"><g id="alLayer_1-2" data-name="Layer 1"><path class="alcls-1" d="M37 1.5H5.59a4 4 0 0 0-4 4 4 4 0 0 0 4 4H37"/><path class="alcls-1" d="M1.5 5v37.5c.75 2 2.69 2 6 2h28V9"/><path class="alcls-1" d="M35.59 1.5a5.27 5.27 0 0 0-2 4.42c.06 1.88 1.63 2.51 2 3.58M8 19.5h21M8 24.5h21M8 29.5h12"/></g></g></svg><view id="icon--consult" viewBox="92.47 184.68 69.15 93.72"/><svg viewBox="-10 -10 69.15 93.72" width="69.15" height="93.72" x="92.47" y="184.68"><defs><style>.amcls-1{fill:none;stroke:#2962ff;stroke-miterlimit:10;stroke-width:3px}</style></defs><title>Asset 25icon</title><g id="amLayer_2" data-name="Layer 2"><path class="amcls-1" d="M37.71 49.72c0 .83-.67 1.5-1.5 2.5H12.94c-.83-1-1.5-1.67-1.5-2.5a1.5 1.5 0 0 1 1.5-1.5h23.27a1.5 1.5 0 0 1 1.5 1.5zm9.94 21a1.58 1.58 0 0 1-1.65 1.5H3.14a1.57 1.57 0 0 1-1.64-1.5c0-.83.74-2.5 1.64-2.5H46c.9 0 1.64 1.67 1.64 2.5zm-36.21-21a1.5 1.5 0 0 1 1.5-1.5h23.27a1.5 1.5 0 0 1 1.5 1.5c0 .83-.67 1.5-1.5 2.5H13m23.79 0h-24.4c-5.63 1.93-9.53 7.18-9.53 14.43 0 .53 0 1.05.07 1.57h43.29c0-.52.07-1 .07-1.57 0-7.25-3.89-11.5-9.53-14.43zm-25-4h24.55a33.31 33.31 0 0 0 4.78-16.8c.29-15.74-9.65-29.68-22.21-29.92a18.23 18.23 0 0 0-4 .41c.3 1.35.63 3.71 1 5.08L2.26 22.42 2.47 27l5.24 4.62a17.65 17.65 0 0 1 12.2-6.74c-5.11 9.74-7.5 17-8.17 23.33zM38 35.7a34.21 34.21 0 0 1-2.59 12.53h.91a33.32 33.32 0 0 0 4.77-16.8c.32-15.75-9.62-29.69-22.18-29.93a22.4 22.4 0 0 0-4.44.72L15.86 7C29.34 7.74 38.31 20.85 38 35.7z" id="amLayer_1-2" data-name="Layer 1"/></g></svg><view id="icon--consult_1" viewBox="111 93 87.55 43.04"/><svg viewBox="-10 -10 87.55 43.04" width="87.55" height="43.04" x="111" y="93"><defs><style>.ancls-1{fill:#2962ff}</style></defs><title>Asset 26icon</title><g id="anLayer_2" data-name="Layer 2"><g id="anLayer_1-2" data-name="Layer 1"><path class="ancls-1" d="M0 11.33a11.75 11.75 0 0 1 .75-4.11A11 11 0 0 1 6.46 1a10.89 10.89 0 0 1 4.74-1 10.33 10.33 0 0 1 5.42 1.38A8.79 8.79 0 0 1 20 5l-3.36 2.3a5.8 5.8 0 0 0-1.09-1.62 5.44 5.44 0 0 0-1.38-1 6.19 6.19 0 0 0-1.54-.56 7.29 7.29 0 0 0-1.57-.18 6 6 0 0 0-2.9.67 6.38 6.38 0 0 0-2 1.74 7.69 7.69 0 0 0-1.26 2.4 9.2 9.2 0 0 0-.42 2.7 8.81 8.81 0 0 0 .52 2.9 7.71 7.71 0 0 0 1.32 2.45 6.81 6.81 0 0 0 2.11 1.7 5.78 5.78 0 0 0 2.7.64 7.12 7.12 0 0 0 1.6-.19 6.07 6.07 0 0 0 1.58-.61 6 6 0 0 0 1.39-1.07 4.94 4.94 0 0 0 1-1.58l3.62 2.08A6.82 6.82 0 0 1 18.8 20a10 10 0 0 1-2.27 1.65 11.62 11.62 0 0 1-2.7 1A11.86 11.86 0 0 1 11 23a9.68 9.68 0 0 1-4.45-1 11.58 11.58 0 0 1-3.47-2.67A12.4 12.4 0 0 1 .82 15.6 11.68 11.68 0 0 1 0 11.33zM23.33 22.85V.13h10a6.46 6.46 0 0 1 2.9.66 7.48 7.48 0 0 1 2.29 1.73 8.14 8.14 0 0 1 1.5 2.43 7.31 7.31 0 0 1 .54 2.74 7.55 7.55 0 0 1-1.1 4 6.33 6.33 0 0 1-3 2.61l5.18 8.54h-5L32 15.22h-4.26v7.62zm4.42-11.49h5.54a2.33 2.33 0 0 0 1.14-.29 2.89 2.89 0 0 0 .91-.78 3.93 3.93 0 0 0 .61-1.17 4.53 4.53 0 0 0 .22-1.44 4.11 4.11 0 0 0-.26-1.47 3.85 3.85 0 0 0-.7-1.21 3.12 3.12 0 0 0-1-.77A2.58 2.58 0 0 0 33.09 4h-5.35zM63.14 22.85v-15L57.28 19h-2.4L49 7.81v15h-4.39V.13h4.74l6.72 12.93L62.85.13h4.7v22.72z"/></g></g></svg><view id="icon--consult_2" viewBox="70.14 279.03 67.09 65.91"/><svg viewBox="-10 -10 67.09 65.91" width="67.09" height="65.91" x="70.14" y="279.03"><defs><style>.aocls-1{fill:none;stroke:#2962ff;stroke-miterlimit:10;stroke-width:3.09px}</style></defs><title>Asset 27icon</title><g id="aoLayer_2" data-name="Layer 2"><g id="aoLayer_1-2" data-name="Layer 1"><path class="aocls-1" d="M38.93 7.35A5.92 5.92 0 0 0 37.41 15a6 6 0 0 0 7.46 2.54 21.74 21.74 0 0 1 0 10.79 6 6 0 0 0-7.46 2.54 5.92 5.92 0 0 0 1.52 7.67A21.85 21.85 0 0 1 29.49 44a6 6 0 0 0-11.88 0 21.85 21.85 0 0 1-9.44-5.39 5.92 5.92 0 0 0 1.52-7.67 6 6 0 0 0-7.46-2.54 21.74 21.74 0 0 1 0-10.79A6 6 0 0 0 9.69 15a5.92 5.92 0 0 0-1.52-7.65A21.86 21.86 0 0 1 17.61 2a6 6 0 0 0 11.88 0 21.86 21.86 0 0 1 9.44 5.35z"/><ellipse class="aocls-1" cx="23.55" cy="22.96" rx="6" ry="5.95"/></g></g></svg><view id="icon--consult_3" viewBox="381.73 70 58 68"/><svg viewBox="-10 -10 58 68" width="58" height="68" x="381.73" y="70"><defs><style>.apcls-1{fill:#2962ff}.apcls-2{fill:none;stroke:#2962ff;stroke-miterlimit:10;stroke-width:3px}</style></defs><title>Asset 28icon</title><g id="apLayer_2" data-name="Layer 2"><g id="apLayer_1-2" data-name="Layer 1"><path class="apcls-1" d="M37.42 13a14.12 14.12 0 0 1-2.42-.25V45H3V3h22.4a5.75 5.75 0 0 1 0-3H0v48h38V12.94a4.66 4.66 0 0 1-.58.06z"/><path class="apcls-2" d="M25.5 12.5h11v-1l-10-10h-1v11zM7 15.5h11M7 22.5h3M7 28.5h3M7 34.5h3M12 22.5h19M12 28.5h19M12 34.5h19"/></g></g></svg><view id="icon--consult_4" viewBox="381.73 270 57.01 65.44"/><svg viewBox="-10 -10 57.01 65.44" width="57.01" height="65.44" x="381.73" y="270"><defs><style>.aqcls-1,.aqcls-2,.aqcls-3{fill:none;stroke:#2962ff;stroke-miterlimit:10}.aqcls-1,.aqcls-3{stroke-linecap:square}.aqcls-1,.aqcls-2{stroke-width:3px}.aqcls-3{stroke-width:2.25px}.aqcls-4{fill:#2962ff}</style></defs><title>Asset 29icon</title><g id="aqLayer_2" data-name="Layer 2"><g id="aqLayer_1-2" data-name="Layer 1"><path class="aqcls-1" d="M31.39 21a44.67 44.67 0 0 0-25.56 0c-2.42.74-4.32 2.55-4.33 5v17.85c0 .05 8 0 8 0h18s7.79.18 8 0V26.14A5.42 5.42 0 0 0 31.39 21z"/><circle class="aqcls-2" cx="18.45" cy="10.19" r="8.69"/><path class="aqcls-3" d="M18.84 22.64c-.27 0 .29 0 0 0 0 .38-.12.58-.42.58a.54.54 0 0 1-.58-.58c-.18 0 .21 0 0 0a5.49 5.49 0 0 1-1 1l1.5 1.92 1.5-1.92z"/><path class="aqcls-4" d="M17.84 26.36h1l2 8.5-2.5 2.5-2.5-2.5 2-8.5z"/></g></g></svg><view id="icon--linkedin" viewBox="237.62 184.68 50.7 50"/><svg viewBox="-10 -10 50.7 50" width="50.7" height="50" x="237.62" y="184.68"><defs><style>.arcls-1{opacity:.7}.arcls-2{fill:#1359bf}</style></defs><title>Asset 1icon</title><g id="arLayer_2" data-name="Layer 2"><g class="arcls-1" id="arLayer_1-2" data-name="Layer 1"><path class="arcls-2" d="M30.7 18.59V30h-7V19.3c0-2.69-1-4.52-3.37-4.52a3.64 3.64 0 0 0-3.41 2.43 4.56 4.56 0 0 0-.22 1.62V30h-7c.09-18.23.13-17.28 0-20h7v3-.07a6.81 6.81 0 0 1 6.15-3.28c4.49 0 7.85 2.84 7.85 8.95zM3.81 0a3.51 3.51 0 1 0-.09 7 3.51 3.51 0 1 0 0-7zM.7 30h6V10h-6zm-.3-.3"/></g></g></svg><view id="icon--mobile" viewBox="0 184.68 92.47 94.35"/><svg viewBox="-10 -10 92.47 94.35" width="92.47" height="94.35" y="184.68"><defs><style>.ascls-1,.ascls-2{fill:none;stroke:#2962ff;stroke-miterlimit:10}.ascls-1{stroke-width:2.85px}.ascls-2{stroke-width:3.35px}</style></defs><title>Asset 13icon</title><g id="asLayer_2" data-name="Layer 2"><g id="asLayer_1-2" data-name="Layer 1"><path class="ascls-1" d="M53.81 70.14l16.61-13.77-8.54-9.49-1.88 1.9L57.92 46l-2.21-6.2L51 30.27l-5.7-4.75-6.2-.52-6.17 3.32L29.51 31l3.94 4.53-14.24-14.14A2.53 2.53 0 0 0 16 21l-1 .83a1.86 1.86 0 0 0-.11 2.73L33.51 45l.42 1.44-.47.47-9.07-6.22-.91-.1c-1.61-.18-3.79.91-3.36 2.47l1.42 2.37 11.39 9.54 6.64 1.9 6.17.47 1.42 2.37-1.9 1.9zM45.74 61.12l14.24-13.29"/><path class="ascls-2" d="M38.67 20.17V7.26a5.58 5.58 0 0 0-5.58-5.58H7.26a5.58 5.58 0 0 0-5.59 5.58v59.83a5.58 5.58 0 0 0 5.58 5.58h25.84a5.58 5.58 0 0 0 5.58-5.58v-5.92M39.17 62.67h-36M39.17 9.67h-37M17.17 5.67h6"/><circle class="ascls-2" cx="20.67" cy="67.67" r="1"/></g></g></svg><view id="icon--mobile_1" viewBox="241.66 348.84999999999997 53 57.65"/><svg viewBox="-10 -10 53 57.65" width="53" height="57.65" x="241.66" y="348.84999999999997"><defs><style>.atcls-1{fill:#2962ff}</style></defs><title>Asset 14icon</title><g id="atLayer_2" data-name="Layer 2"><g id="atLayer_1-2" data-name="Layer 1"><path class="atcls-1" d="M2.55 12.65h-.32A2.24 2.24 0 0 0 0 14.88v9.53a2.24 2.24 0 0 0 2.24 2.24h.53A2.24 2.24 0 0 0 5 24.41v-9.56a2.35 2.35 0 0 0-2.45-2.2zm.3-.46M6 28.6a2 2 0 0 0 2 2h2v4.77a2.23 2.23 0 0 0 2.23 2.23h.53A2.24 2.24 0 0 0 15 35.41v-4.76h3v4.77a2.24 2.24 0 0 0 2.23 2.23h.53A2.24 2.24 0 0 0 23 35.42v-4.77h1.92A2.11 2.11 0 0 0 27 28.53V12.65H6zm.15-.7M21.65 3.27L23.4.57a.37.37 0 0 0-.11-.51.35.35 0 0 0-.51.11L21 3a11.94 11.94 0 0 0-9 0L10.23.17a.36.36 0 0 0-.51-.11.37.37 0 0 0-.11.51l1.74 2.69a8.73 8.73 0 0 0-5.24 8.38h20.78a8.73 8.73 0 0 0-5.24-8.38zM11.68 8a1 1 0 1 1 1-1 1 1 0 0 1-1 1zm9.63 0a1 1 0 1 1 1-1 1 1 0 0 1-1 1zm0 0M30.55 12.65h-.32A2.24 2.24 0 0 0 28 14.88v9.53a2.24 2.24 0 0 0 2.24 2.24h.53A2.24 2.24 0 0 0 33 24.41v-9.56a2.34 2.34 0 0 0-2.45-2.2zm-.31-.46"/></g></g></svg><view id="icon--mobile_2" viewBox="189.66 348.84999999999997 52 59.45"/><svg viewBox="-10 -10 52 59.45" width="52" height="59.45" x="189.66" y="348.84999999999997"><defs><style>.aucls-1{fill:#2962ff}</style></defs><title>Asset 15icon</title><g id="auLayer_2" data-name="Layer 2"><path class="aucls-1" d="M18 3a8.82 8.82 0 0 1 5.79-3 8.71 8.71 0 0 1-2 6.3A7.27 7.27 0 0 1 16 9.09 8.28 8.28 0 0 1 18 3zm11.28 31.56c-1.64 2.4-3.34 4.79-6 4.84s-3.48-1.56-6.49-1.56-4 1.52-6.44 1.62-4.55-2.6-6.2-5c-3.38-4.9-6-13.84-2.49-19.88a9.6 9.6 0 0 1 8.11-4.95c2.54 0 4.94 1.72 6.49 1.72s4.46-2.12 7.53-1.81A9.16 9.16 0 0 1 31 13.45 8.94 8.94 0 0 0 26.73 21 8.7 8.7 0 0 0 32 29a21.74 21.74 0 0 1-2.72 5.61zm0 0" id="auLayer_1-2" data-name="Layer 1"/></g></svg><view id="icon--site" viewBox="0 91.68 108 93"/><svg viewBox="-10 -10 108 93" width="108" height="93" y="91.68"><defs><style>.avcls-1{fill:none;stroke:#2962ff;stroke-miterlimit:10;stroke-width:3px}</style></defs><title>Asset 1icon</title><g id="avLayer_2" data-name="Layer 2"><g id="avLayer_1-2" data-name="Layer 1"><path class="avcls-1" d="M80.5 31V3.7a2.2 2.2 0 0 0-2.2-2.2H3.7a2.2 2.2 0 0 0-2.2 2.2v46.8H48m0 0H1.5v6.25a2.76 2.76 0 0 0 2.75 2.75H48m1 1l-17.33-.09c-.14 1.68.16 5.43-.2 7.27-.33 1.67-.56 1.73-1.45 2.23-.5.28-1.35.66-2.06 1m-2 .63H56"/><path class="avcls-1" d="M72 71.5H50.21c-.95-.87-1.71-1.64-1.71-2.59V27.18a1.68 1.68 0 0 1 1.68-1.68h28.64a1.68 1.68 0 0 1 1.68 1.68V37"/><path class="avcls-1" d="M69 66.5H53.5v-36h22V37"/><path class="avcls-1" d="M86.5 70.46a1.09 1.09 0 0 1-1.13 1H69.54a1 1 0 0 1-1-1V38.55a1 1 0 0 1 1-1h15.9a1 1 0 0 1 1 1v31.91zM85 66.5H69m0-25h16"/></g></g></svg><view id="icon--site_1" viewBox="64.45 348.84999999999997 65.21 64.87"/><svg viewBox="-10 -10 65.21 64.87" width="65.21" height="64.87" x="64.45" y="348.84999999999997"><defs><style>.awcls-1,.awcls-2{fill:none;stroke:#2962ff;stroke-miterlimit:10}.awcls-1{stroke-width:3px}.awcls-2{stroke-width:2.96px}</style></defs><title>Asset 2icon</title><g id="awLayer_2" data-name="Layer 2"><g id="awLayer_1-2" data-name="Layer 1"><path class="awcls-1" d="M43.47 1.59a29.18 29.18 0 0 0-9.79.88l-.4.11A22.36 22.36 0 0 0 21.5 9.87c-3.08 3.57-8.46 13-8.46 13l9.06 9.06s9.85-5.51 13.62-8.65a20.74 20.74 0 0 0 7.16-11.62l.12-.36a26.21 26.21 0 0 0 .47-9.71z"/><path class="awcls-1" d="M17.4 33.95l-7.12-6.91 2.76-4.23 8.98 8.98-4.62 2.16zM24.61 30.93l-.06 10.3 7.14-7.14a7.32 7.32 0 0 0 2.14-5.37l-.3-3.72zM14.61 19.93l-10.78.58L11 13.37a7.32 7.32 0 0 1 5.37-2.14l3.69.3z"/><circle class="awcls-2" cx="30.85" cy="14.5" r="3" transform="rotate(-45 30.852 14.49)"/><path class="awcls-1" d="M8.41 30.97L3.2 36.19M14.52 37.14L9.3 42.36M11.45 34.07l-6.91 6.91"/></g></g></svg><view id="icon--site_2" viewBox="306.81 183.92000000000002 71 63"/><svg viewBox="-10 -10 71 63" width="71" height="63" x="306.81" y="183.92000000000002"><defs><style>.axcls-1,.axcls-2{fill:none;stroke:#2962ff;stroke-miterlimit:10;stroke-width:3px}.axcls-2{fill:#fff}</style></defs><title>Asset 3icon</title><g id="axLayer_2" data-name="Layer 2"><g id="axLayer_1-2" data-name="Layer 1"><path class="axcls-1" d="M49 23.5H1"/><rect class="axcls-1" x="1.5" y="8.5" width="48" height="33" rx="3" ry="3"/><path class="axcls-2" d="M22.5 20.5h6v6h-6z"/><path class="axcls-1" d="M16.5 8V3.66a2.16 2.16 0 0 1 2.16-2.16h13.68a2.16 2.16 0 0 1 2.16 2.16V8"/></g></g></svg><view id="icon--site_3" viewBox="137.23000000000002 279.03 66.15 63"/><svg viewBox="-10 -10 66.15 63" width="66.15" height="63" x="137.23000000000002" y="279.03"><defs><style>.aycls-1{fill:none;stroke:#2962ff;stroke-miterlimit:10;stroke-width:3px}</style></defs><title>Asset 4icon</title><g id="ayLayer_2" data-name="Layer 2"><g id="ayLayer_1-2" data-name="Layer 1"><path class="aycls-1" d="M39.83 21.5H6.5v-20h37.78l-4.45 20zM0 1.5h7M6.78 1.5"/><circle class="aycls-1" cx="11.23" cy="39.28" r="2.22"/><circle class="aycls-1" cx="35.67" cy="39.28" r="2.22"/><path class="aycls-1" d="M6.5 21v9M7 30.5h33"/></g></g></svg><view id="icon--site_4" viewBox="306.81 120.92 73 63"/><svg viewBox="-10 -10 73 63" width="73" height="63" x="306.81" y="120.92"><defs><style>.azcls-1,.azcls-2{fill:none;stroke:#2962ff;stroke-miterlimit:10}.azcls-1{stroke-width:3px}.azcls-2{stroke-width:2.99px}.azcls-3{fill:#2962ff}</style></defs><title>Asset 5icon</title><g id="azLayer_2" data-name="Layer 2"><g id="azLayer_1-2" data-name="Layer 1"><path class="azcls-1" d="M51 9.5H1M48 5.5h-2M45 5.5h-2M42 5.5h-2M51.5 41.5h-50V3.33A1.83 1.83 0 0 1 3.33 1.5h46.34a1.83 1.83 0 0 1 1.83 1.83z"/><path class="azcls-2" d="M21 33.5h23M21 28.5h12"/><path class="azcls-3" d="M46 24H7V13h39zm-36-3h33v-5H10zM18 37H7V27h11zm-8-3h5v-4h-5z"/></g></g></svg><view id="icon--smm" viewBox="0 0 111 91.68"/><svg viewBox="-10 -10 111 91.68" width="111" height="91.68"><defs><style>.bacls-1{fill:none;stroke:#2962ff;stroke-miterlimit:10;stroke-width:3px}.bacls-2{fill:#2962ff}</style></defs><title>Asset 16icon</title><g id="baLayer_2" data-name="Layer 2"><g id="baLayer_1-2" data-name="Layer 1"><path class="bacls-1" d="M35.67 22.5H7.87a6.37 6.37 0 0 0-6.37 6.37v24.26a6.37 6.37 0 0 0 6.37 6.37h2.63v9.44l14.8-9.44h19.83a6.37 6.37 0 0 0 6.37-6.37V42.5"/><path class="bacls-2" d="M25.05 30.72H25v15.12a2.58 2.58 0 0 0 2.39 2.58l6.73.48a2.58 2.58 0 0 0 2.78-2.39l.46-6.4a2.58 2.58 0 0 0-2.83-2.75l-6.07.56.21-1.48c.38-2.66-.87-6.81-3.61-5.69zM19 36h5v13h-5z"/><path class="bacls-1" d="M45.87 1.5h37.26a6.37 6.37 0 0 1 6.37 6.37v24.26a6.37 6.37 0 0 1-6.37 6.37H79.5v9.44L64.7 38.5H45.87a6.37 6.37 0 0 1-6.37-6.37V7.87a6.37 6.37 0 0 1 6.37-6.37z"/><path class="bacls-2" d="M74.22 17.76v-.22a5.77 5.77 0 0 0-.22-.64 4.56 4.56 0 0 0-1-1.82V15a4.79 4.79 0 0 0-3.63-1.64C67 13.36 64.93 16 64.3 17h.39c-.62-1-2.7-3.64-5.07-3.64A4.79 4.79 0 0 0 56 15l-.06.07v.05l-.18.23-.19.29v.09a4.48 4.48 0 0 0-.22.41l-.06.11q-.13.32-.24.64a3.25 3.25 0 0 0-.14.65v.22a3.94 3.94 0 0 0 0 .47 4.42 4.42 0 0 0 0 .5c.39 4.78 9.72 11.39 9.72 11.39s9.33-6.61 9.72-11.39a4.67 4.67 0 0 0 0-.5 4.06 4.06 0 0 0-.13-.47z"/></g></g></svg><view id="icon--smm_1" viewBox="326.8 279.03 38.16 60"/><svg viewBox="-10 -10 38.16 60" width="38.16" height="60" x="326.8" y="279.03"><defs><style>.bbcls-1{fill:#2962ff}</style></defs><title>Asset 17icon</title><g id="bbLayer_2" data-name="Layer 2"><path class="bbcls-1" d="M17.44 20H12v20H4V20H0v-7h4V8.41C4 5.14 5.57 0 12.49 0H18v7h-4.3C13 7 12 7.37 12 9v4h6.16zm.25.6" id="bbLayer_1-2" data-name="Layer 1"/></g></svg><view id="icon--smm_2" viewBox="129.66 348.84999999999997 60 60"/><svg viewBox="-10 -10 60 60" width="60" height="60" x="129.66" y="348.84999999999997"><defs><style>.bccls-1{fill:#2962ff}.bccls-2{clip-path:url(#bcclip-path)}</style><clipPath id="bcclip-path"><path class="bccls-1" d="M28.08 0H11.92A11.92 11.92 0 0 0 0 11.92v16.16A11.92 11.92 0 0 0 11.92 40h16.16A11.92 11.92 0 0 0 40 28.08V11.92A11.93 11.93 0 0 0 28.08 0zm0 36H11.89A7.89 7.89 0 0 1 4 28.11V11.89A7.89 7.89 0 0 1 11.89 4h16.22A7.89 7.89 0 0 1 36 11.89v16.22A7.89 7.89 0 0 1 28.11 36zM36 28.21"/></clipPath></defs><title>Asset 18icon</title><g id="bcLayer_2" data-name="Layer 2"><g id="bcLayer_1-2" data-name="Layer 1"><path class="bccls-1" d="M28.08 0H11.92A11.92 11.92 0 0 0 0 11.92v16.16A11.92 11.92 0 0 0 11.92 40h16.16A11.92 11.92 0 0 0 40 28.08V11.92A11.93 11.93 0 0 0 28.08 0zm0 36H11.89A7.89 7.89 0 0 1 4 28.11V11.89A7.89 7.89 0 0 1 11.89 4h16.22A7.89 7.89 0 0 1 36 11.89v16.22A7.89 7.89 0 0 1 28.11 36zM36 28.21"/><g class="bccls-2"><path class="bccls-1" d="M0 0h40v40H0z"/></g><path class="bccls-1" d="M20 9.78a10.35 10.35 0 1 0 10.35 10.35A10.36 10.36 0 0 0 20 9.78zm0 16.67a6.32 6.32 0 1 1 6.32-6.32A6.32 6.32 0 0 1 20 26.45zm0 0M32.85 9.86a2.48 2.48 0 1 1-2.48-2.48 2.48 2.48 0 0 1 2.48 2.48zm0 0"/></g></g></svg><view id="icon--smm_3" viewBox="161.62 184.68 76 52.87"/><svg viewBox="-10 -10 76 52.87" width="76" height="52.87" x="161.62" y="184.68"><defs><style>.bdcls-1{fill:#2962ff}</style></defs><title>Asset 19icon</title><g id="bdLayer_2" data-name="Layer 2"><path class="bdcls-1" d="M55.59 28.9a3.85 3.85 0 0 0-.19-.37 29.09 29.09 0 0 0-5.58-6.45l-.05-.08v-.12h-.07q-1.98-1.88-2.48-2.46A2.3 2.3 0 0 1 46.8 17a22.59 22.59 0 0 1 2.69-3.92q1.23-1.58 1.94-2.54 5.18-6.88 4.49-8.8l-.18-.3a1.75 1.75 0 0 0-.93-.49A4.67 4.67 0 0 0 52.9.87h-8.45s-.33.61-.58.67l-.38.09-.15.07-.12.09a1.27 1.27 0 0 0-.32.31 2 2 0 0 0-.29.51 47.73 47.73 0 0 1-3.13 6.57q-1.08 1.81-2 3.14a15.25 15.25 0 0 1-1.52 2 10.5 10.5 0 0 1-1.11 1c-.33.25-.58.36-.76.32l-.5-.12a1.92 1.92 0 0 1-.66-.72 3.18 3.18 0 0 1-.34-1.14q-.09-.69-.1-1.18v-1.4-1.23-2.41q0-1.3.07-2.06V3.77a6.73 6.73 0 0 0-.1-1.33 4.5 4.5 0 0 0-.31-.93 1.57 1.57 0 0 0-.6-.7 3.35 3.35 0 0 0-1-.4A19.58 19.58 0 0 0 26.79 0q-5.43-.06-7 .7a3.92 3.92 0 0 0-1.11.87q-.52.64-.15.7A3.59 3.59 0 0 1 21 3.54l.17.35a5.5 5.5 0 0 1 .41 1.34 13.48 13.48 0 0 1 .26 2.13 22.52 22.52 0 0 1 0 3.65q-.14 1.52-.28 2.36a4.73 4.73 0 0 1-.39 1.37 5.55 5.55 0 0 1-.35.64.5.5 0 0 1-.15.15 2.17 2.17 0 0 1-.79.15 1.85 1.85 0 0 1-1-.41 7 7 0 0 1-1.21-1.13 15 15 0 0 1-1.42-2q-.79-1.28-1.63-3l-.47-.85q-.44-.82-1.2-2.38t-1.34-3a1.94 1.94 0 0 0-.7-.93l-.15-.09a2.1 2.1 0 0 0-.47-.25c-.22-.09-.67.28-.67.28l-7.83.06a2 2 0 0 0-1.59.5l-.12.17a.94.94 0 0 0-.08.46 2.28 2.28 0 0 0 .17.78q1.73 4.06 3.76 7.83t3.53 6.08q1.5 2.3 3.05 4.35t2.06 2.62c.34.38.6.67.79.86l.72.69a16.91 16.91 0 0 0 2 1.65 34.59 34.59 0 0 0 3 1.9 16.12 16.12 0 0 0 3.79 1.53 13.05 13.05 0 0 0 4.2.47h3.55a4.68 4.68 0 0 0 1.55-.68l.12-.15a1.93 1.93 0 0 0 .22-.54 3 3 0 0 0 .1-.8 9.69 9.69 0 0 1 .19-2.26 5.93 5.93 0 0 1 .5-1.52 3.66 3.66 0 0 1 .63-.86 2.48 2.48 0 0 1 .5-.42l.23-.1a1.86 1.86 0 0 1 1.65.45 9.78 9.78 0 0 1 1.78 1.69q.83 1 2 2.26a13.93 13.93 0 0 0 2 1.87l.58.35a7.06 7.06 0 0 0 1.52.64 6.8 6.8 0 0 1 1.63 1.07h7.48s1.31-1.16 1.72-1.4a1.45 1.45 0 0 0 .73-.8 2.26 2.26 0 0 0 0-1 3.79 3.79 0 0 0-.2-.77zm0 0" id="bdLayer_1-2" data-name="Layer 1"/></g></svg></svg>