<?xml version="1.0" encoding="utf-8"?>
<!-- Generator: Adobe Illustrator 21.0.0, SVG Export Plug-In . SVG Version: 6.00 Build 0)  -->
<svg version="1.1" id="Layer_1" xmlns="http://www.w3.org/2000/svg" xmlns:xlink="http://www.w3.org/1999/xlink" x="0px" y="0px"
	 viewBox="0 0 453 409" style="enable-background:new 0 0 453 409;" xml:space="preserve">
<style type="text/css">
	.st0{display:none;}
	.st1{display:inline;fill:#D3D3D3;}
	.st2{fill:#0E1D49;}
	.st3{display:none;clip-path:url(#SVGID_2_);}
	.st4{display:inline;}
	.st5{fill:#221C6B;}
	.st6{clip-path:url(#SVGID_4_);}
	.st7{opacity:0.25;clip-path:url(#SVGID_8_);}
	.st8{fill:#00112D;}
	.st9{opacity:0.6;}
	.st10{fill:#FFFFFF;}
	.st11{clip-path:url(#SVGID_4_);fill:#FFFFFF;}
	.st12{fill:#0BDBA0;}
	.st13{opacity:0.8;clip-path:url(#SVGID_4_);}
	.st14{opacity:0.5;clip-path:url(#SVGID_4_);}
	.st15{opacity:0.7;clip-path:url(#SVGID_4_);}
	.st16{fill:none;stroke:#FFFFFF;stroke-width:2;stroke-miterlimit:10;}
	
		.st17{opacity:0.4;clip-path:url(#SVGID_4_);fill:none;stroke:#FFFFFF;stroke-miterlimit:10;stroke-dasharray:3,3;enable-background:new    ;}
	.st18{fill:#F6F7FB;}
	.st19{fill:none;}
	.st20{fill:none;stroke:#DAE1E8;stroke-width:1.0016;stroke-miterlimit:10;}
	.st21{opacity:0.7;}
	.st22{fill:#1359BF;}
	.st23{clip-path:url(#SVGID_12_);}
	.st24{fill:#2962FF;}
	.st25{fill:none;stroke:#2962FF;stroke-width:3;stroke-miterlimit:10;}
	.st26{fill:#FFFFFF;stroke:#2962FF;stroke-width:3;stroke-miterlimit:10;}
	.st27{fill:none;stroke:#2962FF;stroke-width:2.9921;stroke-miterlimit:10;}
	.st28{fill:none;stroke:#2962FF;stroke-width:2.9614;stroke-miterlimit:10;}
	.st29{fill:none;stroke:#2962FF;stroke-width:2.9758;stroke-miterlimit:10;}
	.st30{fill:none;stroke:#2962FF;stroke-width:2.8477;stroke-miterlimit:10;}
	.st31{fill:none;stroke:#2962FF;stroke-width:3.3482;stroke-miterlimit:10;}
	.st32{clip-path:url(#SVGID_14_);}
	.st33{fill:none;stroke:#2962FF;stroke-width:2.9214;stroke-miterlimit:10;}
	.st34{fill:none;stroke:#2962FF;stroke-width:2.9658;stroke-miterlimit:10;}
	.st35{fill:none;stroke:#2962FF;stroke-width:2.2508;stroke-linecap:square;stroke-miterlimit:10;}
	.st36{fill:none;stroke:#2962FF;stroke-width:3.0914;stroke-miterlimit:10;}
</style>
<g id="Layer_1_1_">
</g>
<g id="Layer_3" class="st0">
	<rect class="st1" width="453" height="409"/>
	
		<image style="display:inline;overflow:visible;enable-background:new    ;" width="1888" height="1704" xlink:href="sprite.png"  transform="matrix(0.2399 0 0 0.24 0 0)">
	</image>
</g>
<g>
	<g>
		<g>
			<rect x="-701.2" y="2295.9" class="st2" width="1400" height="352"/>
			<g id="Layer_2">
				<g>
					<defs>
						<rect id="SVGID_1_" x="-701.2" y="2295.8" width="1400" height="352.8"/>
					</defs>
					<clipPath id="SVGID_2_">
						<use xlink:href="#SVGID_1_"  style="overflow:visible;"/>
					</clipPath>
					<g class="st3">
						<g class="st4">
							<g>
								<polygon class="st5" points="491,2348.4 456.7,2379.6 514.2,2379.6 514.2,2743.5 150.3,2743.5 150.3,2379.6 401.7,2379.6 
									436,2348.4 119.1,2348.4 119.1,2774.6 545.3,2774.6 545.3,2348.4 								"/>
								<g>
									
										<text transform="matrix(1 3.000000e-05 0 1 221.9961 2682.6589)" class="st5" style="font-family:'Lato-Heavy'; font-size:311.8836px;">N</text>
								</g>
							</g>
						</g>
					</g>
				</g>
				<g>
					<defs>
						<rect id="SVGID_3_" x="-701.2" y="2295.8" width="1400" height="352.8"/>
					</defs>
					<clipPath id="SVGID_4_">
						<use xlink:href="#SVGID_3_"  style="overflow:visible;"/>
					</clipPath>
					<g class="st6">
						<g>
							<defs>
								<rect id="SVGID_6_" x="-701.2" y="2295.8" width="1400" height="350.1"/>
							</defs>
							<clipPath id="SVGID_8_">
								<use xlink:href="#SVGID_6_"  style="overflow:visible;"/>
							</clipPath>
							<g class="st7">
								<polygon class="st8" points="574,4563.3 467.8,4295.3 106.9,4284.6 82.5,3834.5 -338.2,3865.8 -269.6,3434.8 -571.6,3487.4 
									-513.4,3203.5 -654.6,3236 -617.7,3055.9 -967.7,3121.6 -932.6,2921 -1190.4,2954.4 -1153.3,2565.7 -1418.6,2538.4 
									-1429.2,2346.6 -1679.4,2362.5 -1706.9,2110.4 -2023.3,2102.1 -2027.2,1896.4 -1997.5,1866.7 -1993.5,2072.5 
									-1679.6,2080.8 -1652.5,2330.4 -1400.6,2314.4 -1389.8,2510.9 -1120.3,2538.7 -1156.6,2919.5 -895.5,2885.7 -930.2,3083.6 
									-578.9,3017.7 -615.3,3195.7 -474.1,3163.3 -532.9,3449.8 -232.9,3397.6 -302.2,3832.6 111.1,3801.9 135.6,4255.2 
									488.5,4265.6 597.3,4540 								"/>
								<polygon class="st8" points="649.3,4488 543.1,4220 182.1,4209.4 157.8,3759.2 -262.9,3790.5 -194.3,3359.5 -496.4,3412.1 
									-438.1,3128.2 -579.3,3160.7 -542.5,2980.6 -892.5,3046.3 -857.3,2845.8 -1115.2,2879.2 -1078.1,2490.5 -1343.4,2463.1 
									-1354,2271.4 -1604.2,2287.3 -1631.6,2035.2 -1948,2026.8 -1951.9,1821.1 -1922.2,1791.4 -1918.3,1997.3 -1604.4,2005.6 
									-1577.3,2255.2 -1325.4,2239.2 -1314.5,2435.6 -1045,2463.4 -1081.4,2844.2 -820.3,2810.4 -855,3008.4 -503.6,2942.4 
									-540.1,3120.5 -398.9,3088 -457.6,3374.6 -157.6,3322.3 -226.9,3757.4 186.4,3726.6 210.9,4179.9 563.8,4190.3 
									672.5,4464.8 								"/>
								<polygon class="st8" points="724.6,4412.7 618.4,4144.8 257.4,4134.1 233,3683.9 -187.7,3715.3 -119.1,3284.3 
									-421.1,3336.9 -362.9,3053 -504,3085.4 -467.2,2905.4 -817.2,2971.1 -782.1,2770.5 -1039.9,2803.9 -1002.8,2415.2 
									-1268.1,2387.8 -1278.7,2196.1 -1528.9,2212 -1556.3,1959.9 -1872.8,1951.5 -1876.7,1745.9 -1846.9,1716.1 -1843,1922 
									-1529.1,1930.3 -1502,2179.9 -1250.1,2163.9 -1239.3,2360.4 -969.8,2388.1 -1006.1,2769 -745,2735.2 -779.7,2933.1 
									-428.4,2867.2 -464.8,3045.2 -323.6,3012.8 -382.4,3299.3 -82.4,3247.1 -151.7,3682.1 261.6,3651.4 286.2,4104.7 
									639,4115.1 747.8,4389.5 								"/>
								<polygon class="st8" points="799.8,4337.5 693.6,4069.5 332.6,4058.9 308.3,3608.7 -112.4,3640 -43.8,3209 -345.9,3261.6 
									-287.6,2977.7 -428.8,3010.2 -391.9,2830.1 -741.9,2895.8 -706.8,2695.3 -964.7,2728.7 -927.6,2339.9 -1192.9,2312.6 
									-1203.4,2120.9 -1453.7,2136.7 -1481.1,1884.7 -1797.5,1876.3 -1801.4,1670.6 -1771.7,1640.9 -1767.8,1846.8 
									-1453.9,1855.1 -1426.7,2104.6 -1174.9,2088.7 -1164,2285.1 -894.5,2312.9 -930.8,2693.7 -669.8,2659.9 -704.5,2857.9 
									-353.1,2791.9 -389.5,2970 -248.3,2937.5 -307.1,3224 -7.1,3171.8 -76.4,3606.9 336.9,3576.1 361.4,4029.4 714.3,4039.8 
									823.1,4314.3 								"/>
								<polygon class="st8" points="875.1,4262.2 768.9,3994.2 407.9,3983.6 383.6,3533.4 -37.2,3564.7 31.4,3133.8 -270.6,3186.4 
									-212.3,2902.4 -353.5,2934.9 -316.7,2754.8 -666.7,2820.5 -631.5,2620 -889.4,2653.4 -852.3,2264.7 -1117.6,2237.3 
									-1128.2,2045.6 -1378.4,2061.5 -1405.8,1809.4 -1722.3,1801 -1726.2,1595.4 -1696.4,1565.6 -1692.5,1771.5 -1378.6,1779.8 
									-1351.5,2029.4 -1099.6,2013.4 -1088.7,2209.8 -819.2,2237.6 -855.6,2618.5 -594.5,2584.6 -629.2,2782.6 -277.8,2716.6 
									-314.3,2894.7 -173.1,2862.2 -231.9,3148.8 68.1,3096.5 -1.1,3531.6 412.2,3500.9 436.7,3954.1 789.5,3964.5 898.3,4239 
																	"/>
								<polygon class="st8" points="950.3,4187 844.1,3919 483.2,3908.3 458.8,3458.2 38.1,3489.5 106.7,3058.5 -195.4,3111.1 
									-137.1,2827.2 -278.3,2859.7 -241.4,2679.6 -591.4,2745.3 -556.3,2544.7 -814.1,2578.1 -777,2189.4 -1042.3,2162.1 
									-1052.9,1970.4 -1303.2,1986.2 -1330.6,1734.1 -1647,1725.8 -1650.9,1520.1 -1621.2,1490.4 -1617.2,1696.2 -1303.4,1704.5 
									-1276.2,1954.1 -1024.3,1938.2 -1013.5,2134.6 -744,2162.4 -780.3,2543.2 -519.2,2509.4 -553.9,2707.3 -202.6,2641.4 
									-239,2819.5 -97.8,2787 -156.6,3073.5 143.4,3021.3 74.1,3456.3 487.4,3425.6 511.9,3878.9 864.8,3889.3 973.6,4163.7 
																	"/>
								<polygon class="st8" points="1025.6,4111.7 919.4,3843.7 558.4,3833.1 534.1,3382.9 113.3,3414.2 182,2983.2 -120.1,3035.8 
									-61.8,2751.9 -203,2784.4 -166.2,2604.3 -516.2,2670 -481,2469.5 -738.9,2502.9 -701.8,2114.2 -967.1,2086.8 -977.7,1895.1 
									-1227.9,1911 -1255.3,1658.9 -1571.7,1650.5 -1575.6,1444.8 -1545.9,1415.1 -1542,1621 -1228.1,1629.3 -1201,1878.9 
									-949.1,1862.9 -938.2,2059.3 -668.7,2087.1 -705.1,2467.9 -444,2434.1 -478.7,2632.1 -127.3,2566.1 -163.8,2744.2 
									-22.6,2711.7 -81.4,2998.3 218.7,2946 149.4,3381.1 562.7,3350.3 587.2,3803.6 940.1,3814 1048.8,4088.5 								"/>
								<polygon class="st8" points="1100.9,4036.4 994.7,3768.5 633.7,3757.8 609.3,3307.7 188.6,3339 257.2,2908 -44.8,2960.6 
									13.4,2676.7 -127.7,2709.1 -90.9,2529.1 -440.9,2594.8 -405.8,2394.2 -663.6,2427.6 -626.5,2038.9 -891.8,2011.6 
									-902.4,1819.8 -1152.6,1835.7 -1180,1583.6 -1496.5,1575.3 -1500.4,1369.6 -1470.6,1339.8 -1466.7,1545.7 -1152.8,1554 
									-1125.7,1803.6 -873.8,1787.6 -863,1984.1 -593.5,2011.8 -629.8,2392.7 -368.7,2358.9 -403.4,2556.8 -52.1,2490.9 
									-88.5,2668.9 52.7,2636.5 -6.1,2923 293.9,2870.8 224.6,3305.8 637.9,3275.1 662.4,3728.4 1015.3,3738.8 1124.1,4013.2 
																	"/>
								<polygon class="st8" points="1176.1,3961.2 1069.9,3693.2 708.9,3682.6 684.6,3232.4 263.9,3263.7 332.5,2832.7 
									30.4,2885.3 88.7,2601.4 -52.5,2633.9 -15.6,2453.8 -365.6,2519.5 -330.5,2319 -588.4,2352.4 -551.3,1963.6 -816.6,1936.3 
									-827.1,1744.6 -1077.4,1760.5 -1104.8,1508.4 -1421.2,1500 -1425.1,1294.3 -1395.4,1264.6 -1391.5,1470.5 -1077.6,1478.8 
									-1050.4,1728.4 -798.6,1712.4 -787.7,1908.8 -518.2,1936.6 -554.5,2317.4 -293.5,2283.6 -328.2,2481.6 23.2,2415.6 
									-13.2,2593.7 128,2561.2 69.2,2847.7 369.2,2795.5 299.9,3230.6 713.2,3199.8 737.7,3653.1 1090.6,3663.5 1199.3,3938 
																	"/>
								<polygon class="st8" points="1251.4,3885.9 1145.2,3617.9 784.2,3607.3 759.9,3157.1 339.1,3188.4 407.7,2757.5 
									105.7,2810.1 163.9,2526.2 22.8,2558.6 59.6,2378.6 -290.4,2444.2 -255.2,2243.7 -513.1,2277.1 -476,1888.4 -741.3,1861 
									-751.9,1669.3 -1002.1,1685.2 -1029.5,1433.1 -1346,1424.7 -1349.9,1219.1 -1320.1,1189.3 -1316.2,1395.2 -1002.3,1403.5 
									-975.2,1653.1 -723.3,1637.1 -712.5,1833.5 -443,1861.3 -479.3,2242.2 -218.2,2208.3 -252.9,2406.3 98.5,2340.4 62,2518.4 
									203.2,2485.9 144.4,2772.5 444.4,2720.3 375.2,3155.3 788.4,3124.6 813,3577.8 1165.8,3588.2 1274.6,3862.7 								"/>
								<polygon class="st8" points="1326.6,3810.7 1220.4,3542.7 859.5,3532 835.1,3081.9 414.4,3113.2 483,2682.2 180.9,2734.8 
									239.2,2450.9 98,2483.4 134.9,2303.3 -215.1,2369 -180,2168.4 -437.8,2201.8 -400.8,1813.1 -666,1785.8 -676.6,1594.1 
									-926.9,1609.9 -954.3,1357.8 -1270.7,1349.5 -1274.6,1143.8 -1244.9,1114.1 -1241,1320 -927.1,1328.3 -899.9,1577.8 
									-648,1561.9 -637.2,1758.3 -367.7,1786.1 -404,2166.9 -142.9,2133.1 -177.6,2331 173.7,2265.1 137.3,2443.2 278.5,2410.7 
									219.7,2697.2 519.7,2645 450.4,3080.1 863.7,3049.3 888.2,3502.6 1241.1,3513 1349.9,3787.5 								"/>
								<polygon class="st8" points="1401.9,3735.4 1295.7,3467.4 934.7,3456.8 910.4,3006.6 489.6,3037.9 558.3,2607 256.2,2659.5 
									314.5,2375.6 173.3,2408.1 210.1,2228 -139.9,2293.7 -104.7,2093.2 -362.6,2126.6 -325.5,1737.9 -590.8,1710.5 
									-601.4,1518.8 -851.6,1534.7 -879,1282.6 -1195.4,1274.2 -1199.3,1068.5 -1169.6,1038.8 -1165.7,1244.7 -851.8,1253 
									-824.7,1502.6 -572.8,1486.6 -561.9,1683 -292.4,1710.8 -328.8,2091.6 -67.7,2057.8 -102.4,2255.8 249,2189.8 212.5,2367.9 
									353.7,2335.4 294.9,2622 595,2569.7 525.7,3004.8 939,2974 963.5,3427.3 1316.4,3437.7 1425.1,3712.2 								"/>
								<polygon class="st8" points="1477.2,3660.2 1371,3392.2 1010,3381.5 985.6,2931.4 564.9,2962.7 633.5,2531.7 331.5,2584.3 
									389.7,2300.4 248.5,2332.9 285.4,2152.8 -64.6,2218.5 -29.5,2017.9 -287.3,2051.3 -250.2,1662.6 -515.5,1635.3 
									-526.1,1443.5 -776.3,1459.4 -803.8,1207.3 -1120.2,1199 -1124.1,993.3 -1094.3,963.5 -1090.4,1169.4 -776.5,1177.7 
									-749.4,1427.3 -497.5,1411.3 -486.7,1607.8 -217.2,1635.6 -253.5,2016.4 7.6,1982.6 -27.1,2180.5 324.2,2114.6 
									287.8,2292.6 429,2260.2 370.2,2546.7 670.2,2494.5 600.9,2929.5 1014.2,2898.8 1038.7,3352.1 1391.6,3362.5 1500.4,3636.9 
																	"/>
								<polygon class="st8" points="1552.4,3584.9 1446.2,3316.9 1085.2,3306.3 1060.9,2856.1 640.2,2887.4 708.8,2456.4 
									406.7,2509 465,2225.1 323.8,2257.6 360.7,2077.5 10.6,2143.2 45.8,1942.7 -212.1,1976.1 -175,1587.4 -440.3,1560 
									-450.8,1368.3 -701.1,1384.2 -728.5,1132.1 -1044.9,1123.7 -1048.8,918 -1019.1,888.3 -1015.2,1094.2 -701.3,1102.5 
									-674.1,1352.1 -422.3,1336.1 -411.4,1532.5 -141.9,1560.3 -178.2,1941.1 82.8,1907.3 48.1,2105.3 399.5,2039.3 
									363.1,2217.4 504.3,2184.9 445.5,2471.5 745.5,2419.2 676.2,2854.3 1089.5,2823.5 1114,3276.8 1466.9,3287.2 1575.6,3561.7 
																	"/>
								<polygon class="st8" points="1627.7,3509.6 1521.5,3241.7 1160.5,3231 1136.1,2780.8 715.4,2812.2 784,2381.2 482,2433.8 
									540.2,2149.9 399.1,2182.3 435.9,2002.3 85.9,2068 121.1,1867.4 -136.8,1900.8 -99.7,1512.1 -365,1484.7 -375.6,1293 
									-625.8,1308.9 -653.2,1056.8 -969.7,1048.4 -973.6,842.8 -943.8,813 -939.9,1018.9 -626,1027.2 -598.9,1276.8 -347,1260.8 
									-336.2,1457.2 -66.7,1485 -103,1865.9 158.1,1832.1 123.4,2030 474.8,1964.1 438.3,2142.1 579.5,2109.7 520.7,2396.2 
									820.7,2344 751.5,2779 1164.7,2748.3 1189.3,3201.6 1542.1,3212 1650.9,3486.4 								"/>
								<polygon class="st8" points="1702.9,3434.4 1596.7,3166.4 1235.8,3155.8 1211.4,2705.6 790.7,2736.9 859.3,2305.9 
									557.2,2358.5 615.5,2074.6 474.3,2107.1 511.2,1927 161.2,1992.7 196.3,1792.2 -61.5,1825.5 -24.5,1436.8 -289.7,1409.5 
									-300.3,1217.8 -550.6,1233.6 -578,981.6 -894.4,973.2 -898.3,767.5 -868.6,737.8 -864.7,943.7 -550.8,952 -523.6,1201.5 
									-271.7,1185.6 -260.9,1382 8.6,1409.8 -27.7,1790.6 233.3,1756.8 198.7,1954.7 550,1888.8 513.6,2066.9 654.8,2034.4 
									596,2320.9 896,2268.7 826.7,2703.8 1240,2673 1264.5,3126.3 1617.4,3136.7 1726.2,3411.2 								"/>
								<polygon class="st8" points="1778.2,3359.1 1672,3091.1 1311,3080.5 1286.7,2630.3 865.9,2661.6 934.6,2230.7 632.5,2283.3 
									690.8,1999.3 549.6,2031.8 586.4,1851.7 236.4,1917.4 271.6,1716.9 13.7,1750.3 50.8,1361.6 -214.5,1334.2 -225.1,1142.5 
									-475.3,1158.4 -502.7,906.3 -819.1,897.9 -823.1,692.3 -793.3,662.5 -789.4,868.4 -475.5,876.7 -448.4,1126.3 
									-196.5,1110.3 -185.6,1306.7 83.9,1334.5 47.5,1715.3 308.6,1681.5 273.9,1879.5 625.3,1813.5 588.8,1991.6 730,1959.1 
									671.2,2245.7 971.2,2193.4 902,2628.5 1315.3,2597.8 1339.8,3051 1692.6,3061.4 1801.4,3335.9 								"/>
								<polygon class="st8" points="1853.5,3283.9 1747.3,3015.9 1386.3,3005.2 1361.9,2555.1 941.2,2586.4 1009.8,2155.4 
									707.8,2208 766,1924.1 624.8,1956.6 661.7,1776.5 311.7,1842.2 346.8,1641.6 89,1675 126.1,1286.3 -139.2,1259 
									-149.8,1067.3 -400,1083.1 -427.5,831 -743.9,822.7 -747.8,617 -718.1,587.3 -714.1,793.1 -400.2,801.4 -373.1,1051 
									-121.2,1035 -110.4,1231.5 159.1,1259.3 122.8,1640.1 383.9,1606.3 349.2,1804.2 700.5,1738.3 664.1,1916.4 805.3,1883.9 
									746.5,2170.4 1046.5,2118.2 977.2,2553.2 1390.5,2522.5 1415,2975.8 1767.9,2986.2 1876.7,3260.6 								"/>
								<polygon class="st8" points="1928.7,3208.6 1822.5,2940.6 1461.5,2930 1437.2,2479.8 1016.5,2511.1 1085.1,2080.1 
									783,2132.7 841.3,1848.8 700.1,1881.3 737,1701.2 386.9,1766.9 422.1,1566.4 164.2,1599.8 201.3,1211.1 -64,1183.7 
									-74.5,992 -324.8,1007.9 -352.2,755.8 -668.6,747.4 -672.5,541.7 -642.8,512 -638.9,717.9 -325,726.2 -297.8,975.8 
									-46,959.8 -35.1,1156.2 234.4,1184 198,1564.8 459.1,1531 424.4,1729 775.8,1663 739.3,1841.1 880.6,1808.6 821.8,2095.2 
									1121.8,2042.9 1052.5,2478 1465.8,2447.2 1490.3,2900.5 1843.2,2910.9 1951.9,3185.4 								"/>
								<polygon class="st8" points="2004,3133.3 1897.8,2865.4 1536.8,2854.7 1512.4,2404.6 1091.7,2435.9 1160.3,2004.9 
									858.3,2057.5 916.5,1773.6 775.4,1806 812.2,1626 462.2,1691.7 497.3,1491.1 239.5,1524.5 276.6,1135.8 11.3,1108.5 
									0.7,916.7 -249.5,932.6 -276.9,680.5 -593.4,672.2 -597.3,466.5 -567.5,436.7 -563.6,642.6 -249.7,650.9 -222.6,900.5 
									29.3,884.5 40.1,1081 309.6,1108.7 273.3,1489.6 534.4,1455.8 499.7,1653.7 851,1587.8 814.6,1765.8 955.8,1733.4 
									897,2019.9 1197,1967.7 1127.8,2402.7 1541,2372 1565.6,2825.3 1918.4,2835.7 2027.2,3110.1 								"/>
							</g>
						</g>
					</g>
					<g class="st6">
						<g>
							<g>
								<g>
									
										<text transform="matrix(1 0 0 1 -517.0547 2430.6538)" class="st10" style="font-family:'Roboto-BoldCondensed'; font-size:30px;">Nambawan</text>
								</g>
								<g class="st9">
									
										<text transform="matrix(1 0 0 1 -515.6016 2449.8218)" class="st10" style="font-family:'Raleway-Light'; font-size:13px;">Маркетинговое агенство</text>
								</g>
							</g>
						</g>
						<g>
							<g>
								<g>
									<polygon class="st10" points="-543.3,2405.4 -547.1,2408.8 -540.8,2408.8 -540.8,2448.9 -580.9,2448.9 -580.9,2408.8 
										-553.2,2408.8 -549.4,2405.4 -584.3,2405.4 -584.3,2452.4 -537.3,2452.4 -537.3,2405.4 									"/>
									<g>
										
											<text transform="matrix(1 3.000000e-05 0 1 -572.9819 2442.2129)" class="st10" style="font-family:'Lato-Heavy'; font-size:34.3902px;">N</text>
									</g>
								</g>
							</g>
						</g>
					</g>
					<rect x="214.8" y="2474.9" class="st11" width="220" height="44"/>
					<g class="st6">
						<g>
							
								<image style="overflow:visible;opacity:0.3;enable-background:new    ;" width="193" height="106" xlink:href="42B8F287.png"  transform="matrix(1 0 0 1 421 2453)">
							</image>
							<path class="st12" d="M451.8,2496.1c0,12.4,10.1,22.5,22.5,22.5H561c12.4,0,22.5-10.1,22.5-22.5c0-12.4-10-22.5-22.5-22.5
								h-86.7C461.8,2473.6,451.8,2483.7,451.8,2496.1C451.8,2496.1,451.8,2483.7,451.8,2496.1z"/>
						</g>
						<text transform="matrix(1 0 0 1 471.7568 2499.856)" class="st10" style="font-family:'Raleway-ExtraBold'; font-size:12px;">ПОДПИСАТЬСЯ</text>
					</g>
					<g class="st13">
						<text transform="matrix(1 0 0 1 213.7568 2447.8555)" class="st10" style="font-family:'Raleway-Light'; font-size:14px;">Опыт, идеи, новости, обратная связь</text>
					</g>
					<g class="st14">
						<text transform="matrix(1 0 0 1 213.7568 2545.8555)" class="st10" style="font-family:'Raleway-Light'; font-size:14px;">Политика конфиденциальности</text>
					</g>
					<g class="st6">
						<text transform="matrix(1 0 0 1 228.9453 2502.6543)" style="fill:#808080; font-family:'Raleway-Light'; font-size:15px;">Введите E-mail</text>
					</g>
					<g style="clip-path:url(#SVGID_4_);enable-background:new    ;">
						
							<text transform="matrix(1 0 0 1 214.3633 2424.6543)" class="st10" style="font-family:'Raleway-ExtraBold'; font-size:16px;">E-MAIL РАССЫЛКА</text>
					</g>
					<g class="st15">
						
							<text transform="matrix(1 0 0 1 -253.2417 2535.752)" class="st10" style="font-family:'Raleway-ExtraBold'; font-size:16px;">Презентация агенства</text>
						
							<text transform="matrix(1 0 0 1 -253.2417 2535.752)" class="st10" style="font-family:'Raleway-ExtraBold'; font-size:16px;">Презентация агенства</text>
						<path class="st16" d="M-283.9,2531.1c0,14.4,11.7,26,26,26h189.7c14.4,0,26-11.7,26-26c0-14.3-11.7-26-26-26h-189.7
							C-272.2,2505.1-283.9,2516.7-283.9,2531.1C-283.9,2531.1-283.9,2516.7-283.9,2531.1z"/>
					</g>
					<g class="st6">
						<g>
							<text transform="matrix(1 0 0 1 47.7539 2418.6543)" class="st10" style="font-family:'Raleway-Light'; font-size:16px;">Блог</text>
							<text transform="matrix(1 0 0 1 -285.2432 2455.8555)" class="st10" style="font-family:'Raleway-Light'; font-size:16px;">Услуги</text>
							<text transform="matrix(1 0 0 1 -127.2432 2418.6543)" class="st10" style="font-family:'Raleway-Light'; font-size:16px;">Портфолио</text>
							<text transform="matrix(1 0 0 1 -126.6367 2455.8555)" class="st10" style="font-family:'Raleway-Light'; font-size:16px;">Контакты</text>
							<text transform="matrix(1 0 0 1 -285.6367 2418.6543)" class="st10" style="font-family:'Raleway-Light'; font-size:16px;">О нас</text>
						</g>
					</g>
					<line class="st17" x1="215.8" y1="2553.1" x2="420.8" y2="2553.1"/>
				</g>
				<g>
					<rect x="-701.2" y="1600.2" class="st18" width="1400" height="695.7"/>
					<g>
						
							<text transform="matrix(1 0 0 1 -608.4844 2033.3555)" class="st10" style="font-family:'Lato-Black'; font-size:206.2015px;">КОНТАКТЫ</text>
					</g>
					<g>
						<rect x="-358.2" y="1956.1" class="st19" width="714" height="61"/>
						<text transform="matrix(1 0 0 1 -330.8486 1969.0176)" style="fill:#848484; font-family:'Raleway-Light'; font-size:15px;">Свяжитесь с нами удобным способом и мы предложим вам варианты решения вашей задачи, </text>
						<text transform="matrix(1 0 0 1 -229.7486 1993.0176)" style="fill:#848484; font-family:'Raleway-Light'; font-size:15px;">составим смету, а затем поможем в реализации вашего проекта</text>
					</g>
					<g>
						
							<text transform="matrix(1 0 0 1 -453.2979 1822.7686)" style="fill:#333333; font-family:'Raleway-ExtraBold'; font-size:26px;">Звоните</text>
					</g>
					<g>
						
							<text transform="matrix(1 0 0 1 -52.4624 1822.7686)" style="fill:#333333; font-family:'Raleway-ExtraBold'; font-size:26px;">Пишите</text>
					</g>
					<g>
						<text transform="matrix(1 0 0 1 -530.5049 1891.71)" style="fill:#333333; font-family:'Raleway-Light'; font-size:32px;">+375 29 517 65 08</text>
					</g>
					<g>
						<text transform="matrix(1 0 0 1 -153.769 1891.71)" style="fill:#333333; font-family:'Raleway-Light'; font-size:32px;">hello@nambawan.by</text>
					</g>
					<g>
						
							<text transform="matrix(1 0 0 1 297.3091 1822.7686)" style="fill:#333333; font-family:'Raleway-ExtraBold'; font-size:26px;">Обратная связь</text>
					</g>
					<g>
						<text transform="matrix(1 0 0 1 277.8027 1891.71)" style="fill:#333333; font-family:'Raleway-Light'; font-size:32px;">Оставить заявку</text>
					</g>
					<g>
						<g>
							<path class="st20" d="M356.8,2165.9h-716.2c-19.6,0-35.4-15.9-35.4-35.4v-0.2c0-19.6,15.9-35.4,35.4-35.4h716.2
								c19.6,0,35.4,15.9,35.4,35.4v0.2C392.3,2150,376.4,2165.9,356.8,2165.9z"/>
							<line class="st20" x1="-197.5" y1="2094.9" x2="-197.5" y2="2165.9"/>
							<line class="st20" x1="-0.7" y1="2094.9" x2="-0.7" y2="2165.9"/>
							<line class="st20" x1="196" y1="2094.9" x2="196" y2="2165.9"/>
						</g>
						<g class="st21">
							<g>
								<path class="st22" d="M-277.6,2130.7h-4.2v14.6h-6.4v-14.6h-3v-5.4h3v-3.5c0-2.5,1.2-6.4,6.4-6.4h4.7v5.3h-3.4
									c-0.6,0-1.4,0.3-1.4,1.5v3.2h4.8L-277.6,2130.7z"/>
							</g>
						</g>
						<g class="st21">
							<g>
								<g>
									<g>
										<path id="SVGID_5_" class="st22" d="M104.8,2115.4H92.7c-4.9,0-8.9,4-8.9,8.9v12.1c0,4.9,4,8.9,8.9,8.9h12.1
											c4.9,0,8.9-4,8.9-8.9v-12.1C113.8,2119.4,109.7,2115.4,104.8,2115.4L104.8,2115.4z M110.7,2136.4c0,3.3-2.7,5.9-5.9,5.9
											H92.7c-3.3,0-5.9-2.7-5.9-5.9v-12.1c0-3.3,2.7-5.9,5.9-5.9h12.1c3.3,0,5.9,2.7,5.9,5.9V2136.4z"/>
									</g>
									<g>
										<defs>
											<path id="SVGID_10_" d="M104.8,2115.4H92.7c-4.9,0-8.9,4-8.9,8.9v12.1c0,4.9,4,8.9,8.9,8.9h12.1c4.9,0,8.9-4,8.9-8.9
												v-12.1C113.8,2119.4,109.7,2115.4,104.8,2115.4L104.8,2115.4z M110.7,2136.4c0,3.3-2.7,5.9-5.9,5.9H92.7
												c-3.3,0-5.9-2.7-5.9-5.9v-12.1c0-3.3,2.7-5.9,5.9-5.9h12.1c3.3,0,5.9,2.7,5.9,5.9V2136.4z"/>
										</defs>
										<clipPath id="SVGID_12_">
											<use xlink:href="#SVGID_10_"  style="overflow:visible;"/>
										</clipPath>
										<g class="st23">
											<g>
												<rect id="SVGID_7_" x="83.8" y="2115.4" class="st22" width="30" height="30"/>
											</g>
										</g>
									</g>
								</g>
								<g>
									<g>
										<path id="SVGID_9_" class="st22" d="M98.8,2122.6c-4.3,0-7.8,3.5-7.8,7.8c0,4.3,3.5,7.8,7.8,7.8s7.8-3.5,7.8-7.8
											C106.5,2126.1,103,2122.6,98.8,2122.6L98.8,2122.6z M98.8,2135.1c-2.6,0-4.7-2.1-4.7-4.7c0-2.6,2.1-4.7,4.7-4.7
											s4.7,2.1,4.7,4.7C103.5,2133,101.4,2135.1,98.8,2135.1L98.8,2135.1z"/>
									</g>
								</g>
								<g>
									<g id="XMLID_3_" transform="matrix(1 0 0 -1 1440.8164 2449.1643)">
										<path id="SVGID_11_" class="st22" d="M108.4,2122.7c0,1-0.8,1.9-1.9,1.9c-1,0-1.9-0.8-1.9-1.9c0-1,0.8-1.9,1.9-1.9
											S108.4,2121.6,108.4,2122.7L108.4,2122.7z"/>
									</g>
								</g>
							</g>
						</g>
						<g class="st21">
							<g>
								<path class="st22" d="M312.5,2133.7v11.6h-6.7v-10.8c0-2.7-1-4.6-3.4-4.6c-1.9,0-3,1.3-3.5,2.5c-0.2,0.4-0.2,1-0.2,1.6v11.3
									H292c0,0,0.1-18.3,0-20.2h6.7v2.9c0,0,0,0,0,0.1l0,0v-0.1c0.9-1.4,2.5-3.3,6.1-3.3C309.1,2124.6,312.5,2127.5,312.5,2133.7
									L312.5,2133.7z M284.9,2115.4c-2.3,0-3.8,1.5-3.8,3.5c0,1.9,1.5,3.5,3.7,3.5l0,0c2.3,0,3.8-1.6,3.8-3.5
									C288.6,2116.9,287.2,2115.4,284.9,2115.4L284.9,2115.4z M281.5,2145.4h6.7v-20.2h-6.7V2145.4z"/>
							</g>
						</g>
						<g class="st21">
							<g>
								<g>
									<path class="st22" d="M-80.8,2140c-0.1-0.1-0.1-0.2-0.1-0.3c-0.7-1.3-2.1-2.9-4.2-4.8l0,0l0,0l0,0l0,0
										c-0.9-0.9-1.5-1.5-1.8-1.8c-0.5-0.6-0.6-1.2-0.3-1.8c0.2-0.5,0.8-1.4,2-2.9c0.6-0.8,1.1-1.4,1.4-1.9
										c2.5-3.4,3.6-5.5,3.3-6.4l-0.1-0.2c-0.1-0.1-0.3-0.3-0.7-0.4c-0.4-0.1-0.8-0.1-1.4-0.1H-89c-0.1,0-0.2,0-0.4,0
										c-0.2,0-0.3,0.1-0.3,0.1l-0.1,0.1l-0.1,0.1c-0.1,0-0.2,0.1-0.2,0.2c-0.1,0.1-0.2,0.2-0.2,0.4c-0.7,1.8-1.5,3.4-2.3,4.9
										c-0.5,0.9-1,1.7-1.5,2.4s-0.8,1.2-1.1,1.5c-0.3,0.3-0.6,0.6-0.8,0.8c-0.2,0.2-0.4,0.3-0.6,0.2c-0.1,0-0.3-0.1-0.4-0.1
										c-0.2-0.1-0.4-0.3-0.5-0.5c-0.1-0.2-0.2-0.5-0.3-0.9c0-0.3-0.1-0.6-0.1-0.9c0-0.2,0-0.6,0-1.1s0-0.8,0-0.9
										c0-0.6,0-1.2,0-1.8c0-0.6,0-1.2,0.1-1.5c0-0.4,0-0.8,0-1.2c0-0.4,0-0.8-0.1-1c-0.1-0.2-0.1-0.5-0.2-0.7
										c-0.1-0.2-0.3-0.4-0.4-0.5c-0.2-0.1-0.4-0.2-0.7-0.3c-0.8-0.2-1.8-0.3-3-0.3c-2.7,0-4.5,0.1-5.2,0.5
										c-0.3,0.2-0.6,0.4-0.8,0.7c-0.3,0.3-0.3,0.5-0.1,0.5c0.9,0.1,1.5,0.4,1.9,0.9l0.1,0.3c0.1,0.2,0.2,0.5,0.3,1
										c0.1,0.5,0.2,1,0.2,1.6c0.1,1.1,0.1,2,0,2.7c-0.1,0.8-0.1,1.4-0.2,1.8c-0.1,0.4-0.2,0.8-0.3,1c-0.1,0.3-0.2,0.4-0.3,0.5
										c0,0.1-0.1,0.1-0.1,0.1c-0.2,0.1-0.4,0.1-0.6,0.1s-0.5-0.1-0.7-0.3c-0.3-0.2-0.6-0.5-0.9-0.8c-0.3-0.4-0.7-0.9-1.1-1.5
										c-0.4-0.6-0.8-1.4-1.2-2.3l-0.4-0.6c-0.2-0.4-0.5-1-0.9-1.8c-0.4-0.8-0.7-1.5-1-2.3c-0.1-0.3-0.3-0.5-0.5-0.7l-0.1-0.1
										c-0.1-0.1-0.2-0.1-0.4-0.2c-0.2-0.1-0.3-0.1-0.5-0.1h-6c-0.6,0-1,0.1-1.2,0.4l-0.1,0.1c0,0.1-0.1,0.2-0.1,0.4
										s0,0.4,0.1,0.6c0.9,2.1,1.8,4,2.9,6c1,1.9,1.9,3.5,2.7,4.6c0.8,1.2,1.5,2.3,2.3,3.3s1.3,1.7,1.6,2c0.3,0.3,0.5,0.5,0.6,0.7
										l0.5,0.5c0.4,0.4,0.9,0.8,1.5,1.3c0.7,0.5,1.4,1,2.3,1.4c0.8,0.5,1.8,0.9,2.9,1.2s2.2,0.4,3.2,0.4h2.5
										c0.5,0,0.9-0.2,1.2-0.5l0.1-0.1c0.1-0.1,0.1-0.2,0.2-0.4s0.1-0.4,0.1-0.6c0-0.6,0-1.2,0.1-1.7s0.2-0.9,0.4-1.1
										c0.1-0.3,0.3-0.5,0.5-0.6c0.2-0.2,0.3-0.3,0.4-0.3s0.1-0.1,0.2-0.1c0.4-0.1,0.8,0,1.2,0.3c0.5,0.3,0.9,0.8,1.3,1.3
										s0.9,1.1,1.5,1.7c0.6,0.6,1.1,1.1,1.5,1.4l0.4,0.3c0.3,0.2,0.7,0.3,1.1,0.5c0.5,0.1,0.9,0.2,1.2,0.1l5.6-0.1
										c0.6,0,1-0.1,1.3-0.3s0.5-0.4,0.5-0.6c0.1-0.2,0.1-0.5,0-0.7C-80.7,2140.3-80.8,2140.1-80.8,2140L-80.8,2140z"/>
								</g>
							</g>
						</g>
					</g>
					<line class="st19" x1="281.1" y1="1903.6" x2="513.8" y2="1903.6"/>
				</g>
				<g>
					<g>
						<g>
							<rect x="172" y="195" class="st24" width="61" height="61"/>
						</g>
						<g>
							<g>
								<polygon class="st10" points="217,205 214,208 220,208 220,243 185,243 185,208 209,208 212,205 182,205 182,246 223,246 
									223,205 								"/>
								<g>
									<path class="st10" d="M196.9,222.2L197,237h-5v-23h4l12.1,15.1L208,214h5v23h-4L196.9,222.2z"/>
								</g>
							</g>
						</g>
					</g>
				</g>
				<g>
					<g>
						<g>
							<polygon class="st10" points="244,289 241,292 247,292 247,327 212,327 212,292 236,292 239,289 209,289 209,330 250,330 
								250,289 							"/>
							<g>
								<path class="st10" d="M223.9,306.2L224,321h-5v-23h4l12.1,15.1L235,298h5v23h-4L223.9,306.2z"/>
							</g>
						</g>
					</g>
				</g>
				<g>
					<path class="st25" d="M90.6,133v-27.3c0-1.2-1-2.2-2.2-2.2H13.8c-1.2,0-2.2,1-2.2,2.2v46.8h46.5 M58.1,152.5H11.6v6.3
						c0,1.5,1.2,2.7,2.7,2.7h43.8 M41.5,161.5v8.2c0,0-0.6,1.7-1.5,2.2c-0.5,0.3-1.3,0.7-2.1,1l0,0 M36.1,173.5h30"/>
					<path class="st25" d="M82.1,173.5H60.3c-0.9-0.9-1.7-1.6-1.7-2.6v-41.7c0-0.9,0.8-1.7,1.7-1.7h28.6c0.9,0,1.7,0.8,1.7,1.7v9.8"
						/>
					<polyline class="st25" points="79.1,168.5 63.6,168.5 63.6,132.5 85.6,132.5 85.6,139 					"/>
					<path class="st25" d="M96.6,172.5c0,0.6-0.5,1-1.1,1H79.6c-0.6,0-1-0.5-1-1v-31.9c0-0.6,0.5-1,1-1h15.9c0.6,0,1,0.5,1,1
						L96.6,172.5L96.6,172.5z"/>
					<path class="st25" d="M95.1,168.5h-16 M79.1,143.5h16"/>
				</g>
				<g>
					<line class="st25" x1="59" y1="312.5" x2="11" y2="312.5"/>
					<path class="st25" d="M56.5,330.5h-42c-1.7,0-3-1.3-3-3v-27c0-1.7,1.3-3,3-3h42c1.7,0,3,1.3,3,3v27
						C59.5,329.2,58.2,330.5,56.5,330.5z"/>
					<rect x="32.5" y="309.5" class="st26" width="6" height="6"/>
					<path class="st25" d="M26.5,297v-4.3c0-1.2,1-2.2,2.2-2.2h13.7c1.2,0,2.2,1,2.2,2.2v4.3"/>
				</g>
				<g>
					<line class="st25" x1="368" y1="130.5" x2="318" y2="130.5"/>
					<line class="st25" x1="365" y1="126.5" x2="363" y2="126.5"/>
					<line class="st25" x1="362" y1="126.5" x2="360" y2="126.5"/>
					<line class="st25" x1="359" y1="126.5" x2="357" y2="126.5"/>
					<path class="st25" d="M368.5,162.5h-50v-38.2c0-1,0.8-1.8,1.8-1.8h46.3c1,0,1.8,0.8,1.8,1.8v38.2H368.5z"/>
					<line class="st27" x1="338" y1="154.5" x2="361" y2="154.5"/>
					<line class="st27" x1="338" y1="149.5" x2="350" y2="149.5"/>
					<g>
						<path class="st24" d="M363,145h-39v-11h39V145z M327,142h33v-5h-33V142z"/>
					</g>
					<g>
						<path class="st24" d="M335,158h-11v-10h11V158z M327,155h5v-4h-5V155z"/>
					</g>
				</g>
				<g>
					<path class="st25" d="M168.1,353.6c-2.3-0.2-5.8-0.2-9.8,0.9c-0.1,0-0.3,0.1-0.4,0.1c-4.9,1.4-8.5,3.4-11.8,7.3
						c-3.1,3.6-8.5,13-8.5,13l9.1,9.1c0,0,9.9-5.5,13.6-8.6c3.9-3.2,5.9-6.8,7.2-11.6c0-0.1,0.1-0.3,0.1-0.4
						C168.6,359.2,168.4,355.8,168.1,353.6z"/>
					<polygon class="st25" points="142,386 134.9,379 137.7,374.8 146.7,383.8 					"/>
					<path class="st25" d="M148.9,382.8l0.3,10.4l7.1-7.1c1.4-1.4,2.2-3.4,2.1-5.4l-0.3-3.7L148.9,382.8z"/>
					<path class="st25" d="M138.9,372.8l-10.4-0.3l7.1-7.1c1.4-1.4,3.4-2.2,5.4-2.1l3.7,0.3L138.9,372.8z"/>
					
						<ellipse transform="matrix(0.7071 -0.7071 0.7071 0.7071 -213.6098 217.2976)" class="st28" cx="155.5" cy="366.5" rx="3" ry="3"/>
					<g>
						<line class="st25" x1="133.1" y1="383" x2="127.8" y2="388.2"/>
						<line class="st25" x1="139.2" y1="389.1" x2="133.9" y2="394.4"/>
						<line class="st25" x1="136.1" y1="386.1" x2="129.2" y2="393"/>
					</g>
				</g>
				<g>
					<polygon class="st25" points="120.8,310.5 87.5,310.5 87.5,290.5 125.3,290.5 					"/>
					<line class="st25" x1="81" y1="290.5" x2="88" y2="290.5"/>
					<circle class="st25" cx="92.4" cy="328.2" r="2.2"/>
					<circle class="st25" cx="116.8" cy="328.2" r="2.2"/>
					<line class="st25" x1="87.5" y1="310" x2="87.5" y2="319"/>
					<line class="st25" x1="88" y1="319.5" x2="121" y2="319.5"/>
				</g>
				<g>
					<polyline class="st25" points="153.4,55.7 156.5,65.5 151,65.5 					"/>
					<polyline class="st25" points="148.1,55 156.4,81.5 140.4,81.5 135.1,61 					"/>
					<polyline class="st25" points="130.6,54.8 132.3,61.4 148.5,57.5 					"/>
					<polyline class="st25" points="128,30.5 122.5,30.5 122.5,53.5 128,53.5 					"/>
					<polygon class="st25" points="200.5,72.5 196.5,72.5 196.5,10.5 200.5,10.5 					"/>
					<polygon class="st25" points="156.5,27.8 156.5,55.2 196.5,71.3 196.5,11.4 					"/>
					<polygon class="st25" points="156.5,55.5 127.5,55.5 127.5,28.5 156.5,28.5 					"/>
					<line class="st25" x1="131" y1="33.5" x2="147" y2="33.5"/>
				</g>
				<g>
					<path class="st29" d="M179.4,305.6c0.1,0.6,0.1,1.2,0.1,1.8c0,8.6-6.4,15.1-15,15.1s-16-6.5-16-15.1s7.4-15.9,16-15.9
						c4.3,0,7.9,1.8,10.6,4.6"/>
					<line class="st25" x1="175" y1="318.1" x2="186.4" y2="329.5"/>
					<polyline class="st25" points="187,291.6 167.7,310.5 161.9,301.9 154.7,308.4 149,304.4 					"/>
					<polyline class="st25" points="176,289.5 188.5,289.5 188.5,302 					"/>
				</g>
				<g>
					<line class="st25" x1="368" y1="193.5" x2="318" y2="193.5"/>
					<line class="st25" x1="365" y1="189.5" x2="363" y2="189.5"/>
					<line class="st25" x1="362" y1="189.5" x2="360" y2="189.5"/>
					<line class="st25" x1="359" y1="189.5" x2="357" y2="189.5"/>
					<path class="st25" d="M368.5,225.5h-50v-38.2c0-1,0.8-1.8,1.8-1.8h46.3c1,0,1.8,0.8,1.8,1.8v38.2H368.5z"/>
					<rect x="325.5" y="199.5" class="st25" width="12" height="17"/>
					<g>
						<path class="st24" d="M357.8,210.8c-1.8,0.2-3.5,0.3-5.2,0.5c1,2.2,2,4.4,3,6.6c-0.7,0.3-1.3,0.6-2,0.9
							c-1-2.2-1.9-4.4-2.9-6.7c-1.2,1.2-2.4,2.3-3.7,3.5c0-5,0-9.9,0-14.9C350.6,204,354.2,207.4,357.8,210.8z"/>
					</g>
				</g>
				<g>
					<path class="st25" d="M433.8,35.1c0.2,1.1,0.2,1.6,0.2,2.7c0,10.9-8.8,19.8-19.8,19.8s-19.8-8.8-19.8-19.8s9-19.8,19.9-19.8
						c1.2,0,1.8,0,3,0.2"/>
					<path class="st25" d="M425.8,33.6c0.6,1.5,0.7,2.4,0.7,4.1c0,6.8-5.5,12.2-12.3,12.2s-12.3-5.5-12.3-12.2s5.5-12.2,12.3-12.2
						c1.7,0,2.5,0,4,0.7"/>
					<path class="st25" d="M419.8,38.6c-0.7,4.5-6.9,6.3-9.8,2.8c-3.1-3.6-0.1-9.5,4.6-9.3"/>
					<polygon class="st25" points="424.9,27.5 423.1,19.8 430.6,11.9 433.4,19 					"/>
					<line class="st25" x1="431.1" y1="21.3" x2="414.1" y2="38.3"/>
					<polygon class="st25" points="424.9,27.5 432.7,29.6 440.5,21.8 433.4,19 					"/>
				</g>
				<g>
					<circle class="st29" cx="289" cy="306" r="15.5"/>
					<line class="st25" x1="300" y1="316.7" x2="311.4" y2="328"/>
					<polyline class="st29" points="282.2,306.7 287,311.5 296.9,301.6 					"/>
				</g>
				<g>
					<g>
						<path class="st24" d="M431,125h-38V80h37l0,0h1V125z M396,122h32V83h-32V122z"/>
					</g>
					<rect x="410.5" y="92.5" class="st25" width="4" height="3"/>
					<rect x="400.5" y="108.5" class="st25" width="4" height="3"/>
					<rect x="420.5" y="108.5" class="st25" width="4" height="3"/>
					<rect x="410.5" y="108.5" class="st25" width="4" height="3"/>
					<line class="st25" x1="412.5" y1="107" x2="412.5" y2="95"/>
					<polyline class="st25" points="422.5,107.5 422.5,101.5 402.5,101.5 402.5,107.5 					"/>
					<g>
						<path class="st24" d="M430.5,85c0,0-0.2,1.1-0.7,3h3.2v39h-32v-3.1c0.2,0.3-0.8,0.3-1.7,0.1c-0.1,0-0.2,0-1.3-0.1v6.1h38V85
							H430.5z"/>
					</g>
				</g>
				<g>
					<path class="st25" d="M244.4,127.9l7.5,16.1c1.2,2.7,4.4,3.8,7.1,2.6l28.5-13.3c2.7-1.2,3.8-4.4,2.6-7.1l-7.5-16.1
						c-1.2-2.7-4.4-3.8-7.1-2.6L247,120.8C244.3,122.1,243.1,125.2,244.4,127.9z"/>
					<polyline class="st25" points="243.5,125.9 269,131 281.5,108.2 					"/>
					<line class="st25" x1="263.2" y1="129.8" x2="254.9" y2="147.1"/>
					<line class="st25" x1="290.5" y1="130.6" x2="271.9" y2="125.8"/>
					<line class="st25" x1="246" y1="115.5" x2="222" y2="115.5"/>
					<line class="st25" x1="238" y1="123.5" x2="228" y2="123.5"/>
					<line class="st25" x1="241" y1="130.5" x2="234" y2="130.5"/>
				</g>
				<g>
					<g>
						<path class="st30" d="M63.8,265l16.6-13.8l-8.5-9.5l-1.9,1.9l-2.5-2.1l-1.8-6.9l-4.7-9.5l-5.7-4.7l-2.8-0.8
							c-1.5-0.1-4.1,0.8-5.5,1.5l-4.1,2.2l-3.4,2.6l3.9,4.5l-14.2-14.1c-0.8-0.9-2.2-1.1-3.2-0.4l-1,0.8c-0.8,0.7-0.9,2-0.1,2.7l0,0
							l18.6,20.4l0.4,1.4l-0.5,0.5l-9.1-6.2l-0.9-0.1c-1.6-0.2-3.8,0.9-3.4,2.5l1.4,2.4l11.4,9.5l6.6,1.7l6,1l1.7,2l-1.9,1.9
							L63.8,265z"/>
						<line class="st30" x1="55.7" y1="255.9" x2="70" y2="242.7"/>
						<path class="st31" d="M48.5,215v-12.9c0-3.1-2.5-5.6-5.6-5.6H17.1c-3.1,0-5.6,2.5-5.6,5.6v59.8c0,3.1,2.5,5.6,5.6,5.6h25.8
							c3.1,0,5.6-2.5,5.6-5.6V256"/>
						<line class="st31" x1="49" y1="257.5" x2="13" y2="257.5"/>
						<line class="st31" x1="49" y1="204.5" x2="12" y2="204.5"/>
						<line class="st31" x1="27" y1="200.5" x2="33" y2="200.5"/>
						<circle class="st31" cx="30.5" cy="262.5" r="1"/>
					</g>
				</g>
				<g>
					<path class="st24" d="M302.6,367h-0.1c-1.4,0-2.4,1.2-2.4,2.7v11.6c0,1.5,1.1,2.7,2.4,2.7h0.1c1.4,0,2.4-1.2,2.4-2.7v-11.6
						C305,368.2,303.9,367,302.6,367L302.6,367z"/>
					<g>
						<path class="st24" d="M306,386.4c0,1.4,1.2,2.6,2.6,2.6h3.4v7c0,1.6,1.1,3,2.4,3h0.1c1.4,0,2.4-1.3,2.4-3v-7h4v7.2
							c0,1.4,1.1,2.6,2.6,2.6l0,0c1.4,0,2.4-1.3,2.4-2.9V389h3.4c1.4,0,2.6-1.2,2.6-2.6V367h-25.8L306,386.4L306,386.4z"/>
						<path class="st24" d="M325.7,355.6l2.2-3.3c0.1-0.2,0.1-0.5-0.1-0.6s-0.5-0.1-0.6,0.1l-2.3,3.5c-1.7-0.7-3.6-1.1-5.6-1.1
							s-3.9,0.4-5.6,1.1l-2.3-3.5c-0.1-0.2-0.4-0.3-0.6-0.1c-0.2,0.1-0.3,0.4-0.1,0.6l2.2,3.3c-4.2,2-6.8,5.4-6.8,10.4h0.2H331h1
							C332,362,329.9,357.6,325.7,355.6L325.7,355.6z M313.2,362.1c-0.7,0-1.3-0.6-1.3-1.2c0-0.7,0.6-1.2,1.3-1.2
							c0.7,0,1.3,0.5,1.3,1.2C314.4,361.5,313.9,362.1,313.2,362.1L313.2,362.1z M325.3,362.1c-0.7,0-1.3-0.6-1.3-1.2
							c0-0.7,0.6-1.2,1.3-1.2c0.7,0,1.3,0.5,1.3,1.2C326.5,361.5,326,362.1,325.3,362.1L325.3,362.1z"/>
						<path class="st24" d="M335.6,367h-0.1c-1.4,0-2.4,1.2-2.4,2.7v11.6c0,1.5,1.1,2.7,2.4,2.7h0.1c1.4,0,2.4-1.2,2.4-2.7v-11.6
							C338,368.2,336.9,367,335.6,367L335.6,367z"/>
					</g>
				</g>
				<g>
					<g>
						<path class="st24" d="M267.9,355.3c1.7-1.9,7.1-4.3,7.1-4.3c0,4-1.2,6.2-2.8,8.1c-1.6,1.9-6.2,2.9-6.2,2.9
							C266,359,266.4,357,267.9,355.3L267.9,355.3z M281,392.1c-1.9,2.8-3.9,5.6-7,5.6c-3.1,0.1-4.1-1.8-7.6-1.8s-4.6,1.8-7.5,1.9
							c-3,0.1-5.3-3-7.2-5.8c-3.9-5.7-6.9-16.1-2.9-23.2c2-3.5,5.6-5.7,9.5-5.8c3-0.1,5.8,2,7.6,2c1.8,0,5.2-2.5,8.8-2.1
							c1.5,0.1,5.7,0.6,8.4,4.6c-0.2,0.1-5,2.9-4.9,8.8c0.1,7,6.1,9.3,6.1,9.3C284.1,385.7,283.2,388.8,281,392.1L281,392.1z"/>
					</g>
				</g>
				<g>
					<g>
						<g>
							<path class="st24" d="M20,81.7V71h-1.1c-4.3,0-7.9-3.5-7.9-7.9V38.9c0-4.3,3.5-7.9,7.9-7.9H46v3H18.9c-2.7,0-4.9,2.2-4.9,4.9
								v24.3c0,2.7,2.2,4.9,4.9,4.9H23v8.2L35.9,68h20.3c2.7,0,4.9-2.2,4.9-4.9V53h2.8L64,63.2c0,4.3-3.4,7.8-7.8,7.8H36.7L20,81.7z
								"/>
						</g>
						<g>
							<g>
								<path class="st24" d="M36.1,40.7C36,40.7,36,40.7,36.1,40.7L36,55.8c0,1.3,1,2.5,2.4,2.6l6.7,0.5c1.4,0.1,2.7-1,2.8-2.4
									l0.5-6.4c0.1-1.6-1.2-2.9-2.8-2.8l-6.1,0.6l0.2-1.5C40,43.7,38.8,39.6,36.1,40.7L36.1,40.7z"/>
							</g>
							<g>
								<rect x="30" y="46" class="st24" width="5" height="13"/>
							</g>
						</g>
					</g>
					<g>
						<g>
							<path class="st24" d="M92,60.7L75.3,50H56.9c-4.3,0-7.9-3.5-7.9-7.9V17.9c0-4.3,3.5-7.9,7.9-7.9h37.3c4.3,0,7.8,3.7,7.8,8.1
								l-0.1,23.8c0,4.3-3.3,8.2-7.7,8.2H92V60.7z M56.9,13c-2.7,0-4.9,2.2-4.9,4.9v24.3c0,2.7,2.2,4.9,4.9,4.9h19.3L89,55.2V47h5.1
								c2.7,0,4.9-2.2,4.9-4.9V17.9c0-2.7-2.2-4.9-4.9-4.9H56.9z"/>
						</g>
						<g>
							<path class="st24" d="M85.4,27.1c0-0.1,0-0.1,0-0.2c0-0.2-0.1-0.4-0.1-0.6c-0.2-0.7-0.5-1.3-1-1.8c0,0,0,0-0.1-0.1
								c-0.9-1-2.2-1.6-3.6-1.6c-2.4,0-4.4,2.6-5.1,3.6h0.4c-0.6-1-2.7-3.6-5.1-3.6c-1.5,0-2.8,0.6-3.6,1.6c0,0,0,0-0.1,0.1
								c0,0,0,0,0,0.1c-0.1,0.1-0.1,0.1-0.2,0.2s-0.1,0.2-0.2,0.3v0.1c-0.1,0.1-0.2,0.3-0.2,0.4c0,0,0,0.1-0.1,0.1
								c-0.1,0.2-0.2,0.4-0.2,0.6C66,26.4,66,26.6,66,26.8c0,0.1,0,0.2,0,0.2c0,0.2,0,0.3,0,0.5s0,0.3,0,0.5
								c0.4,4.8,9.7,11.4,9.7,11.4S85,32.8,85.4,28c0-0.2,0-0.3,0-0.5C85.4,27.4,85.4,27.2,85.4,27.1z"/>
						</g>
					</g>
				</g>
				<g>
					<g>
						<path class="st24" d="M348,308h-5v20h-8v-20h-4v-7h4v-4.6c0-3.3,1.6-8.4,8.5-8.4h5.5v7h-4.3c-0.7,0-1.7,0.4-1.7,2v4h6.2
							L348,308z"/>
					</g>
				</g>
				<g>
					<g>
						<g>
							<g>
								<path id="SVGID_100_" class="st24" d="M218.1,352h-16.2c-6.6,0-11.9,5.3-11.9,11.9v16.2c0,6.6,5.3,11.9,11.9,11.9h16.2
									c6.6,0,11.9-5.3,11.9-11.9v-16.2C230,357.3,224.7,352,218.1,352L218.1,352z M218.1,388h-16.2c-4.4,0-7.9-3.5-7.9-7.9v-16.2
									c0-4.4,3.5-7.9,7.9-7.9h16.2c4.4,0,7.9,3.5,7.9,7.9v16.2C226,384.5,222.5,388,218.1,388z"/>
							</g>
							<g>
								<defs>
									<path id="SVGID_13_" d="M218.1,352h-16.2c-6.6,0-11.9,5.3-11.9,11.9v16.2c0,6.6,5.3,11.9,11.9,11.9h16.2
										c6.6,0,11.9-5.3,11.9-11.9v-16.2C230,357.3,224.7,352,218.1,352L218.1,352z M218.1,388h-16.2c-4.4,0-7.9-3.5-7.9-7.9v-16.2
										c0-4.4,3.5-7.9,7.9-7.9h16.2c4.4,0,7.9,3.5,7.9,7.9v16.2C226,384.5,222.5,388,218.1,388z"/>
								</defs>
								<clipPath id="SVGID_14_">
									<use xlink:href="#SVGID_13_"  style="overflow:visible;"/>
								</clipPath>
								<g class="st32">
									<g>
										<rect id="SVGID_102_" x="189.2" y="352.1" class="st24" width="40" height="40"/>
									</g>
								</g>
							</g>
						</g>
						<g>
							<g>
								<path id="SVGID_104_" class="st24" d="M209.2,361.8c-5.7,0-10.3,4.6-10.3,10.3c0,5.7,4.6,10.3,10.3,10.3s10.3-4.6,10.3-10.3
									S214.9,361.8,209.2,361.8L209.2,361.8z M209.2,378.4c-3.5,0-6.3-2.8-6.3-6.3s2.8-6.3,6.3-6.3s6.3,2.8,6.3,6.3
									S212.7,378.4,209.2,378.4L209.2,378.4z"/>
							</g>
						</g>
						<g>
							<g>
								<path id="SVGID_106_" class="st24" d="M222,361.9c0,1.4-1.1,2.5-2.5,2.5s-2.5-1.1-2.5-2.5s1.1-2.5,2.5-2.5
									S222,360.5,222,361.9L222,361.9z"/>
							</g>
						</g>
					</g>
				</g>
				<g>
					<g>
						<g>
							<path class="st24" d="M371.9,39c-0.1-0.1-0.1-0.3-0.2-0.4c-1-1.8-2.8-3.9-5.6-6.5L366,32l0,0l0,0l0,0c-1.2-1.2-2-2-2.4-2.4
								c-0.6-0.8-0.7-1.6-0.4-2.4c0.2-0.6,1.1-1.9,2.6-3.8c0.8-1,1.4-1.9,1.9-2.5c3.4-4.5,5.3-6,5.3-8c0,0,0-1-1-1
								c-0.3,0-0.5,0.1-1,0s-3.2-0.1-4,0c0,0-7.7,0.1-7.8,0.2c-0.1,0.1-0.2,0.3-0.3,0.5c-0.9,2.4-2,4.5-3.1,6.6
								c-0.7,1.2-1.4,2.3-2,3.1c-0.6,0.9-1.1,1.5-1.5,2c-0.4,0.4-0.8,0.8-1.1,1c-0.3,0.3-0.6,0.4-0.8,0.3c-0.2,0-0.3-0.1-0.5-0.1
								c-0.3-0.2-0.5-0.4-0.7-0.7c-0.2-0.3-0.3-0.7-0.3-1.1c-0.1-0.5-0.1-0.9-0.1-1.2c0-0.3,0-0.8,0-1.4s0-1,0-1.2
								c0-0.7,0-1.5,0-2.4s0.1-1.6,0.1-2.1s0-1,0-1.6s0-1-0.1-1.3s-0.2-0.6-0.3-0.9c-0.1-0.3-0.3-0.5-0.6-0.7
								c-0.3-0.2-0.6-0.3-1-0.4c-1-0.2-2.3-0.4-3.9-0.4c-3.6,0-5.9,0.2-7,0.7c-0.4,0.2-0.8,0.5-1.1,0.9c-0.3,0.4-0.4,0.7-0.1,0.7
								c1.2,0.2,2,0.6,2.5,1.3l0.2,0.4c0.1,0.3,0.3,0.7,0.4,1.3s0.2,1.4,0.3,2.1c0.1,1.4,0.1,2.6,0,3.7c-0.1,1-0.2,1.8-0.3,2.4
								c-0.1,0.6-0.2,1-0.4,1.4c-0.2,0.4-0.3,0.6-0.4,0.6c-0.1,0.1-0.1,0.1-0.1,0.1c-0.3,0.1-0.5,0.1-0.8,0.1s-0.6-0.1-1-0.4
								s-0.8-0.6-1.2-1.1c-0.4-0.5-0.9-1.1-1.4-2s-1.1-1.9-1.6-3l-0.5-0.8c-0.3-0.5-0.7-1.3-1.2-2.4c-0.5-1-3.1-4-3.3-4h-8
								c-0.8,0-1.8,0.3-1.8,0.3c-0.1,0.1-0.2,0.5-0.2,0.7s0.2,0.3,0.3,0.6c1.2,2.7,2.4,5.4,3.8,7.9c1.4,2.6,2.6,4.6,3.6,6.2
								s2,3,3.1,4.4s1.7,2.3,2.1,2.7c0.3,0.4,0.6,0.7,0.8,0.9l0.7,0.7c0.5,0.5,1.2,1,2.1,1.7s1.9,1.3,3,1.9c1.1,0.6,2.4,1.1,3.8,1.5
								c1.5,0.4,2.9,0.6,4.3,0.5h3.4c0.7-0.1,1.2-0.3,1.5-0.6l0.1-0.1c0.1-0.1,0.2-0.3,0.2-0.5c0.1-0.2,0.1-0.5,0.1-0.8
								c0-0.8,0-1.6,0.2-2.3c0.1-0.7,0.3-1.2,0.5-1.5s0.4-0.6,0.6-0.9c0.2-0.2,0.4-0.4,0.5-0.4s0.2-0.1,0.2-0.1c0.5-0.2,1,0,1.7,0.5
								c0.6,0.5,1.2,1,1.8,1.7c0.6,0.7,1.2,1.4,2,2.3c0.8,0.8,1.5,1.5,2,1.9l0.6,0.3c0.4,0.2,0.9,0.4,1.5,0.6
								c0.6,0.2,1.2,0.2,1.6,0.1l7.5-0.1c0.7,0,1.3-0.1,1.7-0.4c0.4-0.2,0.7-0.5,0.7-0.8c0.1-0.3,0.1-0.6,0-1
								C372,39.4,372,39.2,371.9,39L371.9,39z"/>
						</g>
					</g>
				</g>
				<g>
					<path class="st25" d="M224.2,17.8l3.7,3.7l5.5-5.5l-3.7-3.7c-0.2-0.2-0.7-0.2-1,0.2l-4.3,4.3C224,17.1,224,17.6,224.2,17.8
						L224.2,17.8z M256.4,39l-23-23l-5.5,5.5l23,23 M261.2,54.8l22.5,22.5l5.5-5.5L266.4,49 M283.7,77.4l9.8,4.2l-4.4-9.9
						 M232.5,26.2l5.6-5.6l-4.7-4.7l-5.6,5.6L232.5,26.2L232.5,26.2z"/>
					<polygon class="st25" points="293.8,21.8 233.7,81.9 223.8,72 283.9,11.9 					"/>
					<line class="st25" x1="228.6" y1="68.4" x2="232.5" y2="72.3"/>
					<line class="st25" x1="232.8" y1="64.2" x2="234.9" y2="66.3"/>
					<line class="st25" x1="237" y1="60" x2="240.9" y2="63.9"/>
					<line class="st25" x1="241.2" y1="55.8" x2="243.3" y2="57.9"/>
					<line class="st25" x1="245.4" y1="51.6" x2="249.3" y2="55.5"/>
					<line class="st25" x1="249.6" y1="47.4" x2="251.7" y2="49.5"/>
					<line class="st25" x1="253.8" y1="43.2" x2="257.7" y2="47.1"/>
					<line class="st25" x1="258" y1="39" x2="260.1" y2="41.1"/>
					<line class="st25" x1="262.2" y1="34.8" x2="266.1" y2="38.7"/>
					<line class="st25" x1="266.4" y1="30.5" x2="268.6" y2="32.7"/>
					<line class="st25" x1="270.7" y1="26.3" x2="274.6" y2="30.2"/>
					<line class="st25" x1="274.9" y1="22.1" x2="277" y2="24.2"/>
					<line class="st25" x1="279.1" y1="17.9" x2="283" y2="21.8"/>
				</g>
				<g>
					<g>
						<path class="st25" d="M418,313.3l-1.7-0.8H403 M404,328.5h-9.5v-1.2c1.8-0.3,3.5-1.9,5.2-6.3l13.9-35.5h3.9l14.7,37.9
							c1.1,2.9,3.5,5,4.7,5.1l0,0c-2.4-0.1-17.2-0.1-19.2,0l0,0c2.9-0.1,4.2-1.8,4.2-3.4c0-0.7-0.2-1.6-0.7-2.9l-3.3-9 M417.1,312.1
							l-7-17.4"/>
					</g>
				</g>
				<g>
					<path class="st25" d="M283.3,239.5h-25.5c-2.5,0-4.3-2.2-4-4.6l2.8-22c0.3-1.9,2-3.4,4-3.4h20.3c1.9,0,3.6,1.4,3.9,3.3l2.5,22
						C287.6,237.2,285.8,239.5,283.3,239.5z"/>
					<path class="st25" d="M264.5,214v-11c0-3.6,2.9-6.5,6.5-6.5l0,0c3.6,0,6.5,2.9,6.5,6.5v11"/>
				</g>
				<g>
					<path class="st33" d="M364.5,99.5h-40c-3.3,0-6-2.7-6-6v-23c0-3.3,2.7-6,6-6h40c3.3,0,6,2.7,6,6v23
						C370.5,96.8,367.8,99.5,364.5,99.5z"/>
					<polygon class="st25" points="340.5,75.5 351.6,82 340.5,88.5 					"/>
				</g>
				<g>
					<g>
						<g>
							<path class="st24" d="M47,363H16.5c-3.9,0-6.5-2.2-6.5-5.5s2.6-5.5,6.5-5.5H47v3H16.5c-1.3,0-3.5,0.3-3.5,2.5
								s2.2,2.5,3.5,2.5H47V363z"/>
						</g>
						<path class="st25" d="M11.5,357v37.5c0.8,2,2.7,2,6,2h28V361"/>
						<path class="st25" d="M45.8,353.5c-1,1-2.1,2-2,4.4c0.1,1.9,1.6,2.5,2,3.6"/>
						<line class="st25" x1="18" y1="371.5" x2="39" y2="371.5"/>
						<line class="st25" x1="18" y1="376.5" x2="39" y2="376.5"/>
						<line class="st25" x1="18" y1="381.5" x2="30" y2="381.5"/>
					</g>
				</g>
				<g>
					<g>
						<path class="st25" d="M139.9,244c0,0.8-0.7,1.5-1.5,2.5h-23.3c-0.8-1-1.5-1.7-1.5-2.5l0,0c0-0.8,0.7-1.5,1.5-1.5h23.3
							C139.2,242.5,139.9,243.2,139.9,244L139.9,244L139.9,244z M149.8,265c0,0.8-0.7,1.5-1.6,1.5h-42.9c-0.9,0-1.6-0.7-1.6-1.5l0,0
							c0-0.8,0.7-2.5,1.6-2.5h42.9C149.1,262.5,149.8,264.2,149.8,265L149.8,265L149.8,265z M113.6,244c0-0.8,0.7-1.5,1.5-1.5h23.3
							c0.8,0,1.5,0.7,1.5,1.5l0,0l0,0c0,0.8-0.7,1.5-1.5,2.5H115 M138.9,246.5h-24.4c-5.6,1.9-9.5,7.2-9.5,14.4c0,0.5,0,1.1,0.1,1.6
							h43.3c0-0.5,0.1-1,0.1-1.6C148.5,253.7,144.6,249.4,138.9,246.5L138.9,246.5z M113.9,242.5C114,242.5,114,242.5,113.9,242.5
							h24.6c2.9-4.7,4.7-10.5,4.8-16.8c0.3-15.7-9.6-29.7-22.2-29.9c-1.4,0-2.7,0.1-4,0.4c0.3,1.3,0.6,3.7,1,5.1l-13.6,15.4l0.2,4.6
							l5.2,4.6c0,0,3.7-5.7,12.2-6.7C117,228.9,114.6,236.2,113.9,242.5L113.9,242.5z M140.2,230c-0.1,4.5-1,8.8-2.6,12.5h0.9
							c2.9-4.7,4.7-10.5,4.8-16.8c0.3-15.7-9.6-29.7-22.2-29.9c-1.4,0-3.1,0.4-4.4,0.7l1.4,4.8C131.5,202,140.5,215.1,140.2,230
							L140.2,230z"/>
					</g>
				</g>
				<g>
					<path class="st24" d="M121.4,114.5c0-1.4,0.3-2.8,0.8-4.1c0.5-1.4,1.2-2.6,2.2-3.6c1-1.1,2.1-1.9,3.5-2.6s3-1,4.7-1
						c2.1,0,3.9,0.5,5.4,1.4s2.7,2.1,3.4,3.6l-3.4,2.3c-0.3-0.6-0.7-1.2-1.1-1.6s-0.9-0.8-1.4-1c-0.5-0.3-1-0.4-1.5-0.6
						s-1.1-0.2-1.6-0.2c-1.1,0-2.1,0.2-2.9,0.7c-0.8,0.4-1.5,1-2,1.7s-1,1.5-1.2,2.4c-0.3,0.9-0.4,1.8-0.4,2.7c0,1,0.2,2,0.5,2.9
						s0.8,1.7,1.4,2.4c0.6,0.7,1.3,1.3,2.1,1.7s1.7,0.6,2.7,0.6c0.5,0,1-0.1,1.6-0.2s1.1-0.3,1.6-0.6c0.5-0.3,1-0.6,1.4-1.1
						s0.8-1,1-1.6l3.6,2.1c-0.4,0.9-0.9,1.6-1.6,2.3c-0.7,0.7-1.4,1.2-2.3,1.6c-0.8,0.4-1.7,0.8-2.7,1s-1.9,0.4-2.8,0.4
						c-1.6,0-3.1-0.3-4.4-1c-1.3-0.7-2.5-1.6-3.5-2.7s-1.7-2.3-2.3-3.7C121.7,117.4,121.4,115.9,121.4,114.5z"/>
					<path class="st24" d="M144.7,126v-22.7h10c1,0,2,0.2,2.9,0.7c0.9,0.4,1.6,1,2.3,1.7c0.6,0.7,1.1,1.5,1.5,2.4s0.5,1.8,0.5,2.7
						c0,1.5-0.4,2.8-1.1,4c-0.7,1.2-1.7,2.1-3,2.6l5.2,8.5h-5l-4.6-7.6H149v7.6h-4.3V126z M149.2,114.5h5.5c0.4,0,0.8-0.1,1.1-0.3
						c0.4-0.2,0.7-0.5,0.9-0.8s0.5-0.7,0.6-1.2c0.1-0.4,0.2-0.9,0.2-1.4s-0.1-1-0.3-1.5c-0.2-0.4-0.4-0.8-0.7-1.2s-0.6-0.6-1-0.8
						c-0.4-0.2-0.8-0.3-1.1-0.3h-5.3v7.5H149.2z"/>
					<path class="st24" d="M184.5,126v-15l-5.9,11.2h-2.4l-5.9-11.2v15H166v-22.7h4.7l6.7,12.9l6.8-12.9h4.7V126H184.5z"/>
				</g>
				<g>
					<g>
						<path class="st24" d="M430.4,163c-0.8,0-1.6-0.1-2.4-0.3V195h-32v-42h22.4c-0.3-1-0.3-2,0-3H393v48h38v-35.1
							C430.8,163,430.6,163,430.4,163z"/>
					</g>
					<polygon class="st25" points="418.5,162.5 429.5,162.5 429.5,161.5 419.5,151.5 418.5,151.5 					"/>
					<line class="st25" x1="400" y1="165.5" x2="411" y2="165.5"/>
					<line class="st25" x1="400" y1="172.5" x2="403" y2="172.5"/>
					<line class="st25" x1="400" y1="178.5" x2="403" y2="178.5"/>
					<line class="st25" x1="400" y1="184.5" x2="403" y2="184.5"/>
					<line class="st25" x1="405" y1="172.5" x2="424" y2="172.5"/>
					<line class="st25" x1="405" y1="178.5" x2="424" y2="178.5"/>
					<line class="st25" x1="405" y1="184.5" x2="424" y2="184.5"/>
				</g>
				<g>
					<g>
						<path class="st25" d="M94.5,382.5v13h8c0,0,0-14.1,0-17.7c0-2.4-1.8-4-4.1-5.1c-2.4-1.1-5.2-1.8-8.1-2.2"/>
						<g>
							<polygon class="st24" points="96,397 76,397 76,381 78,381 78,394 94,394 94,381 96,381 							"/>
						</g>
						<path class="st25" d="M81.6,370.6c-3,0.4-5.9,1.1-8.7,2.1c-2.4,0.9-4.3,2.6-4.3,5c0,3.1,0,17.8,0,17.8h8v-14"/>
						<path class="st34" d="M85.5,353.5c-4.7,0-8.4,3.5-8.4,8.3s3.8,8.7,8.5,8.7s8.5-3.9,8.5-8.7C94.1,357,90.2,353.5,85.5,353.5z"
							/>
					</g>
					<path class="st35" d="M86,374.3C85.7,374.3,86.3,374.3,86,374.3c0,0.4-0.1,0.6-0.4,0.6s-0.6-0.2-0.6-0.6c-0.2,0,0.2,0,0,0
						c-0.3,0.3-0.6,0.8-1,1l1.5,1.9l1.5-1.9L86,374.3z"/>
					<polygon class="st24" points="85,378 86,378 88,386.5 85.5,389 83,386.5 					"/>
				</g>
				<g>
					<path class="st36" d="M431.9,226.4c-2.3,1.8-3,5.1-1.5,7.7c1.5,2.6,4.7,3.6,7.5,2.5c0.4,1.7,0.7,3.5,0.7,5.4s-0.2,3.7-0.7,5.4
						c-2.7-1.1-5.9-0.1-7.5,2.5c-1.5,2.6-0.8,5.9,1.5,7.7c-2.6,2.5-5.8,4.4-9.4,5.4c-0.4-2.9-2.9-5.1-5.9-5.1s-5.5,2.2-5.9,5.1
						c-3.6-1-6.8-2.9-9.4-5.4c2.3-1.8,3-5.1,1.5-7.7c-1.5-2.6-4.7-3.6-7.5-2.5c-0.4-1.7-0.7-3.5-0.7-5.4s0.2-3.7,0.7-5.4
						c2.7,1.1,5.9,0.1,7.5-2.5c1.5-2.6,0.8-5.9-1.5-7.7c2.6-2.5,5.8-4.4,9.4-5.4c0.4,2.9,2.9,5.1,5.9,5.1s5.5-2.2,5.9-5.1
						C426.1,222,429.3,223.9,431.9,226.4z"/>
					<ellipse class="st36" cx="416.5" cy="242" rx="6" ry="5.9"/>
				</g>
				<rect x="75" y="381" class="st24" width="1" height="1"/>
				<rect x="93" y="381" class="st24" width="2" height="2"/>
				<rect x="417" y="327" class="st24" width="1" height="3"/>
			</g>
		</g>
	</g>
</g>
<g>
	<path class="st24" d="M409.9,367.1c0-1-0.1-2.3-0.2-3.8c-0.1-1.5-0.3-2.9-0.6-4.1c-0.3-1.4-1-2.5-2-3.5c-1-0.9-2.2-1.3-3.5-1.6
		c-4-1-10.6-1-19-1c-8.4,0-13.4,0.1-18.7,1c-1.3,0.2-2.5,0.7-3.5,1.6c-1,0.9-1.6,2.1-1.9,3.5c-0.3,1.2-1,2.4-1.1,4
		c-0.1,1.5-0.3,2.9-0.3,3.9c0,1,0,2.4,0,4.2s0,3.2,0,4.2c0,1,0.3,3,0.4,4.5c0.1,1.5,0.7,2.3,1,3.5c0.3,1.4,1,2.5,2,3.5
		c1,0.9,2.2,1.9,3.5,2.1c4.4,0.5,10.4,1,18.8,1c8.4,0,14.7-0.5,18.9-1c1.3-0.2,2.4-1.1,3.4-2c1-0.9,1.6-2.1,1.9-3.5
		c0.3-1.2,0.5-2.6,0.6-4.1c0.1-1.5,0.2-2.8,0.2-3.8c0-1,0-2.4,0-4.2C409.9,369.5,409.9,368.1,409.9,367.1L409.9,367.1z M393.6,372.7
		l-13.1,8.2c-0.2,0.2-0.5,0.3-0.9,0.3c-0.2,0-0.5-0.1-0.7-0.2c-0.6-0.3-0.9-0.8-0.9-1.5v-16.3c0-0.6,0.3-1.2,0.8-1.4
		c0.6-0.3,1.1-0.3,1.7,0.1l13.1,8.2c0.5,0.3,0.8,0.7,0.8,1.4C394.3,371.9,394.1,372.4,393.6,372.7L393.6,372.7z M393.9,372.7"/>
</g>
</svg>
