<?xml version="1.0" encoding="utf-8"?>
<!-- Generator: Adobe Illustrator 21.0.0, SVG Export Plug-In . SVG Version: 6.00 Build 0)  -->
<svg version="1.1" xmlns="http://www.w3.org/2000/svg" xmlns:xlink="http://www.w3.org/1999/xlink" x="0px" y="0px"
	 viewBox="0 0 130 115" style="enable-background:new 0 0 130 115;" xml:space="preserve">
<style type="text/css">
	.st0{display:none;}
	.st1{display:inline;}
	.st2{fill:#F7F6F3;}
	.st3{display:inline;fill:#1C1C1B;}
	.st4{fill:#FFD63B;stroke:#FFFFFF;stroke-width:3;stroke-linejoin:bevel;stroke-miterlimit:10;}
	.st5{fill:#FFFFFF;}
	.st6{fill:#58595B;}
	.st7{opacity:0.3;}
	.st8{fill:none;stroke:#231F20;stroke-width:3;stroke-miterlimit:10;}
	.st9{fill:none;stroke:#FF5515;stroke-width:4;stroke-miterlimit:10;}
	.st10{fill:#F7F6F3;stroke:#231F20;stroke-width:3;stroke-miterlimit:10;}
	.st11{fill:#2196F3;}
	.st12{fill:#FFFFFF;stroke:#231F20;stroke-width:3;stroke-miterlimit:10;}
	.st13{fill:#FF9A22;}
	.st14{fill:none;stroke:#00843C;stroke-width:3;stroke-miterlimit:10;}
	.st15{fill:none;stroke:#FF9A22;stroke-width:4;stroke-miterlimit:10;}
	.st16{fill:none;stroke:#FF9A22;stroke-width:3;stroke-miterlimit:10;}
	.st17{fill:#FF5515;}
	.st18{fill:#FFFFFF;stroke:#ED1C24;stroke-width:3;stroke-miterlimit:10;}
	.st19{fill:none;stroke:#ED1C24;stroke-width:3;stroke-miterlimit:10;}
	.st20{fill:none;stroke:#000000;stroke-width:4;stroke-miterlimit:10;}
	.st21{fill:none;stroke:#000000;stroke-width:3;stroke-miterlimit:10;}
	.st22{fill:none;stroke:#2196F3;stroke-width:4;stroke-linecap:round;stroke-linejoin:round;stroke-miterlimit:10;}
	.st23{fill:#F7F6F3;stroke:#2196F3;stroke-width:4;stroke-linecap:round;stroke-linejoin:round;stroke-miterlimit:10;}
	.st24{fill:#F7F6F3;stroke:#000000;stroke-width:3;stroke-miterlimit:10;}
	.st25{fill:#04A548;stroke:#231F20;stroke-width:3;stroke-miterlimit:10;}
	.st26{fill:none;stroke:#04A548;stroke-width:3;stroke-miterlimit:10;}
	.st27{fill:#F7F6F3;stroke:#04A548;stroke-width:3;stroke-miterlimit:10;}
	.st28{fill:#FFFFFF;stroke:#FF9A22;stroke-width:3;stroke-miterlimit:10;}
	.st29{fill:none;stroke:#FF5515;stroke-width:3;stroke-miterlimit:10;}
	.st30{fill:#04A548;}
	.st31{opacity:0.34;}
	.st32{fill:#231F20;}
	.st33{fill:none;stroke:#231F20;stroke-width:2;stroke-miterlimit:10;}
	.st34{fill:none;stroke:#25B72F;stroke-width:3;stroke-miterlimit:10;}
	.st35{fill:none;stroke:#231F20;stroke-width:1.9286;stroke-miterlimit:10;}
	.st36{fill:#FFFFFF;stroke:#231F20;stroke-width:2;stroke-miterlimit:10;}
	.st37{fill:#25B72F;}
	.st38{fill:#25B72F;stroke:#231F20;stroke-width:2;stroke-miterlimit:10;}
	.st39{fill:none;stroke:#231F20;stroke-width:1.989;stroke-miterlimit:10;}
	.st40{fill:#FFFFFF;stroke:#231F20;stroke-width:2.2678;stroke-miterlimit:10;}
	.st41{fill:none;stroke:#231F20;stroke-width:2.3155;stroke-miterlimit:10;}
	.st42{fill:none;stroke:#231F20;stroke-width:0.9592;stroke-miterlimit:10;}
	.st43{fill:none;stroke:#FF9A22;stroke-width:2;stroke-miterlimit:10;}
	.st44{fill:none;stroke:#FF5515;stroke-width:2;stroke-miterlimit:10;}
	.st45{fill:none;stroke:#2196F3;stroke-width:2;stroke-miterlimit:10;}
	.st46{fill:#FF5515;stroke:#FF5515;stroke-width:2;stroke-miterlimit:10;}
	.st47{fill:none;stroke:#F7F6F3;stroke-width:2;stroke-miterlimit:10;}
	.st48{fill:#FF9A22;stroke:#FF9A22;stroke-width:2;stroke-miterlimit:10;}
	.st49{fill:#F7F6F3;stroke:#231F20;stroke-width:2;stroke-miterlimit:10;}
	.st50{fill:none;stroke:#FD4741;stroke-width:3;stroke-linejoin:round;stroke-miterlimit:10;}
	.st51{fill:none;stroke:#D1D3D4;stroke-width:1.7678;stroke-miterlimit:10;}
	.st52{fill:none;stroke:#F23030;stroke-width:4;stroke-miterlimit:10;}
	.st53{fill:#F23030;}
	.st54{opacity:0.1;}
	.st55{fill:none;stroke:#F23030;stroke-width:3;}
	.st56{fill:none;stroke:#F23030;stroke-width:3;stroke-linejoin:round;}
	.st57{fill:none;stroke:#F23030;stroke-width:2;stroke-linejoin:round;}
	.st58{fill:none;stroke:#F23030;}
	.st59{fill:none;stroke:#F23030;stroke-width:2;}
	.st60{opacity:0.2;fill:#54D363;}
	.st61{fill:none;stroke:#0AA51C;stroke-width:3.9231;stroke-linejoin:round;stroke-miterlimit:10;}
	.st62{fill:#25B72F;stroke:#231F20;stroke-width:3;stroke-miterlimit:10;}
	.st63{fill:none;stroke:#37B44A;stroke-width:2.2857;stroke-miterlimit:10;}
	.st64{fill:none;stroke:#231F20;stroke-width:1.9995;stroke-miterlimit:10;}
	.st65{fill:none;stroke:#231F20;stroke-width:1.9621;stroke-miterlimit:10;}
	.st66{fill:#FF9A22;stroke:#231F20;stroke-width:2;stroke-miterlimit:10;}
	.st67{fill:none;stroke:#231F20;stroke-width:2.0048;stroke-miterlimit:10;}
	.st68{fill:none;stroke:#2196F3;stroke-width:3;stroke-miterlimit:10;}
	.st69{fill:none;stroke:#F7941E;stroke-width:2;stroke-miterlimit:10;}
	.st70{fill:none;stroke:#000000;stroke-width:2.8594;stroke-miterlimit:10;}
	.st71{fill:none;stroke:#FFD63B;stroke-width:4;stroke-linecap:round;stroke-miterlimit:10;}
	.st72{fill:#DBDBDB;}
	.st73{fill:#E8E8E8;}
	.st74{fill:none;stroke:#FFD63B;stroke-width:2;stroke-linecap:round;stroke-linejoin:round;stroke-miterlimit:10;}
	.st75{fill:none;stroke:#000000;stroke-width:2;stroke-linejoin:round;stroke-miterlimit:10;}
	.st76{fill:#FFFFFF;stroke:#2196F3;stroke-width:3;stroke-miterlimit:10;}
	.st77{fill:#FFD63B;}
	.st78{fill:none;stroke:#FFFFFF;stroke-width:3;stroke-linejoin:bevel;stroke-miterlimit:10;}
	.st79{fill:none;stroke:#FFD63B;stroke-width:3;stroke-miterlimit:10;}
	.st80{opacity:0.2;fill:#FFFFFF;}
</style>
<g id="Layer_2" class="st0">
	<g class="st1">
		<rect x="-981" y="-824" class="st2" width="6368.5" height="5472"/>
	</g>
</g>
<g id="Layer_1">
	<g>
		<path class="st17" d="M60.7,81.4c-1.3-3.7-7.2-10.7-8.2-11.4c-0.7-0.1-3,0-4,0c0.9,0.3,4.6,6.5,5,7c1,1.1,2.9,3.2,2.6,7.5
			c-0.9-0.7-1.7-1.4-2.6-2.1c0,1.5,0,4.7-1.5,7.6c-0.5,1-2.2,2.2-2.8,2.8c0,0.1,1,0.1,1,0.2c-0.7-0.9-2.6-2.2-2.9-2.9
			c-1.6-2.9-1.6-6.1-1.5-7.6c-0.9,0.7-1.7,1.4-2.6,2.1c-0.3-4.3,1.7-6.4,2.6-7.5c0.5-0.5,4.7-6.7,5.6-7c-1,0-3.3-0.1-4,0
			c-1,0.7-7.5,7.7-8.8,11.4c-2.2,6.3,0.9,12.1,1.2,12.7c0.6-1.3,1.2-2.7,1.8-4c0.1,1.7,0.6,4.6,2.1,7.8c1.8,3.7,5.1,5.9,6.4,6.9
			c0-0.3,0-0.6,0-0.8c0,0.3,0,0.5,0,0.8c1.3-1,3.6-3.2,5.4-6.9c1.5-3.1,1.9-6.1,2.1-7.8c0.6,1.3,1.2,2.7,1.8,4
			C59.9,93.6,62.9,87.8,60.7,81.4z"/>
		<path class="st8" d="M71.6,65.5c0.4-2,0.7-3.9,0.8-5.8c0.4-5.7-3.8-10.3-7.1-12.6"/>
		<line class="st8" x1="55.3" y1="71.1" x2="65.5" y2="81.7"/>
		<g>
			<path class="st8" d="M101,48.5c-0.1,0.7-1.4,1-1.4,1h-9.3c-0.7,0-1.3-0.6-1.3-1.3l0-5.3c0-0.7,0.6-1.3,1.3-1.3h9.3
				c0,0,2.3,1.2,1.4,1.9V48.5L101,48.5z"/>
			<line class="st8" x1="110.1" y1="58" x2="112.3" y2="54.2"/>
			<path class="st8" d="M109.1,52.7c-0.2,0.4-0.1,0.9,0.3,1.1l5.1,2.9c0.4,0.2,0.9,0.1,1.1-0.3l1.9-3.3c0.2-0.4,0.1-0.9-0.3-1.1
				l-5.1-2.9c-0.4-0.2-0.9-0.1-1.1,0.3L109.1,52.7L109.1,52.7z"/>
			<path class="st8" d="M124,84.5c0,16.3-12.8,29-29.1,29c-16.3,0-29.9-12.7-29.9-29c0-16.3,13.6-30,29.9-30
				C111.2,54.5,124,68.2,124,84.5L124,84.5z"/>
			<line class="st8" x1="95" y1="62" x2="95" y2="65"/>
			<line class="st8" x1="79" y1="68.3" x2="81.6" y2="71"/>
			<line class="st8" x1="72.5" y1="84.5" x2="75.5" y2="84.5"/>
			<line class="st8" x1="79.7" y1="100" x2="82.3" y2="97.3"/>
			<line class="st8" x1="95" y1="106" x2="95" y2="102"/>
			<line class="st8" x1="110.8" y1="99.3" x2="108.1" y2="96.7"/>
			<line class="st8" x1="116.5" y1="84.5" x2="113.5" y2="84.5"/>
			<line class="st8" x1="110.1" y1="67.7" x2="107.5" y2="70.3"/>
			<line class="st8" x1="98" y1="82.5" x2="113" y2="75.5"/>
			<path class="st8" d="M97.8,83.8c0-1.6-1.3-2.9-2.9-2.9c-1.6,0-2.9,1.3-2.9,2.9c0,1.6,1.3,2.9,2.9,2.9
				C96.5,86.6,97.8,85.4,97.8,83.8L97.8,83.8z"/>
		</g>
		<path class="st8" d="M43.7,71.4h12.6c1.3-2,17.3-29.1,6.3-52.2C59.2,11.9,54.1,7,50,3.8c-4.3,2.9-9.8,7.8-13.5,15.3
			C25.1,42.4,42.9,70.3,43.7,71.4z"/>
		<circle class="st8" cx="50" cy="35.3" r="8.1"/>
		<path class="st8" d="M44.6,71.1l-11,11.6c-0.8-2.3-5.4-13.6-6.1-23c-0.4-5.7,3-11.2,6.3-13.5"/>
		<path class="st8" d="M27.7,93c-0.8-0.4-1.8-0.5-2.7-0.5c-3.9,0-7,3.1-7,7c0,0.7,0.1,1.3,0.3,1.9c-1.1-0.6-2.4-0.9-3.8-0.9
			c-4.5,0-9.2,3.5-9.5,8h74"/>
		<path class="st8" d="M29.5,102.8c0.3-2.1,1.3-3.2,4.1-3.2s4.4,1.2,4.1,2.6"/>
		<path class="st8" d="M60.5,100.9c0.5-3.7,2.3-5.9,7.5-5.9"/>
		<path class="st8" d="M26.6,93.3c1.4-0.1,3.7,0.5,4.3,1.5c0.5,0.8,1.2,2.3,1.1,2.7"/>
		<path class="st8" d="M60.8,16.5c-2.1,1-5.9,2.5-10.8,2.7c-5.9,0.2-10.4-1.6-12.6-2.7"/>
		<polyline class="st8" points="92,54.5 92,49.5 98,49.5 98,54.5 		"/>
	</g>
	<g id="arrow_1_">
	</g>
	<g id="arrow">
	</g>
</g>
</svg>
