<?xml version="1.0" encoding="utf-8"?>
<!-- Generator: Adobe Illustrator 21.0.0, SVG Export Plug-In . SVG Version: 6.00 Build 0)  -->
<svg version="1.1" xmlns="http://www.w3.org/2000/svg" xmlns:xlink="http://www.w3.org/1999/xlink" x="0px" y="0px"
	 viewBox="0 0 130 91" style="enable-background:new 0 0 130 91;" xml:space="preserve">
<style type="text/css">
	.st0{display:none;}
	.st1{display:inline;}
	.st2{fill:#F7F6F3;}
	.st3{display:inline;fill:#1C1C1B;}
	.st4{fill:#FFD63B;stroke:#FFFFFF;stroke-width:3;stroke-linejoin:bevel;stroke-miterlimit:10;}
	.st5{fill:#FFFFFF;}
	.st6{fill:#58595B;}
	.st7{opacity:0.3;}
	.st8{fill:none;stroke:#231F20;stroke-width:3;stroke-miterlimit:10;}
	.st9{fill:none;stroke:#FF5515;stroke-width:4;stroke-miterlimit:10;}
	.st10{fill:#F7F6F3;stroke:#231F20;stroke-width:3;stroke-miterlimit:10;}
	.st11{fill:#2196F3;}
	.st12{fill:#FFFFFF;stroke:#231F20;stroke-width:3;stroke-miterlimit:10;}
	.st13{fill:#FF9A22;}
	.st14{fill:none;stroke:#00843C;stroke-width:3;stroke-miterlimit:10;}
	.st15{fill:none;stroke:#FF9A22;stroke-width:4;stroke-miterlimit:10;}
	.st16{fill:none;stroke:#FF9A22;stroke-width:3;stroke-miterlimit:10;}
	.st17{fill:#FF5515;}
	.st18{fill:#FFFFFF;stroke:#ED1C24;stroke-width:3;stroke-miterlimit:10;}
	.st19{fill:none;stroke:#ED1C24;stroke-width:3;stroke-miterlimit:10;}
	.st20{fill:none;stroke:#000000;stroke-width:4;stroke-miterlimit:10;}
	.st21{fill:none;stroke:#000000;stroke-width:3;stroke-miterlimit:10;}
	.st22{fill:none;stroke:#2196F3;stroke-width:4;stroke-linecap:round;stroke-linejoin:round;stroke-miterlimit:10;}
	.st23{fill:#F7F6F3;stroke:#2196F3;stroke-width:4;stroke-linecap:round;stroke-linejoin:round;stroke-miterlimit:10;}
	.st24{fill:#F7F6F3;stroke:#000000;stroke-width:3;stroke-miterlimit:10;}
	.st25{fill:#04A548;stroke:#231F20;stroke-width:3;stroke-miterlimit:10;}
	.st26{fill:none;stroke:#04A548;stroke-width:3;stroke-miterlimit:10;}
	.st27{fill:#F7F6F3;stroke:#04A548;stroke-width:3;stroke-miterlimit:10;}
	.st28{fill:#FFFFFF;stroke:#FF9A22;stroke-width:3;stroke-miterlimit:10;}
	.st29{fill:none;stroke:#FF5515;stroke-width:3;stroke-miterlimit:10;}
	.st30{fill:#04A548;}
	.st31{opacity:0.34;}
	.st32{fill:#231F20;}
	.st33{fill:none;stroke:#231F20;stroke-width:2;stroke-miterlimit:10;}
	.st34{fill:none;stroke:#25B72F;stroke-width:3;stroke-miterlimit:10;}
	.st35{fill:none;stroke:#231F20;stroke-width:1.9286;stroke-miterlimit:10;}
	.st36{fill:#FFFFFF;stroke:#231F20;stroke-width:2;stroke-miterlimit:10;}
	.st37{fill:#25B72F;}
	.st38{fill:#25B72F;stroke:#231F20;stroke-width:2;stroke-miterlimit:10;}
	.st39{fill:none;stroke:#231F20;stroke-width:1.989;stroke-miterlimit:10;}
	.st40{fill:#FFFFFF;stroke:#231F20;stroke-width:2.2678;stroke-miterlimit:10;}
	.st41{fill:none;stroke:#231F20;stroke-width:2.3155;stroke-miterlimit:10;}
	.st42{fill:none;stroke:#231F20;stroke-width:0.9592;stroke-miterlimit:10;}
	.st43{fill:none;stroke:#FF9A22;stroke-width:2;stroke-miterlimit:10;}
	.st44{fill:none;stroke:#FF5515;stroke-width:2;stroke-miterlimit:10;}
	.st45{fill:none;stroke:#2196F3;stroke-width:2;stroke-miterlimit:10;}
	.st46{fill:#FF5515;stroke:#FF5515;stroke-width:2;stroke-miterlimit:10;}
	.st47{fill:none;stroke:#F7F6F3;stroke-width:2;stroke-miterlimit:10;}
	.st48{fill:#FF9A22;stroke:#FF9A22;stroke-width:2;stroke-miterlimit:10;}
	.st49{fill:#F7F6F3;stroke:#231F20;stroke-width:2;stroke-miterlimit:10;}
	.st50{fill:none;stroke:#FD4741;stroke-width:3;stroke-linejoin:round;stroke-miterlimit:10;}
	.st51{fill:none;stroke:#D1D3D4;stroke-width:1.7678;stroke-miterlimit:10;}
	.st52{fill:none;stroke:#F23030;stroke-width:4;stroke-miterlimit:10;}
	.st53{fill:#F23030;}
	.st54{opacity:0.1;}
	.st55{fill:none;stroke:#F23030;stroke-width:3;}
	.st56{fill:none;stroke:#F23030;stroke-width:3;stroke-linejoin:round;}
	.st57{fill:none;stroke:#F23030;stroke-width:2;stroke-linejoin:round;}
	.st58{fill:none;stroke:#F23030;}
	.st59{fill:none;stroke:#F23030;stroke-width:2;}
	.st60{opacity:0.2;fill:#54D363;}
	.st61{fill:none;stroke:#0AA51C;stroke-width:3.9231;stroke-linejoin:round;stroke-miterlimit:10;}
	.st62{fill:#25B72F;stroke:#231F20;stroke-width:3;stroke-miterlimit:10;}
	.st63{fill:none;stroke:#37B44A;stroke-width:2.2857;stroke-miterlimit:10;}
	.st64{fill:none;stroke:#231F20;stroke-width:1.9995;stroke-miterlimit:10;}
	.st65{fill:none;stroke:#231F20;stroke-width:1.9621;stroke-miterlimit:10;}
	.st66{fill:#FF9A22;stroke:#231F20;stroke-width:2;stroke-miterlimit:10;}
	.st67{fill:none;stroke:#231F20;stroke-width:2.0048;stroke-miterlimit:10;}
	.st68{fill:none;stroke:#2196F3;stroke-width:3;stroke-miterlimit:10;}
	.st69{fill:none;stroke:#F7941E;stroke-width:2;stroke-miterlimit:10;}
	.st70{fill:none;stroke:#000000;stroke-width:2.8594;stroke-miterlimit:10;}
	.st71{fill:none;stroke:#FFD63B;stroke-width:4;stroke-linecap:round;stroke-miterlimit:10;}
	.st72{fill:#DBDBDB;}
	.st73{fill:#E8E8E8;}
	.st74{fill:none;stroke:#FFD63B;stroke-width:2;stroke-linecap:round;stroke-linejoin:round;stroke-miterlimit:10;}
	.st75{fill:none;stroke:#000000;stroke-width:2;stroke-linejoin:round;stroke-miterlimit:10;}
	.st76{fill:#FFFFFF;stroke:#2196F3;stroke-width:3;stroke-miterlimit:10;}
	.st77{fill:#FFD63B;}
	.st78{fill:none;stroke:#FFFFFF;stroke-width:3;stroke-linejoin:bevel;stroke-miterlimit:10;}
	.st79{fill:none;stroke:#FFD63B;stroke-width:3;stroke-miterlimit:10;}
	.st80{opacity:0.2;fill:#FFFFFF;}
</style>
<g id="Layer_2" class="st0">
	<g class="st1">
		<rect x="-1360.5" y="-2053" class="st2" width="6368.5" height="5472"/>
	</g>
</g>
<g id="Layer_1">
	<polygon class="st8" points="108.5,89.5 9.5,89.5 9.5,23.5 108.5,23.5 108.5,89.5 	"/>
	<polyline class="st8" points="16.5,12.5 16.5,7.5 114.5,7.5 114.5,70.5 114.5,84.5 109.5,84.5 	"/>
	<polyline class="st8" points="23.5,6.5 23.5,1.5 120.5,1.5 120.5,64.5 120.5,78.5 114.5,78.5 	"/>
	<polygon class="st8" points="108.5,23.5 9.5,23.5 9.5,13.5 108.5,13.5 108.5,23.5 	"/>
	<line class="st8" x1="13" y1="18.5" x2="17" y2="18.5"/>
	<line class="st8" x1="19" y1="18.5" x2="23" y2="18.5"/>
	<line class="st8" x1="25" y1="18.5" x2="29" y2="18.5"/>
	<circle class="st17" cx="73.5" cy="54.5" r="12.5"/>
	<g>
		<path class="st2" d="M71.7,59.2c0-0.2,0-0.4,0.1-0.7c0.1-0.2,0.2-0.4,0.4-0.5c0.2-0.2,0.3-0.3,0.5-0.4c0.2-0.1,0.4-0.1,0.7-0.1
			c0.2,0,0.5,0,0.7,0.1c0.2,0.1,0.4,0.2,0.5,0.4c0.2,0.2,0.3,0.3,0.4,0.5c0.1,0.2,0.1,0.4,0.1,0.7c0,0.2,0,0.5-0.1,0.7
			c-0.1,0.2-0.2,0.4-0.4,0.5s-0.3,0.3-0.5,0.4c-0.2,0.1-0.4,0.1-0.7,0.1c-0.2,0-0.5,0-0.7-0.1s-0.4-0.2-0.5-0.4
			c-0.2-0.2-0.3-0.3-0.4-0.5C71.7,59.6,71.7,59.4,71.7,59.2z M74.8,45.5v6c0,0.6,0,1.3-0.1,1.9s-0.2,1.3-0.3,1.9h-2
			c-0.1-0.7-0.2-1.3-0.3-1.9c-0.1-0.6-0.1-1.3-0.1-1.9v-6H74.8z"/>
	</g>
	<line class="st8" x1="30" y1="45.5" x2="44" y2="45.5"/>
	<line class="st8" x1="30" y1="53.5" x2="53" y2="53.5"/>
	<line class="st8" x1="30" y1="67.5" x2="49" y2="67.5"/>
	<line class="st8" x1="30" y1="60.5" x2="38" y2="60.5"/>
	<line class="st8" x1="41" y1="60.5" x2="53" y2="60.5"/>
	<g id="arrow_1_">
	</g>
	<g id="arrow">
	</g>
</g>
</svg>
