<?xml version="1.0" encoding="utf-8"?>
<!-- Generator: Adobe Illustrator 21.0.0, SVG Export Plug-In . SVG Version: 6.00 Build 0)  -->
<svg version="1.1" xmlns="http://www.w3.org/2000/svg" xmlns:xlink="http://www.w3.org/1999/xlink" x="0px" y="0px"
	 viewBox="0 0 130 86" style="enable-background:new 0 0 130 86;" xml:space="preserve">
<style type="text/css">
	.st0{display:none;}
	.st1{display:inline;}
	.st2{fill:#F7F6F3;}
	.st3{display:inline;fill:#1C1C1B;}
	.st4{fill:#FFD63B;stroke:#FFFFFF;stroke-width:3;stroke-linejoin:bevel;stroke-miterlimit:10;}
	.st5{fill:#FFFFFF;}
	.st6{fill:#58595B;}
	.st7{opacity:0.3;}
	.st8{fill:none;stroke:#231F20;stroke-width:3;stroke-miterlimit:10;}
	.st9{fill:none;stroke:#FF5515;stroke-width:4;stroke-miterlimit:10;}
	.st10{fill:#F7F6F3;stroke:#231F20;stroke-width:3;stroke-miterlimit:10;}
	.st11{fill:#2196F3;}
	.st12{fill:#FFFFFF;stroke:#231F20;stroke-width:3;stroke-miterlimit:10;}
	.st13{fill:#FF9A22;}
	.st14{fill:none;stroke:#00843C;stroke-width:3;stroke-miterlimit:10;}
	.st15{fill:none;stroke:#FF9A22;stroke-width:4;stroke-miterlimit:10;}
	.st16{fill:none;stroke:#FF9A22;stroke-width:3;stroke-miterlimit:10;}
	.st17{fill:#FF5515;}
	.st18{fill:#FFFFFF;stroke:#ED1C24;stroke-width:3;stroke-miterlimit:10;}
	.st19{fill:none;stroke:#ED1C24;stroke-width:3;stroke-miterlimit:10;}
	.st20{fill:none;stroke:#000000;stroke-width:4;stroke-miterlimit:10;}
	.st21{fill:none;stroke:#000000;stroke-width:3;stroke-miterlimit:10;}
	.st22{fill:none;stroke:#2196F3;stroke-width:4;stroke-linecap:round;stroke-linejoin:round;stroke-miterlimit:10;}
	.st23{fill:#F7F6F3;stroke:#2196F3;stroke-width:4;stroke-linecap:round;stroke-linejoin:round;stroke-miterlimit:10;}
	.st24{fill:#F7F6F3;stroke:#000000;stroke-width:3;stroke-miterlimit:10;}
	.st25{fill:#04A548;stroke:#231F20;stroke-width:3;stroke-miterlimit:10;}
	.st26{fill:none;stroke:#04A548;stroke-width:3;stroke-miterlimit:10;}
	.st27{fill:#F7F6F3;stroke:#04A548;stroke-width:3;stroke-miterlimit:10;}
	.st28{fill:#FFFFFF;stroke:#FF9A22;stroke-width:3;stroke-miterlimit:10;}
	.st29{fill:none;stroke:#FF5515;stroke-width:3;stroke-miterlimit:10;}
	.st30{fill:#04A548;}
	.st31{opacity:0.34;}
	.st32{fill:#231F20;}
	.st33{fill:none;stroke:#231F20;stroke-width:2;stroke-miterlimit:10;}
	.st34{fill:none;stroke:#25B72F;stroke-width:3;stroke-miterlimit:10;}
	.st35{fill:none;stroke:#231F20;stroke-width:1.9286;stroke-miterlimit:10;}
	.st36{fill:#FFFFFF;stroke:#231F20;stroke-width:2;stroke-miterlimit:10;}
	.st37{fill:#25B72F;}
	.st38{fill:#25B72F;stroke:#231F20;stroke-width:2;stroke-miterlimit:10;}
	.st39{fill:none;stroke:#231F20;stroke-width:1.989;stroke-miterlimit:10;}
	.st40{fill:#FFFFFF;stroke:#231F20;stroke-width:2.2678;stroke-miterlimit:10;}
	.st41{fill:none;stroke:#231F20;stroke-width:2.3155;stroke-miterlimit:10;}
	.st42{fill:none;stroke:#231F20;stroke-width:0.9592;stroke-miterlimit:10;}
	.st43{fill:none;stroke:#FF9A22;stroke-width:2;stroke-miterlimit:10;}
	.st44{fill:none;stroke:#FF5515;stroke-width:2;stroke-miterlimit:10;}
	.st45{fill:none;stroke:#2196F3;stroke-width:2;stroke-miterlimit:10;}
	.st46{fill:#FF5515;stroke:#FF5515;stroke-width:2;stroke-miterlimit:10;}
	.st47{fill:none;stroke:#F7F6F3;stroke-width:2;stroke-miterlimit:10;}
	.st48{fill:#FF9A22;stroke:#FF9A22;stroke-width:2;stroke-miterlimit:10;}
	.st49{fill:#F7F6F3;stroke:#231F20;stroke-width:2;stroke-miterlimit:10;}
	.st50{fill:none;stroke:#FD4741;stroke-width:3;stroke-linejoin:round;stroke-miterlimit:10;}
	.st51{fill:none;stroke:#D1D3D4;stroke-width:1.7678;stroke-miterlimit:10;}
	.st52{fill:none;stroke:#F23030;stroke-width:4;stroke-miterlimit:10;}
	.st53{fill:#F23030;}
	.st54{opacity:0.1;}
	.st55{fill:none;stroke:#F23030;stroke-width:3;}
	.st56{fill:none;stroke:#F23030;stroke-width:3;stroke-linejoin:round;}
	.st57{fill:none;stroke:#F23030;stroke-width:2;stroke-linejoin:round;}
	.st58{fill:none;stroke:#F23030;}
	.st59{fill:none;stroke:#F23030;stroke-width:2;}
	.st60{opacity:0.2;fill:#54D363;}
	.st61{fill:none;stroke:#0AA51C;stroke-width:3.9231;stroke-linejoin:round;stroke-miterlimit:10;}
	.st62{fill:#25B72F;stroke:#231F20;stroke-width:3;stroke-miterlimit:10;}
	.st63{fill:none;stroke:#37B44A;stroke-width:2.2857;stroke-miterlimit:10;}
	.st64{fill:none;stroke:#231F20;stroke-width:1.9995;stroke-miterlimit:10;}
	.st65{fill:none;stroke:#231F20;stroke-width:1.9621;stroke-miterlimit:10;}
	.st66{fill:#FF9A22;stroke:#231F20;stroke-width:2;stroke-miterlimit:10;}
	.st67{fill:none;stroke:#231F20;stroke-width:2.0048;stroke-miterlimit:10;}
	.st68{fill:none;stroke:#2196F3;stroke-width:3;stroke-miterlimit:10;}
	.st69{fill:none;stroke:#F7941E;stroke-width:2;stroke-miterlimit:10;}
	.st70{fill:none;stroke:#000000;stroke-width:2.8594;stroke-miterlimit:10;}
	.st71{fill:none;stroke:#FFD63B;stroke-width:4;stroke-linecap:round;stroke-miterlimit:10;}
	.st72{fill:#DBDBDB;}
	.st73{fill:#E8E8E8;}
	.st74{fill:none;stroke:#FFD63B;stroke-width:2;stroke-linecap:round;stroke-linejoin:round;stroke-miterlimit:10;}
	.st75{fill:none;stroke:#000000;stroke-width:2;stroke-linejoin:round;stroke-miterlimit:10;}
	.st76{fill:#FFFFFF;stroke:#2196F3;stroke-width:3;stroke-miterlimit:10;}
	.st77{fill:#FFD63B;}
	.st78{fill:none;stroke:#FFFFFF;stroke-width:3;stroke-linejoin:bevel;stroke-miterlimit:10;}
	.st79{fill:none;stroke:#FFD63B;stroke-width:3;stroke-miterlimit:10;}
	.st80{opacity:0.2;fill:#FFFFFF;}
</style>
<g id="Layer_2" class="st0">
	<g class="st1">
		<rect x="-980.5" y="-2058" class="st2" width="6368.5" height="5472"/>
	</g>
</g>
<g id="Layer_1">
	<g>
		<defs>
			<rect id="SVGID_13_" x="-741" y="-60.3" width="245.6" height="160.9"/>
		</defs>
		<clipPath id="SVGID_2_">
			<use xlink:href="#SVGID_13_"  style="overflow:visible;"/>
		</clipPath>
		<g style="clip-path:url(#SVGID_2_);">
			
				<image style="overflow:visible;" width="1440" height="900" xlink:href="12E72C30.jpg"  transform="matrix(-0.6619 0 0 0.6619 26.1827 -255.8842)">
			</image>
		</g>
	</g>
	<path class="st8" d="M26.1,81.3c1.4,1.1,4.5,3.1,8.7,3.3c3.5,0.1,6.2-1.1,7.6-2c0.5-2.5,1.2-10.9,0-17"/>
	<path class="st8" d="M85.9,56.9c1.4,1.3,4.8,3.6,6.6,6.6c1.6,2.6,0.7,7.5,1.3,9.4c1.7,0.2,5.2,0.3,9-1.8c3.1-1.8,4.4-3.1,5.4-4.6
		c-0.6-2.5-1.5-8.1-2.8-10.9c-1.2-2.6-5.2-5.1-6.8-7"/>
	<path class="st8" d="M14.8,50.3c-1.4-0.2-1.5-0.6-3.8-2c-1.8-1-3.1-2.3-4-3.3c-0.5-0.7-1.3-2-1.7-3.9c0-0.1,0-0.1,0-0.2
		c-0.5-2.3,1.7-3.1,3.7-2.8c1.1,0.1,1.4,0.1,2.7-0.3c3.1-0.9,2.5-4.4,3.2-5.2c6-8.5,7-17.2,17.9-24.9c6.7-4.7,13.9-6.1,17.6-6.3
		c3.6-0.2,8.3-0.5,15.6,3.3c0.1,0,0.1,0.1,0.2,0.1c5.7,3,9.9,6.1,12.8,12.6c2,4.5,7.7,15,12.5,13.3c1.1-0.4,1.5-1.8,3-2.1
		c-5.9,6.1-16.8,14.8-32.2,20.9C42.5,57.5,22.5,52.5,14.8,50.3z"/>
	<path class="st8" d="M21.1,59.7c-2-0.7-2.7-0.4-4.1-1.3c-0.6,0.4-3.8,3.4-9.4,0C4,56.2,4,51.8,3.5,50.5c1.3,0.6,2.6,2.7,6.3,2.1
		c2.6-0.4,3-1.6,4.1-2.4"/>
	<path class="st8" d="M69.8,62.7c-3.4,2.1-8.8,2.6-16.1,3.5c-8.5,1.1-13.5,0.9-19.3-1"/>
	<path class="st8" d="M94.3,28.4c1.7-1.2,2.8-2.6,2.8-2.6c2-2.5,3-4.7,4-6.5c1-1.9,2.6-4.1,7.3-5.2c1.6-0.2,4.6-1.2,7.9,0.3
		c4.2,2,7.3,5.4,8.3,7.4c0.3,0.6,1.6,2.2,2,2.8c0.9,1,2,3.2,1.8,5.9c-0.1,1.8-1.3,4.1-1.7,4.8c-0.7,1-3.1,3.2-7.3,4.2
		c-3.4,0.9-7.2-0.1-8.3-0.6c-1.9,1-4.6,1.5-7.3,4.6c-1.3,1.4-2.4,3-3.4,4.5c-2.2,3.5-5.4,6.1-9.1,7.1c-1.9,0.5-3.7,2.1-5.5,2.7"/>
	<path class="st8" d="M68.6,61c0.7,1.9,2.3,5.5,2.7,9.1c0.3,3.2-0.9,6.5-1.1,8.5c1.4,1.1,4.5,3.1,8.7,3.3c3.5,0.1,6.2-1.1,7.6-2
		c0.5-2.5,1.7-8.9,0.6-15c-1.1-5.8-2.8-12.4-4.1-14.3"/>
	<path class="st8" d="M34.7,64.2c0.5-1.7,0.7-3.2,0.8-4.1"/>
	<path class="st8" d="M20.6,59.7c-0.5,2-2.1,2.8-3.9,5.9c-1.5,2.7-4.2,4.4-5.5,5.8c0.5,1.9,1.7,5.7,4.8,9c2.6,2.7,5.4,3.8,6.9,4.2
		c1.8-1.6,6.6-4.8,9.1-10.3c1.5-3.3,1.9-7,2.7-10"/>
	<path class="st8" d="M103.3,33.7c0.8,0.8,1.9,1.8,3.4,2.6c1.8,1,2.2,1.6,5.1,2.6"/>
	<ellipse class="st8" cx="113.1" cy="23.8" rx="1.3" ry="1.5"/>
	<path class="st14" d="M33.1,30c-2.7-0.2-4.6,0.7-7.4,0.5c-0.5,0-1,0.2-1.4,0.5c-0.9,0.9-2.1,3.1-3.1,4.8c-0.7,1.2-2.2,2.3-2.6,3.3
		c-0.5,1.1-0.1,2.5,0.9,3.1c1.8,1.2,4.5,1.5,7.8,1.9c2.4,0.3,4.5,0.2,6.1-0.1c1.2-0.2,1.9-1.1,2.1-2.5c0.1-1,0.5-2.4,0.4-3.6
		c0-1.8-0.3-4.4-0.5-5.8C35.1,30.9,34.2,30,33.1,30z"/>
	<path class="st14" d="M41.1,10.4c-2-0.5-2.8,1.5-5.8,3.7c-0.5,0.3-1.9,1.4-2.3,1.9c-0.8,1.1-1.6,1.8-3.1,3.7c-0.9,1-1.5,2-1.7,3
		c-0.3,1.2,0.4,2.3,1.5,2.6c2.2,0.6,4.4,0.5,8,0.1c2.6-0.3,4.7-0.4,6.4-1.1c1.2-0.5,2-1.8,1.9-3.2c-0.1-0.9-0.2-1-0.5-2.1
		c-0.4-1.7-1-5.1-1.5-6.3C43.4,11.7,42.2,10.6,41.1,10.4z"/>
	<path class="st14" d="M60.3,25.7c2.8-1.1,6.3-2.9,9.2-4.1c1-0.4,2.1-0.1,2.8,0.8c0.7,0.9,1.4,3,2.4,4.1c0.8,1,1.7,1.4,2.2,2.2
		c0.7,1.1,0.5,2.6-0.3,3.6c-1.5,1.6-4.1,4-7.2,5.4c-2.2,1-2.6,1.7-4.1,2.1c-1.1,0.3-2.2-0.3-2.7-1.5c-0.6-1.2-1.7-2.7-2-4.2
		c-0.4-2.1-1.4-5-1.4-6.5C59.1,26.7,59.6,26,60.3,25.7z"/>
	<path class="st14" d="M50.7,8.8c3.4-0.6,4.8,0.1,8.5,0.2c1.2,0.1,2.4,0.2,3.1,1.1c0.6,0.9,3.1,1.5,4,2.6c0.8,1,1.2,0.8,1.6,1.5
		c0.6,1.1,0.2,2.5-0.9,3.3c-2,1.3-4.1,2.3-7.8,3.1c-2.7,0.6-3.3,1.1-5.1,1.2c-1.3,0.1-2.4-0.6-2.8-1.8c-0.4-1.2-1.5-1.8-1.6-3.2
		c-0.2-2-0.8-5.2-0.5-6.7C49.3,9.6,49.9,9,50.7,8.8z"/>
	<path class="st14" d="M52.9,26.8c-3.1,0.4-7.2,2.1-10.5,2.8c-1,0.2-1.8,1.2-1.9,2.3c-0.3,2.3,0.5,7,0.4,9.4
		c-0.1,1.3,0.8,2.5,1.9,2.7c1.8,0.3,3.2,0.2,6.4-0.1c2.5-0.3,5.2-1,6.8-1.8c1-0.5,1.6-1.6,1.5-2.8c-0.1-1.3-0.6-2.5-0.9-3.9
		c-0.4-2-1.1-6.3-1.7-7.4C54.5,27.2,53.7,26.7,52.9,26.8z"/>
	<g id="arrow_1_">
	</g>
	<g id="arrow">
	</g>
</g>
</svg>
