<?xml version="1.0" encoding="utf-8"?>
<!-- Generator: Adobe Illustrator 21.0.0, SVG Export Plug-In . SVG Version: 6.00 Build 0)  -->
<svg version="1.1" xmlns="http://www.w3.org/2000/svg" xmlns:xlink="http://www.w3.org/1999/xlink" x="0px" y="0px"
	 viewBox="0 0 130 115" style="enable-background:new 0 0 130 115;" xml:space="preserve">
<style type="text/css">
	.st0{display:none;}
	.st1{display:inline;}
	.st2{fill:#F7F6F3;}
	.st3{display:inline;fill:#1C1C1B;}
	.st4{fill:#FFD63B;stroke:#FFFFFF;stroke-width:3;stroke-linejoin:bevel;stroke-miterlimit:10;}
	.st5{fill:#FFFFFF;}
	.st6{fill:#58595B;}
	.st7{opacity:0.3;}
	.st8{fill:none;stroke:#231F20;stroke-width:3;stroke-miterlimit:10;}
	.st9{fill:none;stroke:#FF5515;stroke-width:4;stroke-miterlimit:10;}
	.st10{fill:#F7F6F3;stroke:#231F20;stroke-width:3;stroke-miterlimit:10;}
	.st11{fill:#2196F3;}
	.st12{fill:#FFFFFF;stroke:#231F20;stroke-width:3;stroke-miterlimit:10;}
	.st13{fill:#FF9A22;}
	.st14{fill:none;stroke:#00843C;stroke-width:3;stroke-miterlimit:10;}
	.st15{fill:none;stroke:#FF9A22;stroke-width:4;stroke-miterlimit:10;}
	.st16{fill:none;stroke:#FF9A22;stroke-width:3;stroke-miterlimit:10;}
	.st17{fill:#FF5515;}
	.st18{fill:#FFFFFF;stroke:#ED1C24;stroke-width:3;stroke-miterlimit:10;}
	.st19{fill:none;stroke:#ED1C24;stroke-width:3;stroke-miterlimit:10;}
	.st20{fill:none;stroke:#000000;stroke-width:4;stroke-miterlimit:10;}
	.st21{fill:none;stroke:#000000;stroke-width:3;stroke-miterlimit:10;}
	.st22{fill:none;stroke:#2196F3;stroke-width:4;stroke-linecap:round;stroke-linejoin:round;stroke-miterlimit:10;}
	.st23{fill:#F7F6F3;stroke:#2196F3;stroke-width:4;stroke-linecap:round;stroke-linejoin:round;stroke-miterlimit:10;}
	.st24{fill:#F7F6F3;stroke:#000000;stroke-width:3;stroke-miterlimit:10;}
	.st25{fill:#04A548;stroke:#231F20;stroke-width:3;stroke-miterlimit:10;}
	.st26{fill:none;stroke:#04A548;stroke-width:3;stroke-miterlimit:10;}
	.st27{fill:#F7F6F3;stroke:#04A548;stroke-width:3;stroke-miterlimit:10;}
	.st28{fill:#FFFFFF;stroke:#FF9A22;stroke-width:3;stroke-miterlimit:10;}
	.st29{fill:none;stroke:#FF5515;stroke-width:3;stroke-miterlimit:10;}
	.st30{fill:#04A548;}
	.st31{opacity:0.34;}
	.st32{fill:#231F20;}
	.st33{fill:none;stroke:#231F20;stroke-width:2;stroke-miterlimit:10;}
	.st34{fill:none;stroke:#25B72F;stroke-width:3;stroke-miterlimit:10;}
	.st35{fill:none;stroke:#231F20;stroke-width:1.9286;stroke-miterlimit:10;}
	.st36{fill:#FFFFFF;stroke:#231F20;stroke-width:2;stroke-miterlimit:10;}
	.st37{fill:#25B72F;}
	.st38{fill:#25B72F;stroke:#231F20;stroke-width:2;stroke-miterlimit:10;}
	.st39{fill:none;stroke:#231F20;stroke-width:1.989;stroke-miterlimit:10;}
	.st40{fill:#FFFFFF;stroke:#231F20;stroke-width:2.2678;stroke-miterlimit:10;}
	.st41{fill:none;stroke:#231F20;stroke-width:2.3155;stroke-miterlimit:10;}
	.st42{fill:none;stroke:#231F20;stroke-width:0.9592;stroke-miterlimit:10;}
	.st43{fill:none;stroke:#FF9A22;stroke-width:2;stroke-miterlimit:10;}
	.st44{fill:none;stroke:#FF5515;stroke-width:2;stroke-miterlimit:10;}
	.st45{fill:none;stroke:#2196F3;stroke-width:2;stroke-miterlimit:10;}
	.st46{fill:#FF5515;stroke:#FF5515;stroke-width:2;stroke-miterlimit:10;}
	.st47{fill:none;stroke:#F7F6F3;stroke-width:2;stroke-miterlimit:10;}
	.st48{fill:#FF9A22;stroke:#FF9A22;stroke-width:2;stroke-miterlimit:10;}
	.st49{fill:#F7F6F3;stroke:#231F20;stroke-width:2;stroke-miterlimit:10;}
	.st50{fill:none;stroke:#FD4741;stroke-width:3;stroke-linejoin:round;stroke-miterlimit:10;}
	.st51{fill:none;stroke:#D1D3D4;stroke-width:1.7678;stroke-miterlimit:10;}
	.st52{fill:none;stroke:#F23030;stroke-width:4;stroke-miterlimit:10;}
	.st53{fill:#F23030;}
	.st54{opacity:0.1;}
	.st55{fill:none;stroke:#F23030;stroke-width:3;}
	.st56{fill:none;stroke:#F23030;stroke-width:3;stroke-linejoin:round;}
	.st57{fill:none;stroke:#F23030;stroke-width:2;stroke-linejoin:round;}
	.st58{fill:none;stroke:#F23030;}
	.st59{fill:none;stroke:#F23030;stroke-width:2;}
	.st60{opacity:0.2;fill:#54D363;}
	.st61{fill:none;stroke:#0AA51C;stroke-width:3.9231;stroke-linejoin:round;stroke-miterlimit:10;}
	.st62{fill:#25B72F;stroke:#231F20;stroke-width:3;stroke-miterlimit:10;}
	.st63{fill:none;stroke:#37B44A;stroke-width:2.2857;stroke-miterlimit:10;}
	.st64{fill:none;stroke:#231F20;stroke-width:1.9995;stroke-miterlimit:10;}
	.st65{fill:none;stroke:#231F20;stroke-width:1.9621;stroke-miterlimit:10;}
	.st66{fill:#FF9A22;stroke:#231F20;stroke-width:2;stroke-miterlimit:10;}
	.st67{fill:none;stroke:#231F20;stroke-width:2.0048;stroke-miterlimit:10;}
	.st68{fill:none;stroke:#2196F3;stroke-width:3;stroke-miterlimit:10;}
	.st69{fill:none;stroke:#F7941E;stroke-width:2;stroke-miterlimit:10;}
	.st70{fill:none;stroke:#000000;stroke-width:2.8594;stroke-miterlimit:10;}
	.st71{fill:none;stroke:#FFD63B;stroke-width:4;stroke-linecap:round;stroke-miterlimit:10;}
	.st72{fill:#DBDBDB;}
	.st73{fill:#E8E8E8;}
	.st74{fill:none;stroke:#FFD63B;stroke-width:2;stroke-linecap:round;stroke-linejoin:round;stroke-miterlimit:10;}
	.st75{fill:none;stroke:#000000;stroke-width:2;stroke-linejoin:round;stroke-miterlimit:10;}
	.st76{fill:#FFFFFF;stroke:#2196F3;stroke-width:3;stroke-miterlimit:10;}
	.st77{fill:#FFD63B;}
	.st78{fill:none;stroke:#FFFFFF;stroke-width:3;stroke-linejoin:bevel;stroke-miterlimit:10;}
	.st79{fill:none;stroke:#FFD63B;stroke-width:3;stroke-miterlimit:10;}
	.st80{opacity:0.2;fill:#FFFFFF;}
</style>
<g id="Layer_2" class="st0">
	<g class="st1">
		<rect x="-1361.5" y="-824" class="st2" width="6368.5" height="5472"/>
	</g>
</g>
<g id="Layer_1">
	<g>
		<g>
			<g>
				<polyline class="st21" points="49.5,99.9 49.5,113.5 1.5,113.5 1.5,19.5 49.5,19.5 49.5,28.5 				"/>
				<path class="st21" d="M30,96.4c-1,0.7-2.2,1.1-3.5,1.1c-3.3,0-6-2.7-6-6s2.7-6,6-6c1.5,0,2.9,0.6,4,1.5"/>
				<line class="st21" x1="10" y1="47.5" x2="31" y2="47.5"/>
				<line class="st21" x1="10" y1="56.5" x2="31" y2="56.5"/>
				<line class="st21" x1="10" y1="38.5" x2="31" y2="38.5"/>
			</g>
			<g>
				<path class="st21" d="M128.5,89.5V31.2c0-1.5-1.2-2.7-2.7-2.7H34.3c-1.5,0-2.7,1.2-3.8,2.7v58.3H128.5L128.5,89.5z M30.5,89.5
					v7.6c0,1.9,1.5,3.4,3.4,3.4h91.3c1.8,0,3.3-1.5,3.3-3.3v-7.7H30.5L30.5,89.5z M94.9,113.5c-0.8-0.4-1.5,0.3-2.1,0
					c-1-0.6-2.4-2.2-2.4-2.2v-10.8h-21v9.7c0,0-0.3,2.7-1.4,3.2c-0.6,0.3-0.5-0.3-1.3,0H66 M62,113.5h36"/>
			</g>
			<g>
				<g>
					<path class="st22" d="M99.8,77c5.4,0,9.8-4.4,9.8-9.8c0-4.8-3.5-8.9-8.2-9.6c-0.2-8.5-7.2-15.3-15.7-15.3
						c-7.6,0-14.2,5.5-15.5,12.9c-0.8-0.2-1.6-0.3-2.4-0.3c-6,0-10.9,4.9-10.9,10.8c0,0.2,0,0.5,0,0.7c-2.6,0.3-4.5,2.5-4.5,5.2
						c0,2.9,2.3,5.2,5.2,5.3v0H99.8L99.8,77z"/>
				</g>
				<path class="st23" d="M109.2,66c0-4.8-3.9-8.7-8.7-8.7s-8.7,3.9-8.7,8.7"/>
				<path class="st23" d="M74.9,59.2c-1.5-2.6-4.3-4.3-7.5-4.3"/>
			</g>
		</g>
	</g>
	<g id="arrow_1_">
	</g>
	<g id="arrow">
	</g>
</g>
</svg>
