<svg xmlns="http://www.w3.org/2000/svg" xmlns:xlink="http://www.w3.org/1999/xlink" viewBox="0 0 40 40"><defs><style>.cls-1{fill:#2962ff;}.cls-2{clip-path:url(#clip-path);}</style><clipPath id="clip-path"><path class="cls-1" d="M28.08,0H11.92A11.92,11.92,0,0,0,0,11.92V28.08A11.92,11.92,0,0,0,11.92,40H28.08A11.92,11.92,0,0,0,40,28.08V11.92A11.93,11.93,0,0,0,28.08,0Zm0,36H11.89A7.89,7.89,0,0,1,4,28.11V11.89A7.89,7.89,0,0,1,11.89,4H28.11A7.89,7.89,0,0,1,36,11.89V28.11A7.89,7.89,0,0,1,28.11,36ZM36,28.21"/></clipPath></defs><title>Asset 18icon</title><g id="Layer_2" data-name="Layer 2"><g id="Layer_1-2" data-name="Layer 1"><path class="cls-1" d="M28.08,0H11.92A11.92,11.92,0,0,0,0,11.92V28.08A11.92,11.92,0,0,0,11.92,40H28.08A11.92,11.92,0,0,0,40,28.08V11.92A11.93,11.93,0,0,0,28.08,0Zm0,36H11.89A7.89,7.89,0,0,1,4,28.11V11.89A7.89,7.89,0,0,1,11.89,4H28.11A7.89,7.89,0,0,1,36,11.89V28.11A7.89,7.89,0,0,1,28.11,36ZM36,28.21"/><g class="cls-2"><rect class="cls-1" width="40" height="40"/></g><path class="cls-1" d="M20,9.78A10.35,10.35,0,1,0,30.35,20.13,10.36,10.36,0,0,0,20,9.78Zm0,16.67a6.32,6.32,0,1,1,6.32-6.32A6.32,6.32,0,0,1,20,26.45Zm0,0"/><path class="cls-1" d="M32.85,9.86a2.48,2.48,0,1,1-2.48-2.48,2.48,2.48,0,0,1,2.48,2.48Zm0,0"/></g></g></svg>