<svg xmlns="http://www.w3.org/2000/svg" viewBox="0 0 56 32.87"><defs><style>.cls-1{fill:#2962ff;}</style></defs><title>Asset 19icon</title><g id="Layer_2" data-name="Layer 2"><g id="Layer_1-2" data-name="Layer 1"><path class="cls-1" d="M55.59,28.9a3.85,3.85,0,0,0-.19-.37,29.09,29.09,0,0,0-5.58-6.45L49.77,22l0,0,0-.12h-.07Q47.72,20,47.22,19.42A2.3,2.3,0,0,1,46.8,17a22.59,22.59,0,0,1,2.69-3.92q1.23-1.58,1.94-2.54,5.18-6.88,4.49-8.8l-.18-.3a1.75,1.75,0,0,0-.93-.49A4.67,4.67,0,0,0,52.9.87H44.45s-.33.61-.58.67l-.38.09-.15.07-.12.09a1.27,1.27,0,0,0-.32.31,2,2,0,0,0-.29.51,47.73,47.73,0,0,1-3.13,6.57q-1.08,1.81-2,3.14a15.25,15.25,0,0,1-1.52,2,10.5,10.5,0,0,1-1.11,1c-.33.25-.58.36-.76.32l-.5-.12a1.92,1.92,0,0,1-.66-.72,3.18,3.18,0,0,1-.34-1.14q-.09-.69-.1-1.18c0-.33,0-.8,0-1.4s0-1,0-1.23q0-1.11,0-2.41t.07-2.06q0-.76,0-1.61a6.73,6.73,0,0,0-.1-1.33,4.5,4.5,0,0,0-.31-.93,1.57,1.57,0,0,0-.6-.7,3.35,3.35,0,0,0-1-.4A19.58,19.58,0,0,0,26.79,0q-5.43-.06-7,.7a3.92,3.92,0,0,0-1.11.87q-.52.64-.15.7A3.59,3.59,0,0,1,21,3.54l.17.35a5.5,5.5,0,0,1,.41,1.34,13.48,13.48,0,0,1,.26,2.13,22.52,22.52,0,0,1,0,3.65q-.14,1.52-.28,2.36a4.73,4.73,0,0,1-.39,1.37,5.55,5.55,0,0,1-.35.64.5.5,0,0,1-.15.15,2.17,2.17,0,0,1-.79.15,1.85,1.85,0,0,1-1-.41,7,7,0,0,1-1.21-1.13,15,15,0,0,1-1.42-2q-.79-1.28-1.63-3l-.47-.85q-.44-.82-1.2-2.38t-1.34-3a1.94,1.94,0,0,0-.7-.93l-.15-.09a2.1,2.1,0,0,0-.47-.25c-.22-.09-.67.28-.67.28l-7.83.06A2,2,0,0,0,.2,2.48l-.12.17A.94.94,0,0,0,0,3.11a2.28,2.28,0,0,0,.17.78Q1.9,7.95,3.93,11.72t3.53,6.08q1.5,2.3,3.05,4.35t2.06,2.62c.34.38.6.67.79.86l.72.69a16.91,16.91,0,0,0,2,1.65,34.59,34.59,0,0,0,3,1.9,16.12,16.12,0,0,0,3.79,1.53,13.05,13.05,0,0,0,4.2.47h3.55a4.68,4.68,0,0,0,1.55-.68l.12-.15a1.93,1.93,0,0,0,.22-.54,3,3,0,0,0,.1-.8,9.69,9.69,0,0,1,.19-2.26,5.93,5.93,0,0,1,.5-1.52,3.66,3.66,0,0,1,.63-.86,2.48,2.48,0,0,1,.5-.42l.23-.1a1.86,1.86,0,0,1,1.65.45,9.78,9.78,0,0,1,1.78,1.69q.83,1,2,2.26a13.93,13.93,0,0,0,2,1.87l.58.35a7.06,7.06,0,0,0,1.52.64,6.8,6.8,0,0,1,1.63,1.07h7.48s1.31-1.16,1.72-1.4a1.45,1.45,0,0,0,.73-.8,2.26,2.26,0,0,0,0-1,3.79,3.79,0,0,0-.2-.77Zm0,0"/></g></g></svg>