<svg xmlns="http://www.w3.org/2000/svg" viewBox="0 0 81 73"><defs><style>.cls-1{fill:none;stroke:#2962ff;stroke-miterlimit:10;stroke-width:3px;}</style></defs><title>Asset 6icon</title><g id="Layer_2" data-name="Layer 2"><g id="Layer_1-2" data-name="Layer 1"><polyline class="cls-1" points="31.21 45.66 34.3 55.5 30 55.5"/><polyline class="cls-1" points="26.89 44.96 35.23 71.5 19.23 71.5 10.89 44.96"/><polyline class="cls-1" points="9.42 44.81 11.16 51.36 30.5 45.5"/><polyline class="cls-1" points="7 20.5 1.5 20.5 1.5 43.5 7 43.5"/><polygon class="cls-1" points="79.5 62.5 75.5 62.5 75.5 1.5 79.5 1.5 79.5 62.5 79.5 62.5"/><polygon class="cls-1" points="35.5 17.84 35.5 45.23 75.5 61.34 75.5 2.42 35.5 17.84 35.5 17.84"/><polygon class="cls-1" points="35.5 45.5 6.5 45.5 6.5 18.5 35.5 18.5 35.5 45.5 35.5 45.5"/><line class="cls-1" x1="10" y1="23.5" x2="26" y2="23.5"/></g></g></svg>