<svg xmlns="http://www.w3.org/2000/svg" viewBox="0 0 42.99 42.53"><defs><style>.cls-1{fill:#2962ff;}</style></defs><title>Asset 8icon</title><g id="Layer_2" data-name="Layer 2"><g id="Layer_1-2" data-name="Layer 1"><rect class="cls-1" x="32.02" y="27.73" width="3" height="16.1" transform="translate(-15.48 34.18) rotate(-45)"/><path class="cls-1" d="M30.94,17.88c0,.37.06.74.06,1.12a14.05,14.05,0,1,1-3.36-9.08l2.12-2.08a17,17,0,1,0,3.8,7.48Z"/><polygon class="cls-1" points="20.25 24.86 14.42 16.14 7.61 22.35 0.95 17.57 2.7 15.13 7.38 18.5 14.98 11.57 20.73 20.18 38.76 2.53 40.86 4.67 20.25 24.86"/><polygon class="cls-1" points="42.99 14 39.99 14 39.99 3 28.99 3 28.99 0 42.99 0 42.99 14"/></g></g></svg>