<svg xmlns="http://www.w3.org/2000/svg" viewBox="0 0 50.14 49.82"><defs><style>.cls-1{fill:none;stroke:#2962ff;stroke-miterlimit:10;stroke-width:3px;}</style></defs><title>Asset 9icon</title><g id="Layer_2" data-name="Layer 2"><g id="Layer_1-2" data-name="Layer 1"><path class="cls-1" d="M40.82,25.9A13.52,13.52,0,0,1,41,28.57,19.75,19.75,0,1,1,21.25,8.82a14.05,14.05,0,0,1,3,.22"/><path class="cls-1" d="M32.79,24.46a8.91,8.91,0,0,1,.71,4.11A12.25,12.25,0,1,1,21.25,16.32a8.27,8.27,0,0,1,4,.68"/><path class="cls-1" d="M26.81,29.4C26.12,33.94,20,35.71,17,32.21s-.09-9.47,4.58-9.26"/><polygon class="cls-1" points="31.92 18.27 30.04 10.57 37.58 2.72 40.41 9.79 31.92 18.27"/><line class="cls-1" x1="38.11" y1="12.09" x2="21.04" y2="29.15"/><polygon class="cls-1" points="31.92 18.27 39.7 20.39 47.48 12.62 40.41 9.79 31.92 18.27"/></g></g></svg>