<svg xmlns="http://www.w3.org/2000/svg" viewBox="0 0 70.07 43"><defs><style>.cls-1{fill:none;stroke:#2962ff;stroke-miterlimit:10;stroke-width:3px;}</style></defs><title>Asset 10icon</title><g id="Layer_2" data-name="Layer 2"><g id="Layer_1-2" data-name="Layer 1"><path class="cls-1" d="M22.47,22.33,30,38.43A5.32,5.32,0,0,0,37,41L65.5,27.73a5.32,5.32,0,0,0,2.57-7.06L60.56,4.57A5.32,5.32,0,0,0,53.5,2L25,15.27A5.32,5.32,0,0,0,22.47,22.33Z"/><polyline class="cls-1" points="21.57 20.39 47.1 25.42 59.65 2.63"/><line class="cls-1" x1="41.27" y1="24.27" x2="33.06" y2="41.5"/><line class="cls-1" x1="68.57" y1="25.03" x2="49.97" y2="20.22"/><line class="cls-1" x1="24" y1="10.3" y2="10.3"/><line class="cls-1" x1="16" y1="18.3" x2="6" y2="18.3"/><line class="cls-1" x1="19" y1="25.3" x2="12" y2="25.3"/></g></g></svg>