<svg xmlns="http://www.w3.org/2000/svg" viewBox="0 0 43 50"><defs><style>.cls-1{fill:#2962ff;}.cls-2{fill:none;stroke:#2962ff;stroke-miterlimit:10;stroke-width:3px;}</style></defs><title>Asset 12icon</title><g id="Layer_2" data-name="Layer 2"><g id="Layer_1-2" data-name="Layer 1"><path class="cls-1" d="M38,45H0V0H38ZM3,42H35V3H3Z"/><rect class="cls-2" x="17.5" y="12.5" width="4" height="3"/><rect class="cls-2" x="7.5" y="28.5" width="4" height="3"/><rect class="cls-2" x="27.5" y="28.5" width="4" height="3"/><rect class="cls-2" x="17.5" y="28.5" width="4" height="3"/><line class="cls-2" x1="19.5" y1="27" x2="19.5" y2="15"/><polyline class="cls-2" points="29.5 28 29.5 21.5 9.5 21.5 9.5 28"/><path class="cls-1" d="M37.51,5s-.23,1.08-.75,3H40V47H8V43.9c.16.26-.77.31-1.75.08A6.36,6.36,0,0,0,5,43.91V50H43V5Z"/></g></g></svg>