<svg xmlns="http://www.w3.org/2000/svg" viewBox="0 0 74.81 74.81"><defs><style>.cls-1{fill:none;stroke:#2962ff;stroke-miterlimit:10;stroke-width:3px;}</style></defs><title>Asset 20icon</title><g id="Layer_2" data-name="Layer 2"><g id="Layer_1-2" data-name="Layer 1"><path class="cls-1" d="M2.53,8l3.7,3.7,5.51-5.51L8,2.53A.77.77,0,0,0,7,2.7L2.7,7a.77.77,0,0,0-.17,1Zm32.22,21.2-23-23L6.23,11.74l23,23M39.51,45,62,67.54,67.54,62,44.77,39.26M64.32,64.32A13.57,13.57,0,0,0,62,67.46l9.89,4.39L67.46,62a13.57,13.57,0,0,0-3.14,2.35ZM10.84,16.39l5.58-5.58L11.68,6.07,6.1,11.64l4.74,4.74Z"/><path class="cls-1" d="M70.42,68.63c-.3.26-.6.52-.89.8a12.92,12.92,0,0,0-.89,1l3.22,1.43-1.44-3.23Z"/><polygon class="cls-1" points="72.12 12.04 12.04 72.12 2.12 62.21 62.21 2.12 72.12 12.04 72.12 12.04"/><line class="cls-1" x1="6.93" y1="58.6" x2="10.83" y2="62.51"/><line class="cls-1" x1="11.13" y1="54.4" x2="13.24" y2="56.5"/><line class="cls-1" x1="15.34" y1="50.19" x2="19.25" y2="54.1"/><line class="cls-1" x1="19.55" y1="45.98" x2="21.65" y2="48.09"/><line class="cls-1" x1="23.75" y1="41.78" x2="27.66" y2="45.68"/><line class="cls-1" x1="27.96" y1="37.57" x2="30.06" y2="39.68"/><line class="cls-1" x1="32.16" y1="33.37" x2="36.07" y2="37.27"/><line class="cls-1" x1="36.37" y1="29.16" x2="38.47" y2="31.26"/><line class="cls-1" x1="40.58" y1="24.95" x2="44.48" y2="28.86"/><line class="cls-1" x1="44.78" y1="20.75" x2="46.89" y2="22.85"/><line class="cls-1" x1="48.99" y1="16.54" x2="52.89" y2="20.45"/><line class="cls-1" x1="53.19" y1="12.34" x2="55.3" y2="14.44"/><line class="cls-1" x1="57.4" y1="8.13" x2="61.31" y2="12.04"/></g></g></svg>