<svg xmlns="http://www.w3.org/2000/svg" viewBox="0 0 67.55 23.04"><defs><style>.cls-1{fill:#2962ff;}</style></defs><title>Asset 26icon</title><g id="Layer_2" data-name="Layer 2"><g id="Layer_1-2" data-name="Layer 1"><path class="cls-1" d="M0,11.33A11.75,11.75,0,0,1,.75,7.22,11,11,0,0,1,6.46,1,10.89,10.89,0,0,1,11.2,0a10.33,10.33,0,0,1,5.42,1.38A8.79,8.79,0,0,1,20,5L16.64,7.3a5.8,5.8,0,0,0-1.09-1.62,5.44,5.44,0,0,0-1.38-1,6.19,6.19,0,0,0-1.54-.56,7.29,7.29,0,0,0-1.57-.18,6,6,0,0,0-2.9.67,6.38,6.38,0,0,0-2,1.74A7.69,7.69,0,0,0,4.9,8.75a9.2,9.2,0,0,0-.42,2.7A8.81,8.81,0,0,0,5,14.35,7.71,7.71,0,0,0,6.32,16.8a6.81,6.81,0,0,0,2.11,1.7,5.78,5.78,0,0,0,2.7.64,7.12,7.12,0,0,0,1.6-.19,6.07,6.07,0,0,0,1.58-.61,6,6,0,0,0,1.39-1.07,4.94,4.94,0,0,0,1-1.58l3.62,2.08A6.82,6.82,0,0,1,18.8,20a10,10,0,0,1-2.27,1.65,11.62,11.62,0,0,1-2.7,1A11.86,11.86,0,0,1,11,23a9.68,9.68,0,0,1-4.45-1,11.58,11.58,0,0,1-3.47-2.67A12.4,12.4,0,0,1,.82,15.6,11.68,11.68,0,0,1,0,11.33Z"/><path class="cls-1" d="M23.33,22.85V.13h10a6.46,6.46,0,0,1,2.9.66,7.48,7.48,0,0,1,2.29,1.73,8.14,8.14,0,0,1,1.5,2.43,7.31,7.31,0,0,1,.54,2.74,7.55,7.55,0,0,1-1.1,4,6.33,6.33,0,0,1-3,2.61l5.18,8.54h-5l-4.64-7.62H27.74v7.62Zm4.42-11.49h5.54a2.33,2.33,0,0,0,1.14-.29,2.89,2.89,0,0,0,.91-.78,3.93,3.93,0,0,0,.61-1.17,4.53,4.53,0,0,0,.22-1.44,4.11,4.11,0,0,0-.26-1.47A3.85,3.85,0,0,0,35.21,5a3.12,3.12,0,0,0-1-.77A2.58,2.58,0,0,0,33.09,4H27.74Z"/><path class="cls-1" d="M63.14,22.85v-15L57.28,19h-2.4L49,7.81v15H44.61V.13h4.74l6.72,12.93L62.85.13h4.7V22.85Z"/></g></g></svg>