<svg xmlns="http://www.w3.org/2000/svg" viewBox="0 0 38 48"><defs><style>.cls-1{fill:#2962ff;}.cls-2{fill:none;stroke:#2962ff;stroke-miterlimit:10;stroke-width:3px;}</style></defs><title>Asset 28icon</title><g id="Layer_2" data-name="Layer 2"><g id="Layer_1-2" data-name="Layer 1"><path class="cls-1" d="M37.42,13A14.12,14.12,0,0,1,35,12.75V45H3V3H25.4a5.75,5.75,0,0,1,0-3H0V48H38V12.94A4.66,4.66,0,0,1,37.42,13Z"/><polygon class="cls-2" points="25.5 12.5 36.5 12.5 36.5 11.5 26.5 1.5 25.5 1.5 25.5 12.5"/><line class="cls-2" x1="7" y1="15.5" x2="18" y2="15.5"/><line class="cls-2" x1="7" y1="22.5" x2="10" y2="22.5"/><line class="cls-2" x1="7" y1="28.5" x2="10" y2="28.5"/><line class="cls-2" x1="7" y1="34.5" x2="10" y2="34.5"/><line class="cls-2" x1="12" y1="22.5" x2="31" y2="22.5"/><line class="cls-2" x1="12" y1="28.5" x2="31" y2="28.5"/><line class="cls-2" x1="12" y1="34.5" x2="31" y2="34.5"/></g></g></svg>