<svg xmlns="http://www.w3.org/2000/svg" viewBox="0 0 47.09 45.91"><defs><style>.cls-1{fill:none;stroke:#2962ff;stroke-miterlimit:10;stroke-width:3.09px;}</style></defs><title>Asset 27icon</title><g id="Layer_2" data-name="Layer 2"><g id="Layer_1-2" data-name="Layer 1"><path class="cls-1" d="M38.93,7.35A5.92,5.92,0,0,0,37.41,15a6,6,0,0,0,7.46,2.54,21.74,21.74,0,0,1,0,10.79,6,6,0,0,0-7.46,2.54,5.92,5.92,0,0,0,1.52,7.67A21.85,21.85,0,0,1,29.49,44a6,6,0,0,0-11.88,0,21.85,21.85,0,0,1-9.44-5.39,5.92,5.92,0,0,0,1.52-7.67,6,6,0,0,0-7.46-2.54,21.74,21.74,0,0,1,0-10.79A6,6,0,0,0,9.69,15,5.92,5.92,0,0,0,8.17,7.35,21.86,21.86,0,0,1,17.61,2,6,6,0,0,0,29.49,2,21.86,21.86,0,0,1,38.93,7.35Z"/><ellipse class="cls-1" cx="23.55" cy="22.96" rx="6" ry="5.95"/></g></g></svg>