<svg xmlns="http://www.w3.org/2000/svg" viewBox="0 0 37.01 45.44"><defs><style>.cls-1,.cls-2,.cls-3{fill:none;stroke:#2962ff;stroke-miterlimit:10;}.cls-1,.cls-3{stroke-linecap:square;}.cls-1,.cls-2{stroke-width:3px;}.cls-3{stroke-width:2.25px;}.cls-4{fill:#2962ff;}</style></defs><title>Asset 29icon</title><g id="Layer_2" data-name="Layer 2"><g id="Layer_1-2" data-name="Layer 1"><path class="cls-1" d="M31.39,21A44.67,44.67,0,0,0,5.83,21c-2.42.74-4.32,2.55-4.33,5,0,3.08,0,16,0,17.85,0,.05,8,0,8,0v0h18v0s7.79.18,8,0V26.14A5.42,5.42,0,0,0,31.39,21Z"/><circle class="cls-2" cx="18.45" cy="10.19" r="8.69"/><path class="cls-3" d="M18.84,22.64c-.27,0,.29,0,0,0,0,.38-.12.58-.42.58a.54.54,0,0,1-.58-.58c-.18,0,.21,0,0,0a5.49,5.49,0,0,1-1,1l1.5,1.92,1.5-1.92Z"/><polygon class="cls-4" points="17.84 26.36 18.84 26.36 20.84 34.86 18.34 37.36 15.84 34.86 17.84 26.36"/></g></g></svg>