<svg xmlns="http://www.w3.org/2000/svg" viewBox="0 0 30.7 30"><defs><style>.cls-1{opacity:0.7;}.cls-2{fill:#1359bf;}</style></defs><title>Asset 1icon</title><g id="Layer_2" data-name="Layer 2"><g id="Layer_1-2" data-name="Layer 1"><g class="cls-1"><path class="cls-2" d="M30.7,18.59V30h-7V19.3c0-2.69-1-4.52-3.37-4.52a3.64,3.64,0,0,0-3.41,2.43,4.56,4.56,0,0,0-.22,1.62V30h-7c.09-18.23.13-17.28,0-20h7v2.93l0,.07h0v-.07a6.81,6.81,0,0,1,6.15-3.28c4.49,0,7.85,2.84,7.85,8.95ZM3.81,0a3.51,3.51,0,1,0-.09,7h0a3.51,3.51,0,1,0,0-7ZM.7,30h6V10H.7ZM.4,29.7"/></g></g></g></svg>