<svg xmlns="http://www.w3.org/2000/svg" viewBox="0 0 33 37.65"><defs><style>.cls-1{fill:#2962ff;}</style></defs><title>Asset 14icon</title><g id="Layer_2" data-name="Layer 2"><g id="Layer_1-2" data-name="Layer 1"><path class="cls-1" d="M2.55,12.65H2.23A2.24,2.24,0,0,0,0,14.88v9.53a2.24,2.24,0,0,0,2.24,2.24h.53A2.24,2.24,0,0,0,5,24.41V14.85a2.35,2.35,0,0,0-2.45-2.2Zm.3-.46"/><path class="cls-1" d="M6,28.6a2,2,0,0,0,2,2h2v4.77a2.23,2.23,0,0,0,2.23,2.23h.53A2.24,2.24,0,0,0,15,35.41V30.65h3v4.77a2.24,2.24,0,0,0,2.23,2.23h.53A2.24,2.24,0,0,0,23,35.42V30.65h1.92A2.11,2.11,0,0,0,27,28.53V12.65H6Zm.15-.7"/><path class="cls-1" d="M21.65,3.27,23.4.57a.37.37,0,0,0-.11-.51.35.35,0,0,0-.51.11L21,3A11.94,11.94,0,0,0,12,3L10.23.17A.36.36,0,0,0,9.72.06a.37.37,0,0,0-.11.51l1.74,2.69a8.73,8.73,0,0,0-5.24,8.38H26.89a8.73,8.73,0,0,0-5.24-8.38ZM11.68,8a1,1,0,1,1,1-1,1,1,0,0,1-1,1Zm9.63,0a1,1,0,1,1,1-1,1,1,0,0,1-1,1Zm0,0"/><path class="cls-1" d="M30.55,12.65h-.32A2.24,2.24,0,0,0,28,14.88v9.53a2.24,2.24,0,0,0,2.24,2.24h.53A2.24,2.24,0,0,0,33,24.41V14.85a2.34,2.34,0,0,0-2.45-2.2Zm-.31-.46"/></g></g></svg>