<svg xmlns="http://www.w3.org/2000/svg" viewBox="0 0 72.47 74.35"><defs><style>.cls-1,.cls-2{fill:none;stroke:#2962ff;stroke-miterlimit:10;}.cls-1{stroke-width:2.85px;}.cls-2{stroke-width:3.35px;}</style></defs><title>Asset 13icon</title><g id="Layer_2" data-name="Layer 2"><g id="Layer_1-2" data-name="Layer 1"><path class="cls-1" d="M53.81,70.14,70.42,56.37l-8.54-9.49L60,48.78,57.92,46l-2.21-6.2L51,30.27l-5.7-4.75L39.1,25l-6.17,3.32L29.51,31l3.94,4.53L19.21,21.39A2.53,2.53,0,0,0,16,21l-1,.83a1.86,1.86,0,0,0-.11,2.73h0L33.51,45l.42,1.44-.47.47-9.07-6.22-.91-.1c-1.61-.18-3.79.91-3.36,2.47l1.42,2.37,11.39,9.54,6.64,1.9,6.17.47,1.42,2.37-1.9,1.9Z"/><line class="cls-1" x1="45.74" y1="61.12" x2="59.98" y2="47.83"/><path class="cls-2" d="M38.67,20.17V7.26a5.58,5.58,0,0,0-5.58-5.58H7.26A5.58,5.58,0,0,0,1.67,7.26V67.09a5.58,5.58,0,0,0,5.58,5.58H33.09a5.58,5.58,0,0,0,5.58-5.58V61.17"/><line class="cls-2" x1="39.17" y1="62.67" x2="3.17" y2="62.67"/><line class="cls-2" x1="39.17" y1="9.67" x2="2.17" y2="9.67"/><line class="cls-2" x1="17.17" y1="5.67" x2="23.17" y2="5.67"/><circle class="cls-2" cx="20.67" cy="67.67" r="1"/></g></g></svg>