<svg xmlns="http://www.w3.org/2000/svg" viewBox="0 0 32 39.45"><defs><style>.cls-1{fill:#2962ff;}</style></defs><title>Asset 15icon</title><g id="Layer_2" data-name="Layer 2"><g id="Layer_1-2" data-name="Layer 1"><path class="cls-1" d="M18,3a8.82,8.82,0,0,1,5.79-3,8.71,8.71,0,0,1-2,6.3A7.27,7.27,0,0,1,16,9.09,8.28,8.28,0,0,1,18,3ZM29.28,34.56c-1.64,2.4-3.34,4.79-6,4.84s-3.48-1.56-6.49-1.56-4,1.52-6.44,1.62-4.55-2.6-6.2-5c-3.38-4.9-6-13.84-2.49-19.88A9.6,9.6,0,0,1,9.77,9.63c2.54,0,4.94,1.72,6.49,1.72s4.46-2.12,7.53-1.81A9.16,9.16,0,0,1,31,13.45,8.94,8.94,0,0,0,26.73,21a8.7,8.7,0,0,0,5.27,8,21.74,21.74,0,0,1-2.72,5.61Zm0,0"/></g></g></svg>