<svg xmlns="http://www.w3.org/2000/svg" viewBox="0 0 88 73"><defs><style>.cls-1{fill:none;stroke:#2962ff;stroke-miterlimit:10;stroke-width:3px;}</style></defs><title>Asset 1icon</title><g id="Layer_2" data-name="Layer 2"><g id="Layer_1-2" data-name="Layer 1"><path class="cls-1" d="M80.5,31V3.7a2.2,2.2,0,0,0-2.2-2.2H3.7A2.2,2.2,0,0,0,1.5,3.7V50.5H48m0,0H1.5v6.25A2.76,2.76,0,0,0,4.25,59.5H48m1,1-17.33-.09c-.14,1.68.16,5.43-.2,7.27-.33,1.67-.56,1.73-1.45,2.23-.5.28-1.35.66-2.06,1h0m-2,.63H56"/><path class="cls-1" d="M72,71.5H50.21c-.95-.87-1.71-1.64-1.71-2.59V27.18a1.68,1.68,0,0,1,1.68-1.68H78.82a1.68,1.68,0,0,1,1.68,1.68V37"/><polyline class="cls-1" points="69 66.5 53.5 66.5 53.5 30.5 75.5 30.5 75.5 37"/><path class="cls-1" d="M86.5,70.46a1.09,1.09,0,0,1-1.13,1H69.54a1,1,0,0,1-1-1V38.55a1,1,0,0,1,1-1h15.9a1,1,0,0,1,1,1V70.46Z"/><path class="cls-1" d="M85,66.5H69m0-25H85"/></g></g></svg>