<svg xmlns="http://www.w3.org/2000/svg" viewBox="0 0 45.21 44.87"><defs><style>.cls-1,.cls-2{fill:none;stroke:#2962ff;stroke-miterlimit:10;}.cls-1{stroke-width:3px;}.cls-2{stroke-width:2.96px;}</style></defs><title>Asset 2icon</title><g id="Layer_2" data-name="Layer 2"><g id="Layer_1-2" data-name="Layer 1"><path class="cls-1" d="M43.47,1.59a29.18,29.18,0,0,0-9.79.88l-.4.11A22.36,22.36,0,0,0,21.5,9.87c-3.08,3.57-8.46,13-8.46,13l9.06,9.06s9.85-5.51,13.62-8.65a20.74,20.74,0,0,0,7.16-11.62L43,11.3A26.21,26.21,0,0,0,43.47,1.59Z"/><polygon class="cls-1" points="17.4 33.95 10.28 27.04 13.04 22.81 22.02 31.79 17.4 33.95"/><path class="cls-1" d="M24.61,30.93l-.06,10.3,7.14-7.14a7.32,7.32,0,0,0,2.14-5.37L33.53,25Z"/><path class="cls-1" d="M14.61,19.93l-10.78.58L11,13.37a7.32,7.32,0,0,1,5.37-2.14l3.69.3Z"/><circle class="cls-2" cx="30.85" cy="14.5" r="3" transform="translate(-1.21 26.06) rotate(-45)"/><line class="cls-1" x1="8.41" y1="30.97" x2="3.2" y2="36.19"/><line class="cls-1" x1="14.52" y1="37.14" x2="9.3" y2="42.36"/><line class="cls-1" x1="11.45" y1="34.07" x2="4.54" y2="40.98"/></g></g></svg>