<svg xmlns="http://www.w3.org/2000/svg" viewBox="0 0 53 43"><defs><style>.cls-1,.cls-2{fill:none;stroke:#2962ff;stroke-miterlimit:10;}.cls-1{stroke-width:3px;}.cls-2{stroke-width:2.99px;}.cls-3{fill:#2962ff;}</style></defs><title>Asset 5icon</title><g id="Layer_2" data-name="Layer 2"><g id="Layer_1-2" data-name="Layer 1"><line class="cls-1" x1="51" y1="9.5" x2="1" y2="9.5"/><line class="cls-1" x1="48" y1="5.5" x2="46" y2="5.5"/><line class="cls-1" x1="45" y1="5.5" x2="43" y2="5.5"/><line class="cls-1" x1="42" y1="5.5" x2="40" y2="5.5"/><path class="cls-1" d="M51.5,41.5H1.5V3.33A1.83,1.83,0,0,1,3.33,1.5H49.67A1.83,1.83,0,0,1,51.5,3.33Z"/><line class="cls-2" x1="21" y1="33.5" x2="44" y2="33.5"/><line class="cls-2" x1="21" y1="28.5" x2="33" y2="28.5"/><path class="cls-3" d="M46,24H7V13H46ZM10,21H43V16H10Z"/><path class="cls-3" d="M18,37H7V27H18Zm-8-3h5V30H10Z"/></g></g></svg>