<svg xmlns="http://www.w3.org/2000/svg" viewBox="0 0 91 71.68"><defs><style>.cls-1{fill:none;stroke:#2962ff;stroke-miterlimit:10;stroke-width:3px;}.cls-2{fill:#2962ff;}</style></defs><title>Asset 16icon</title><g id="Layer_2" data-name="Layer 2"><g id="Layer_1-2" data-name="Layer 1"><path class="cls-1" d="M35.67,22.5H7.87A6.37,6.37,0,0,0,1.5,28.87V53.13A6.37,6.37,0,0,0,7.87,59.5H10.5v9.44L25.3,59.5H45.13a6.37,6.37,0,0,0,6.37-6.37V42.5"/><path class="cls-1" d="M51.5,42.5"/><path class="cls-2" d="M25.05,30.72a0,0,0,0,0-.05,0V45.84a2.58,2.58,0,0,0,2.39,2.58l6.73.48a2.58,2.58,0,0,0,2.78-2.39l.46-6.4a2.58,2.58,0,0,0-2.83-2.75l-6.07.56.21-1.48c.38-2.66-.87-6.81-3.61-5.69Z"/><rect class="cls-2" x="19" y="36" width="5" height="13"/><path class="cls-1" d="M45.87,1.5H83.13A6.37,6.37,0,0,1,89.5,7.87V32.13a6.37,6.37,0,0,1-6.37,6.37H79.5v9.44L64.7,38.5H45.87a6.37,6.37,0,0,1-6.37-6.37V7.87A6.37,6.37,0,0,1,45.87,1.5Z"/><path class="cls-2" d="M74.22,17.76l0-.22A5.77,5.77,0,0,0,74,16.9a4.56,4.56,0,0,0-1-1.82L73,15a4.79,4.79,0,0,0-3.63-1.64C67,13.36,64.93,16,64.3,17h.39c-.62-1-2.7-3.64-5.07-3.64A4.79,4.79,0,0,0,56,15l-.06.07,0,.05-.18.23-.19.29,0,.09a4.48,4.48,0,0,0-.22.41l-.06.11q-.13.32-.24.64a3.25,3.25,0,0,0-.14.65l0,.22a3.94,3.94,0,0,0,0,.47,4.42,4.42,0,0,0,0,.5c.39,4.78,9.72,11.39,9.72,11.39s9.33-6.61,9.72-11.39a4.67,4.67,0,0,0,0-.5A4.06,4.06,0,0,0,74.22,17.76Z"/></g></g></svg>