<?xml version="1.0" encoding="utf-8"?>
<!-- Generator: Adobe Illustrator 21.0.0, SVG Export Plug-In . SVG Version: 6.00 Build 0)  -->
<svg version="1.1" xmlns="http://www.w3.org/2000/svg" xmlns:xlink="http://www.w3.org/1999/xlink" x="0px" y="0px"
	 viewBox="0 0 70 70" style="enable-background:new 0 0 70 70;" xml:space="preserve">
<style type="text/css">
	.st0{display:none;}
	.st1{display:inline;}
	.st2{fill:#F7F6F3;}
	.st3{display:inline;fill:#1C1C1B;}
	.st4{fill:#FFD63B;stroke:#FFFFFF;stroke-width:3;stroke-linejoin:bevel;stroke-miterlimit:10;}
	.st5{fill:#FFFFFF;}
	.st6{fill:#58595B;}
	.st7{opacity:0.3;}
	.st8{fill:none;stroke:#231F20;stroke-width:3;stroke-miterlimit:10;}
	.st9{fill:none;stroke:#FF5515;stroke-width:4;stroke-miterlimit:10;}
	.st10{fill:#F7F6F3;stroke:#231F20;stroke-width:3;stroke-miterlimit:10;}
	.st11{fill:#2196F3;}
	.st12{fill:#FFFFFF;stroke:#231F20;stroke-width:3;stroke-miterlimit:10;}
	.st13{fill:#FF9A22;}
	.st14{fill:none;stroke:#00843C;stroke-width:3;stroke-miterlimit:10;}
	.st15{fill:none;stroke:#FF9A22;stroke-width:4;stroke-miterlimit:10;}
	.st16{fill:none;stroke:#FF9A22;stroke-width:3;stroke-miterlimit:10;}
	.st17{fill:#FF5515;}
	.st18{fill:#FFFFFF;stroke:#ED1C24;stroke-width:3;stroke-miterlimit:10;}
	.st19{fill:none;stroke:#ED1C24;stroke-width:3;stroke-miterlimit:10;}
	.st20{fill:none;stroke:#000000;stroke-width:4;stroke-miterlimit:10;}
	.st21{fill:none;stroke:#000000;stroke-width:3;stroke-miterlimit:10;}
	.st22{fill:none;stroke:#2196F3;stroke-width:4;stroke-linecap:round;stroke-linejoin:round;stroke-miterlimit:10;}
	.st23{fill:#F7F6F3;stroke:#2196F3;stroke-width:4;stroke-linecap:round;stroke-linejoin:round;stroke-miterlimit:10;}
	.st24{fill:#F7F6F3;stroke:#000000;stroke-width:3;stroke-miterlimit:10;}
	.st25{fill:#04A548;stroke:#231F20;stroke-width:3;stroke-miterlimit:10;}
	.st26{fill:none;stroke:#04A548;stroke-width:3;stroke-miterlimit:10;}
	.st27{fill:#F7F6F3;stroke:#04A548;stroke-width:3;stroke-miterlimit:10;}
	.st28{fill:#FFFFFF;stroke:#FF9A22;stroke-width:3;stroke-miterlimit:10;}
	.st29{fill:none;stroke:#FF5515;stroke-width:3;stroke-miterlimit:10;}
	.st30{fill:#04A548;}
	.st31{opacity:0.34;}
	.st32{fill:#231F20;}
	.st33{fill:none;stroke:#231F20;stroke-width:2;stroke-miterlimit:10;}
	.st34{fill:none;stroke:#25B72F;stroke-width:3;stroke-miterlimit:10;}
	.st35{fill:none;stroke:#231F20;stroke-width:1.9286;stroke-miterlimit:10;}
	.st36{fill:#FFFFFF;stroke:#231F20;stroke-width:2;stroke-miterlimit:10;}
	.st37{fill:#25B72F;}
	.st38{fill:#25B72F;stroke:#231F20;stroke-width:2;stroke-miterlimit:10;}
	.st39{fill:none;stroke:#231F20;stroke-width:1.989;stroke-miterlimit:10;}
	.st40{fill:#FFFFFF;stroke:#231F20;stroke-width:2.2678;stroke-miterlimit:10;}
	.st41{fill:none;stroke:#231F20;stroke-width:2.3155;stroke-miterlimit:10;}
	.st42{fill:none;stroke:#231F20;stroke-width:0.9592;stroke-miterlimit:10;}
	.st43{fill:none;stroke:#FF9A22;stroke-width:2;stroke-miterlimit:10;}
	.st44{fill:none;stroke:#FF5515;stroke-width:2;stroke-miterlimit:10;}
	.st45{fill:none;stroke:#2196F3;stroke-width:2;stroke-miterlimit:10;}
	.st46{fill:#FF5515;stroke:#FF5515;stroke-width:2;stroke-miterlimit:10;}
	.st47{fill:none;stroke:#F7F6F3;stroke-width:2;stroke-miterlimit:10;}
	.st48{fill:#FF9A22;stroke:#FF9A22;stroke-width:2;stroke-miterlimit:10;}
	.st49{fill:#F7F6F3;stroke:#231F20;stroke-width:2;stroke-miterlimit:10;}
	.st50{fill:none;stroke:#FD4741;stroke-width:3;stroke-linejoin:round;stroke-miterlimit:10;}
	.st51{fill:none;stroke:#D1D3D4;stroke-width:1.7678;stroke-miterlimit:10;}
	.st52{fill:none;stroke:#F23030;stroke-width:4;stroke-miterlimit:10;}
	.st53{fill:#F23030;}
	.st54{opacity:0.1;}
	.st55{fill:none;stroke:#F23030;stroke-width:3;}
	.st56{fill:none;stroke:#F23030;stroke-width:3;stroke-linejoin:round;}
	.st57{fill:none;stroke:#F23030;stroke-width:2;stroke-linejoin:round;}
	.st58{fill:none;stroke:#F23030;}
	.st59{fill:none;stroke:#F23030;stroke-width:2;}
	.st60{opacity:0.2;fill:#54D363;}
	.st61{fill:none;stroke:#0AA51C;stroke-width:3.9231;stroke-linejoin:round;stroke-miterlimit:10;}
	.st62{fill:#25B72F;stroke:#231F20;stroke-width:3;stroke-miterlimit:10;}
	.st63{fill:none;stroke:#37B44A;stroke-width:2.2857;stroke-miterlimit:10;}
	.st64{fill:none;stroke:#231F20;stroke-width:1.9995;stroke-miterlimit:10;}
	.st65{fill:none;stroke:#231F20;stroke-width:1.9621;stroke-miterlimit:10;}
	.st66{fill:#FF9A22;stroke:#231F20;stroke-width:2;stroke-miterlimit:10;}
	.st67{fill:none;stroke:#231F20;stroke-width:2.0048;stroke-miterlimit:10;}
	.st68{fill:none;stroke:#2196F3;stroke-width:3;stroke-miterlimit:10;}
	.st69{fill:none;stroke:#F7941E;stroke-width:2;stroke-miterlimit:10;}
	.st70{fill:none;stroke:#000000;stroke-width:2.8594;stroke-miterlimit:10;}
	.st71{fill:none;stroke:#FFD63B;stroke-width:4;stroke-linecap:round;stroke-miterlimit:10;}
	.st72{fill:#DBDBDB;}
	.st73{fill:#E8E8E8;}
	.st74{fill:none;stroke:#FFD63B;stroke-width:2;stroke-linecap:round;stroke-linejoin:round;stroke-miterlimit:10;}
	.st75{fill:none;stroke:#000000;stroke-width:2;stroke-linejoin:round;stroke-miterlimit:10;}
	.st76{fill:#FFFFFF;stroke:#2196F3;stroke-width:3;stroke-miterlimit:10;}
	.st77{fill:#FFD63B;}
	.st78{fill:none;stroke:#FFFFFF;stroke-width:3;stroke-linejoin:bevel;stroke-miterlimit:10;}
	.st79{fill:none;stroke:#FFD63B;stroke-width:3;stroke-miterlimit:10;}
	.st80{opacity:0.2;fill:#FFFFFF;}
</style>
<g id="Layer_2" class="st0">
	<g class="st1">
		<rect x="-890.5" y="-2695" class="st2" width="6368.5" height="5472"/>
	</g>
</g>
<g id="Layer_1">
	<g>
		<rect x="15" y="16" class="st38" width="17" height="17"/>
		<rect x="15" y="33" class="st33" width="17" height="17"/>
		<rect x="15" y="50" class="st33" width="17" height="17"/>
		<rect x="32" y="16" class="st33" width="17" height="17"/>
		<rect x="32" y="33" class="st33" width="17" height="17"/>
		<rect x="32" y="50" class="st33" width="17" height="17"/>
		<rect x="49" y="16" class="st33" width="17" height="17"/>
		<rect x="49" y="33" class="st33" width="17" height="17"/>
		<rect x="49" y="50" class="st33" width="17" height="17"/>
		<g>
			<g>
				<path class="st32" d="M10.1,27.1H9.6c-0.1,0-0.1,0-0.1,0c0,0-0.1-0.1-0.1-0.1l-0.9-2.3H4.7L3.8,27c0,0,0,0.1-0.1,0.1
					s-0.1,0-0.1,0H3.1l3.2-7.8h0.6L10.1,27.1z M8.3,24.3l-1.6-3.9c-0.1-0.1-0.1-0.3-0.2-0.5c0,0.1,0,0.2-0.1,0.3
					c0,0.1-0.1,0.2-0.1,0.2l-1.6,3.9H8.3z"/>
			</g>
		</g>
		<g>
			<g>
				<path class="st32" d="M27.2,10.6h-0.6c-0.1,0-0.1,0-0.1,0c0,0-0.1-0.1-0.1-0.1L24,6.9C24,6.9,24,7,24,7l-2.4,3.4
					c0,0-0.1,0.1-0.1,0.1c0,0-0.1,0-0.1,0h-0.5l2.8-4L21,2.8h0.6c0.1,0,0.1,0,0.1,0s0,0,0.1,0.1l2.4,3.4c0-0.1,0-0.1,0.1-0.2
					l2.3-3.2c0,0,0-0.1,0.1-0.1c0,0,0.1,0,0.1,0h0.5l-2.7,3.8L27.2,10.6z"/>
			</g>
		</g>
		<g>
			<g>
				<path class="st32" d="M40.7,7.4v3.2h-0.6V7.4l-2.9-4.6h0.5c0.1,0,0.1,0,0.1,0c0,0,0.1,0.1,0.1,0.1l2.2,3.6
					c0,0.1,0.1,0.2,0.1,0.2c0,0.1,0.1,0.2,0.1,0.2c0-0.1,0.1-0.2,0.1-0.2c0-0.1,0.1-0.2,0.1-0.2L42.9,3c0,0,0-0.1,0.1-0.1
					c0,0,0.1,0,0.1,0h0.5L40.7,7.4z"/>
			</g>
		</g>
		<g>
			<g>
				<path class="st32" d="M60.9,3c0,0.1,0,0.1-0.1,0.2l-4.9,6.9h5v0.5h-5.7v-0.2c0,0,0-0.1,0-0.1c0,0,0-0.1,0-0.1l5-6.9h-4.9V2.8
					h5.6V3z"/>
			</g>
		</g>
		<g>
			<g>
				<path class="st32" d="M6.4,37c0.4,0,0.8,0,1.2,0.1s0.6,0.2,0.8,0.4c0.2,0.2,0.4,0.4,0.5,0.6C8.9,38.4,9,38.6,9,38.9
					c0,0.2,0,0.4-0.1,0.6c-0.1,0.2-0.2,0.4-0.3,0.5c-0.1,0.2-0.3,0.3-0.5,0.4c-0.2,0.1-0.4,0.2-0.7,0.3C8,40.8,8.5,41,8.8,41.4
					s0.5,0.7,0.5,1.3c0,0.3-0.1,0.6-0.2,0.9C9,43.8,8.8,44,8.6,44.2s-0.5,0.3-0.8,0.4c-0.3,0.1-0.7,0.1-1.1,0.1H4.1V37H6.4z
					 M4.7,37.4v3.2h1.7c0.4,0,0.7,0,0.9-0.1s0.5-0.2,0.6-0.4s0.3-0.3,0.4-0.5c0.1-0.2,0.1-0.4,0.1-0.6c0-0.5-0.2-0.9-0.5-1.2
					c-0.3-0.3-0.8-0.4-1.5-0.4H4.7z M6.7,44.3c0.7,0,1.2-0.1,1.5-0.4s0.5-0.7,0.5-1.2c0-0.2,0-0.5-0.1-0.7c-0.1-0.2-0.2-0.4-0.4-0.5
					c-0.2-0.1-0.4-0.2-0.6-0.3C7.3,41.1,7,41,6.7,41h-2v3.3H6.7z"/>
			</g>
		</g>
		<g>
			<g>
				<path class="st32" d="M9.8,61.1C9.8,61.1,9.8,61.1,9.8,61.1l0.3,0.3c-0.2,0.2-0.3,0.3-0.5,0.5S9.2,62,8.9,62.1
					c-0.2,0.1-0.5,0.2-0.7,0.2c-0.3,0.1-0.6,0.1-0.9,0.1c-0.5,0-1-0.1-1.5-0.3S5,61.7,4.7,61.4c-0.3-0.3-0.6-0.8-0.8-1.3
					s-0.3-1-0.3-1.6c0-0.6,0.1-1.1,0.3-1.6c0.2-0.5,0.4-0.9,0.8-1.3C5,55.2,5.4,55,5.9,54.8s1-0.3,1.5-0.3c0.5,0,1,0.1,1.4,0.2
					s0.8,0.4,1.1,0.7l-0.2,0.2c0,0-0.1,0.1-0.1,0.1c0,0-0.1,0-0.2-0.1c-0.1-0.1-0.2-0.2-0.4-0.3c-0.2-0.1-0.4-0.2-0.7-0.3
					C8.1,55,7.8,55,7.4,55c-0.5,0-0.9,0.1-1.3,0.2s-0.7,0.4-1,0.7c-0.3,0.3-0.5,0.7-0.7,1.1c-0.2,0.4-0.2,0.9-0.2,1.5
					c0,0.5,0.1,1,0.2,1.5c0.2,0.4,0.4,0.8,0.7,1.1c0.3,0.3,0.6,0.5,1,0.7C6.5,61.9,6.9,62,7.3,62c0.3,0,0.5,0,0.7-0.1
					c0.2,0,0.4-0.1,0.6-0.2c0.2-0.1,0.4-0.2,0.5-0.3s0.3-0.2,0.5-0.4C9.7,61.1,9.7,61.1,9.8,61.1C9.7,61.1,9.7,61.1,9.8,61.1z"/>
			</g>
		</g>
	</g>
	<g id="arrow_1_">
	</g>
	<g id="arrow">
	</g>
</g>
</svg>
