<?xml version="1.0" encoding="utf-8"?>
<!-- Generator: Adobe Illustrator 21.0.0, SVG Export Plug-In . SVG Version: 6.00 Build 0)  -->
<svg version="1.1" xmlns="http://www.w3.org/2000/svg" xmlns:xlink="http://www.w3.org/1999/xlink" x="0px" y="0px"
	 viewBox="0 0 70 70" style="enable-background:new 0 0 70 70;" xml:space="preserve">
<style type="text/css">
	.st0{display:none;}
	.st1{display:inline;}
	.st2{fill:#F7F6F3;}
	.st3{display:inline;fill:#1C1C1B;}
	.st4{fill:#FFD63B;stroke:#FFFFFF;stroke-width:3;stroke-linejoin:bevel;stroke-miterlimit:10;}
	.st5{fill:#FFFFFF;}
	.st6{fill:#58595B;}
	.st7{opacity:0.3;}
	.st8{fill:none;stroke:#231F20;stroke-width:3;stroke-miterlimit:10;}
	.st9{fill:none;stroke:#FF5515;stroke-width:4;stroke-miterlimit:10;}
	.st10{fill:#F7F6F3;stroke:#231F20;stroke-width:3;stroke-miterlimit:10;}
	.st11{fill:#2196F3;}
	.st12{fill:#FFFFFF;stroke:#231F20;stroke-width:3;stroke-miterlimit:10;}
	.st13{fill:#FF9A22;}
	.st14{fill:none;stroke:#00843C;stroke-width:3;stroke-miterlimit:10;}
	.st15{fill:none;stroke:#FF9A22;stroke-width:4;stroke-miterlimit:10;}
	.st16{fill:none;stroke:#FF9A22;stroke-width:3;stroke-miterlimit:10;}
	.st17{fill:#FF5515;}
	.st18{fill:#FFFFFF;stroke:#ED1C24;stroke-width:3;stroke-miterlimit:10;}
	.st19{fill:none;stroke:#ED1C24;stroke-width:3;stroke-miterlimit:10;}
	.st20{fill:none;stroke:#000000;stroke-width:4;stroke-miterlimit:10;}
	.st21{fill:none;stroke:#000000;stroke-width:3;stroke-miterlimit:10;}
	.st22{fill:none;stroke:#2196F3;stroke-width:4;stroke-linecap:round;stroke-linejoin:round;stroke-miterlimit:10;}
	.st23{fill:#F7F6F3;stroke:#2196F3;stroke-width:4;stroke-linecap:round;stroke-linejoin:round;stroke-miterlimit:10;}
	.st24{fill:#F7F6F3;stroke:#000000;stroke-width:3;stroke-miterlimit:10;}
	.st25{fill:#04A548;stroke:#231F20;stroke-width:3;stroke-miterlimit:10;}
	.st26{fill:none;stroke:#04A548;stroke-width:3;stroke-miterlimit:10;}
	.st27{fill:#F7F6F3;stroke:#04A548;stroke-width:3;stroke-miterlimit:10;}
	.st28{fill:#FFFFFF;stroke:#FF9A22;stroke-width:3;stroke-miterlimit:10;}
	.st29{fill:none;stroke:#FF5515;stroke-width:3;stroke-miterlimit:10;}
	.st30{fill:#04A548;}
	.st31{opacity:0.34;}
	.st32{fill:#231F20;}
	.st33{fill:none;stroke:#231F20;stroke-width:2;stroke-miterlimit:10;}
	.st34{fill:none;stroke:#25B72F;stroke-width:3;stroke-miterlimit:10;}
	.st35{fill:none;stroke:#231F20;stroke-width:1.9286;stroke-miterlimit:10;}
	.st36{fill:#FFFFFF;stroke:#231F20;stroke-width:2;stroke-miterlimit:10;}
	.st37{fill:#25B72F;}
	.st38{fill:#25B72F;stroke:#231F20;stroke-width:2;stroke-miterlimit:10;}
	.st39{fill:none;stroke:#231F20;stroke-width:1.989;stroke-miterlimit:10;}
	.st40{fill:#FFFFFF;stroke:#231F20;stroke-width:2.2678;stroke-miterlimit:10;}
	.st41{fill:none;stroke:#231F20;stroke-width:2.3155;stroke-miterlimit:10;}
	.st42{fill:none;stroke:#231F20;stroke-width:0.9592;stroke-miterlimit:10;}
	.st43{fill:none;stroke:#FF9A22;stroke-width:2;stroke-miterlimit:10;}
	.st44{fill:none;stroke:#FF5515;stroke-width:2;stroke-miterlimit:10;}
	.st45{fill:none;stroke:#2196F3;stroke-width:2;stroke-miterlimit:10;}
	.st46{fill:#FF5515;stroke:#FF5515;stroke-width:2;stroke-miterlimit:10;}
	.st47{fill:none;stroke:#F7F6F3;stroke-width:2;stroke-miterlimit:10;}
	.st48{fill:#FF9A22;stroke:#FF9A22;stroke-width:2;stroke-miterlimit:10;}
	.st49{fill:#F7F6F3;stroke:#231F20;stroke-width:2;stroke-miterlimit:10;}
	.st50{fill:none;stroke:#FD4741;stroke-width:3;stroke-linejoin:round;stroke-miterlimit:10;}
	.st51{fill:none;stroke:#D1D3D4;stroke-width:1.7678;stroke-miterlimit:10;}
	.st52{fill:none;stroke:#F23030;stroke-width:4;stroke-miterlimit:10;}
	.st53{fill:#F23030;}
	.st54{opacity:0.1;}
	.st55{fill:none;stroke:#F23030;stroke-width:3;}
	.st56{fill:none;stroke:#F23030;stroke-width:3;stroke-linejoin:round;}
	.st57{fill:none;stroke:#F23030;stroke-width:2;stroke-linejoin:round;}
	.st58{fill:none;stroke:#F23030;}
	.st59{fill:none;stroke:#F23030;stroke-width:2;}
	.st60{opacity:0.2;fill:#54D363;}
	.st61{fill:none;stroke:#0AA51C;stroke-width:3.9231;stroke-linejoin:round;stroke-miterlimit:10;}
	.st62{fill:#25B72F;stroke:#231F20;stroke-width:3;stroke-miterlimit:10;}
	.st63{fill:none;stroke:#37B44A;stroke-width:2.2857;stroke-miterlimit:10;}
	.st64{fill:none;stroke:#231F20;stroke-width:1.9995;stroke-miterlimit:10;}
	.st65{fill:none;stroke:#231F20;stroke-width:1.9621;stroke-miterlimit:10;}
	.st66{fill:#FF9A22;stroke:#231F20;stroke-width:2;stroke-miterlimit:10;}
	.st67{fill:none;stroke:#231F20;stroke-width:2.0048;stroke-miterlimit:10;}
	.st68{fill:none;stroke:#2196F3;stroke-width:3;stroke-miterlimit:10;}
	.st69{fill:none;stroke:#F7941E;stroke-width:2;stroke-miterlimit:10;}
	.st70{fill:none;stroke:#000000;stroke-width:2.8594;stroke-miterlimit:10;}
	.st71{fill:none;stroke:#FFD63B;stroke-width:4;stroke-linecap:round;stroke-miterlimit:10;}
	.st72{fill:#DBDBDB;}
	.st73{fill:#E8E8E8;}
	.st74{fill:none;stroke:#FFD63B;stroke-width:2;stroke-linecap:round;stroke-linejoin:round;stroke-miterlimit:10;}
	.st75{fill:none;stroke:#000000;stroke-width:2;stroke-linejoin:round;stroke-miterlimit:10;}
	.st76{fill:#FFFFFF;stroke:#2196F3;stroke-width:3;stroke-miterlimit:10;}
	.st77{fill:#FFD63B;}
	.st78{fill:none;stroke:#FFFFFF;stroke-width:3;stroke-linejoin:bevel;stroke-miterlimit:10;}
	.st79{fill:none;stroke:#FFD63B;stroke-width:3;stroke-miterlimit:10;}
	.st80{opacity:0.2;fill:#FFFFFF;}
</style>
<g id="Layer_2" class="st0">
	<g class="st1">
		<rect x="-890.5" y="-3869" class="st2" width="6368.5" height="5472"/>
	</g>
</g>
<g id="Layer_1">
	<g>
		<line class="st33" x1="51" y1="38" x2="51" y2="41"/>
		<line class="st33" x1="51" y1="43" x2="51" y2="47"/>
		<line class="st33" x1="51" y1="49" x2="51" y2="52"/>
		<line class="st33" x1="51" y1="54" x2="51" y2="58"/>
		<line class="st33" x1="51" y1="60" x2="51" y2="63"/>
		<path class="st33" d="M65,59V42c-2.4-0.5-4-2.4-4-5H10c0,3-2,5-5,5v17c3,0,5,2,5,5h51C61,61.4,62.6,59.5,65,59z"/>
		<g>
			<g>
				<path class="st17" d="M13,51.4h3.7V53H13V51.4z"/>
				<path class="st17" d="M24.3,54.7c0.2,0,0.4,0.1,0.5,0.2c0.1,0.1,0.2,0.3,0.2,0.5v1.1h-7v-0.6c0-0.1,0-0.3,0.1-0.4
					c0.1-0.1,0.1-0.3,0.3-0.4l3-3c0.3-0.3,0.5-0.5,0.7-0.7c0.2-0.2,0.4-0.5,0.5-0.7c0.1-0.2,0.2-0.5,0.3-0.7s0.1-0.5,0.1-0.7
					c0-0.5-0.1-0.8-0.4-1c-0.2-0.2-0.6-0.4-1-0.4c-0.2,0-0.4,0-0.5,0.1c-0.2,0.1-0.3,0.1-0.4,0.2c-0.1,0.1-0.2,0.2-0.3,0.3
					s-0.2,0.3-0.2,0.4c-0.1,0.2-0.2,0.4-0.3,0.5c-0.1,0.1-0.3,0.1-0.6,0.1l-1-0.2c0.1-0.5,0.2-0.9,0.4-1.3c0.2-0.4,0.5-0.7,0.8-0.9
					c0.3-0.2,0.7-0.4,1.1-0.6c0.4-0.1,0.8-0.2,1.3-0.2c0.5,0,0.9,0.1,1.3,0.2s0.7,0.3,1,0.6c0.3,0.3,0.5,0.6,0.7,0.9
					c0.2,0.4,0.2,0.8,0.2,1.2c0,0.4-0.1,0.7-0.2,1c-0.1,0.3-0.3,0.6-0.4,0.9s-0.4,0.6-0.6,0.8c-0.2,0.3-0.5,0.5-0.8,0.8l-2.2,2.2
					c0.2-0.1,0.5-0.1,0.7-0.2c0.2,0,0.5-0.1,0.7-0.1H24.3z"/>
				<path class="st17" d="M33.4,51.4c0,0.9-0.1,1.7-0.3,2.3c-0.2,0.7-0.5,1.2-0.8,1.6c-0.3,0.4-0.7,0.7-1.2,1
					c-0.5,0.2-1,0.3-1.5,0.3c-0.5,0-1-0.1-1.5-0.3c-0.5-0.2-0.9-0.5-1.2-1s-0.6-1-0.8-1.6c-0.2-0.7-0.3-1.4-0.3-2.3s0.1-1.7,0.3-2.3
					c0.2-0.7,0.4-1.2,0.8-1.6c0.3-0.4,0.7-0.7,1.2-1c0.5-0.2,1-0.3,1.5-0.3c0.5,0,1,0.1,1.5,0.3c0.5,0.2,0.9,0.5,1.2,1
					c0.3,0.4,0.6,1,0.8,1.6C33.3,49.7,33.4,50.5,33.4,51.4z M31.4,51.4c0-0.7-0.1-1.3-0.2-1.8c-0.1-0.5-0.2-0.8-0.4-1.1
					c-0.2-0.3-0.4-0.5-0.6-0.6s-0.4-0.2-0.7-0.2s-0.4,0.1-0.6,0.2c-0.2,0.1-0.4,0.3-0.6,0.6s-0.3,0.6-0.4,1.1
					c-0.1,0.5-0.1,1.1-0.1,1.8c0,0.7,0,1.3,0.1,1.8s0.2,0.8,0.4,1.1c0.2,0.3,0.3,0.5,0.6,0.6c0.2,0.1,0.4,0.2,0.6,0.2
					s0.4-0.1,0.7-0.2s0.4-0.3,0.6-0.6c0.2-0.3,0.3-0.6,0.4-1.1S31.4,52.1,31.4,51.4z"/>
				<path class="st17" d="M39,48.8c0,0.4-0.1,0.7-0.2,1s-0.3,0.6-0.5,0.8c-0.2,0.2-0.5,0.4-0.8,0.5s-0.6,0.2-0.9,0.2
					c-0.3,0-0.7-0.1-1-0.2s-0.5-0.3-0.8-0.5c-0.2-0.2-0.4-0.5-0.5-0.8s-0.2-0.7-0.2-1c0-0.4,0.1-0.7,0.2-1.1
					c0.1-0.3,0.3-0.6,0.5-0.8c0.2-0.2,0.5-0.4,0.8-0.5s0.6-0.2,1-0.2c0.3,0,0.7,0.1,1,0.2c0.3,0.1,0.5,0.3,0.8,0.5s0.4,0.5,0.5,0.8
					C38.9,48,39,48.4,39,48.8z M42.3,46.6c0.1-0.1,0.1-0.1,0.2-0.2c0.1-0.1,0.2-0.1,0.4-0.1h1.4l-7.6,9.9c-0.1,0.1-0.1,0.1-0.2,0.2
					c-0.1,0.1-0.2,0.1-0.3,0.1h-1.4L42.3,46.6z M37.5,48.8c0-0.3,0-0.5-0.1-0.6c0-0.2-0.1-0.3-0.2-0.4c-0.1-0.1-0.2-0.2-0.3-0.2
					c-0.1,0-0.2-0.1-0.4-0.1c-0.1,0-0.2,0-0.4,0.1c-0.1,0-0.2,0.1-0.3,0.2c-0.1,0.1-0.1,0.2-0.2,0.4c0,0.2-0.1,0.4-0.1,0.6
					c0,0.2,0,0.5,0.1,0.6s0.1,0.3,0.2,0.4c0.1,0.1,0.2,0.2,0.3,0.2s0.2,0.1,0.4,0.1c0.1,0,0.2,0,0.4-0.1c0.1,0,0.2-0.1,0.3-0.2
					c0.1-0.1,0.1-0.2,0.2-0.4S37.5,49,37.5,48.8z M44.7,54.1c0,0.4-0.1,0.7-0.2,1c-0.1,0.3-0.3,0.6-0.5,0.8s-0.5,0.4-0.8,0.5
					s-0.6,0.2-0.9,0.2c-0.3,0-0.7-0.1-1-0.2s-0.5-0.3-0.8-0.5c-0.2-0.2-0.4-0.5-0.5-0.8c-0.1-0.3-0.2-0.7-0.2-1
					c0-0.4,0.1-0.7,0.2-1.1c0.1-0.3,0.3-0.6,0.5-0.8c0.2-0.2,0.5-0.4,0.8-0.5s0.6-0.2,1-0.2c0.3,0,0.7,0.1,1,0.2
					c0.3,0.1,0.5,0.3,0.8,0.5c0.2,0.2,0.4,0.5,0.5,0.8C44.7,53.3,44.7,53.7,44.7,54.1z M43.3,54.1c0-0.3,0-0.5-0.1-0.6
					c0-0.2-0.1-0.3-0.2-0.4c-0.1-0.1-0.2-0.2-0.3-0.2c-0.1,0-0.2-0.1-0.4-0.1s-0.2,0-0.4,0.1c-0.1,0-0.2,0.1-0.3,0.2
					c-0.1,0.1-0.1,0.2-0.2,0.4c0,0.2-0.1,0.4-0.1,0.6c0,0.2,0,0.5,0.1,0.6c0,0.2,0.1,0.3,0.2,0.4c0.1,0.1,0.2,0.2,0.3,0.2
					c0.1,0,0.2,0.1,0.4,0.1s0.2,0,0.4-0.1c0.1,0,0.2-0.1,0.3-0.2c0.1-0.1,0.1-0.2,0.2-0.4C43.2,54.5,43.3,54.3,43.3,54.1z"/>
			</g>
		</g>
		<g>
			<line class="st33" x1="44" y1="9.5" x2="45.3" y2="12.4"/>
			<line class="st33" x1="46.1" y1="14.4" x2="47.7" y2="18.4"/>
			<line class="st33" x1="48.6" y1="20.3" x2="49.8" y2="23.3"/>
			<line class="st33" x1="50.6" y1="25.3" x2="51.9" y2="28.2"/>
			<line class="st33" x1="52.7" y1="30.2" x2="53.9" y2="33.2"/>
			<path class="st33" d="M45,37l17.2-6.1c-1-2.4-0.1-5.1,1.9-6.5l-6.7-16c-2.4,0.5-5-0.8-6-3.2L7.1,23.8c1.1,2.7-0.1,5.9-2.9,7L9,40
				"/>
			<g>
				<g>
					<path class="st32" d="M15.8,34l3.2-1.2l0.5,1.4l-3.2,1.2L15.8,34z"/>
					<path class="st32" d="M24,32c0-0.1,0.1-0.2,0.1-0.3c0-0.1,0.1-0.2,0.1-0.3c-0.1,0.2-0.3,0.4-0.5,0.5c-0.2,0.1-0.4,0.3-0.7,0.4
						c-0.3,0.1-0.6,0.2-0.9,0.2c-0.3,0-0.7,0-1-0.2s-0.6-0.3-0.9-0.6c-0.3-0.3-0.5-0.6-0.6-1c-0.2-0.4-0.2-0.8-0.2-1.2
						c0-0.4,0.1-0.8,0.3-1.2c0.2-0.4,0.4-0.7,0.7-1c0.3-0.3,0.7-0.5,1.2-0.7c0.5-0.2,0.9-0.3,1.3-0.3s0.8,0.1,1.2,0.2
						c0.4,0.2,0.7,0.4,0.9,0.7c0.3,0.3,0.5,0.7,0.7,1.1c0.1,0.3,0.2,0.6,0.2,0.8c0.1,0.3,0.1,0.5,0.1,0.8c0,0.3,0,0.5,0,0.8
						s-0.1,0.5-0.2,0.8l-0.9,3.6c0,0.1-0.1,0.3-0.2,0.4c-0.1,0.1-0.3,0.2-0.5,0.3l-1.5,0.6L24,32z M21.1,29.9
						c0.2,0.5,0.4,0.8,0.8,0.9c0.3,0.2,0.7,0.1,1.1,0c0.2-0.1,0.4-0.2,0.6-0.3c0.1-0.1,0.3-0.3,0.3-0.5s0.1-0.4,0.1-0.6
						c0-0.2,0-0.4-0.1-0.6c-0.1-0.2-0.2-0.4-0.3-0.6c-0.1-0.1-0.3-0.3-0.5-0.3c-0.2-0.1-0.4-0.1-0.5-0.1c-0.2,0-0.4,0-0.6,0.1
						c-0.2,0.1-0.4,0.2-0.5,0.3c-0.1,0.1-0.2,0.3-0.3,0.5C21,28.9,21,29.1,21,29.3S21.1,29.7,21.1,29.9z"/>
					<path class="st32" d="M33.5,27.1c0.3,0.8,0.5,1.5,0.5,2.1c0.1,0.6,0,1.2-0.1,1.7c-0.1,0.5-0.4,0.9-0.7,1.2
						c-0.3,0.3-0.7,0.6-1.2,0.8s-0.9,0.3-1.4,0.2s-0.9-0.2-1.3-0.4c-0.4-0.3-0.8-0.6-1.2-1.1c-0.4-0.5-0.7-1.1-1-1.9
						c-0.3-0.8-0.5-1.5-0.5-2.1c-0.1-0.6,0-1.2,0.1-1.7c0.1-0.5,0.4-0.9,0.7-1.2c0.3-0.3,0.7-0.6,1.2-0.8s0.9-0.3,1.4-0.2
						c0.5,0,0.9,0.2,1.4,0.4c0.4,0.3,0.8,0.6,1.2,1.1C32.8,25.7,33.2,26.3,33.5,27.1z M31.8,27.8c-0.2-0.6-0.5-1.1-0.7-1.5
						c-0.2-0.4-0.5-0.6-0.7-0.8c-0.2-0.2-0.5-0.3-0.7-0.3c-0.2,0-0.4,0-0.6,0.1c-0.2,0.1-0.4,0.2-0.5,0.4c-0.1,0.2-0.2,0.4-0.3,0.7
						c0,0.3,0,0.7,0,1.1s0.2,1,0.5,1.6c0.2,0.6,0.5,1.1,0.7,1.5s0.5,0.6,0.7,0.8c0.2,0.2,0.5,0.3,0.7,0.3c0.2,0,0.4,0,0.6-0.1
						c0.2-0.1,0.4-0.2,0.5-0.4c0.1-0.2,0.2-0.4,0.3-0.7c0-0.3,0-0.7,0-1.1C32.2,28.9,32,28.4,31.8,27.8z"/>
					<path class="st32" d="M37.4,22.9c0.1,0.3,0.2,0.6,0.2,1c0,0.3-0.1,0.6-0.2,0.9c-0.1,0.3-0.3,0.5-0.5,0.7
						c-0.2,0.2-0.5,0.4-0.7,0.5c-0.3,0.1-0.6,0.2-0.9,0.2c-0.3,0-0.6-0.1-0.8-0.2c-0.3-0.1-0.5-0.3-0.7-0.5s-0.4-0.5-0.5-0.8
						c-0.1-0.3-0.2-0.7-0.2-1c0-0.3,0-0.6,0.2-0.9c0.1-0.3,0.3-0.5,0.5-0.7c0.2-0.2,0.5-0.4,0.8-0.5c0.3-0.1,0.6-0.2,0.9-0.2
						c0.3,0,0.6,0.1,0.8,0.2c0.3,0.1,0.5,0.3,0.7,0.5S37.3,22.6,37.4,22.9z M36.2,23.4c-0.1-0.2-0.2-0.4-0.3-0.5
						c-0.1-0.1-0.2-0.2-0.3-0.3c-0.1-0.1-0.2-0.1-0.3-0.1s-0.2,0-0.3,0.1c-0.1,0-0.2,0.1-0.3,0.2c-0.1,0.1-0.1,0.2-0.2,0.3
						c0,0.1,0,0.3,0,0.4c0,0.2,0.1,0.4,0.2,0.6c0.1,0.2,0.2,0.4,0.3,0.5c0.1,0.1,0.2,0.2,0.3,0.3c0.1,0.1,0.2,0.1,0.3,0.1
						c0.1,0,0.2,0,0.3-0.1c0.1,0,0.2-0.1,0.3-0.2c0.1-0.1,0.1-0.2,0.2-0.3c0-0.1,0-0.3,0-0.4C36.3,23.8,36.2,23.6,36.2,23.4z
						 M39.6,19.9c0-0.1,0.1-0.2,0.1-0.3c0.1-0.1,0.2-0.2,0.3-0.2l1.2-0.5L38,30.1c0,0.1-0.1,0.2-0.1,0.3c-0.1,0.1-0.2,0.1-0.3,0.2
						L36.3,31L39.6,19.9z M44.2,25.6c0.1,0.3,0.2,0.6,0.2,1c0,0.3-0.1,0.6-0.2,0.9c-0.1,0.3-0.3,0.5-0.5,0.7s-0.5,0.4-0.7,0.5
						c-0.3,0.1-0.6,0.2-0.9,0.2c-0.3,0-0.6-0.1-0.8-0.2c-0.3-0.1-0.5-0.3-0.7-0.5s-0.4-0.5-0.5-0.8c-0.1-0.3-0.2-0.7-0.2-1
						c0-0.3,0-0.6,0.2-0.9c0.1-0.3,0.3-0.5,0.5-0.7c0.2-0.2,0.5-0.4,0.8-0.5c0.3-0.1,0.6-0.2,0.9-0.2c0.3,0,0.6,0.1,0.8,0.2
						c0.3,0.1,0.5,0.3,0.7,0.5C43.9,24.9,44.1,25.2,44.2,25.6z M43,26.1c-0.1-0.2-0.2-0.4-0.3-0.5c-0.1-0.1-0.2-0.2-0.3-0.3
						c-0.1-0.1-0.2-0.1-0.3-0.1c-0.1,0-0.2,0-0.3,0.1c-0.1,0-0.2,0.1-0.3,0.2s-0.1,0.2-0.2,0.3c0,0.1,0,0.3,0,0.4
						c0,0.2,0.1,0.4,0.2,0.6c0.1,0.2,0.2,0.4,0.3,0.5c0.1,0.1,0.2,0.2,0.3,0.3c0.1,0.1,0.2,0.1,0.3,0.1c0.1,0,0.2,0,0.3-0.1
						c0.1,0,0.2-0.1,0.3-0.2c0.1-0.1,0.1-0.2,0.2-0.3c0-0.1,0-0.3,0-0.4C43.1,26.5,43,26.3,43,26.1z"/>
				</g>
			</g>
		</g>
	</g>
	<g id="arrow_1_">
	</g>
	<g id="arrow">
	</g>
</g>
</svg>
