<?xml version="1.0" encoding="utf-8"?>
<!-- Generator: Adobe Illustrator 21.0.0, SVG Export Plug-In . SVG Version: 6.00 Build 0)  -->
<svg version="1.1" xmlns="http://www.w3.org/2000/svg" xmlns:xlink="http://www.w3.org/1999/xlink" x="0px" y="0px"
	 viewBox="0 0 70 70" style="enable-background:new 0 0 70 70;" xml:space="preserve">
<style type="text/css">
	.st0{display:none;}
	.st1{display:inline;}
	.st2{fill:#F7F6F3;}
	.st3{display:inline;fill:#1C1C1B;}
	.st4{fill:#FFD63B;stroke:#FFFFFF;stroke-width:3;stroke-linejoin:bevel;stroke-miterlimit:10;}
	.st5{fill:#FFFFFF;}
	.st6{fill:#58595B;}
	.st7{opacity:0.3;}
	.st8{fill:none;stroke:#231F20;stroke-width:3;stroke-miterlimit:10;}
	.st9{fill:none;stroke:#FF5515;stroke-width:4;stroke-miterlimit:10;}
	.st10{fill:#F7F6F3;stroke:#231F20;stroke-width:3;stroke-miterlimit:10;}
	.st11{fill:#2196F3;}
	.st12{fill:#FFFFFF;stroke:#231F20;stroke-width:3;stroke-miterlimit:10;}
	.st13{fill:#FF9A22;}
	.st14{fill:none;stroke:#00843C;stroke-width:3;stroke-miterlimit:10;}
	.st15{fill:none;stroke:#FF9A22;stroke-width:4;stroke-miterlimit:10;}
	.st16{fill:none;stroke:#FF9A22;stroke-width:3;stroke-miterlimit:10;}
	.st17{fill:#FF5515;}
	.st18{fill:#FFFFFF;stroke:#ED1C24;stroke-width:3;stroke-miterlimit:10;}
	.st19{fill:none;stroke:#ED1C24;stroke-width:3;stroke-miterlimit:10;}
	.st20{fill:none;stroke:#000000;stroke-width:4;stroke-miterlimit:10;}
	.st21{fill:none;stroke:#000000;stroke-width:3;stroke-miterlimit:10;}
	.st22{fill:none;stroke:#2196F3;stroke-width:4;stroke-linecap:round;stroke-linejoin:round;stroke-miterlimit:10;}
	.st23{fill:#F7F6F3;stroke:#2196F3;stroke-width:4;stroke-linecap:round;stroke-linejoin:round;stroke-miterlimit:10;}
	.st24{fill:#F7F6F3;stroke:#000000;stroke-width:3;stroke-miterlimit:10;}
	.st25{fill:#04A548;stroke:#231F20;stroke-width:3;stroke-miterlimit:10;}
	.st26{fill:none;stroke:#04A548;stroke-width:3;stroke-miterlimit:10;}
	.st27{fill:#F7F6F3;stroke:#04A548;stroke-width:3;stroke-miterlimit:10;}
	.st28{fill:#FFFFFF;stroke:#FF9A22;stroke-width:3;stroke-miterlimit:10;}
	.st29{fill:none;stroke:#FF5515;stroke-width:3;stroke-miterlimit:10;}
	.st30{fill:#04A548;}
	.st31{opacity:0.34;}
	.st32{fill:#231F20;}
	.st33{fill:none;stroke:#231F20;stroke-width:2;stroke-miterlimit:10;}
	.st34{fill:none;stroke:#25B72F;stroke-width:3;stroke-miterlimit:10;}
	.st35{fill:none;stroke:#231F20;stroke-width:1.9286;stroke-miterlimit:10;}
	.st36{fill:#FFFFFF;stroke:#231F20;stroke-width:2;stroke-miterlimit:10;}
	.st37{fill:#25B72F;}
	.st38{fill:#25B72F;stroke:#231F20;stroke-width:2;stroke-miterlimit:10;}
	.st39{fill:none;stroke:#231F20;stroke-width:1.989;stroke-miterlimit:10;}
	.st40{fill:#FFFFFF;stroke:#231F20;stroke-width:2.2678;stroke-miterlimit:10;}
	.st41{fill:none;stroke:#231F20;stroke-width:2.3155;stroke-miterlimit:10;}
	.st42{fill:none;stroke:#231F20;stroke-width:0.9592;stroke-miterlimit:10;}
	.st43{fill:none;stroke:#FF9A22;stroke-width:2;stroke-miterlimit:10;}
	.st44{fill:none;stroke:#FF5515;stroke-width:2;stroke-miterlimit:10;}
	.st45{fill:none;stroke:#2196F3;stroke-width:2;stroke-miterlimit:10;}
	.st46{fill:#FF5515;stroke:#FF5515;stroke-width:2;stroke-miterlimit:10;}
	.st47{fill:none;stroke:#F7F6F3;stroke-width:2;stroke-miterlimit:10;}
	.st48{fill:#FF9A22;stroke:#FF9A22;stroke-width:2;stroke-miterlimit:10;}
	.st49{fill:#F7F6F3;stroke:#231F20;stroke-width:2;stroke-miterlimit:10;}
	.st50{fill:none;stroke:#FD4741;stroke-width:3;stroke-linejoin:round;stroke-miterlimit:10;}
	.st51{fill:none;stroke:#D1D3D4;stroke-width:1.7678;stroke-miterlimit:10;}
	.st52{fill:none;stroke:#F23030;stroke-width:4;stroke-miterlimit:10;}
	.st53{fill:#F23030;}
	.st54{opacity:0.1;}
	.st55{fill:none;stroke:#F23030;stroke-width:3;}
	.st56{fill:none;stroke:#F23030;stroke-width:3;stroke-linejoin:round;}
	.st57{fill:none;stroke:#F23030;stroke-width:2;stroke-linejoin:round;}
	.st58{fill:none;stroke:#F23030;}
	.st59{fill:none;stroke:#F23030;stroke-width:2;}
	.st60{opacity:0.2;fill:#54D363;}
	.st61{fill:none;stroke:#0AA51C;stroke-width:3.9231;stroke-linejoin:round;stroke-miterlimit:10;}
	.st62{fill:#25B72F;stroke:#231F20;stroke-width:3;stroke-miterlimit:10;}
	.st63{fill:none;stroke:#37B44A;stroke-width:2.2857;stroke-miterlimit:10;}
	.st64{fill:none;stroke:#231F20;stroke-width:1.9995;stroke-miterlimit:10;}
	.st65{fill:none;stroke:#231F20;stroke-width:1.9621;stroke-miterlimit:10;}
	.st66{fill:#FF9A22;stroke:#231F20;stroke-width:2;stroke-miterlimit:10;}
	.st67{fill:none;stroke:#231F20;stroke-width:2.0048;stroke-miterlimit:10;}
	.st68{fill:none;stroke:#2196F3;stroke-width:3;stroke-miterlimit:10;}
	.st69{fill:none;stroke:#F7941E;stroke-width:2;stroke-miterlimit:10;}
	.st70{fill:none;stroke:#000000;stroke-width:2.8594;stroke-miterlimit:10;}
	.st71{fill:none;stroke:#FFD63B;stroke-width:4;stroke-linecap:round;stroke-miterlimit:10;}
	.st72{fill:#DBDBDB;}
	.st73{fill:#E8E8E8;}
	.st74{fill:none;stroke:#FFD63B;stroke-width:2;stroke-linecap:round;stroke-linejoin:round;stroke-miterlimit:10;}
	.st75{fill:none;stroke:#000000;stroke-width:2;stroke-linejoin:round;stroke-miterlimit:10;}
	.st76{fill:#FFFFFF;stroke:#2196F3;stroke-width:3;stroke-miterlimit:10;}
	.st77{fill:#FFD63B;}
	.st78{fill:none;stroke:#FFFFFF;stroke-width:3;stroke-linejoin:bevel;stroke-miterlimit:10;}
	.st79{fill:none;stroke:#FFD63B;stroke-width:3;stroke-miterlimit:10;}
	.st80{opacity:0.2;fill:#FFFFFF;}
</style>
<g id="Layer_2" class="st0">
	<g class="st1">
		<rect x="-1160.5" y="-4503" class="st2" width="6368.5" height="5472"/>
	</g>
</g>
<g id="Layer_1">
	<g>
		<path class="st33" d="M60.5,3L60.5,3C56.4,3,54,6.4,54,10.5V12h13v-1.5C67,6.4,64.6,3,60.5,3z"/>
		<path class="st33" d="M61,3c0,0-32.4,0-36.5,0h0C20.4,3,17,6.4,17,10.5V51"/>
		<path class="st33" d="M38,60H11.5h0C7.4,60,4,56.6,4,52.5L4,51l31,0"/>
		<line class="st33" x1="54" y1="13" x2="54" y2="31"/>
		<line class="st33" x1="24" y1="13" x2="31" y2="13"/>
		<line class="st33" x1="24" y1="19" x2="47" y2="19"/>
		<line class="st33" x1="24" y1="25" x2="47" y2="25"/>
		<line class="st33" x1="24" y1="31" x2="47" y2="31"/>
		<circle class="st43" cx="47.5" cy="45.5" r="4.5"/>
		<g>
			<path class="st43" d="M36,45.5c0-1.1,2.1-1.9,2.5-2.9c0.3-1.1-0.9-2.9-0.3-3.8c0.6-0.9,2.8-0.3,3.7-0.9c0.9-0.6,1-2.9,2-3.3
				c1-0.3,2.4,1.4,3.6,1.4c1.1,0,2.5-1.8,3.6-1.4c1.1,0.3,1.1,2.6,2,3.3c0.9,0.6,3.1,0,3.7,0.9c0.6,0.9-0.6,2.8-0.3,3.8
				c0.3,1,2.5,1.8,2.5,2.9c0,1.1-2.1,1.9-2.5,2.9c-0.3,1.1,0.9,2.9,0.3,3.8c-0.6,0.9-2.8,0.3-3.7,0.9c-0.9,0.6-1,2.9-2,3.3
				c-1,0.3-2.4-1.4-3.6-1.4c-1.1,0-2.5,1.8-3.6,1.4c-1.1-0.3-1.1-2.6-2-3.3c-0.9-0.6-3.1,0-3.7-0.9c-0.6-0.9,0.6-2.8,0.3-3.8
				C38.1,47.4,36,46.6,36,45.5z"/>
		</g>
		<polyline class="st43" points="53,54 53,66.4 47.5,60.5 42,66.4 42,54 		"/>
		<line class="st33" x1="24" y1="37" x2="35" y2="37"/>
	</g>
	<g id="arrow_1_">
	</g>
	<g id="arrow">
	</g>
</g>
</svg>
