<?xml version="1.0" encoding="utf-8"?>
<!-- Generator: Adobe Illustrator 21.0.0, SVG Export Plug-In . SVG Version: 6.00 Build 0)  -->
<svg version="1.1" xmlns="http://www.w3.org/2000/svg" xmlns:xlink="http://www.w3.org/1999/xlink" x="0px" y="0px"
	 viewBox="0 0 70 70" style="enable-background:new 0 0 70 70;" xml:space="preserve">
<style type="text/css">
	.st0{display:none;}
	.st1{display:inline;}
	.st2{fill:#F7F6F3;}
	.st3{display:inline;fill:#1C1C1B;}
	.st4{fill:#FFD63B;stroke:#FFFFFF;stroke-width:3;stroke-linejoin:bevel;stroke-miterlimit:10;}
	.st5{fill:#FFFFFF;}
	.st6{fill:#58595B;}
	.st7{opacity:0.3;}
	.st8{fill:none;stroke:#231F20;stroke-width:3;stroke-miterlimit:10;}
	.st9{fill:none;stroke:#FF5515;stroke-width:4;stroke-miterlimit:10;}
	.st10{fill:#F7F6F3;stroke:#231F20;stroke-width:3;stroke-miterlimit:10;}
	.st11{fill:#2196F3;}
	.st12{fill:#FFFFFF;stroke:#231F20;stroke-width:3;stroke-miterlimit:10;}
	.st13{fill:#FF9A22;}
	.st14{fill:none;stroke:#00843C;stroke-width:3;stroke-miterlimit:10;}
	.st15{fill:none;stroke:#FF9A22;stroke-width:4;stroke-miterlimit:10;}
	.st16{fill:none;stroke:#FF9A22;stroke-width:3;stroke-miterlimit:10;}
	.st17{fill:#FF5515;}
	.st18{fill:#FFFFFF;stroke:#ED1C24;stroke-width:3;stroke-miterlimit:10;}
	.st19{fill:none;stroke:#ED1C24;stroke-width:3;stroke-miterlimit:10;}
	.st20{fill:none;stroke:#000000;stroke-width:4;stroke-miterlimit:10;}
	.st21{fill:none;stroke:#000000;stroke-width:3;stroke-miterlimit:10;}
	.st22{fill:none;stroke:#2196F3;stroke-width:4;stroke-linecap:round;stroke-linejoin:round;stroke-miterlimit:10;}
	.st23{fill:#F7F6F3;stroke:#2196F3;stroke-width:4;stroke-linecap:round;stroke-linejoin:round;stroke-miterlimit:10;}
	.st24{fill:#F7F6F3;stroke:#000000;stroke-width:3;stroke-miterlimit:10;}
	.st25{fill:#04A548;stroke:#231F20;stroke-width:3;stroke-miterlimit:10;}
	.st26{fill:none;stroke:#04A548;stroke-width:3;stroke-miterlimit:10;}
	.st27{fill:#F7F6F3;stroke:#04A548;stroke-width:3;stroke-miterlimit:10;}
	.st28{fill:#FFFFFF;stroke:#FF9A22;stroke-width:3;stroke-miterlimit:10;}
	.st29{fill:none;stroke:#FF5515;stroke-width:3;stroke-miterlimit:10;}
	.st30{fill:#04A548;}
	.st31{opacity:0.34;}
	.st32{fill:#231F20;}
	.st33{fill:none;stroke:#231F20;stroke-width:2;stroke-miterlimit:10;}
	.st34{fill:none;stroke:#25B72F;stroke-width:3;stroke-miterlimit:10;}
	.st35{fill:none;stroke:#231F20;stroke-width:1.9286;stroke-miterlimit:10;}
	.st36{fill:#FFFFFF;stroke:#231F20;stroke-width:2;stroke-miterlimit:10;}
	.st37{fill:#25B72F;}
	.st38{fill:#25B72F;stroke:#231F20;stroke-width:2;stroke-miterlimit:10;}
	.st39{fill:none;stroke:#231F20;stroke-width:1.989;stroke-miterlimit:10;}
	.st40{fill:#FFFFFF;stroke:#231F20;stroke-width:2.2678;stroke-miterlimit:10;}
	.st41{fill:none;stroke:#231F20;stroke-width:2.3155;stroke-miterlimit:10;}
	.st42{fill:none;stroke:#231F20;stroke-width:0.9592;stroke-miterlimit:10;}
	.st43{fill:none;stroke:#FF9A22;stroke-width:2;stroke-miterlimit:10;}
	.st44{fill:none;stroke:#FF5515;stroke-width:2;stroke-miterlimit:10;}
	.st45{fill:none;stroke:#2196F3;stroke-width:2;stroke-miterlimit:10;}
	.st46{fill:#FF5515;stroke:#FF5515;stroke-width:2;stroke-miterlimit:10;}
	.st47{fill:none;stroke:#F7F6F3;stroke-width:2;stroke-miterlimit:10;}
	.st48{fill:#FF9A22;stroke:#FF9A22;stroke-width:2;stroke-miterlimit:10;}
	.st49{fill:#F7F6F3;stroke:#231F20;stroke-width:2;stroke-miterlimit:10;}
	.st50{fill:none;stroke:#FD4741;stroke-width:3;stroke-linejoin:round;stroke-miterlimit:10;}
	.st51{fill:none;stroke:#D1D3D4;stroke-width:1.7678;stroke-miterlimit:10;}
	.st52{fill:none;stroke:#F23030;stroke-width:4;stroke-miterlimit:10;}
	.st53{fill:#F23030;}
	.st54{opacity:0.1;}
	.st55{fill:none;stroke:#F23030;stroke-width:3;}
	.st56{fill:none;stroke:#F23030;stroke-width:3;stroke-linejoin:round;}
	.st57{fill:none;stroke:#F23030;stroke-width:2;stroke-linejoin:round;}
	.st58{fill:none;stroke:#F23030;}
	.st59{fill:none;stroke:#F23030;stroke-width:2;}
	.st60{opacity:0.2;fill:#54D363;}
	.st61{fill:none;stroke:#0AA51C;stroke-width:3.9231;stroke-linejoin:round;stroke-miterlimit:10;}
	.st62{fill:#25B72F;stroke:#231F20;stroke-width:3;stroke-miterlimit:10;}
	.st63{fill:none;stroke:#37B44A;stroke-width:2.2857;stroke-miterlimit:10;}
	.st64{fill:none;stroke:#231F20;stroke-width:1.9995;stroke-miterlimit:10;}
	.st65{fill:none;stroke:#231F20;stroke-width:1.9621;stroke-miterlimit:10;}
	.st66{fill:#FF9A22;stroke:#231F20;stroke-width:2;stroke-miterlimit:10;}
	.st67{fill:none;stroke:#231F20;stroke-width:2.0048;stroke-miterlimit:10;}
	.st68{fill:none;stroke:#2196F3;stroke-width:3;stroke-miterlimit:10;}
	.st69{fill:none;stroke:#F7941E;stroke-width:2;stroke-miterlimit:10;}
	.st70{fill:none;stroke:#000000;stroke-width:2.8594;stroke-miterlimit:10;}
	.st71{fill:none;stroke:#FFD63B;stroke-width:4;stroke-linecap:round;stroke-miterlimit:10;}
	.st72{fill:#DBDBDB;}
	.st73{fill:#E8E8E8;}
	.st74{fill:none;stroke:#FFD63B;stroke-width:2;stroke-linecap:round;stroke-linejoin:round;stroke-miterlimit:10;}
	.st75{fill:none;stroke:#000000;stroke-width:2;stroke-linejoin:round;stroke-miterlimit:10;}
	.st76{fill:#FFFFFF;stroke:#2196F3;stroke-width:3;stroke-miterlimit:10;}
	.st77{fill:#FFD63B;}
	.st78{fill:none;stroke:#FFFFFF;stroke-width:3;stroke-linejoin:bevel;stroke-miterlimit:10;}
	.st79{fill:none;stroke:#FFD63B;stroke-width:3;stroke-miterlimit:10;}
	.st80{opacity:0.2;fill:#FFFFFF;}
</style>
<g id="Layer_2" class="st0">
	<g class="st1">
		<rect x="-891.5" y="-5311" class="st2" width="6368.5" height="5472"/>
	</g>
</g>
<g id="Layer_1">
	<g>
		<path class="st33" d="M45.7,60C45.7,60,45.7,60,45.7,60c-3.4,0.8-6.7,0.9-11.7,1c-5.1,0-8.3,0-12-0.7c-0.4-0.1-0.1,0-0.2,0
			c-2-0.2-2.3-0.8-3.4-0.7c-1,0.2-2.9,1.1-4.4,1.4c-0.4,0.1-0.8,0.1-1.1,0.2c-1.1,0.1-2.2-0.7-1.7-1.8c0.1-0.3,0.4-0.8,0.6-1.1
			c0.7-1,0.8-1,1.4-1.9c0.6-0.9,1-1.8,1.2-2.9l0.1-0.3c0.4-2,0.1-3.2,0.3-6.4c0,0,0,0,0,0c0.1-1.9,0.7-3.8,1.3-5.7
			c0.8-2.5,1.1-5.4,3-8.5c2.7-4.4,5.8-7.4,8.1-9.3c0.3-0.2,0.6-0.3,0.9-0.3l11.3,0c0.3,0,0.7,0.1,0.9,0.3c2.4,2,5.8,5.4,8.6,10.4
			c2.3,4.1,2.5,8,3,10.7c0.4,1.8,0.5,3.3,0.6,4.3c0.1,2.5-0.2,3.9,0.6,5.8c0.4,0.9,0.8,1.6,1.2,2c0,0,0,0,0.1,0.1
			c0.5,0.5,1.1,1.3,1.6,2.3l0,0c0.5,1-0.3,2.2-1.5,2.1c-0.7-0.1-1.3-0.1-1.7-0.2c-1.4-0.3-1.9-1-3.2-1.2C48,59.4,46.6,59.9,45.7,60z
			"/>
		<path class="st33" d="M39.5,19H27.8c-0.1,1-0.8,1.5-0.8,2.5s0.8,1.5,0.8,1.5c3.9,0,7.8,0,11.7,0c0.1-0.1,0.6-0.5,0.7-1.3
			C40.3,20.7,39.6,20.1,39.5,19z"/>
		<path class="st33" d="M37.8,20c0.6-1.6,1.5-3.8,3.2-6c1.5-2.1,3.1-3.5,4.4-4.5c0-0.4-0.1-0.8-0.3-0.8c0,0,0,0,0,0
			c-0.8-0.1-1.9-0.8-2-0.7c-0.4,0.3-1.3,0.7-2,1c0,0,0,0,0,0c-1.3,0.5-2.1,1.6-3.3,0.9c-0.2-0.1-0.3-0.2-0.5-0.3
			c-0.8-0.6-1.2-1-1.5-1.4c-0.2-0.2-0.6-0.7-1.2-1.1C33.9,6.7,33.3,6,33,6c-0.4-0.1-0.1-0.3-1,0c-2,0.6-2.6,2.5-3,3
			c-0.4,0.4-1.7,1.7-2,2c-0.3,0.3-1.1-2.1-2-2h-1c-0.5-0.1-1.4,1.7-1,2.1l4.4,5.8c0.7,1,1.5,2,2.2,3.1"/>
		<path class="st33" d="M45.4,29c0.7-0.7,1.3-1.3,1.9-1.7c0.2-0.2,0.4-0.2,0.7-0.2l7.9,0c0.2,0,0.5,0.1,0.7,0.2
			c1.7,1.4,4.1,3.8,6,7.3c1.6,2.9,1.7,5.6,2.1,7.5c0.3,1.3,0.4,2.3,0.4,3c0.1,1.7-0.1,2.7,0.4,4.1c0.3,0.6,0.6,1.1,0.8,1.4
			c0,0,0,0,0,0.1c0.3,0.4,0.8,0.9,1.1,1.6c0,0,0,0,0,0c0.4,0.7-0.2,1.6-1,1.5c-0.5-0.1-0.9-0.1-1.2-0.2c-1-0.2-1.3-0.7-2.2-0.8
			c-1.1-0.2-2,0.2-2.6,0.3c0,0,0,0-0.1,0c-2.3,0.6-4.6,0.9-8.2,1"/>
		<path class="st33" d="M54.8,26.4L60,21c0.2-0.2,0.1-2.5-0.1-2.6c0,0,0,0,0,0c-0.6-0.1-1.6,0.3-1.7,0.4c-0.3,0.2-0.6,0.5-1.2,0.7
			c0,0-0.1,0-0.1,0c-0.9,0.4-0.3,1.3-1.2,0.8c-0.1-0.1-0.2-0.1-0.3-0.2c-0.6-0.4-0.8-1.7-1-2c-0.1-0.2-0.4-0.5-0.8-0.7
			c-0.5-0.3-0.9-0.3-1.1-0.3c-0.3,0-0.8,0-1.5,0.2c-1.4,0.4-1.6,2.4-2,2.8c-0.2,0.3-3-2-3-2c-0.4-0.1-2,1.6-2,2c0,2,1.2,1.5,2,3
			c0.8,1.4,2,2.6,2.1,3.4"/>
		<path class="st33" d="M14.6,49.4c-3.8-0.3-3.9-0.4-5.3-0.7c-0.3,0-0.1,0-0.1,0c-1.1-0.1-1.3-0.5-2-0.4c-0.6,0.1-1.7,0.7-2.5,0.8
			c-0.2,0-0.4,0.1-0.7,0.1c-0.7,0.1-1.3-0.4-1-1c0.1-0.1,0.3-0.5,0.4-0.6C3.8,47,3.9,47,4.2,46.5c0.4-0.5,0.6-1.2,0.8-1.8l0-0.1
			c0.3-1.2,0.1-1.9,0.2-3.7c0,0,0,0,0,0c0.1-1.1,0.4-2.2,0.8-3.3c0.5-1.4,0.6-3.2,1.7-5c1.6-2.6,3.4-4.3,4.7-5.4
			c0.2-0.1,0.3-0.2,0.5-0.2l6.6,0c0.2,0,0.4,0.1,0.5,0.2c0.5,0.4,1,0.9,1.6,1.5"/>
		<path class="st33" d="M18.6,26.5c0.7-0.5,1.6-1.3,2.4-2.5c1.1-1.4,1.6-2.7,1.9-3.7c0-0.2,0.4-1.2-0.2-1.3c0,0-2.5,0-2.5,0
			c-0.5-0.1-0.5,1.1-0.6,1.1c-0.2,0.2,0.3,0.4-0.1,0.6c0,0,0,0-0.1,0c-0.8,0.3-0.3,0.2-1-0.2c-0.1-0.1-0.2-0.1-0.3-0.2
			c-0.5-0.3-0.7-0.6-0.9-0.8c-0.1-0.1-0.4-0.4-0.7-0.6C16.3,18.7,16.2,19,16,19c-0.2,0-0.5-0.2-1,0c-1.2,0.4-2,0.7-2.3,1
			c-0.2,0.2-0.2,0.3-0.4,0.5C12.1,20.6,10.5,19,10,19l-0.6,0.9c-0.3,0,0.3,1.1,0.5,1.4l1.8,3.4c0.4,0.6,0.9,1.2,1.3,1.8"/>
		<line class="st33" x1="31" y1="14" x2="26" y2="10"/>
		<line class="st33" x1="36" y1="14" x2="38" y2="10"/>
		<g>
			<path class="st17" d="M32.2,37.9c0,0.6-0.1,1.2-0.3,1.8c-0.2,0.5-0.5,1-0.9,1.4s-0.8,0.7-1.3,0.9s-1,0.3-1.5,0.3
				c-0.6,0-1.1-0.1-1.6-0.3c-0.5-0.2-0.9-0.5-1.3-0.9c-0.4-0.4-0.6-0.8-0.9-1.4c-0.2-0.5-0.3-1.1-0.3-1.8c0-0.7,0.1-1.3,0.3-1.8
				s0.5-1,0.9-1.4c0.4-0.4,0.8-0.7,1.3-0.9c0.5-0.2,1-0.3,1.6-0.3c0.6,0,1.1,0.1,1.6,0.3s0.9,0.5,1.3,0.9c0.4,0.4,0.6,0.8,0.9,1.4
				S32.2,37.2,32.2,37.9z M37.9,34.1c0.1-0.1,0.2-0.2,0.4-0.3c0.2-0.1,0.4-0.2,0.7-0.2h2.4l-13,16.9c-0.1,0.1-0.2,0.3-0.4,0.3
				c-0.2,0.1-0.4,0.1-0.6,0.1h-2.5L37.9,34.1z M29.7,37.9c0-0.4,0-0.8-0.1-1.1s-0.2-0.5-0.3-0.7c-0.1-0.2-0.3-0.3-0.5-0.4
				s-0.4-0.1-0.6-0.1s-0.4,0-0.6,0.1s-0.3,0.2-0.5,0.4c-0.1,0.2-0.2,0.4-0.3,0.7c-0.1,0.3-0.1,0.7-0.1,1.1c0,0.4,0,0.8,0.1,1.1
				c0.1,0.3,0.2,0.5,0.3,0.7c0.1,0.2,0.3,0.3,0.5,0.4c0.2,0.1,0.4,0.1,0.6,0.1s0.4,0,0.6-0.1c0.2-0.1,0.4-0.2,0.5-0.4
				s0.3-0.4,0.3-0.7C29.6,38.6,29.7,38.3,29.7,37.9z M42.1,47c0,0.6-0.1,1.2-0.3,1.8c-0.2,0.5-0.5,1-0.9,1.4s-0.8,0.7-1.3,0.9
				s-1,0.3-1.5,0.3c-0.6,0-1.1-0.1-1.6-0.3s-0.9-0.5-1.3-0.9c-0.4-0.4-0.6-0.8-0.9-1.4C34.1,48.2,34,47.6,34,47
				c0-0.7,0.1-1.3,0.3-1.8c0.2-0.5,0.5-1,0.9-1.4c0.4-0.4,0.8-0.7,1.3-0.9s1-0.3,1.6-0.3c0.6,0,1.1,0.1,1.6,0.3
				c0.5,0.2,0.9,0.5,1.3,0.9c0.4,0.4,0.6,0.8,0.9,1.4S42.1,46.3,42.1,47z M39.6,47c0-0.4,0-0.8-0.1-1.1c-0.1-0.3-0.2-0.5-0.3-0.7
				c-0.1-0.2-0.3-0.3-0.5-0.4s-0.4-0.1-0.6-0.1c-0.2,0-0.4,0-0.6,0.1c-0.2,0.1-0.3,0.2-0.5,0.4c-0.1,0.2-0.2,0.4-0.3,0.7
				c-0.1,0.3-0.1,0.7-0.1,1.1c0,0.4,0,0.8,0.1,1.1c0.1,0.3,0.2,0.5,0.3,0.7c0.1,0.2,0.3,0.3,0.5,0.4c0.2,0.1,0.4,0.1,0.6,0.1
				c0.2,0,0.4,0,0.6-0.1s0.4-0.2,0.5-0.4c0.1-0.2,0.3-0.4,0.3-0.7C39.6,47.7,39.6,47.4,39.6,47z"/>
		</g>
	</g>
	<g id="arrow_1_">
	</g>
	<g id="arrow">
	</g>
</g>
</svg>
