<?xml version="1.0" encoding="utf-8"?>
<!-- Generator: Adobe Illustrator 21.0.0, SVG Export Plug-In . SVG Version: 6.00 Build 0)  -->
<svg version="1.1" xmlns="http://www.w3.org/2000/svg" xmlns:xlink="http://www.w3.org/1999/xlink" x="0px" y="0px"
	 viewBox="0 0 55 56" style="enable-background:new 0 0 55 56;" xml:space="preserve">
<style type="text/css">
	.st0{display:none;}
	.st1{display:inline;}
	.st2{fill:#F7F6F3;}
	.st3{display:inline;fill:#1C1C1B;}
	.st4{fill:#FFD63B;stroke:#FFFFFF;stroke-width:3;stroke-linejoin:bevel;stroke-miterlimit:10;}
	.st5{fill:#FFFFFF;}
	.st6{fill:#58595B;}
	.st7{opacity:0.3;}
	.st8{fill:none;stroke:#231F20;stroke-width:3;stroke-miterlimit:10;}
	.st9{fill:none;stroke:#FF5515;stroke-width:4;stroke-miterlimit:10;}
	.st10{fill:#F7F6F3;stroke:#231F20;stroke-width:3;stroke-miterlimit:10;}
	.st11{fill:#2196F3;}
	.st12{fill:#FFFFFF;stroke:#231F20;stroke-width:3;stroke-miterlimit:10;}
	.st13{fill:#FF9A22;}
	.st14{fill:none;stroke:#00843C;stroke-width:3;stroke-miterlimit:10;}
	.st15{fill:none;stroke:#FF9A22;stroke-width:4;stroke-miterlimit:10;}
	.st16{fill:none;stroke:#FF9A22;stroke-width:3;stroke-miterlimit:10;}
	.st17{fill:#FF5515;}
	.st18{fill:#FFFFFF;stroke:#ED1C24;stroke-width:3;stroke-miterlimit:10;}
	.st19{fill:none;stroke:#ED1C24;stroke-width:3;stroke-miterlimit:10;}
	.st20{fill:none;stroke:#000000;stroke-width:4;stroke-miterlimit:10;}
	.st21{fill:none;stroke:#000000;stroke-width:3;stroke-miterlimit:10;}
	.st22{fill:none;stroke:#2196F3;stroke-width:4;stroke-linecap:round;stroke-linejoin:round;stroke-miterlimit:10;}
	.st23{fill:#F7F6F3;stroke:#2196F3;stroke-width:4;stroke-linecap:round;stroke-linejoin:round;stroke-miterlimit:10;}
	.st24{fill:#F7F6F3;stroke:#000000;stroke-width:3;stroke-miterlimit:10;}
	.st25{fill:#04A548;stroke:#231F20;stroke-width:3;stroke-miterlimit:10;}
	.st26{fill:none;stroke:#04A548;stroke-width:3;stroke-miterlimit:10;}
	.st27{fill:#F7F6F3;stroke:#04A548;stroke-width:3;stroke-miterlimit:10;}
	.st28{fill:#FFFFFF;stroke:#FF9A22;stroke-width:3;stroke-miterlimit:10;}
	.st29{fill:none;stroke:#FF5515;stroke-width:3;stroke-miterlimit:10;}
	.st30{fill:#04A548;}
	.st31{opacity:0.34;}
	.st32{fill:#231F20;}
	.st33{fill:none;stroke:#231F20;stroke-width:2;stroke-miterlimit:10;}
	.st34{fill:none;stroke:#25B72F;stroke-width:3;stroke-miterlimit:10;}
	.st35{fill:none;stroke:#231F20;stroke-width:1.9286;stroke-miterlimit:10;}
	.st36{fill:#FFFFFF;stroke:#231F20;stroke-width:2;stroke-miterlimit:10;}
	.st37{fill:#25B72F;}
	.st38{fill:#25B72F;stroke:#231F20;stroke-width:2;stroke-miterlimit:10;}
	.st39{fill:none;stroke:#231F20;stroke-width:1.989;stroke-miterlimit:10;}
	.st40{fill:#FFFFFF;stroke:#231F20;stroke-width:2.2678;stroke-miterlimit:10;}
	.st41{fill:none;stroke:#231F20;stroke-width:2.3155;stroke-miterlimit:10;}
	.st42{fill:none;stroke:#231F20;stroke-width:0.9592;stroke-miterlimit:10;}
	.st43{fill:none;stroke:#FF9A22;stroke-width:2;stroke-miterlimit:10;}
	.st44{fill:none;stroke:#FF5515;stroke-width:2;stroke-miterlimit:10;}
	.st45{fill:none;stroke:#2196F3;stroke-width:2;stroke-miterlimit:10;}
	.st46{fill:#FF5515;stroke:#FF5515;stroke-width:2;stroke-miterlimit:10;}
	.st47{fill:none;stroke:#F7F6F3;stroke-width:2;stroke-miterlimit:10;}
	.st48{fill:#FF9A22;stroke:#FF9A22;stroke-width:2;stroke-miterlimit:10;}
	.st49{fill:#F7F6F3;stroke:#231F20;stroke-width:2;stroke-miterlimit:10;}
	.st50{fill:none;stroke:#FD4741;stroke-width:3;stroke-linejoin:round;stroke-miterlimit:10;}
	.st51{fill:none;stroke:#D1D3D4;stroke-width:1.7678;stroke-miterlimit:10;}
	.st52{fill:none;stroke:#F23030;stroke-width:4;stroke-miterlimit:10;}
	.st53{fill:#F23030;}
	.st54{opacity:0.1;}
	.st55{fill:none;stroke:#F23030;stroke-width:3;}
	.st56{fill:none;stroke:#F23030;stroke-width:3;stroke-linejoin:round;}
	.st57{fill:none;stroke:#F23030;stroke-width:2;stroke-linejoin:round;}
	.st58{fill:none;stroke:#F23030;}
	.st59{fill:none;stroke:#F23030;stroke-width:2;}
	.st60{opacity:0.2;fill:#54D363;}
	.st61{fill:none;stroke:#0AA51C;stroke-width:3.9231;stroke-linejoin:round;stroke-miterlimit:10;}
	.st62{fill:#25B72F;stroke:#231F20;stroke-width:3;stroke-miterlimit:10;}
	.st63{fill:none;stroke:#37B44A;stroke-width:2.2857;stroke-miterlimit:10;}
	.st64{fill:none;stroke:#231F20;stroke-width:1.9995;stroke-miterlimit:10;}
	.st65{fill:none;stroke:#231F20;stroke-width:1.9621;stroke-miterlimit:10;}
	.st66{fill:#FF9A22;stroke:#231F20;stroke-width:2;stroke-miterlimit:10;}
	.st67{fill:none;stroke:#231F20;stroke-width:2.0048;stroke-miterlimit:10;}
	.st68{fill:none;stroke:#2196F3;stroke-width:3;stroke-miterlimit:10;}
	.st69{fill:none;stroke:#F7941E;stroke-width:2;stroke-miterlimit:10;}
	.st70{fill:none;stroke:#000000;stroke-width:2.8594;stroke-miterlimit:10;}
	.st71{fill:none;stroke:#FFD63B;stroke-width:4;stroke-linecap:round;stroke-miterlimit:10;}
	.st72{fill:#DBDBDB;}
	.st73{fill:#E8E8E8;}
	.st74{fill:none;stroke:#FFD63B;stroke-width:2;stroke-linecap:round;stroke-linejoin:round;stroke-miterlimit:10;}
	.st75{fill:none;stroke:#000000;stroke-width:2;stroke-linejoin:round;stroke-miterlimit:10;}
	.st76{fill:#FFFFFF;stroke:#2196F3;stroke-width:3;stroke-miterlimit:10;}
	.st77{fill:#FFD63B;}
	.st78{fill:none;stroke:#FFFFFF;stroke-width:3;stroke-linejoin:bevel;stroke-miterlimit:10;}
	.st79{fill:none;stroke:#FFD63B;stroke-width:3;stroke-miterlimit:10;}
	.st80{opacity:0.2;fill:#FFFFFF;}
</style>
<g id="Layer_2" class="st0">
	<g class="st1">
		<rect x="-2035.5" y="-3664" class="st2" width="6368.5" height="5472"/>
	</g>
</g>
<g id="Layer_1">
	<g id="arrow_1_">
	</g>
	<g id="arrow">
	</g>
	<g>
		<g>
			<g>
				<g>
					<path class="st77" d="M30.3,21.1c0.2,0,0.3,0.1,0.4,0.2c0.1,0.1,0.2,0.2,0.2,0.4l0,1l-6.3,0l0-0.6c0-0.1,0-0.2,0.1-0.4
						s0.1-0.2,0.2-0.3l2.7-2.7c0.2-0.2,0.4-0.4,0.6-0.7c0.2-0.2,0.3-0.4,0.4-0.6c0.1-0.2,0.2-0.4,0.3-0.6c0.1-0.2,0.1-0.4,0.1-0.7
						c0-0.4-0.1-0.7-0.3-0.9s-0.5-0.3-0.9-0.3c-0.2,0-0.3,0-0.5,0.1c-0.1,0-0.3,0.1-0.4,0.2c-0.1,0.1-0.2,0.2-0.3,0.3
						s-0.1,0.2-0.2,0.4c-0.1,0.2-0.2,0.3-0.3,0.4c-0.1,0.1-0.3,0.1-0.5,0l-0.9-0.2c0.1-0.4,0.2-0.8,0.4-1.2c0.2-0.3,0.4-0.6,0.7-0.8
						c0.3-0.2,0.6-0.4,1-0.5c0.4-0.1,0.7-0.2,1.2-0.2c0.4,0,0.8,0.1,1.2,0.2c0.4,0.1,0.7,0.3,0.9,0.5c0.3,0.2,0.4,0.5,0.6,0.8
						s0.2,0.7,0.2,1.1c0,0.3-0.1,0.6-0.2,0.9c-0.1,0.3-0.2,0.6-0.4,0.8c-0.2,0.3-0.4,0.5-0.6,0.7c-0.2,0.2-0.5,0.5-0.7,0.7l-1.9,2
						c0.2-0.1,0.4-0.1,0.6-0.1s0.4-0.1,0.6,0L30.3,21.1z"/>
					<path class="st77" d="M37.5,19.3l0,1c0,0.1,0,0.2-0.1,0.2s-0.1,0.1-0.3,0.1l-0.7,0l0,2.2l-1.5,0l0-2.2l-3.8,0
						c-0.1,0-0.2,0-0.3-0.1c-0.1-0.1-0.1-0.2-0.2-0.3l-0.2-0.9l4.3-5.7l1.6,0l0,5.6L37.5,19.3z M35,19.3l0-2.7c0-0.1,0-0.3,0-0.5
						c0-0.2,0-0.3,0.1-0.5l-2.7,3.6L35,19.3z"/>
					<path class="st77" d="M39.2,22.7c-0.1,0.2-0.2,0.4-0.5,0.6c-0.2,0.1-0.4,0.2-0.6,0.2l-0.9,0l4.4-11.1c0.1-0.2,0.2-0.4,0.4-0.5
						s0.4-0.2,0.6-0.2l0.9,0L39.2,22.7z"/>
					<path class="st77" d="M49.8,13.7l0,0.7c0,0.2,0,0.4-0.1,0.5c0,0.1-0.1,0.2-0.1,0.3l-3.4,6.9c-0.1,0.2-0.2,0.3-0.3,0.4
						c-0.1,0.1-0.3,0.2-0.6,0.2l-1.3,0l3.4-6.7c0.1-0.2,0.2-0.3,0.3-0.4s0.2-0.3,0.3-0.4l-4.2,0c-0.1,0-0.2,0-0.3-0.1
						s-0.1-0.2-0.1-0.3l0-1.2L49.8,13.7z"/>
				</g>
			</g>
			<polyline class="st79" points="23.5,29.5 22.5,36.5 29.5,33.5 			"/>
			<path class="st79" d="M1.5,25.5c-0.2,5.3,3.6,12.1,10.6,18.9l0,0c7.1,7.2,15,10.5,20.4,10.1c0.5-0.4,1.4-0.5,1.8-1
				c1.6-1.6,2.8-3.5,3.6-5.5c0.2-0.6-0.2-1.8-0.5-1.9c-2.4-0.8-4.9-1.5-7.2-2c-0.4-0.1-1.4,0.2-1.6,0.5c-0.5,0.8-1.1,1.7-1.6,2.5
				c-0.5,0.8-1.8,0.9-2.8,0.2c-1.1-0.8-5.5-4.7-7.7-6.7c-2.1-2.1-6.1-6.4-6.9-7.5c-0.7-1-0.7-2.3,0.1-2.8c0.8-0.5,1.6-1.1,2.5-1.6
				c0.3-0.2,0.5-1.3,0.4-1.6c-0.6-2.3-1.4-4.8-2.2-7.2C10.2,19.4,9,19,8.4,19.3c-2,0.8-3.8,2.1-5.4,3.7c-0.4,0.5-0.9,0.9-1.2,1.4
				L1.5,25.5z"/>
		</g>
	</g>
	<path class="st79" d="M23.9,29.9c-2.7-3-4.4-7-4.4-11.4c0-9.4,7.6-17,17-17s17,7.6,17,17s-7.6,17-17,17c-2.7,0-5.2-0.6-7.5-1.7"/>
</g>
</svg>
