<svg xmlns="http://www.w3.org/2000/svg" width="289" height="230" viewBox="0 0 289 230"><defs><style>.cls-1{opacity:0.4;}.cls-2,.cls-3{fill:none;stroke:#231f20;stroke-miterlimit:10;stroke-width:6px;}.cls-3{stroke-linecap:square;}</style></defs><title>xx</title><g id="Layer_2" data-name="Layer 2"><g class="cls-1"><path class="cls-2" d="M254.17,206.76s-7.64,15.91-32.2,18.72c-22.6,2.59-33.72-11.16-33.72-11.16s11.48-16.35,28.25-19.94C236.94,190,254.17,206.76,254.17,206.76Z"/><path class="cls-2" d="M222.76,175.71s5.1-16.9,21-23.4c19.35-7.93,39.27,5.51,39.27,5.51s-.07,14.09-23.74,21.2"/><path class="cls-2" d="M236.11,143.46s-4.42-17.79,6.3-32.15c13.08-17.51,38-16.31,38-16.31s7.43,12.57-10,31.69"/><path class="cls-2" d="M233.58,95.95s-8.85-16.06-2.17-32.7C239.55,43,264,37.69,264,37.69s10.41,10.24-1.47,33.2"/><path class="cls-2" d="M34.59,206.76s7.64,15.91,32.2,18.72c22.6,2.59,33.72-11.16,33.72-11.16S89,198,72.27,194.39C51.82,190,34.59,206.76,34.59,206.76Z"/><path class="cls-2" d="M66,175.71s-5.1-16.9-21-23.4c-19.35-7.93-39.27,5.51-39.27,5.51S5.83,171.91,29.5,179"/><path class="cls-2" d="M52.65,143.46s4.42-17.79-6.3-32.15C33.26,93.8,8.3,95,8.3,95s-7.43,12.57,10,31.69"/><path class="cls-2" d="M55.18,95.95S64,79.89,57.35,63.25C49.21,43,24.79,37.69,24.79,37.69s-10.41,10.24,1.47,33.2"/><polyline class="cls-2" points="177 153 206 153 206 3 83 3 83 153 112 153"/><circle class="cls-2" cx="144" cy="131" r="22"/><polyline class="cls-2" points="159 148 159 198.81 144.79 183.94 129 198.81 129 148"/><line class="cls-3" x1="176" y1="60" x2="114" y2="60"/><line class="cls-3" x1="176" y1="82" x2="114" y2="82"/><line class="cls-3" x1="156" y1="37" x2="133" y2="37"/></g></g></svg>