<svg xmlns="http://www.w3.org/2000/svg" width="110" height="87" viewBox="0 0 110 87"><defs><style>.cls-1,.cls-4{fill:none;stroke-miterlimit:10;}.cls-1{stroke:#231f20;stroke-width:3px;}.cls-2{fill:#ccc;}.cls-3{fill:#3dd89d;}.cls-4{stroke:#ccc;stroke-width:4px;}</style></defs><title>xx</title><g id="Layer_2" data-name="Layer 2"><path class="cls-1" d="M108.5,28.5a5,5,0,0,0-5-5h-55a5,5,0,0,0-5,5v39a5,5,0,0,0,5,5H82.38v.05l18.13,12V72.5h3a5,5,0,0,0,5-5Z"/><path class="cls-1" d="M37,52.5H24.36v.05L8.5,64.57V52.5h-2a5,5,0,0,1-5-5V6.5a5,5,0,0,1,5-5h56a5,5,0,0,1,5,5V18"/><path class="cls-2" d="M22,24l-1.05-3.45H15.65L14.6,24H11.28L16.4,9.47h3.76L25.29,24ZM20.2,18q-1.46-4.69-1.64-5.3t-.26-1Q18,13,16.42,18Z"/><path class="cls-3" d="M72.94,52.78l-3-17.46a5.34,5.34,0,0,1-.07-.88q0-3.76,4.91-3.76t4.91,3.74a4.94,4.94,0,0,1-.07.9l-3,17.46Zm1.83,3.59q4.3,0,4.3,4.3T74.77,65q-4.3,0-4.3-4.3T74.77,56.37Z"/><line class="cls-4" x1="28" y1="22" x2="38" y2="22"/><line class="cls-4" x1="10" y1="33" x2="35" y2="33"/><line class="cls-4" x1="10" y1="43" x2="35" y2="43"/><line class="cls-4" x1="28" y1="12" x2="55" y2="12"/></g></svg>