<svg xmlns="http://www.w3.org/2000/svg" width="95" height="97" viewBox="0 0 95 97"><defs><style>.cls-1,.cls-3,.cls-4{fill:none;stroke-miterlimit:10;}.cls-1{stroke:#231f20;}.cls-1,.cls-3{stroke-width:3px;}.cls-2{fill:#3dd89d;}.cls-3{stroke:#3dd89d;}.cls-4{stroke:#ccc;stroke-width:4px;}</style></defs><title>xx</title><g id="Layer_2" data-name="Layer 2"><path class="cls-1" d="M65.52,32.38l-1.85,1.48a4.37,4.37,0,0,1-4.09.74q-2.15-.7-4.37-1.49l-2.28-.83a9.58,9.58,0,0,0-7,.16,69.21,69.21,0,0,1-8.35,2.88c-1.41.39-2.79.72-4.11,1a2.66,2.66,0,0,0-2.09,3v0a4.66,4.66,0,0,0,2.35,3.35,8.77,8.77,0,0,0,1.63.68,9,9,0,0,0,5.15,0l8.12-1.62a5.57,5.57,0,0,1,5,1.52L72.88,62.56a6.09,6.09,0,0,1,0,4.42,6.2,6.2,0,0,1-5.15,3.68,7,7,0,0,1-2.94,4.42,7.08,7.08,0,0,1-5.89.74,6.6,6.6,0,0,1-4.42,3.68,6.32,6.32,0,0,1-4.42-.74,6.56,6.56,0,0,1-3.68,3.68,6.43,6.43,0,0,1-4.42,0l-5.89-6.63-2.44,2.44a3.7,3.7,0,0,1-5.33-.09L12.75,61.5a3.7,3.7,0,0,1,.09-5.15l2.62-2.62L11,49.31"/><path class="cls-1" d="M15,53.5h3.56a2.39,2.39,0,0,1,2.37,2.05l.13.9a2.39,2.39,0,0,0,2.37,2.05h1.69a2.39,2.39,0,0,1,2.39,2.39v1.22a2.39,2.39,0,0,0,2.39,2.39h.22a2.39,2.39,0,0,1,2.39,2.39v.65a2.39,2.39,0,0,0,2.39,2.39h0a2.39,2.39,0,0,1,2.36,2.73l-.55,3.75"/><line class="cls-1" x1="43.44" y1="71.4" x2="50.06" y2="78.76"/><line class="cls-1" x1="48.59" y1="64.77" x2="58.9" y2="75.81"/><line class="cls-1" x1="55.22" y1="58.15" x2="67.73" y2="70.66"/><path class="cls-1" d="M71.41,61.09a20.3,20.3,0,0,0,11-11"/><rect class="cls-2" x="62.71" y="31.33" width="32.05" height="11.01" transform="translate(48.62 -44.7) rotate(44.66)"/><rect class="cls-2" x="0.14" y="31.33" width="32.05" height="11.01" transform="translate(53.55 51.68) rotate(135.34)"/><line class="cls-1" x1="27.98" y1="33.12" x2="32.4" y2="36.8"/><line class="cls-3" x1="36.81" y1="24.29" x2="34.6" y2="20.61"/><line class="cls-3" x1="43.44" y1="20.61" x2="41.97" y2="16.92"/><line class="cls-3" x1="50.06" y1="20.61" x2="51.53" y2="16.92"/><line class="cls-3" x1="56.69" y1="23.55" x2="58.9" y2="20.61"/><path class="cls-4" d="M37,94.9A46.68,46.68,0,0,1,1.67,58.15"/><path class="cls-4" d="M93,59.42A46.69,46.69,0,0,1,58,94.9"/><path class="cls-4" d="M14.52,16.51a46.62,46.62,0,0,1,67.25,1.37"/></g></svg>