<svg xmlns="http://www.w3.org/2000/svg" width="81" height="88" viewBox="0 0 81 88"><defs><style>.cls-1,.cls-3{fill:none;stroke-miterlimit:10;}.cls-1{stroke:#231f20;stroke-width:3px;}.cls-2{fill:#3dd89d;}.cls-3{stroke:#ccc;stroke-width:4px;}</style></defs><title>xx</title><g id="Layer_2" data-name="Layer 2"><polygon class="cls-1" points="67.5 20.5 48.5 20.5 48.5 1.5 49.5 1.5 67.5 19.5 67.5 20.5"/><line class="cls-1" x1="67.5" y1="19" x2="67.5" y2="43"/><polyline class="cls-1" points="49 1.5 1.5 1.5 1.5 86.5 67.5 86.5 67.5 73"/><path class="cls-2" d="M75.13,44.14,52.59,65.63l-8.53-8.87-6.49,6.65,15.3,15.38,28-28.11C78.56,48.43,75.13,44.14,75.13,44.14Z"/><line class="cls-3" x1="11" y1="17" x2="28" y2="17"/><line class="cls-3" x1="11" y1="61" x2="30" y2="61"/><line class="cls-3" x1="11" y1="72" x2="36" y2="72"/><line class="cls-3" x1="11" y1="28" x2="57" y2="28"/><line class="cls-3" x1="22" y1="50" x2="57" y2="50"/><line class="cls-3" x1="11" y1="50" x2="17" y2="50"/><line class="cls-3" x1="47" y1="39" x2="57" y2="39"/><line class="cls-3" x1="11" y1="39" x2="42" y2="39"/></g></svg>