<svg xmlns="http://www.w3.org/2000/svg" width="101" height="92" viewBox="0 0 101 92"><defs><style>.cls-1{fill:#fff;}.cls-1,.cls-3{stroke:#231f20;stroke-width:3px;}.cls-1,.cls-2,.cls-3{stroke-miterlimit:10;}.cls-2,.cls-3{fill:none;}.cls-2{stroke:#ccc;stroke-width:4px;}.cls-4{fill:#3dd89d;}</style></defs><title>xx</title><g id="Layer_2" data-name="Layer 2"><rect class="cls-1" x="45.5" y="2.5" width="10" height="8" transform="translate(57 -44) rotate(90)"/><line class="cls-2" x1="59" y1="24" x2="73" y2="24"/><line class="cls-2" x1="59" y1="33" x2="84" y2="33"/><line class="cls-2" x1="78" y1="42" x2="84" y2="42"/><line class="cls-2" x1="59" y1="42" x2="74" y2="42"/><line class="cls-2" x1="59" y1="51" x2="84" y2="51"/><line class="cls-2" x1="59" y1="60" x2="77" y2="60"/><polyline class="cls-3" points="49 10.5 6.5 10.5 6.5 20.5 6.5 29 6.5 71.5 94.5 71.5 94.5 10.5 49 10.5"/><rect class="cls-3" x="1.5" y="71.5" width="98" height="6"/><rect class="cls-1" x="1.5" y="7.5" width="98" height="6"/><polyline class="cls-3" points="63.5 90.5 50.5 78.5 37.5 90.5"/><line class="cls-3" x1="50.5" y1="89" x2="50.5" y2="78"/><path class="cls-4" d="M42.72,54.38l-2.79-2.3-.51-.41c-.56-.45-.32-.41-1-.11s-1.24.53-1.88.75a.47.47,0,0,0-.39.47c-.11,1.27-.21,2.54-.35,3.81-.09.84.1.68-.77.79a18.69,18.69,0,0,1-4.63,0c-.31,0-.44-.15-.46-.47-.11-1.39-.26-2.78-.38-4.17a.39.39,0,0,0-.31-.38c-.71-.27-1.43-.54-2.11-.87a.57.57,0,0,0-.74.1c-1.06.89-2.13,1.77-3.19,2.65-.13.11-.22.16-.39,0A17.23,17.23,0,0,1,19,50.31l1.85-2.24c.36-.44.72-.88,1.09-1.31a.34.34,0,0,0,0-.43c-.33-.77-.64-1.55-1-2.31a.47.47,0,0,0-.32-.24c-1.42-.15-2.84-.28-4.26-.4-.26,0-.34-.11-.38-.36a18.23,18.23,0,0,1,0-5.12c0-.25.13-.32.37-.34l4.26-.39A.35.35,0,0,0,21,36.9c.27-.72.55-1.45.88-2.14a.58.58,0,0,0-.09-.74c-.95-1.11-1.87-2.24-2.82-3.4A17,17,0,0,1,23,26.55c1.14.94,2.27,1.86,3.39,2.8a.58.58,0,0,0,.74.11c.7-.33,1.42-.6,2.14-.87a.35.35,0,0,0,.27-.34c.12-1.35.24-2.69.38-4,.07-.7,0-.55.6-.64a17.28,17.28,0,0,1,4.92,0c.22,0,.28.11.3.32.12,1.39.26,2.78.38,4.17a.53.53,0,0,0,.43.53,18.88,18.88,0,0,1,2,.85.51.51,0,0,0,.65-.08c1.08-.9,2.16-1.8,3.25-2.69l.19-.15a16.29,16.29,0,0,1,3,2.66c.32.37.61.77.93,1.14a.32.32,0,0,1,0,.5c-.9,1.06-1.77,2.13-2.66,3.19a.54.54,0,0,0-.08.68c.33.7.61,1.42.88,2.14a.39.39,0,0,0,.39.3l4.3.39a.28.28,0,0,1,.29.27,18.11,18.11,0,0,1,0,5.24c0,.21-.13.28-.34.3l-4.2.39a.48.48,0,0,0-.48.38c-.27.72-.57,1.44-.88,2.14a.44.44,0,0,0,.06.55c.9,1.08,1.79,2.17,2.69,3.24a.33.33,0,0,1,0,.5A17.41,17.41,0,0,1,42.72,54.38Zm-16.35-14A6.5,6.5,0,1,0,33,34,6.5,6.5,0,0,0,26.37,40.4Z"/></g></svg>