<svg xmlns="http://www.w3.org/2000/svg" width="40" height="40" viewBox="0 0 40 40"><defs><style>.cls-1{fill:#3bd99e;}</style></defs><title>xx</title><g id="Layer_2" data-name="Layer 2"><path class="cls-1" d="M20,0a19.9,19.9,0,0,0-8.2,1.77A19.05,19.05,0,0,0,1,13.67,20,20,0,1,0,20,0ZM8,24c-.06-1.23,0-1.38,0-4.5S7.94,16.23,8,15a9.9,9.9,0,0,1,.6-3A5.88,5.88,0,0,1,12,8.6,9.91,9.91,0,0,1,15,8c1.23-.06,1.38,0,4.5,0s3.27-.06,4.5,0a9.9,9.9,0,0,1,3,.6A5.88,5.88,0,0,1,30.4,12a9.9,9.9,0,0,1,.6,3c.06,1.23,0,2.88,0,6s.06,1.77,0,3a9.9,9.9,0,0,1-.6,3A5.88,5.88,0,0,1,27,30.4a9.91,9.91,0,0,1-3,.6c-1.23.06-1.38,0-4.5,0s-3.27.06-4.5,0a9.9,9.9,0,0,1-3-.6A5.88,5.88,0,0,1,8.6,27,9.9,9.9,0,0,1,8,24Z"/><circle class="cls-1" cx="19.8" cy="19.2" r="3.59"/><path class="cls-1" d="M10,24a6.6,6.6,0,0,0,.54,2.28,3.81,3.81,0,0,0,2.18,2.18A6.59,6.59,0,0,0,15,29c1.21.06,2.93,0,6,0a27.9,27.9,0,0,0,3,0,6.6,6.6,0,0,0,2.28-.54,3.81,3.81,0,0,0,2.18-2.18A6.6,6.6,0,0,0,29,24c.06-1.21,0,.07,0-3s.06-4.79,0-6a6.6,6.6,0,0,0-.54-2.28,3.81,3.81,0,0,0-2.18-2.18A6.6,6.6,0,0,0,24,10c-1.21-.06-.93,0-4,0H19c-3.07,0-2.79-.06-4,0a6.61,6.61,0,0,0-2.28.53,3.81,3.81,0,0,0-2.18,2.18A6.61,6.61,0,0,0,10,15c-.06,1.21,0,2.93,0,6S9.94,22.79,10,24ZM25.78,11.88a1.34,1.34,0,1,1-1.34,1.34A1.34,1.34,0,0,1,25.78,11.88Zm-6,1.57A5.75,5.75,0,1,1,14,19.2,5.75,5.75,0,0,1,19.8,13.45Z"/></g></svg>