<svg xmlns="http://www.w3.org/2000/svg" width="242" height="37" viewBox="0 0 242 37"><defs><style>.cls-1{fill:#3dd89d;}.cls-1,.cls-2,.cls-3{fill-rule:evenodd;}.cls-2{fill:#a7a9ac;}.cls-3{fill:#233143;}</style></defs><title>xx</title><g id="Layer_2" data-name="Layer 2"><path class="cls-1" d="M7.55,19.49V14.15h8.05c1.49,0,2.28.88,2.27,2.72s-.7,2.63-2.1,2.62Zm0,0Zm131.5-14v.09h-6.83V1h16.72c4.81,0,7.79,1.58,7.79,7,0,4.73-2.81,7.09-7.88,7.09H139v4.29h0V24h-6.83V10.83H147c1.49,0,2.36-.87,2.37-2.71s-.79-2.63-2.19-2.63Zm0,0ZM23.06.95.83.93V5.66H7.56V5.57H23.06Zm0,0ZM.82,9.86V24H17.53c4.73,0,7.7-1.57,7.71-7,0-4.73-2.71-7.09-7.87-7.1H.82Zm0,0Zm39.3,2.3A97.08,97.08,0,0,0,33.48,1H25.34A117.66,117.66,0,0,1,35.74,18,55.49,55.49,0,0,1,30.84,24H39.5A156.47,156.47,0,0,0,54.05,1H46.17A112.29,112.29,0,0,1,40.13,12.16Zm0,0Zm14.36.1c0,8.4,3.58,11.56,11,12.09.44.09,8.84.09,9.28.09v-5c-.44-.09-8.75-.09-9.1-.18-2.8-.61-3.94-2.37-3.93-6.92s1.14-6.21,3.86-6.74c.44-.09,8.75-.17,9.19-.17v-5L65.43.54C58.08,1.06,54.49,3.94,54.48,12.26Zm0,0ZM94.83,24V5.63h9.8V1L78.3,1V5.62h9.8V24Zm0,0ZM107.45,1l0,23,21.89,0V19.4H114.18v-5h6.74V9.85h-6.74V5.65h15.14V1Z"/><path class="cls-2" d="M170.64,19.69V14.35h8.05c1.49,0,2.28.88,2.27,2.72s-.7,2.63-2.1,2.62Zm0,0ZM186.24,1.15l-22.32,0V5.77h22.32Zm0,0ZM163.91,10V24.24h16.72c4.73,0,7.7-1.66,7.71-7.09,0-4.73-2.71-7.09-7.87-7.1h-9.8V10Zm0,0ZM191,1.15l0,23.11,21.89,0V19.55H197.69v-5h6.83V10H197.7V5.79h15.14V1.16Zm0,0ZM234.82,10V24.29h6.74V10Zm0,0Zm6.74-4.2H227.29a66.31,66.31,0,0,1-5,18.47h-7.18c2.81-6.91,5.44-14.7,5.88-23.11h20.57Z"/><path class="cls-3" d="M1.33,32.71h3.5v4.11H5.88V32.19H.19v4.64H1.33Zm0,0Zm9.19,1.93V32.71h2.36c.7,0,1.05.35,1,1s-.35,1-1.05,1Zm0,0Zm0,2.19V35.17h2.54c1.49,0,2.1-.7,2.1-1.49s-.52-1.49-2.1-1.49H9.47v4.64Zm0,0Zm10.6-4.72c-2.28,0-3.41.44-3.42,2.36s1.14,2.36,3.41,2.37,3.5-.52,3.5-2.36S23.48,32.11,21.11,32.11Zm0,0Zm0,4.2c-1.66,0-2.19-.35-2.19-1.84s.53-1.84,2.19-1.84c1.84,0,2.36.26,2.36,1.84S23,36.31,21.11,36.31Zm0,0Zm10.42-1a25.37,25.37,0,0,0-2.19-3.15H27.86v4.64H28.9V33c.7,1.05,1.49,2.28,2.19,3.33h.79c.7-1.05,1.58-2.19,2.28-3.33v3.85h1.14V32.21H33.81C33,33.17,32.23,34.31,31.53,35.36Zm0,0Zm8.4.88V34.57h2.54c.61,0,1,.26,1,.79s-.26.88-.88.87Zm0,0Zm-1-4v4.64h3.85c1.23,0,1.84-.52,1.84-1.49,0-.79-.44-1.4-1.92-1.4H39.94V32.21Zm0,0Zm6.48,0v4.64h1.05V32.21Zm0,0Zm12.61,0H56.92v4H54.55v-4H53.51v4H51.14v-4H50v4.64h8Zm0,0Zm8.23.53v4.11h1.05V32.23H62.52a12.16,12.16,0,0,1-1.58,4.64h1.23a12.51,12.51,0,0,0,1.32-4.11Zm0,0Zm4.64-.52v4.64h5.25v-.61H72V34.68h2.89v-.61H72V32.76h4.11v-.53Zm0,0ZM80,34.69h3.59v2.19h1.05V32.24H83.62v1.84H80V32.24H79v4.64H80Zm0,0Zm9.28,0H92.9v2.19h1.05V32.25H92.9v1.84H89.31V32.24H88.26v4.64h1.05Zm0,0Zm9.37,1.58V34.61h2.54c.61,0,.88.26.87.79s-.26.88-.88.87Zm0,0Zm-1.14-4v4.64h3.85c1.31,0,1.93-.52,1.93-1.49,0-.79-.44-1.4-2-1.4H98.68V32.25Zm0,0Zm6.48,0v4.64h1.05V32.25Zm0,0Zm4.73,0V36.9h5.16v-.61h-4.11V34.71h3V34.1h-3V32.78h4.11v-.53Zm0,0Zm15.67.54h3.5v4.11H129V32.27h-5.69v4.64h1.14Zm0,0Zm13.22,4.12h1.14c-.79-1.31-1.84-3.15-2.71-4.64h-1.75c-1,1.49-1.93,3.15-2.72,4.64h1.14a9.6,9.6,0,0,1,.7-1.31h3.41Zm0,0Zm-2.36-4.12c.35.7.79,1.49,1.22,2.19h-2.8c.44-.7.88-1.49,1.31-2.19Zm0,0Zm7.18,1.93V32.81h2.28c.7,0,1.05.35,1.05,1s-.35,1-1.05,1Zm0,0Zm0,2.19V35.26H145c1.49,0,2-.7,2-1.49s-.52-1.49-2.1-1.49h-3.59v4.64Zm0,0ZM153,32.2c-2.36,0-3.5.44-3.5,2.36s1.14,2.36,3.5,2.37,3.41-.52,3.42-2.36S155.32,32.2,153,32.2Zm0,0Zm0,4.2c-1.75,0-2.28-.35-2.27-1.84s.53-1.84,2.28-1.84,2.28.26,2.27,1.84S154.79,36.4,153,36.4Zm0,0Zm7.7.53V32.82h3.68V32.3h-4.73v4.64Zm0,0ZM167,32.3v4.64h5.16v-.61h-4.11V34.75H171v-.61H168.1V32.82h4.11V32.3Zm0,0Zm9.19,2.46h3.5v2.19h1.05V32.31h-1.05v1.84h-3.5V32.3h-1.05v4.64h1.05Zm0,0Zm8.14-2.45v4.64h5.25v-.61h-4.11V34.76h2.89v-.61h-2.89V32.84h4.11v-.53Zm0,0Zm9.28,2.46V32.84h2.28c.7,0,1.05.35,1,1s-.35,1-1.05,1Zm0,0Zm0,2.19V35.29h2.45c1.49,0,2.1-.7,2.1-1.49s-.52-1.49-2.1-1.49h-3.59V37Zm0,0Zm12.52,0h1.14c-.79-1.31-1.84-3.15-2.62-4.64h-1.84c-.88,1.49-1.93,3.15-2.72,4.64h1.14c.26-.44.44-.87.7-1.31h3.41Zm0,0Zm-2.27-4.12c.35.7.7,1.49,1.14,2.19h-2.8c.44-.7.88-1.49,1.31-2.19Zm0,0ZM212.74,37V32.85h2.54v-.53h-6.22v.53h2.54V37Zm0,0ZM221,32.25c-2.36,0-3.5.44-3.5,2.36S218.6,37,221,37s3.41-.52,3.42-2.36S223.25,32.25,221,32.25Zm0,0Zm0,4.2c-1.75,0-2.28-.35-2.27-1.84s.53-1.84,2.28-1.84,2.28.26,2.27,1.84S222.72,36.45,221,36.45Zm0,0Zm6.83-1.66V32.86h2.28c.7,0,1.14.35,1.14,1s-.44,1-1.14,1Zm0,0Zm0,2.19V35.32h2.54c1.49,0,2-.7,2-1.49s-.44-1.49-2.1-1.49h-3.5V37Zm0,0Zm7.7-.61V34.71H238c.7,0,1,.26,1,.79s-.18.88-.88.87Zm0,0Zm-1-4V37h3.85c1.23,0,1.84-.52,1.84-1.49,0-.79-.44-1.4-1.93-1.4H235.5V32.34Zm0,0Zm6.48,0V37H242V32.35Z"/></g></svg>