<svg xmlns="http://www.w3.org/2000/svg" width="207" height="21" viewBox="0 0 207 21"><defs><style>.cls-1{fill:#3dd89d;}.cls-1,.cls-2{fill-rule:evenodd;}.cls-2{fill:#fff;opacity:0.5;}</style></defs><title>xx</title><g id="Layer_2" data-name="Layer 2"><path class="cls-1" d="M6.59,16.2V11.63h6.9c1.27,0,1.95.75,1.95,2.33s-.6,2.25-1.8,2.25Zm0,0Zm112.6-12v.07h-5.85V.38h14.32c4.12,0,6.67,1.35,6.67,6,0,4-2.4,6.07-6.75,6.07h-8.4v3.67h0v4h-5.85V8.78H126c1.27,0,2-.75,2-2.32s-.67-2.25-1.87-2.25Zm0,0ZM19.86.32H.82v4H6.59V4.28H19.86Zm0,0ZM.82,7.95V20H15.13c4,0,6.6-1.34,6.6-6C21.73,10,19.41,8,15,8H.82Zm0,0Zm33.66,2A83.12,83.12,0,0,0,28.78.32h-7a100.75,100.75,0,0,1,8.91,14.62A47.51,47.51,0,0,1,26.52,20h7.42A134,134,0,0,0,46.4.33H39.65A96.15,96.15,0,0,1,34.47,9.92Zm0,0ZM46.77,10c0,7.2,3.07,9.9,9.44,10.35.37.08,7.57.08,7.95.08V16.16c-.37-.08-7.5-.08-7.8-.16C54,15.48,53,14,53,10.08s1-5.32,3.3-5.77c.37-.07,7.5-.14,7.87-.14V-.1l-8,.07C49.85.41,46.77,2.88,46.77,10Zm0,0ZM81.32,20.07V4.33h8.4v-4L67.16.35v4h8.4V20.07Zm0,0ZM92.12.37V20.08h18.74v-4h-13V11.84h5.77V7.94H97.89V4.34h13v-4Z"/><path class="cls-2" d="M146.23,16.37V11.8h6.9c1.27,0,1.95.75,1.95,2.32s-.6,2.25-1.8,2.25Zm0,0ZM159.59.49H140.47v4h19.11Zm0,0ZM140.47,8V20.26h14.32c4,0,6.6-1.42,6.6-6.07,0-4-2.32-6.07-6.74-6.08h-8.4V8Zm0,0ZM163.64.49V20.28h18.74v-4h-13V12h5.85V8.07H169.4V4.47h13V.5Zm0,0Zm37.55,7.6V20.3h5.77V8.09Zm0,0ZM207,4.49H194.74a56.78,56.78,0,0,1-4.28,15.81h-6.15c2.4-5.92,4.66-12.59,5-19.79H207Z"/></g></svg>