<svg xmlns="http://www.w3.org/2000/svg" width="479" height="413" viewBox="0 0 479 413"><defs><style>.cls-1{fill-opacity:0.4;stroke:#000;stroke-opacity:0.17;opacity:0.5;}.cls-2{fill:#3dd89d;}</style></defs><title>xx</title><g id="Layer_2" data-name="Layer 2"><path class="cls-1" d="M477.11,238.47a3.57,3.57,0,0,1-1.31-2.83c0-1.54-.14-1.69-2.12-1.85s-2.75-.62-5.77-3.52a3.91,3.91,0,0,0-2.12-1.1.89.89,0,0,1-1-.76c0-.42-1-1.21-2.19-1.75-2-.89-2.23-1.25-2.54-3.55-.55-4-.46-4.32,1.35-5.35,3.46-2,1.09-6.1-3.51-6.1a3.89,3.89,0,0,1-3.65-1.69,4.58,4.58,0,0,0-2.54-1.69c-1.36,0-3.06-.86-5.18-2.63a5.83,5.83,0,0,0-3-1.33,47.26,47.26,0,0,0-10.56,2.9c-.73.4-1.24.39-1.67,0a3.13,3.13,0,0,0-1.91-.61c-1,0-1.3-.32-1.3-1.38a2.35,2.35,0,0,1,.56-1.73,1.88,1.88,0,0,0,.56-1.45c0-.6.24-1.1.54-1.1s.85-1.08,1.23-2.4a11.31,11.31,0,0,1,1.83-3.69c1.12-1.26,1.12-1.34.14-3.16s-1-1.92.16-3.79a8,8,0,0,0,1.17-2.77c0-1.16-3.41-3.39-5.19-3.39a3.21,3.21,0,0,1-2.19-.9,2.51,2.51,0,0,0-2.34-.66c-1.3.19-1.54.06-1.28-.74.59-1.85-1.34-3-4.56-2.62l-2.92.3L412,173.24c-2.7-2.72-4.39-4-5.73-4.21-1.72-.32-1.91-.55-2-2.45-.05-1.15,0-3.07,0-4.26a6.62,6.62,0,0,0-1.36-4.44,11.12,11.12,0,0,1-1.66-4.52c-.2-2.81-1.22-3.85-4.16-4.25-1.3-.17-2.45-.68-2.63-1.16s.36-2,1.2-3.46c4-6.92,4.42-8,3.53-9.6-.76-1.36-1.2-1.51-5.31-1.77l-4.48-.28-.4-2a6.68,6.68,0,0,0-2.28-3.55l-1.88-1.57-.63,2.58-.67-1.23a6,6,0,0,1-.67-2.37c0-1.27-2-2.89-3.52-2.89-1.29,0-1.28-.06.47-3.5,1.12-2.21,1.39-3.4,1.13-5-.33-2.09-.33-2.09,2-2.4,2.81-.38,5.21-2.41,4.79-4.08-.21-.82.07-1.32,1-1.71,1.6-.7,1.93-3.25.67-5.17-.89-1.35-.88-1.56.07-3.32s1-1.95.05-2.95a4.36,4.36,0,0,1-1-2.53,3.57,3.57,0,0,0-1.27-2.5,19.49,19.49,0,0,1-2.87-3.39,9.56,9.56,0,0,0-2.4-2.67c-.51-.19-.8-1.14-.8-2.58,0-2.34.24-2.68,3.94-5.81,2-1.65,2-1.92.36-5.64-.87-2-.86-2.12.11-2.12,2.37,0,3.38-3.56,1.21-4.25-1.08-.34-1.1-.42-.2-1.08s.91-1.3.69-3.63a8.69,8.69,0,0,0-1.18-3.91,1.59,1.59,0,0,1-.47-.81,2.19,2.19,0,0,1-.8-.57l-.06.09c-.12.13-.52-.06-.88-.42q-1.56-1.56-4.28.73c-.91.77-1.82,1.23-2,1-.56-.56-.42-3.26.21-4,.31-.37.4-.55.19-.4-.62.45-1.91-.93-1.51-1.62.2-.35-.29,0-1.09.69-1.84,1.68-2.45,1.3-2.92-1.81a6.19,6.19,0,0,0-4.63-5.38A2,2,0,0,1,366,39c-.3-2.57-1-3.07-4.61-3.07-2.78,0-3.3-.16-3.55-1.13a1.53,1.53,0,0,0-1.62-1.13A2.75,2.75,0,0,1,354,32c-.85-1.49-1.27-1.69-3.53-1.69-2.52,0-4.33,1-4.93,2.83-.31.93-2.73-.26-2.73-1.35,0-.72-2.27-2-3.51-2a3.58,3.58,0,0,0-1.68.95c-.8.73-1.2.79-1.71.28a3.25,3.25,0,0,0-2-.66c-1.1,0-1.63.67-3.05,3.9-1.69,3.84-1.74,3.88-2.8,2.82s-3.31-1-5,.31a19.71,19.71,0,0,1-2.94,1.6,6.73,6.73,0,0,0-3.26,3.23c-.64,1.25-1.37,2.28-1.63,2.28a7.75,7.75,0,0,1-2.24-1.69,7,7,0,0,0-2.36-1.69c-.32,0-.85-.69-1.17-1.54-.47-1.24-.4-1.67.36-2.23.61-.44,1-1.7,1.15-3.5.15-2.09.57-3.18,1.63-4.24,1.89-1.89,1.8-3.14-.41-5.56a12.67,12.67,0,0,0-8.74-3.83,4.81,4.81,0,0,1-3.65-1.51c-1.2-1.15-2.3-1.57-4.67-1.76-5-.41-7.8.25-10.36,2.44-1.78,1.52-2.78,2-4.55,2-3.42,0-4.09-.4-3.46-2.06.45-1.19.27-1.64-1.28-3.05s-1.66-1.8-1.13-2.34c2.4-2.4-2-5.24-6.54-4.26a10.75,10.75,0,0,1-5.35-.13c-3.14-.81-4.37-.22-4.37,2.08,0,.76-.19,1.3-.42,1.18-2.91-1.42-3.53-1.91-3.53-2.83,0-.59-.75-1.49-1.69-2-2-1.17-2.46-2.09-1.64-3.61.5-.93.41-1.37-.48-2.26-1.09-1.09-1.11-1.09-1.82.63-.4,1-.93,1.74-1.2,1.74a8.25,8.25,0,0,0-2.33,1.61,10.33,10.33,0,0,1-3.39,2C240,8.31,236,12,236,13c0,.35-1.08,1.14-2.4,1.75-2.11,1-2.46,1.41-2.86,3.52-.34,1.8-.85,2.61-2,3.2a35.49,35.49,0,0,0-5.12,4.19c-3.22,3.06-3.54,3.55-3.17,5a10.57,10.57,0,0,1,.12,5.49c-.55,1.42-6.82,1.26-8.7-.22s-3-1.43-4.92.08l-1.53,1.21-2.66-2.62c-1.46-1.44-3-2.62-3.37-2.62a9.87,9.87,0,0,0-2.81,1.13A23.39,23.39,0,0,1,192,34.89c-3,.74-7.06,4.67-7.65,7.47-.38,1.81-2.27,4.34-3.23,4.34a5.65,5.65,0,0,1-2-1.13c-1.43-1.12-4.39-1.49-5.58-.7a5.25,5.25,0,0,0-1.25,1.6,1.4,1.4,0,0,1-1.55,1,2.85,2.85,0,0,1,.1.6c.68.39.78,1.52.9,4.74l.15,4-2.68,2.87c-3,3.16-3,3.36-1.9,4.9a2.52,2.52,0,0,1,.21,2.69,3.78,3.78,0,0,0,.07,3,11.53,11.53,0,0,1,.64,1.58A14.16,14.16,0,0,1,166,73.47c-3.57,2.36-2.73,4.68,2.18,6a9.18,9.18,0,0,0,5.08,0c2.2-.53,3.17-.46,6,.41l3.36,1-2.52,1.68a7,7,0,0,0-3.06,3.5c-.3,1-.84,1.82-1.2,1.82a1.83,1.83,0,0,0-1.39,2.77c.53,1,.42,1.2-.81,1.51a9.78,9.78,0,0,1-3.54-.08c-2.92-.6-4.21-.37-5.35,1-.9,1.06-1.06,1.07-2.24.25a4,4,0,0,0-5,.1c-.74.54-1.86,1.27-2.48,1.62-.9.51-1.12,1.23-1.12,3.67s-.32,3.46-1.38,4.88a6.64,6.64,0,0,1-1.74,1.84,19.35,19.35,0,0,0-3.13,1.84,11.32,11.32,0,0,1-4.19,1.86,22,22,0,0,0-4.9,1.33c-3.24,1.21-3.6,1.53-5.25,4.61a18.3,18.3,0,0,1-2.32,3.65,10.32,10.32,0,0,0-1.73,2.65,7.54,7.54,0,0,0-.83,5.19,16.45,16.45,0,0,1-.44,5.79c-.86,3.18-.66,5.46.56,6.47s.87,2.63-1.76,5.6a14.27,14.27,0,0,0-2.54,3.46,3.25,3.25,0,0,1-1.22,1.58c-1.14.92-1.17,1.17-.54,3.7s.65,2.74-1,4.19a8.94,8.94,0,0,0-2.24,3.27c-.76,2.35.31,3.32,4.24,3.85,2.65.35,3,.55,3.29,2a4.56,4.56,0,0,0,1.47,2.42c1,.68,1,1,.42,2.29s-.54,1.65.83,2.92c1.79,1.66,2,2.2.41,1.37-.91-.49-1.44-.3-2.92,1-1.65,1.47-1.95,1.55-3.27.89a19.63,19.63,0,0,0-2.52-1.06c-1-.3-1-.39-.14-1.34a3.61,3.61,0,0,0,.92-2c0-.52.25-.94.56-.94.76,0,.72-2-.07-3.57-.88-1.72-4-4.91-4.77-4.91a20.26,20.26,0,0,0-4,1.69,12.75,12.75,0,0,1-6.58,1.69c-3.55,0-5.51,1.22-5.51,3.42,0,1.63-3.41,6.11-5,6.54-1,.26-1.73,0-2.92-1.18l-1.61-1.54-4.1,1c-3.42.87-4.19,1.29-4.66,2.5a4,4,0,0,1-1.73,2c-1.9.84-1.63,2,1.1,4.95,1.41,1.5,2.49,3,2.39,3.28a7.08,7.08,0,0,1-2.57,1.62c-1.93.87-2.39.92-2.39.27,0-3.42-8.63-1-12.05,3.39a11.93,11.93,0,0,1-3.46,2.93c-1.81.86-1.94.83-5.59-1.21a24.19,24.19,0,0,1-4.06-2.61c-.48-.78-5.15-.63-6,.19A10.52,10.52,0,0,1,46.53,194c-1.5.66-1.75.62-2.54-.42-1.29-1.69-4.54-2.72-5.34-1.69a2.92,2.92,0,0,1-1.47,1A5.78,5.78,0,0,0,35,194.54C33.7,196,33.67,196,32,195a5.55,5.55,0,0,0-4.19-.62c-2,.3-2.82.15-4.12-.78a17,17,0,0,0-3.1-1.72,3.6,3.6,0,0,1-1.09-.57,2.3,2.3,0,0,1-.68-.25c-.51,3.56,0,8.36,1.3,10.63,1.09,1.85,1.24,2.66.92,5.21s-.09,3.88,1.07,7.4c2.73,8.25,3.2,10,3.2,11.64,0,3,7.33,24.2,9.46,27.35a7.38,7.38,0,0,1,1.27,2.74,5.79,5.79,0,0,0,1.69,2.56c1.77,1.77,1.72,2.78-.25,4.41-1.25,1-1.09,3,.51,6.19s2,7,1,8.08-.85,2.18.17,4.23c.69,1.39.76,2.92.38,8.56-.4,5.94-.63,7-1.71,8.2-1.41,1.5-6.11,3.93-10.63,5.48-9.79,3.37-15.46,8.48-21,19a17.14,17.14,0,0,1-3.49,4.68c-2,1.45-2.08,2.46-.48,4.06.65.65,1,1.51.89,1.91-.74,1.93,1.81,3.4,7.92,4.55a5,5,0,0,1,2.47,1.15,3.41,3.41,0,0,0,2.3.81c.89,0,1.63.29,1.63.65,0,1.14,3.85,4.43,5.2,4.45.95,0,1.57.6,2.29,2.16a10.72,10.72,0,0,1,1,3.34,2,2,0,0,0,.56,1.54c.93.57.66,1.28-1.2,3.18-1.65,1.68-1.74,2-1.42,4.75.26,2.25.15,3.12-.5,3.65-1.17,1-1.05,2.24.34,3.73s1.06,2.3-1.36,2.93c-1.74.45-2.59,1.55-3.48,4.5-.28.92-.15,1.27.46,1.27,1.23,0,1.42,1.16.53,3.31-.69,1.66-.67,2.43.19,6.21A17.61,17.61,0,0,0,22,391a4.09,4.09,0,0,1,1,1.76c0,.58,4.1,3.57,4.89,3.57a3.88,3.88,0,0,0,1.42-.93c1.29-1.17,1.42-5.38.2-6.4-.64-.53-.69-1-.23-1.83s.37-1.46-.57-2.74c-1.36-1.84-1.26-1.95,2.28-2.46,3.7-.54,5.57,0,5.57,1.69s1.22,2.33,4.31,2.8c2.9.44,6.75-1.52,8.71-4.44,1.59-2.38,5.77-5.46,7.39-5.46s2.6-2,3.6-6.77a16.76,16.76,0,0,1,1.73-5.14c.57-.63,2.11-1,4.64-1.22a20.18,20.18,0,0,0,5.8-1.26c1.83-.89,2.26-.9,4.83-.14,2.38.71,3.16.72,5,.09a24.09,24.09,0,0,1,6.53-.64c4.13.1,4.61,0,9-2.3,5.15-2.69,6.76-2.93,8.31-1.22,2.43,2.69,7.16,3.5,10.65,1.84a4.59,4.59,0,0,1,4.18-.28,17,17,0,0,0,4,.66,2.52,2.52,0,0,1,1.41.25,7.82,7.82,0,0,1,1.3-.14,2.35,2.35,0,0,1,.44,0,6.16,6.16,0,0,1,1.59-1c1.78-.86,2.38-.94,3.15-.38,2.47,1.79,4.73,2.43,6.46,1.83,2.76-1,4.73-.7,6.61.88,1.29,1.09,3,1.7,6.4,2.29a23.71,23.71,0,0,0,5.94.48c1-.26,1.83.22,3.77,2.21,3.16,3.26,4.57,3.59,8.71,2.08,4.91-1.79,6.15-1.63,7.21.92a19.89,19.89,0,0,0,1.07,2.32,27.12,27.12,0,0,0,3.75,1c2,.45,4.09,1,4.74,1.11a10.29,10.29,0,0,0,4.32-1,11.69,11.69,0,0,1,5.79-1.12c2.56.2,2.63.26,2.2,1.7a18.59,18.59,0,0,0-.47,4c0,2.22.13,2.55,1.38,2.85.95.23,1.18.48.71.77-1,.62-.86,2.31.29,3.34.75.67,2.56.94,7.47,1.08l6.48.19.77-1.59c.74-1.52.83-1.55,2.12-.71a9.11,9.11,0,0,0,4.19.88c1.56,0,2.84.21,2.84.46a6.92,6.92,0,0,1-1.69,2.08,4.48,4.48,0,0,0-1.69,3.85,11.77,11.77,0,0,1,0,1.36,3,3,0,0,1,.08.32l.09.31c0,.06,0,.13,0,.19l0,0c.58-.48,1.26-.29,2.84.78,3.21,2.18,4.35,1.77,5.12-1.83.22-1,.73-1.84,1.13-1.84a4.48,4.48,0,0,0,2-1l1.26-1-1.21-2.37c-1-1.92-1.05-2.37-.37-2.37a2.09,2.09,0,0,1,1.41.71l1.86,2.29c1.78,2.2,5.08,2.62,8.19,1,2.36-1.2,3.57-2.49,5.47-5.81l1.08-1.89.51,2c.59,2.36,5.38,7.84,6.85,7.84a4.87,4.87,0,0,0,2.45-1.47c1.34-1.34,1.74-1.43,4.46-1.09,3.77.47,5.68,1.95,6.46,5,1,3.92,1.75,5.42,2.87,5.78,2,.63,4.53.44,5.38-.42s.76-1.08,0-3C279,391,279.25,390,282,388s4.54-2.25,6.06-.87c1.29,1.17,2.54.68,3.76-1.47a4.92,4.92,0,0,1,1.82-2,4.88,4.88,0,0,0,1.82-1.83c.56-.91,1-1.2,1-.71,0,1.9,2.57,5.93,3.83,6.11,1.52.22,1.55.58.32,4-1.1,3.1-.79,4.35,1.28,5.14,1.3.49,1.45.8,1.15,2.3a5.09,5.09,0,0,0,.27,2.88c.52,1,1,1.11,3.1.87l2.09-.24a2.45,2.45,0,0,1,.87-.24c0-1.75.35-1.55,2.08-.82,3.16,1.32,4.79,0,4.79-3.81,0-1.74.14-1.91,1.36-1.68,1,.19,2-.32,3.88-2.06a18.52,18.52,0,0,1,2.81-2.32,4.64,4.64,0,0,1,.69,2.12,8.27,8.27,0,0,0,1,2.82c.93,1.13,5.17.87,6.81-.42s3.24-1.45,4.31-.42c.59.57,1,.41,1.88-.8,1.13-1.48,1.19-1.49,3-.61,1.6.76,2.11.79,3.28.16s1.67-.58,3.82.69c4.3,2.53,5.26,4,5.26,7.94v3.48l2.82,1.53a59.66,59.66,0,0,0,7.51,3.72,2.33,2.33,0,0,1,2.09-.15,1,1,0,0,1,.76-.29,3.14,3.14,0,0,0,2.73-3.51,3.23,3.23,0,0,1,.5-2.39c1.1-1.49,1-3.76-.24-6.66a89.35,89.35,0,0,1-2.84-9.76l-1.79-7.34,1.12-2.19a9.92,9.92,0,0,1,2.28-3,3,3,0,0,0,1.15-2.12,3,3,0,0,1,1.47-2.28,2.18,2.18,0,0,0,1.23-2.61c-.13-.9,0-1.64.2-1.64s.72-1,1.05-2.25c.6-2.24.92-2.46,4.24-3,.88-.13,1.17-.67,1.3-2.43.15-2.08.36-2.34,2.62-3.27a11.83,11.83,0,0,0,3.47-2.14c.89-1,.93-1.36.29-3.12a5.28,5.28,0,0,1-.5-2.22,42.34,42.34,0,0,1,5.61-.6c5.19-.36,5.41-.33,5.71.83.24.91.75,1.21,2.1,1.21,3.14,0,5.08-1.48,5.09-3.87,0-.95.25-1.24.86-1a1.73,1.73,0,0,0,2.54-1.36c0-1.62.55-1.64,5.08-.23a76.42,76.42,0,0,0,8,2c3.3.57,4,.53,5.4-.31a4.14,4.14,0,0,1,1.57-.64,2.47,2.47,0,0,1,.62-1.11.6.6,0,0,1,0-.7c1.31-3.18.39-5.23-2.83-6.29-1.7-.56-1.91-.81-1.43-1.71a7,7,0,0,0,.56-2.74c0-1.66-.29-2-4.42-5.05-1.14-.85-1.23-1.18-.71-2.55a7.75,7.75,0,0,0-.35-6.63c-.9-1.52-.9-1.68,0-2.67,1.18-1.3,1.22-2.59.11-3.5-.73-.61-.65-.85.56-1.8,2.14-1.68,1.84-3.55-.85-5.33-1.74-1.15-2.26-1.86-2.26-3.07a6.17,6.17,0,0,0-1.41-3.25c-1.62-1.93-1.73-2.36-.61-2.36a6.29,6.29,0,0,0,2.54-1.46c2.34-2,2.37-4.56.1-7.14a8.27,8.27,0,0,1-1.84-3.26,1.77,1.77,0,0,0-1.33-1.61c-2.17-.41-4-2.28-6-6a21.48,21.48,0,0,0-3.52-5.11l-1.57-1.34,1.15-1.15a3.93,3.93,0,0,0,1.15-2.24,1.62,1.62,0,0,1,1.08-1.43c2-.63,2.53-1.8,1.75-3.69a3.63,3.63,0,0,1,0-3.39c.8-1.93,1.63-2.06,5.11-.84,2.82,1,4.19.71,5.39-1.13.8-1.22,1-1.26,2.39-.55a18.75,18.75,0,0,0,2.48,1.05c.53.15,1.27,1.32,1.65,2.59.79,2.63,4.65,6.54,7.07,7.14a6.15,6.15,0,0,0,3.12-.21c1.18-.45,2.17-.39,4,.24,2.74.94,5.23.64,6.92-.85a16.46,16.46,0,0,1,3.7-2.06c2.92-1.19,5.08-3.26,5.08-4.85,0-.79.39-1.1,1.39-1.1a3.12,3.12,0,0,0,2.12-.87c.4-.48,2-2.06,3.45-3.52,2-2,2.66-3,2.48-3.94s0-1.28,1-1.28a3,3,0,0,0,1.82-.6c.33-.33,2.22-.65,4.21-.71,3.46-.1,3.61-.17,3.56-1.52a7.83,7.83,0,0,0-.45-2.32c-.3-.69,0-1,1.25-1.24C478.3,241.52,478.8,239.92,477.11,238.47ZM154.86,105c1.85-2.11,2.71-4.56,2-5.81-.55-1-.42-1.38,1-2.52,1.9-1.55,2.64-1.66,3.59-.51s4.56,1.11,4.91-.26c.26-1,.66-1.07,3.76-.81,4.5.38,7.44-.94,7.4-3.31,0-.85.28-1.55.65-1.55.75,0,1.35-1.26,1.35-2.86a3.14,3.14,0,0,1,1.55-2c6-3.7,5.33-6.42-2-8.39C176,76.07,175,76,173,76.54c-2.29.61-5.86.37-5.85-.4,0-.19.77-.79,1.7-1.32,2.16-1.23,2.59-2.38,1.76-4.68a4.49,4.49,0,0,1-.1-3.32,3.44,3.44,0,0,0,0-2.78c-.52-1.14-.31-1.59,1.71-3.6,2.4-2.4,2.44-2.54,2.53-8.93,0-3.54.18-4,1.22-4.12a2.94,2.94,0,0,1,2.21,1,3.92,3.92,0,0,0,2.52,1.15c2.25,0,5.55-3,6.29-5.79.84-3.1,3.67-5.88,6.5-6.38a14.84,14.84,0,0,0,4-1.4l1.77-1,2.44,2.49c2.77,2.82,4.52,3.16,6.55,1.26l1.31-1.23,1.31,1.23c1.09,1,2,1.23,5.39,1.23,5.88,0,7.18-.81,7.68-4.81.26-2.12.18-3.42-.26-4s-.11-1.33,2.14-3.5c1.54-1.49,3.82-3.52,5.07-4.52a6.27,6.27,0,0,0,2.65-3.83c.32-1.68.67-2.08,2.1-2.37,1.28-.26,2.16-1,3.4-3.07s2.17-2.86,3.7-3.29a9.87,9.87,0,0,0,3.54-2l1.51-1.45,2.78,3.17c4.48,5.11,8.84,6.76,10,3.77.58-1.54.64-1.55,5.74-1.55h5.15l-.17,1.71a3.3,3.3,0,0,0,1.24,3,2.71,2.71,0,0,1,1.11,2.82c-.47,2.37,1.31,3.54,5.91,3.87,3.87.28,3.9.27,6.31-1.91s2.63-2.2,6.79-2.39c3.81-.17,4.46-.06,5.14.9A6.1,6.1,0,0,0,302.79,23a12.22,12.22,0,0,1,7.38,2.71l1.2,1.2-1.52,1.41a4.52,4.52,0,0,0-1.52,2.85c0,.79-.27,1.44-.6,1.44s-.45.48-.25,1.1a3.41,3.41,0,0,1-.56,2.5c-.75,1.15-.8,1.79-.3,3.67.65,2.4,1.88,4,3.06,4A5.79,5.79,0,0,1,312,45.57a5.33,5.33,0,0,0,2.86,1.69c1.34,0,4.76-3.13,4.76-4.36,0-.41,1.33-1.34,3-2.06l3-1.31,1.52,1.12c1.39,1,1.64,1,2.84.26a11.34,11.34,0,0,0,2.69-3.9c1.73-3.81,1.6-3.65,2.39-2.86,1,1,2.19.81,3.64-.55,1.14-1.07,1.33-1.11,1.65-.29a6.65,6.65,0,0,0,2.29,2.12c2.36,1.46,4.49,1.1,5.4-.91s3.28-1.89,4.52.3c.53.93,1.35,1.69,1.82,1.69a2.06,2.06,0,0,1,1.46,1.13c.5.94,1.18,1.13,4,1.13,3.34,0,3.37,0,3.37,1.63,0,2,.69,2.59,3.8,3.42,2.33.62,2.39.7,2.77,3.53.41,3.07,1.77,5,3.55,5,.77,0,1.21.58,1.56,2.06.78,3.28,1.94,3.6,5.08,1.39l2.67-1.89,1,1.26c1.25,1.54,1.31,2.75.16,3.19a3.53,3.53,0,0,0-1.47,1.46c-.48.89-.37,1.45.52,2.66,1.1,1.49,1.11,1.54.06,2.2-1.37.86-1.36,2.13.08,4.92l1.15,2.24-1.27.85c-4,2.65-4.12,2.94-4.33,8.48l-.2,5.18,1.28-.68c1.11-.59,1.41-.51,2.29.66A6.74,6.74,0,0,1,383,88.79a2.58,2.58,0,0,0,1.44,1.69,2.07,2.07,0,0,1,1.27,1.59,5.69,5.69,0,0,0,.63,2.21c.5.94.45,1.28-.28,1.69-1.22.68-1.14,2.07.22,4.13s1.42,2.71,0,2.27c-2.61-.83-4.81,2.83-2.48,4.13,1.45.81.36,1.8-2,1.8-3.35,0-4.28,1-3.84,4.19.36,2.61-.29,4.58-2.54,7.73a3.25,3.25,0,0,0-.28,2.33c.29,1.14.82,1.5,2.63,1.79,1.35.22,2.27.67,2.27,1.13s1.33,1.63,3,2.68c2.48,1.6,3,2.25,3.3,4,.55,3.43,1.23,3.84,6.23,3.84,5.17,0,5.12-.3,1.13,6.49a20,20,0,0,0-2.32,4.92,6.79,6.79,0,0,0,1.69,2.91,10.79,10.79,0,0,1,1.69,2.26c0,1-3.71,2.06-7,2.06-3,0-3.89.21-4.67,1.13s-1.67,1.13-6.07,1.13c-6.46,0-8.25.94-10.2,5.34-1.54,3.48-2.65,4.34-4.75,3.67-.8-.26-2.93-.76-4.74-1.11s-3.37-.94-3.48-1.3-.35-1.35-.54-2.2c-.44-2-1.92-2.35-6.94-1.66a16.42,16.42,0,0,0-6.28,2c-2.66,1.68-4.16,1.85-5.19.6-.59-.72-1.55-.8-5.42-.49-3.26.26-5.22.17-6.4-.32-2.7-1.12-4.33-.28-9.36,4.81-2.59,2.63-4.95,4.78-5.23,4.78-1.66,0-1.66-2.25,0-5.2,1.21-2.16,1.22-2.28.23-3-1.24-.91-.86-2.6,1.13-5a5.38,5.38,0,0,0,1.27-4.24,17.78,17.78,0,0,1,.85-5.27,12,12,0,0,0,.55-5.79c-.32-2.76-.52-3.15-1.62-3.15a3.66,3.66,0,0,0-2.29,1.16c-.84.93-1.61,1.12-3.9,1-2.66-.16-2.93-.31-4-2.29a5.79,5.79,0,0,0-2.11-2.44c-.56-.18-2.43.54-4.41,1.7-3.94,2.31-4.3,2.36-7.09,1l-2.06-1-1.62,1.95c-1.55,1.86-1.71,1.92-3.5,1.27a13.62,13.62,0,0,0-3.86-.68c-1.81,0-2-.18-2.5-2.06a6.51,6.51,0,0,0-2-3.19c-2.13-1.58-6.45-1.86-8.94-.57-1.86,1-2,1.22-2.26,4.41-.17,2-.54,3.39-.94,3.39-.81,0-4.39-4.61-4.95-6.37s-2.32-2.81-5.12-3.24c-2.13-.33-2.34-.23-3.67,1.77-2,3-2.72,3.6-4.33,3.6a1.55,1.55,0,0,0-1.7,1.06c-.25,1-.54.9-3.44-.85-3.44-2.07-4.09-2.24-5.06-1.27-1.73,1.73-3.93-1.79-4.31-6.92-.26-3.53-1.23-4.45-4.67-4.45s-5.3-.83-5.3-2.43c0-1-1.29-2.39-4.92-5.38-4.76-3.93-4.94-4.17-5.79-7.58l-.87-3.52-3.11-.69c-2.68-.59-3.66-.55-7.16.35-4.39,1.12-5.27.87-5.27-1.5,0-2.69-3-2.37-7.08.74-3.05,2.33-5.34,2.87-8.48,2-1.95-.54-2.43-.47-3.8.54L168.75,110l-3.37-1.17c-4.21-1.46-5.91-1.47-7.72,0L156.23,110l-1.09-2C154.19,106.15,154.15,105.78,154.86,105Zm156.56,78.8c.33,1.78.22,1.92-2.52,3.31-1.58.8-3,1.87-3.23,2.38s.22,1.92.93,3.15c1.27,2.21,1.32,4.12.23,8.7-.24,1,.28,1.65,2.58,3.3,3,2.19,3.56,3.56,2.09,5.65-.43.62-4.37,2.9-8.75,5.07s-8,4.2-8,4.51a20.39,20.39,0,0,1-1.39,3.52c-1.29,2.77-1.48,2.94-3,2.62s-1.7-.17-2.05,1.42c-.53,2.41-1.65,2.23-4.87-.79-2.95-2.76-3-2.78-6.6-2-2.66.61-4.64,0-4.64-1.45a.81.81,0,0,0-.79-.83c-1,0-2.6,3.93-2.6,6.26,0,1.71,0,1.72-2.53,1.34-2.21-.33-2.75-.19-4.28,1.1-1,.81-2,1.33-2.28,1.16-.8-.5-1.29,1.36-.58,2.21s.81,2.39.3,6.34a7.15,7.15,0,0,0,.56,4.66c.83,1.6.84,2,.08,3.41a8.63,8.63,0,0,1-2.84,2.81c-1.68,1-2,1.49-2,3.13,0,2.24,1.59,3.81,5,4.9,3.69,1.19,5.18,2.36,5.77,4.53.66,2.46.38,4.27-1.7,11-.87,2.8-1.88,6.54-2.25,8.32a26.14,26.14,0,0,1-2,5.82,12,12,0,0,0-1.37,3.6c0,1.29,1.55,2.69,3.85,3.5s2.38,2.53.45,5.84a17.37,17.37,0,0,0-1.76,5.53,12.66,12.66,0,0,1-1.1,4.18c-1.15,1.57-6.27,1.67-12.44.25-5.05-1.17-5.45-1.18-6.95-.3a11.77,11.77,0,0,0-3,3c-2.61,3.81-3.19,4-6.12,1.73a7,7,0,0,0-4.27-1c-3.21,0-4.27-.67-4.27-2.68a4.75,4.75,0,0,0-1.39-2.71c-1.1-1.1-2-1.39-4.2-1.39-3.28,0-5.49.73-7.27,2.4-1,.95-1.27,1.81-1.27,4.23,0,3,0,3-2.4,4.13-2.72,1.24-6.08,1.44-7.09.44a3.51,3.51,0,0,1-.69-2.12c0-1.9-.48-2.49-2.67-3.38-1.56-.63-1.84-1-1.84-2.65a17.24,17.24,0,0,0-1.1-4.81c-1-2.66-1-3-.24-4.57.9-1.74,1.11-3.79.9-8.77-.1-2.48-.29-3-1.18-3a2.62,2.62,0,0,0-1.76.85c-.92,1.11-2.25,1.07-3.95-.12a8.09,8.09,0,0,0-3.94-1l-2.56,0-.32-2.39a8.82,8.82,0,0,0-.57-2.54c-.14-.08-1.64-.88-3.35-1.77L173,282.13l-2.86,1.78c-3.44,2.14-6.3,2.72-7.84,1.58-1.08-.8-1.08-.85.1-3.56,1.08-2.49,1.11-2.92.39-4.66a12.11,12.11,0,0,1-.8-2.38,28,28,0,0,1,3.11-4.31c4.37-5.41,4.13-6.65-1.49-7.78a3,3,0,0,1-2.14-1.89,6.45,6.45,0,0,0-2.33-2.58c-2.47-1.46-2.2-3.18.87-5.69,2.71-2.22,3-3.28,1.91-6.49-.94-2.7,0-4.34,3-5.17,4.67-1.3,6.28-5,3.72-8.59a8,8,0,0,1-1.3-3.77c-.06-2.58-2.56-6.28-8.08-12-3.87-4-4.19-4.51-3.9-6.21a17.94,17.94,0,0,1,.69-2.81c.27-.69-.1-1.2-1.36-1.85-1-.5-1.74-1.17-1.74-1.49,0-.78,2.63-3.21,5.62-5.19s5-5.93,4-7.72c-.49-.92-.85-1-2-.57-2.26.86-2.5.69-2.5-1.72v-2.26l-3.81.34c-5.1.45-5.91-.16-6.24-4.76-.29-4.06-1.41-5.54-2.45-3.26-.52,1.14-.84,1.33-1.43.84-.91-.75-1-3-.17-4.49.45-.84.83-1,1.6-.56,1.53.82,3.14.15,4.28-1.76,1-1.72,1-1.72,4.87-1.34,5.33.53,7.87-.82,7.87-4.19,0-1.06,1.06-1.71,2.78-1.71.74,0,1.17-.78,1.68-3.07a10,10,0,0,1,3-5.41c2.95-3,4.06-6.15,3.6-10-.31-2.55-.22-3,.67-3.35,1.56-.58,1.87-1.38,1.5-3.85-.42-2.81-1.08-3.67-2.79-3.67-.93,0-1.79-.68-2.83-2.26a5.79,5.79,0,0,1-1.21-4.78c.24-2.15.06-2.77-1.2-4.21-.81-.93-2.19-2.58-3-3.68-1.38-1.76-1.73-1.93-3-1.44a3,3,0,0,1-2.53,0c-1.24-.67-1.32-1.19-.54-3.89.63-2.18,0-3.43-1.75-3.43-1.53,0-1.3-1.42.49-3.08s3.6-1.8,8-.27l3.37,1.17,1.58-1.17a3.17,3.17,0,0,1,3.55-.6c3.85,1.11,4.48.94,9.9-2.68,3.59-2.39,5.35-2.45,5.35-.17,0,2.5,1.23,2.86,5.81,1.68,3.27-.84,4.49-.91,7-.41l3,.61.69,3.33c.67,3.24.81,3.43,5.65,7.41,3.21,2.63,5,4.48,5,5.21,0,2.06.88,2.59,5,3a18.1,18.1,0,0,1,4.4.8,9.11,9.11,0,0,1,.57,3.08c.39,5.43,3,9.46,4.91,7.56,1-1,1.61-.78,5.14,1.35,3.08,1.86,3.29,1.9,3.56.85a1.51,1.51,0,0,1,1.53-1.12c1.5,0,2.44-.75,4.48-3.53,1.7-2.32,1.92-2.39,5.05-1.52a3.87,3.87,0,0,1,2.81,2.12c1,2.36,5,7.45,5.79,7.45,1,0,1.4-1.32,1.4-4.59,0-2.67.1-2.85,2-3.63,4.51-1.88,9.19-.32,10.22,3.42.56,2,.82,2.27,2.55,2.4a22.74,22.74,0,0,1,4.11.82c2.13.66,2.22.63,3.76-1.26l1.58-1.94,2,1c2.78,1.33,3.14,1.27,7.1-1,1.9-1.11,3.79-1.89,4.21-1.73a7.65,7.65,0,0,1,2,2.59c1.25,2.23,1.39,2.3,4.21,2.3,2.2,0,3.17-.28,3.94-1.13a3.38,3.38,0,0,1,2-1.13c1.51,0,2,4.93.79,8.34a17.9,17.9,0,0,0-.86,5.31,5.35,5.35,0,0,1-1.31,4.27c-1.95,2.31-2.39,4.41-1.09,5.14,1,.55,1,.68-.23,2.81-2.11,3.76-1.24,6.7,1.55,5.2,2.31-1.23,3.68,3.05,2.47,7.69A14.88,14.88,0,0,0,311.42,183.77ZM216,380.56c-.47,0-1.16.67-1.53,1.48-.65,1.42-.81,1.47-4,1.13-1.84-.19-4-.35-4.79-.35-1.33,0-1.36-.06-.42-.74,1.53-1.12.9-2.84-1.27-3.48-1.64-.48-1.83-.73-1.52-2,.93-3.69.94-4.6.11-5.87-1.36-2.07-6.4-2.34-10.65-.58-3.15,1.31-3.27,1.32-6.91.42-2.52-.62-3.8-1.23-4-1.92a10.29,10.29,0,0,0-1.47-2.46c-1.45-1.85-4.56-2-8.89-.31a9.41,9.41,0,0,1-4.1.81,11.5,11.5,0,0,1-3.19-2.89c-2-2.39-2.25-2.53-4.37-2.28-3.64.44-10-.83-11.43-2.28-1.69-1.7-3.79-2.14-7-1.47-2.4.49-3,.4-5-.76-2.67-1.52-4.36-1.66-5.9-.49-1.34,1-4.29,1.09-8.1.21-2.46-.57-3.16-.52-5.11.36a7.22,7.22,0,0,1-8.28-1.37c-2.75-2.41-4.83-2.28-10.47.67-4.36,2.28-4.79,2.39-8.89,2.26a20.17,20.17,0,0,0-5.92.52c-1.24.51-2.42.5-5.09,0-3.16-.63-3.71-.59-6,.46a14.86,14.86,0,0,1-5.84,1.16c-3,0-3.49.2-5.16,1.87a8.71,8.71,0,0,0-2.51,5.23c-.36,1.85-.76,3.89-.89,4.52s-1,1.44-2.38,1.91-3.68,2.35-6.17,4.93c-3.5,3.62-4.32,4.19-6.2,4.3s-2.18,0-2.24-1.06c-.11-1.93-.64-2.35-3.76-3-7.51-1.61-14.23,1.91-10.83,5.68a1.53,1.53,0,0,1,.28,2.13c-.81,1.51-.8,1.56.57,2.84a2.81,2.81,0,0,1,1,2.1c-.18,1-.24,1-1.18,0a3.3,3.3,0,0,1-1-1.59,2,2,0,0,0-.76-1.23A13.29,13.29,0,0,1,22.82,385c-.88-3.36-.89-3.92-.14-5.38.84-1.62.7-4.45-.25-5s-.53-1.24.82-1.58c3.69-.93,5.46-4.38,3.4-6.66-.75-.82-.79-1.19-.23-1.86s.57-1.74.3-3.73c-.38-2.74-.3-3,1.45-4.8s1.83-2,1.17-4.33a47.69,47.69,0,0,0-2.19-5.7c-1.21-2.62-1.84-3.35-3.09-3.6-.86-.17-1.57-.52-1.57-.77s-.52-.62-1.15-.82c-.81-.26-1.05-.68-.82-1.42.39-1.21-1.13-2.25-3.29-2.25a2.94,2.94,0,0,1-2-.74c-.34-.41-2.61-1.07-5-1.46-4.36-.71-4.43-.74-4.21-2.26a2.53,2.53,0,0,0-.62-2.24c-.74-.61-.67-.87.48-2a27.65,27.65,0,0,0,3.31-5.2c2.82-5.5,4.79-8.23,7.67-10.64a45.2,45.2,0,0,1,11.33-6.22c.78-.23,2.94-1.07,4.8-1.88,6.62-2.86,9.32-6,9.32-11,0-2.93.15-3,5.32-3.56l3.61-.37,2.54,2.62c2.63,2.71,3.2,2.82,5.73,1.11,1.39-.94,3.63-.93,7.65,0,5.68,1.36,7.09-.34,6.52-7.85-.32-4.22-.23-4.73,1.28-7.63,1.89-3.62,3.3-4.15,5.92-2.21,1.64,1.21,1.92,1.24,5.58.61,6.83-1.17,7.8-.91,8.56,2.26A11.64,11.64,0,0,0,99.46,284c2.7,1.45,4.3,1.56,5.75.42a4.54,4.54,0,0,1,3-.94c1.19.13,1.6-.1,1.74-1a9.22,9.22,0,0,1,3-6.22,31.47,31.47,0,0,1,5.09-4.28c4.77-3.06,6.21-8.1,4.09-14.32-1.6-4.7.14-12.46,3.52-15.63,1.27-1.19,1.94-1.3,8.57-1.41a44.74,44.74,0,0,1,10.28.67,27.4,27.4,0,0,0,6.21.71c3-.08,2.93-.1-1.15-.49a41.51,41.51,0,0,1-6.21-1c-2-.63-15.41-.54-16.9.1-1.28.55-3.47,4-4.6,7.31a14.6,14.6,0,0,0-.2,10c1.89,5.37.52,11.08-3.19,13.25-2.59,1.51-7.18,5.88-8.15,7.75a7.8,7.8,0,0,0-.8,3c0,1.26-.18,1.39-1.59,1.11a2.22,2.22,0,0,0-2.33.58c-1,1.23-3.9,1.12-6.12-.23-1.94-1.18-4.08-4.18-4.09-5.71,0-1.33-1.86-2.77-3.57-2.77a46.84,46.84,0,0,0-5.39.67c-3.67.63-4,.6-5.45-.56-2.37-1.86-4-1.6-5.54.89-2.37,3.83-2.78,5.45-2.36,9.35.77,7.15-.47,8.7-5.93,7.39-4-1-6.27-1-7.65,0-2.5,1.69-3.06,1.58-5.68-1.12l-2.54-2.61-3.64.37a31.14,31.14,0,0,0-4.46.69c-.67.26-.8-.43-.71-3.87a13.93,13.93,0,0,0-.66-5.63,2.13,2.13,0,0,1,.08-2.78c1.11-1.75.52-6.29-1.18-9.18-1.56-2.64-1.55-2.78.17-5.31,1.83-2.7,1.78-3.74-.28-5.58A4.89,4.89,0,0,1,38.88,255a2.43,2.43,0,0,0-.85-1.74c-1-.77-5-10.21-6.16-14.85-.48-1.87-1.52-5.1-2.3-7.17a22,22,0,0,1-1.42-5.57,55.37,55.37,0,0,0-2.27-9c-1.93-6.11-2.21-7.65-1.91-10.23a7.66,7.66,0,0,0-1.12-5.81,13.07,13.07,0,0,1-1.48-3.78c0-.94.15-.93,2.27.15,1.72.88,2.53,1,3.35.58a3.54,3.54,0,0,1,4.1.18c1.21,1.21,3.25,2.15,3.86,1.77a6.76,6.76,0,0,0,1.41-2c.56-1.09,1.14-1.53,1.71-1.31a2.24,2.24,0,0,0,1.93-.64c1-.92,1.15-.88,2.78.92l1.71,1.89,1.77-1a7.85,7.85,0,0,1,2.5-1,2.32,2.32,0,0,0,1.44-.85c1.13-1.36,2.59-1,7.21,1.69,2.39,1.4,5,2.54,5.74,2.54,1.69,0,5.11-2.29,6.89-4.61,2.19-2.85,7.84-5.09,7.84-3.1,0,1,1.85,2.63,3.06,2.63a1.46,1.46,0,0,0,1.28-1.09,3.33,3.33,0,0,1,2-1.7c4.47-1.56,4.95-4.17,1.42-7.77-1.31-1.33-2.06-2.42-1.68-2.42s.94-.64,1.24-1.43a2.81,2.81,0,0,1,1.26-1.61c.39-.1,1.58-.47,2.64-.82,1.77-.58,2.08-.5,3.83,1a12,12,0,0,0,2.19,1.68c3,0,10.36-7.61,9.52-9.81-.31-.8.13-.93,3.1-.93a10.73,10.73,0,0,0,6.45-1.69l3-1.69,1.62,1.69c1.26,1.31,1.47,1.85.95,2.37a2.41,2.41,0,0,0-.67,1.43,6.17,6.17,0,0,1-1.21,2.39c-1.53,2.06-1.09,3.23,1.62,4.3a38,38,0,0,1,3.63,1.67c2.1,1.16,3.05,1,4.32-.56,1-1.26,1.26-1.33,2.82-.74,1.35.51,1.92.49,2.62-.09,1.22-1,1.12-3.58-.19-5.2-1-1.24-1-1.44-.18-2.85s.78-1.65.11-2.46a5.9,5.9,0,0,0-2.08-1.44,1.87,1.87,0,0,1-1.29-1.67c0-2.17-1.05-3.37-3-3.37-3.08,0-4.26-.53-3.94-1.74a1.5,1.5,0,0,1,1.36-1.08c1.69,0,2.47-2.38,1.78-5.42-.46-2-.43-2.64.15-2.86a3.35,3.35,0,0,0,1.27-1.79,17.53,17.53,0,0,1,2.76-4.05c3-3.45,3.23-4.23,1.79-6.79a5.5,5.5,0,0,1-.76-4.6,48.88,48.88,0,0,0,.5-6.47c0-3.56.26-4.32,1.81-6.5a43.55,43.55,0,0,0,2.72-4.34c1.14-2.23,5.33-4.29,7.67-3.78,1.16.25,2.06-.13,4-1.74a19.25,19.25,0,0,1,4.64-2.78c1.94-.67,2.14-.63,2.75.49a7.49,7.49,0,0,1,.69,2.9c0,1.23.34,1.74,1.16,1.89,1.85.34,2.07.93,1.23,3.38-.72,2.08-.7,2.41.11,3.11,1.62,1.38,2.2,1.54,3.68,1,1.29-.49,1.61-.32,3,1.55.85,1.15,2.09,2.67,2.76,3.36,1,1,1.16,1.77,1,4s0,3,1.5,5.09c1.26,1.73,2.15,2.4,3.18,2.4,1.52,0,1.67.24,2.22,3.53.32,1.9.2,2.19-1.13,2.79s-1.46.82-1.12,3.81c.46,4-.55,6.88-3.55,10.1a11.5,11.5,0,0,0-2.93,5.16c-.56,2.35-.88,2.76-2.32,3.05-1.68.34-1.85.56-2.43,3.23-.47,2.16-2.63,2.9-7.15,2.46-3.69-.36-3.85-.33-4.8,1.13-1.34,2-2.81,2.77-4.15,2.05s-1.9-.08-2.83,2.38c-.49,1.28-.37,1.77.74,3.06l1.32,1.53.88-1.66c1-2,1.33-1.44,1.7,3.1.36,4.33,1.71,5.37,6.44,4.93l3.5-.32.17,2.09c.17,2,.23,2.09,2.25,1.93,1.14-.09,2.23.1,2.43.42s-.15,1.72-.76,3.11c-.84,1.9-1.9,3-4.26,4.54a17.31,17.31,0,0,0-4.11,3.48c-.93,1.41-.92,1.51.29,2.48a8.91,8.91,0,0,0,1.84,1.21c.41.14.41.68,0,1.78-1.12,2.94-.73,4,2.84,7.45,5.09,5,8.64,10.16,8.7,12.67a8,8,0,0,0,1.3,3.81c2.41,3.38,1.2,7.08-2.55,7.77a8,8,0,0,0-3.26,1.41c-1.63,1.46-5,2-5.92.88a2.36,2.36,0,0,0-1.63-.82c-.62,0-.51.2.35.55.7.28,1.27.8,1.27,1.14s.72.51,2.13.27l2.13-.36.69,2.58c1.05,3.93.89,4.52-1.85,6.77-3.13,2.56-3.2,3.78-.42,6.57,1.17,1.17,2.56,2.66,3.11,3.3a3.74,3.74,0,0,0,2.54,1.18c3.93,0,3.81,2-.45,7.31-2.19,2.72-2.79,3.88-2.51,4.78.94,2.93.92,4.48-.06,6.65l-1,2.29,1.38,1.11c1.81,1.46,4.37,1.05,8.15-1.31l2.86-1.79,3.11,1.71c2.69,1.48,3.13,2,3.29,3.6.27,2.75,1.1,3.47,3.56,3.14a5.06,5.06,0,0,1,4.06,1.05l2,1.34,1.41-1.11c2.12-1.67,2.76-1.42,2.58,1a6.57,6.57,0,0,0,.3,2.86c.55.89,0,4.31-1.1,6.35-.68,1.31-.64,1.86.33,4.4a17.33,17.33,0,0,1,1.1,4.87c0,1.72.28,2.1,2.26,3.11s2.26,1.46,2.26,2.75c0,2.32,1.72,3.64,4.41,3.38l2.2-.21-.76,1.82c-1.89,4.53-.52,6.21,5.66,6.9,6.87.77,8.37,2.43,7.19,7.95-.8,3.73-.79,7.66,0,9.22a21.35,21.35,0,0,0,2.26,3.09,8.24,8.24,0,0,1,1.61,2.33,11.54,11.54,0,0,1-2.29,2.77c-2,2-2.25,2.5-1.93,4.22a10.94,10.94,0,0,1-.24,4.11c-.57,2-.5,2.27,1.08,3.72a5.81,5.81,0,0,1,1.68,2.11,5.36,5.36,0,0,1-2.6,3.94c-1.57.72-1.79,2.91-.5,5.16C217,380.12,217,380.56,216,380.56ZM405.51,277.61c2.22,3.85,5.42,7.48,6.6,7.48a.79.79,0,0,1,.74.83,7.26,7.26,0,0,0,1.74,2.81c2.48,2.82,2.16,3.74-1.88,5.33-2,.79-2.1,3.28-.22,5.54a9.67,9.67,0,0,1,1.73,3.75,4.16,4.16,0,0,0,2.39,3.33l2,1.18-1.75,1.37c-1.88,1.47-2.38,3.9-.91,4.46.73.28.73.51,0,1.93-1.12,2.18-1,3.22.3,4.06s1.39,1.72.43,5.28c-.69,2.58-.68,2.62,1.08,4.1,1,.82,2.37,1.91,3.09,2.42,1.23.86,1.27,1.05.58,2.95-1,2.63-.27,3.91,2.7,5.1,2.55,1,2.71,1.41,1.29,3.11-1,1.14-1.14,1.16-5.25.43a69.11,69.11,0,0,1-8.07-2c-3.56-1.18-3.9-1.21-5.2-.35-.77.5-1.39,1.16-1.39,1.46s-.58.55-1.3.55c-1.74,0-2.66,1-2.66,3,0,2.09-1.29,2.53-2.86,1-1.19-1.19-1.53-1.23-7.49-.85a37,37,0,0,0-7.23.92c-1.47.79-1.79,2.52-.81,4.42s.84,2.15-3.07,3.45c-2.34.78-2.56,1-2.72,2.89s-.42,2.11-2,2.55c-1.34.37-2.1,1.11-2.94,2.85a5.6,5.6,0,0,1-2.2,2.65c-.83.23-1,.65-.74,1.91s.05,1.78-.77,2.3a2.81,2.81,0,0,0-1.09,2.59c0,1.4-.29,2-1.07,2.19a2.59,2.59,0,0,0-1.45,2,5.14,5.14,0,0,1-1.23,2.43c-1,.81-.9,1.48,1.29,11.23a68.19,68.19,0,0,0,2.53,8.91c1.29,2.92,1.35,4.28.22,5.21a3.33,3.33,0,0,0-.85,2.27,2,2,0,0,1-.89,1.91c-1.36.52-1.48.48-4.78-1.62a15.89,15.89,0,0,0-3.82-2c-.56,0-.65-.79-.36-3.3l.37-3.28-2.9-2.6c-4-3.6-7.6-5.3-9.44-4.46a2.89,2.89,0,0,1-3-.21c-2.09-1.08-3.07-1.07-4,0-.52.63-1.27.79-2.55.55s-2.17,0-3.51,1.09c-2.83,2.38-4.64,1.72-4.64-1.69a3.67,3.67,0,0,0-.93-2.25c-1.33-1.33-3.43-.64-6.14,2-1.73,1.69-2.56,2.13-3.55,1.87-2-.51-3.51,1.21-3.51,3.91,0,1.9-.15,2.17-1,1.85-2.57-1-3.86-.94-4.9.22-1.55,1.72-2,1.44-1.37-.84s-.06-3.63-1.75-3.63-1.66-.5-.51-3.77c1-2.87,1-3.24.21-4.48a2.93,2.93,0,0,0-2-1.35c-1.12,0-2.83-2.54-2.83-4.2a2.82,2.82,0,0,0-1.34-1.74c-1.59-1-4-.38-4.55,1.24a4.9,4.9,0,0,1-2,2c-.93.53-1.7,1.41-1.7,1.95,0,.77-.15.84-.68.31a6.26,6.26,0,0,0-3.28-.68c-2.32,0-2.94.3-5.79,2.84-3.76,3.35-4.16,4.29-3,7.07,1.1,2.63,1.1,2.67-.21,2a4,4,0,0,1-1.45-2.75c-.85-5-4-7.71-9.74-8.33-3.21-.34-3.75-.25-4.89.81a4.45,4.45,0,0,1-1.9,1.2c-.94,0-4.11-4.25-4.11-5.51s-2-4.09-2.82-4.09c-1.06,0-4,3-4.85,5a7,7,0,0,1-6,4,2.6,2.6,0,0,1-2.91-2.12c-.79-2.53-6.14-4-7.71-2.06-.63.75-.61,1.3.11,3.3.83,2.3.81,2.42-.31,2.91a5.31,5.31,0,0,0-2,2.31c-.77,1.62-.95,1.72-1.91,1s-1-.86.71-2.8a7.11,7.11,0,0,0,1.77-3c0-1.8-2.39-3.47-5-3.47-1.3,0-2.36-.25-2.36-.56s-.49-.56-1.08-.56a3.69,3.69,0,0,1-3.74-2.3c-1.19-2.3-1.06-4.33.31-4.76,1.1-.35,2.82-2.95,2.82-4.26A5.64,5.64,0,0,0,218,367c-1.5-1.4-1.62-1.75-1.15-3.47a17.46,17.46,0,0,0,.42-4.4c-.09-2.22.12-2.67,2-4.3a7.14,7.14,0,0,0,2.1-2.44,7.31,7.31,0,0,0-1.61-2.48c-3.12-3.59-3.56-6-2.27-12.48,1.16-5.78-.46-7.49-7.9-8.35a15.8,15.8,0,0,1-4.94-1.13c-1.89-1.57-.37-6.27,2.64-8.17,2-1.29,2.17-1.54,2.33-4.57.22-4.19,1.7-5.42,6.89-5.75,3.09-.2,3.77-.06,4.8,1a4.3,4.3,0,0,1,1.19,2.56c0,2.17,1.43,3.15,4.61,3.15a7.83,7.83,0,0,1,4.34,1c3.18,2.2,3.73,2,6.51-1.76s3.47-4.08,9.65-2.65c6.6,1.52,11.28,1.35,12.76-.48a11.37,11.37,0,0,0,1.38-4.46,17.52,17.52,0,0,1,1.76-5.58,9.87,9.87,0,0,0,1.35-3.88c0-1.56,0-1.57,3-1.23,11.07,1.26,12.49,1,12.54-2.47,0-1.86.15-2,2.1-2.15,2.42-.2,3.64-1.69,4.19-5.08.5-3.13.79-3.43,4.14-4.22,2.86-.67,3.07-.85,4.62-3.93,2.51-5,4.24-5.44,10-2.7,4,1.88,5.49,2.06,7.12.83s3.54-1,5.63.58c4.42,3.37,5.53,1,3.93-8.28-1.1-6.43-1.11-6.77-.16-7.28a5.85,5.85,0,0,1,2.32-.53,5.49,5.49,0,0,0,2.63-.92c1.43-1,1.43-1.57,0-7.66a11,11,0,0,1-.21-5.31c.76-3,1.86-3.51,5.17-2.36a33.93,33.93,0,0,0,6,1.32c3.9.45,6.4,2,7.9,4.9,1.28,2.48,2.38,2.66,6.47,1.07a32.45,32.45,0,0,1,5-1.45c2.92-.52,6.89-2.83,7.34-4.27.38-1.2,1.67-1.51,2.26-.55A6.53,6.53,0,0,0,369,248a4.3,4.3,0,0,1,2.26,2c.44,1.38,1,1.5,2,.38a6.34,6.34,0,0,1,3-1.2,20.16,20.16,0,0,0,4.92-1.73c2.18-1.14,2.85-1.25,4.64-.76,2.48.69,3,1.29,1.84,2.23a2.54,2.54,0,0,0-.84,1.69c0,1,4.07,5.08,5.09,5.08.31,0,.56,1,.56,2.27,0,2.4.52,2.87,4.12,3.64,2.09.45,2.84,2.54,2.37,6.59l-.37,3.18,2.42,1.34C402.81,273.71,404,275,405.51,277.61Zm66.91-37.33a3.16,3.16,0,0,0-.82,1.92c0,.88-.27,1-1.35.76-.74-.19-1.5-.1-1.68.2s-.95.42-1.7.27c-1-.2-1.46,0-1.75.92a1.67,1.67,0,0,1-1.4,1.19,2.43,2.43,0,0,0-2.15,3.11c.36,1.89-4.19,6.49-6.43,6.49-1.79,0-2.59.86-2.84,3-.17,1.41-.83,2-4.95,4.1a36.55,36.55,0,0,1-5.37,2.46,10.68,10.68,0,0,1-2.76-1.15c-2-1.09-2.22-1.1-3.75-.19a2.89,2.89,0,0,1-3.32.25c-2.37-1-3.24-2.1-4.43-5.68-.86-2.58-1.31-3.18-2.72-3.58a23.48,23.48,0,0,1-3.29-1.28c-2.23-1.11-3-1-4.23.62s-2.53,1.76-5.31.59-4.2-.57-5.89,2.33c-1.11,1.89-1.39,3-1.15,4.45s.11,2-.48,2c-.95,0-2,1.73-2,3.35,0,.87-.36,1.17-1.41,1.17s-1.41-.28-1.41-1.38c0-3.38-1.33-4.83-5.23-5.66-1.38-.29-1.55-.59-1.55-2.56,0-1.74-.28-2.37-1.27-2.88-2-1-4.38-3.47-4.38-4.51a2.52,2.52,0,0,1,.85-1.66c1.16-1,.2-2.07-2.46-2.8-1.73-.48-2.44-.36-4.6.76a20.9,20.9,0,0,1-4.81,1.73,8.05,8.05,0,0,0-3.2,1.26c-.85.76-1,.72-1.6-.38a5.85,5.85,0,0,0-2.55-2,6.57,6.57,0,0,1-2.25-1.36c-.63-1-2-.61-2.62.77-.75,1.64-4,3.51-7,4.05a32.9,32.9,0,0,0-5,1.46c-3.25,1.26-5.49,1.37-5.49.25s-2.66-4.17-4.45-5.09a18.9,18.9,0,0,0-4.88-1.18,27.75,27.75,0,0,1-5.51-1.25q-4.3-1.7-5.45,1.63c-.85,2.43-.78,4.86.22,8.16,1.56,5.16,1.14,5.91-3.79,6.71a5.46,5.46,0,0,0-2.34.74,44,44,0,0,0,.91,6.95c1.64,9.3.83,11.29-3.3,8.14-2.1-1.6-4-1.8-5.63-.58s-3.14,1.05-7.12-.83a17.79,17.79,0,0,0-5.06-1.69c-2.09,0-4,1.7-5.5,4.9-1.2,2.57-1.49,2.8-4.22,3.45-3.38.8-4.06,1.51-4.58,4.78-.45,2.8-1.7,4.38-3.47,4.38-2.43,0-3.07.58-3.07,2.82,0,1.73-.24,2.2-1.27,2.47-2.72.73-15.64-.81-17.61-2.11-1.81-1.19-1.83-2.42-.08-5.71a26.14,26.14,0,0,0,2-5.82c.37-1.78,1.44-5.63,2.38-8.56,1.8-5.6,2.22-10.24,1.11-12.27a8.63,8.63,0,0,0-3.36-2.43c-6.58-3-6.64-3-6.82-5.18-.15-1.81.05-2.18,1.8-3.21a8.75,8.75,0,0,0,2.87-2.9c.82-1.59.82-1.88,0-3.52a7.15,7.15,0,0,1-.56-4.66c.49-3.86.43-5.54-.24-6.21s-.74-2.21,0-1.78c.28.18,1.29-.33,2.24-1.13,1.41-1.19,2.2-1.42,4.41-1.27l2.69.17.39-2.61a15.12,15.12,0,0,1,1-3.78c.62-1.16.64-1.16,2.06.27,1,1,1.83,1.34,2.68,1.14,5.15-1.24,5.28-1.21,8.11,1.54,3.15,3.07,4.53,3.29,5.37.89.48-1.39.87-1.68,2.09-1.55s1.7-.26,3.26-3.43l1.77-3.59,7.27-3.64c7.76-3.88,9.82-5.57,9.81-8,0-1.2-.61-1.92-2.88-3.4s-2.81-2.11-2.57-3.11c1.08-4.53,1-6.58-.13-8.48a8,8,0,0,1-1.19-2.81c0-.49,1.33-1.6,3-2.49,2.83-1.53,3-1.7,2.8-3.69a19.89,19.89,0,0,1,.66-5.24c.88-3.38.54-5.85-1.06-7.61-.81-.89-.57-1.29,3-5,4.24-4.34,5.93-5.14,8.57-4,1.18.49,3.14.59,6.4.32,3.86-.31,4.82-.23,5.42.49,1,1.25,2.54,1.08,5.22-.62a16,16,0,0,1,6.76-2c4.83-.62,6.1-.19,6.12,2.05s.7,2.58,9.92,4.34c1.81.35,2.55-.32,4.14-3.69,2.23-4.72,3.48-5.39,10.1-5.39,4.31,0,5.17-.16,6-1.13s1.74-1.13,4.63-1.13c3.75,0,6.48-1,7.41-2.62.36-.65.94-.82,1.93-.57,1.22.31,1.41.65,1.36,2.59a4.55,4.55,0,0,0,1.3,3.68c1.18,1.26,1.37,2.06,1.5,6.29.16,5.53.8,6.68,4,7.29,1.5.28,3,1.38,5.83,4.34l3.81,4,2.58-.39c2.46-.37,2.6-.31,3,1.1a3,3,0,0,0,3.57,2.32,1.72,1.72,0,0,1,1.74.53,3.74,3.74,0,0,0,2.51.86c1.84,0,4.89,1.64,3.13,1.68-.48,0-1.32.78-1.87,1.72-.91,1.54-.93,1.86-.17,3.39s.75,1.74-.06,2.18c-.59.33-.87,1.2-.82,2.52a3.49,3.49,0,0,1-.52,2.39c-1.05.65-2.76,5.36-2.76,7.61s1,3.36,3.28,3.36a2.67,2.67,0,0,1,1.8.85c.91,1.09,2.2,1.08,3.43,0,.91-.82,5.08-2.24,8.51-2.9,1.06-.2,2.16.21,3.85,1.43a14,14,0,0,0,3.94,2.06,7.83,7.83,0,0,1,3.18,2,4.51,4.51,0,0,0,4,1.67c2.71,0,3.73.83,1.66,1.35-1.85.46-2.16,1.79-1.69,7.13l.39,4.52,2.47,1.09c1.36.6,2.47,1.32,2.47,1.59s1.32,1.36,2.94,2.41a33.28,33.28,0,0,1,4,2.92,3.39,3.39,0,0,0,1.72,1c.39,0,1,.67,1.39,1.48C473.12,239.19,473.09,239.61,472.42,240.28Z"/><path class="cls-2" d="M87.69,309.8a8.46,8.46,0,0,0-8.46,8.46c0,4.67,8.46,16.71,8.46,16.71s8.46-12,8.46-16.71A8.46,8.46,0,0,0,87.69,309.8Zm.21,12.79A4.13,4.13,0,1,1,92,318.47,4.13,4.13,0,0,1,87.89,322.59Z"/><path class="cls-2" d="M138.43,305.57A8.46,8.46,0,0,0,130,314c0,4.67,8.46,16.71,8.46,16.71s8.46-12,8.46-16.71A8.46,8.46,0,0,0,138.43,305.57Zm.21,12.79a4.13,4.13,0,1,1,4.13-4.13A4.13,4.13,0,0,1,138.64,318.36Z"/><path class="cls-2" d="M144.47,251.24A8.46,8.46,0,0,0,136,259.7c0,4.67,8.46,16.71,8.46,16.71s8.46-12,8.46-16.71A8.46,8.46,0,0,0,144.47,251.24Zm.21,12.79a4.13,4.13,0,1,1,4.13-4.13A4.13,4.13,0,0,1,144.68,264Z"/><path class="cls-2" d="M217,315.29a8.46,8.46,0,0,0-8.46,8.46c0,4.67,8.46,16.71,8.46,16.71s8.46-12,8.46-16.71A8.46,8.46,0,0,0,217,315.29Zm.21,12.79a4.13,4.13,0,1,1,4.13-4.13A4.13,4.13,0,0,1,217.19,328.08Z"/><path class="cls-2" d="M87.71,223.21a8.46,8.46,0,0,0-8.46,8.46c0,4.67,8.46,16.71,8.46,16.71s8.46-12,8.46-16.71A8.46,8.46,0,0,0,87.71,223.21ZM87.91,236A4.13,4.13,0,1,1,92,231.87,4.13,4.13,0,0,1,87.91,236Z"/><path class="cls-2" d="M203.47,253.36a8.46,8.46,0,0,0-8.46,8.46c0,4.67,8.46,16.71,8.46,16.71s8.46-12,8.46-16.71A8.46,8.46,0,0,0,203.47,253.36Zm.21,12.79A4.13,4.13,0,1,1,207.8,262,4.13,4.13,0,0,1,203.67,266.15Z"/><path class="cls-2" d="M191.59,207.76a8.46,8.46,0,0,0-8.46,8.46c0,4.67,8.46,16.71,8.46,16.71s8.46-12,8.46-16.71A8.46,8.46,0,0,0,191.59,207.76Zm.21,12.79a4.13,4.13,0,1,1,4.13-4.13A4.13,4.13,0,0,1,191.8,220.55Z"/><path class="cls-2" d="M221.43,183.06a8.46,8.46,0,0,0-8.46,8.46c0,4.67,8.46,16.71,8.46,16.71s8.46-12,8.46-16.71A8.46,8.46,0,0,0,221.43,183.06Zm.21,12.79a4.13,4.13,0,1,1,4.13-4.13A4.13,4.13,0,0,1,221.64,195.85Z"/><path class="cls-2" d="M243,234.6a8.46,8.46,0,0,0-8.46,8.46c0,4.67,8.46,16.71,8.46,16.71s8.46-12,8.46-16.71A8.46,8.46,0,0,0,243,234.6Zm.21,12.79a4.13,4.13,0,1,1,4.13-4.13A4.13,4.13,0,0,1,243.18,247.39Z"/><path class="cls-2" d="M339.24,203.08a8.46,8.46,0,0,0-8.46,8.46c0,4.67,8.46,16.71,8.46,16.71s8.46-12,8.46-16.71A8.46,8.46,0,0,0,339.24,203.08Zm.21,12.79a4.13,4.13,0,1,1,4.13-4.13A4.13,4.13,0,0,1,339.44,215.87Z"/><path class="cls-2" d="M208.52,129.26a8.46,8.46,0,0,0-8.46,8.46c0,4.67,8.46,16.71,8.46,16.71s8.46-12,8.46-16.71A8.46,8.46,0,0,0,208.52,129.26Zm.21,12.79a4.13,4.13,0,1,1,4.13-4.13A4.13,4.13,0,0,1,208.73,142.05Z"/><path class="cls-2" d="M324.55,89.69a8.46,8.46,0,0,0-8.46,8.46c0,4.67,8.46,16.71,8.46,16.71s8.46-12,8.46-16.71A8.46,8.46,0,0,0,324.55,89.69Zm.21,12.79a4.13,4.13,0,1,1,4.13-4.13A4.13,4.13,0,0,1,324.75,102.48Z"/><path class="cls-2" d="M264.5,79.54A8.46,8.46,0,0,0,256,88c0,4.67,8.46,16.71,8.46,16.71S273,92.67,273,88A8.46,8.46,0,0,0,264.5,79.54Zm.21,12.79a4.13,4.13,0,1,1,4.13-4.13A4.13,4.13,0,0,1,264.7,92.33Z"/><path class="cls-2" d="M343.46,151a8.46,8.46,0,0,0-8.46,8.46c0,4.67,8.46,16.71,8.46,16.71s8.46-12,8.46-16.71A8.46,8.46,0,0,0,343.46,151Zm.21,12.79a4.13,4.13,0,1,1,4.13-4.13A4.13,4.13,0,0,1,343.67,163.82Z"/><path class="cls-2" d="M161,158.48a8.46,8.46,0,0,0-8.46,8.46c0,4.67,8.46,16.71,8.46,16.71s8.46-12,8.46-16.71A8.46,8.46,0,0,0,161,158.48Zm.21,12.79a4.13,4.13,0,1,1,4.13-4.13A4.13,4.13,0,0,1,161.2,171.27Z"/><path class="cls-2" d="M250.6,188.69a8.46,8.46,0,0,0-8.46,8.46c0,4.67,8.46,16.71,8.46,16.71s8.46-12,8.46-16.71A8.46,8.46,0,0,0,250.6,188.69Zm.21,12.79a4.13,4.13,0,1,1,4.13-4.13A4.13,4.13,0,0,1,250.81,201.48Z"/><path class="cls-2" d="M281.24,136.72a8.46,8.46,0,0,0-8.46,8.46c0,4.67,8.46,16.71,8.46,16.71s8.46-12,8.46-16.71A8.46,8.46,0,0,0,281.24,136.72Zm.21,12.79a4.13,4.13,0,1,1,4.13-4.13A4.13,4.13,0,0,1,281.45,149.51Z"/></g></svg>