<svg xmlns="http://www.w3.org/2000/svg" width="479" height="413" viewBox="0 0 479 413"><defs><style>.cls-1{fill-opacity:0.4;stroke:#000;stroke-opacity:0.17;}.cls-2{fill:#3dd89d;}</style></defs><title>xx</title><g id="Layer_2" data-name="Layer 2"><path class="cls-1" d="M474.08,238.07a3.53,3.53,0,0,1-1.29-2.79c0-1.52-.14-1.67-2.1-1.83S468,232.84,465,230a3.86,3.86,0,0,0-2.09-1.09.88.88,0,0,1-1-.75c0-.41-1-1.19-2.16-1.73-1.94-.88-2.2-1.23-2.51-3.51-.54-3.93-.45-4.27,1.33-5.28,3.42-1.95,1.07-6-3.46-6a3.84,3.84,0,0,1-3.6-1.67,4.53,4.53,0,0,0-2.51-1.67c-1.34,0-3-.85-5.12-2.59a5.76,5.76,0,0,0-3-1.31,46.67,46.67,0,0,0-10.43,2.87c-.72.39-1.23.38-1.65,0a3.1,3.1,0,0,0-1.89-.6c-1,0-1.28-.31-1.28-1.36a2.33,2.33,0,0,1,.56-1.71,1.86,1.86,0,0,0,.56-1.43c0-.6.24-1.08.54-1.08s.84-1.07,1.21-2.37a11.17,11.17,0,0,1,1.81-3.65c1.11-1.24,1.11-1.33.14-3.12s-1-1.9.16-3.75a7.91,7.91,0,0,0,1.15-2.73c0-1.15-3.37-3.35-5.12-3.35a3.17,3.17,0,0,1-2.17-.88,2.48,2.48,0,0,0-2.31-.65c-1.29.19-1.52.06-1.27-.73.58-1.83-1.32-2.92-4.51-2.59l-2.89.3-3.78-3.81c-2.67-2.69-4.33-3.91-5.66-4.16-1.7-.32-1.88-.54-2-2.42-.05-1.14,0-3,0-4.21a6.54,6.54,0,0,0-1.34-4.38A11,11,0,0,1,399.2,154c-.2-2.78-1.21-3.81-4.1-4.19-1.28-.17-2.42-.67-2.6-1.14s.35-2,1.18-3.42c4-6.83,4.37-7.9,3.48-9.48-.75-1.35-1.18-1.49-5.25-1.75l-4.42-.28-.4-2a6.6,6.6,0,0,0-2.25-3.51L383,126.74l-.63,2.55-.66-1.22a5.91,5.91,0,0,1-.66-2.34c0-1.25-2-2.86-3.47-2.86-1.27,0-1.26-.06.46-3.46,1.11-2.18,1.37-3.35,1.12-4.93-.33-2.06-.33-2.07,2-2.37,2.78-.37,5.14-2.38,4.73-4-.2-.81.07-1.3.95-1.69,1.58-.69,1.91-3.21.66-5.1-.87-1.33-.87-1.54.07-3.28s.95-1.92.05-2.91a4.31,4.31,0,0,1-.95-2.5,3.53,3.53,0,0,0-1.26-2.47,19.25,19.25,0,0,1-2.84-3.35,9.44,9.44,0,0,0-2.37-2.63c-.5-.19-.79-1.13-.79-2.55,0-2.31.23-2.65,3.89-5.74,1.93-1.63,1.94-1.89.35-5.57-.86-2-.85-2.09.11-2.09,2.34,0,3.34-3.52,1.2-4.2-1.07-.34-1.08-.42-.2-1.06s.9-1.29.68-3.58a8.59,8.59,0,0,0-1.17-3.87,1.57,1.57,0,0,1-.46-.8,2.17,2.17,0,0,1-.79-.57l-.06.09c-.12.13-.51-.06-.87-.42q-1.54-1.54-4.22.72c-.9.76-1.8,1.22-2,1-.56-.56-.42-3.22.21-4,.31-.37.4-.54.19-.4-.61.45-1.89-.91-1.49-1.6.2-.35-.29,0-1.08.68-1.82,1.65-2.42,1.28-2.88-1.79a6.11,6.11,0,0,0-4.57-5.31,2,2,0,0,1-1.8-2.06c-.29-2.54-1-3-4.56-3-2.75,0-3.26-.16-3.51-1.12a1.51,1.51,0,0,0-1.6-1.12,2.72,2.72,0,0,1-2.26-1.67c-.84-1.47-1.25-1.67-3.49-1.67-2.49,0-4.28,1-4.87,2.8-.31.92-2.69-.26-2.69-1.34,0-.72-2.24-2-3.47-2a3.53,3.53,0,0,0-1.66.94c-.79.72-1.19.78-1.69.28a3.21,3.21,0,0,0-2-.66c-1.09,0-1.61.66-3,3.85-1.67,3.79-1.72,3.83-2.77,2.78s-3.27-1-5,.3A19.47,19.47,0,0,1,319,41a6.64,6.64,0,0,0-3.22,3.19c-.63,1.24-1.36,2.25-1.61,2.25a7.66,7.66,0,0,1-2.22-1.67,6.91,6.91,0,0,0-2.33-1.67c-.32,0-.84-.68-1.15-1.52-.47-1.23-.4-1.65.36-2.2.6-.44,1-1.68,1.13-3.46.14-2.06.56-3.14,1.61-4.19,1.87-1.87,1.78-3.11-.4-5.49a12.51,12.51,0,0,0-8.63-3.78,4.75,4.75,0,0,1-3.6-1.49c-1.19-1.14-2.27-1.55-4.61-1.74-4.92-.41-7.71.25-10.24,2.41-1.76,1.51-2.75,1.93-4.49,1.93-3.38,0-4-.39-3.41-2,.45-1.18.27-1.62-1.27-3s-1.64-1.78-1.11-2.31c2.37-2.37-1.94-5.17-6.46-4.21a10.61,10.61,0,0,1-5.28-.13c-3.1-.8-4.32-.22-4.32,2.05,0,.76-.19,1.28-.42,1.17-2.88-1.4-3.49-1.89-3.49-2.79,0-.58-.74-1.48-1.67-2-2-1.15-2.43-2.06-1.62-3.57.49-.92.4-1.35-.48-2.23C249,3.4,249,3.4,248.26,5.1c-.39.94-.92,1.71-1.18,1.71a8.15,8.15,0,0,0-2.3,1.59,10.2,10.2,0,0,1-3.35,2c-1.58.39-5.46,4-5.46,5.06,0,.34-1.07,1.12-2.37,1.73-2.08,1-2.43,1.39-2.82,3.48-.34,1.77-.84,2.57-2,3.16a35.06,35.06,0,0,0-5.06,4.14c-3.19,3-3.5,3.51-3.13,4.93a10.44,10.44,0,0,1,.12,5.42c-.54,1.41-6.73,1.25-8.6-.22s-3-1.41-4.86.08l-1.51,1.19-2.63-2.59c-1.44-1.42-2.94-2.59-3.33-2.59A9.75,9.75,0,0,0,197,35.27,23.1,23.1,0,0,1,192.44,37c-3,.73-7,4.62-7.56,7.38-.38,1.78-2.24,4.29-3.19,4.29a5.58,5.58,0,0,1-1.93-1.12c-1.41-1.11-4.33-1.47-5.51-.69A5.19,5.19,0,0,0,173,48.44a1.39,1.39,0,0,1-1.53.95,2.82,2.82,0,0,1,.1.59c.67.39.77,1.5.89,4.68l.15,3.91L170,61.4c-2.92,3.12-3,3.32-1.88,4.84a2.49,2.49,0,0,1,.21,2.66,3.73,3.73,0,0,0,.07,3,11.39,11.39,0,0,1,.63,1.56,14,14,0,0,1-2.23,1.66c-3.52,2.33-2.69,4.62,2.15,5.91a9.06,9.06,0,0,0,5,0c2.17-.52,3.14-.45,5.92.41l3.32,1-2.49,1.66a6.88,6.88,0,0,0-3,3.46c-.29,1-.83,1.8-1.19,1.8a1.8,1.8,0,0,0-1.37,2.74c.53,1,.42,1.19-.8,1.49a9.66,9.66,0,0,1-3.5-.08c-2.89-.6-4.16-.37-5.28.94-.89,1-1.05,1.06-2.22.25a4,4,0,0,0-5,.1c-.74.54-1.84,1.26-2.45,1.6-.89.5-1.11,1.21-1.11,3.63s-.31,3.42-1.36,4.82a6.55,6.55,0,0,1-1.72,1.81,19.11,19.11,0,0,0-3.1,1.81,11.18,11.18,0,0,1-4.14,1.84,21.68,21.68,0,0,0-4.84,1.31c-3.2,1.2-3.56,1.51-5.18,4.56a18.08,18.08,0,0,1-2.29,3.61,10.2,10.2,0,0,0-1.71,2.61,7.45,7.45,0,0,0-.82,5.12,16.25,16.25,0,0,1-.44,5.72c-.85,3.14-.66,5.39.55,6.39s.86,2.6-1.74,5.53a14.1,14.1,0,0,0-2.51,3.42,3.21,3.21,0,0,1-1.2,1.57c-1.12.91-1.16,1.16-.53,3.65s.64,2.71-1,4.14a8.84,8.84,0,0,0-2.21,3.23c-.75,2.32.31,3.28,4.19,3.8,2.62.35,2.93.54,3.25,2a4.51,4.51,0,0,0,1.45,2.39c1,.67,1,1,.41,2.26s-.53,1.63.82,2.88c1.77,1.64,1.93,2.17.4,1.35-.9-.48-1.43-.29-2.89,1-1.63,1.46-1.92,1.53-3.23.87a19.39,19.39,0,0,0-2.49-1c-1-.3-1-.39-.14-1.33a3.57,3.57,0,0,0,.91-1.94c0-.51.25-.93.56-.93.75,0,.71-2-.07-3.52-.87-1.7-3.93-4.85-4.71-4.85a20,20,0,0,0-3.94,1.67,12.59,12.59,0,0,1-6.5,1.67c-3.51,0-5.44,1.21-5.44,3.38,0,1.61-3.37,6-4.92,6.46-1,.26-1.71,0-2.88-1.17l-1.59-1.52-4.05,1c-3.38.86-4.14,1.27-4.6,2.47a3.9,3.9,0,0,1-1.71,2c-1.88.83-1.61,2,1.09,4.89,1.4,1.48,2.46,2.94,2.36,3.24a7,7,0,0,1-2.54,1.6c-1.91.86-2.36.91-2.36.27,0-3.38-8.52-1-11.91,3.35a11.79,11.79,0,0,1-3.41,2.9c-1.79.85-1.92.82-5.52-1.19a23.9,23.9,0,0,1-4-2.58c-.47-.77-5.08-.62-5.93.19a10.39,10.39,0,0,1-2.38,1.43c-1.48.66-1.73.61-2.51-.41C45,192.12,41.8,191.1,41,192.11a2.89,2.89,0,0,1-1.45.94,5.71,5.71,0,0,0-2.14,1.62c-1.29,1.45-1.33,1.45-3,.48a5.48,5.48,0,0,0-4.14-.61c-2,.3-2.78.15-4.07-.77a16.74,16.74,0,0,0-3.06-1.69,3.55,3.55,0,0,1-1.07-.56,2.27,2.27,0,0,1-.67-.25c-.5,3.51,0,8.26,1.29,10.5,1.08,1.83,1.22,2.63.91,5.15s-.09,3.83,1.06,7.31c2.7,8.15,3.16,9.83,3.16,11.5,0,3,7.24,23.9,9.35,27a7.29,7.29,0,0,1,1.26,2.71A5.72,5.72,0,0,0,40.12,258c1.75,1.75,1.69,2.74-.25,4.35-1.24,1-1.07,3,.5,6.11s2,7,1,8-.84,2.16.17,4.18c.69,1.37.75,2.88.38,8.46-.4,5.87-.62,7-1.69,8.1-1.4,1.49-6,3.88-10.5,5.42C20,305.9,14.43,310.94,8.94,321.29a16.93,16.93,0,0,1-3.45,4.62c-1.94,1.43-2.06,2.43-.48,4,.64.64,1,1.49.88,1.89-.73,1.91,1.79,3.35,7.83,4.5a5,5,0,0,1,2.44,1.14,3.36,3.36,0,0,0,2.27.8c.88,0,1.61.29,1.61.64,0,1.12,3.8,4.38,5.13,4.4.94,0,1.55.59,2.26,2.14a10.59,10.59,0,0,1,1,3.3,2,2,0,0,0,.56,1.52c.91.57.65,1.26-1.18,3.14-1.63,1.66-1.72,2-1.4,4.7.26,2.22.14,3.08-.49,3.61-1.16,1-1,2.22.34,3.69s1.05,2.28-1.34,2.89c-1.72.44-2.56,1.53-3.44,4.44-.27.91-.15,1.26.45,1.26,1.22,0,1.4,1.15.52,3.27-.68,1.64-.66,2.4.19,6.14a17.4,17.4,0,0,0,2,5.41,4,4,0,0,1,1,1.74c0,.57,4,3.53,4.83,3.53a3.84,3.84,0,0,0,1.41-.92c1.27-1.15,1.4-5.32.2-6.32-.63-.53-.69-.94-.22-1.81s.36-1.45-.56-2.7c-1.34-1.81-1.24-1.92,2.25-2.43,3.66-.53,5.5,0,5.5,1.67s1.2,2.3,4.25,2.76c2.87.44,6.67-1.5,8.6-4.38,1.57-2.35,5.7-5.4,7.3-5.4s2.57-2,3.55-6.68a16.56,16.56,0,0,1,1.71-5.08c.56-.62,2.08-1,4.59-1.21a19.93,19.93,0,0,0,5.73-1.24c1.81-.88,2.23-.89,4.77-.13,2.35.7,3.12.71,4.93.09a23.79,23.79,0,0,1,6.45-.64c4.08.1,4.55,0,8.84-2.27,5.09-2.66,6.68-2.9,8.21-1.21,2.4,2.65,7.07,3.46,10.52,1.81a4.53,4.53,0,0,1,4.13-.28,16.75,16.75,0,0,0,3.93.65,2.48,2.48,0,0,1,1.39.25,7.72,7.72,0,0,1,1.28-.14,2.32,2.32,0,0,1,.44,0,6.09,6.09,0,0,1,1.57-1c1.75-.85,2.35-.93,3.11-.38,2.44,1.77,4.67,2.4,6.38,1.81,2.73-1,4.67-.69,6.53.87,1.27,1.07,3,1.67,6.32,2.26a23.42,23.42,0,0,0,5.87.47c1-.25,1.81.21,3.73,2.19,3.13,3.22,4.51,3.55,8.6,2.06,4.85-1.77,6.08-1.61,7.12.91a19.64,19.64,0,0,0,1.06,2.29,26.79,26.79,0,0,0,3.71,1c1.93.44,4,.94,4.68,1.1a10.17,10.17,0,0,0,4.27-1,11.54,11.54,0,0,1,5.72-1.1c2.53.2,2.6.25,2.17,1.68a18.36,18.36,0,0,0-.46,4c0,2.19.13,2.52,1.36,2.81.94.22,1.16.47.7.76-1,.61-.85,2.28.28,3.3.74.67,2.53.92,7.38,1.06l6.4.18.76-1.57c.73-1.5.82-1.53,2.09-.7a9,9,0,0,0,4.14.87c1.55,0,2.81.2,2.81.45a6.83,6.83,0,0,1-1.67,2.06,4.42,4.42,0,0,0-1.67,3.8,11.63,11.63,0,0,1,0,1.34,2.93,2.93,0,0,1,.08.32l.09.3c0,.06,0,.12,0,.19l0,0c.57-.47,1.24-.29,2.81.77,3.17,2.15,4.3,1.75,5.06-1.81.21-1,.72-1.81,1.12-1.81a4.43,4.43,0,0,0,2-1l1.24-1-1.19-2.34c-1-1.9-1-2.34-.37-2.34a2.06,2.06,0,0,1,1.39.7l1.84,2.27c1.76,2.18,5,2.59,8.09,1,2.33-1.19,3.53-2.46,5.4-5.74l1.07-1.87.51,2c.58,2.33,5.32,7.75,6.77,7.75a4.81,4.81,0,0,0,2.42-1.45c1.32-1.32,1.71-1.42,4.41-1.08,3.72.47,5.61,1.92,6.38,4.93,1,3.87,1.73,5.36,2.84,5.71,2,.63,4.47.43,5.32-.41s.75-1.07,0-2.94c-1.4-3.36-1.15-4.37,1.59-6.33s4.48-2.22,6-.86c1.28,1.16,2.5.67,3.71-1.45a4.86,4.86,0,0,1,1.8-2,4.82,4.82,0,0,0,1.8-1.81c.56-.9,1-1.19,1-.7,0,1.88,2.54,5.86,3.78,6,1.5.21,1.53.57.32,4-1.09,3.06-.78,4.3,1.27,5.07,1.28.49,1.43.79,1.14,2.27a5,5,0,0,0,.27,2.84c.51,1,1,1.09,3.06.86l2.07-.23a2.42,2.42,0,0,1,.86-.23c0-1.73.35-1.53,2.05-.81,3.12,1.31,4.73,0,4.73-3.76,0-1.72.13-1.89,1.35-1.65,1,.19,2-.32,3.83-2a18.3,18.3,0,0,1,2.78-2.29,4.58,4.58,0,0,1,.68,2.09,8.17,8.17,0,0,0,1,2.79c.92,1.12,5.11.85,6.73-.42s3.2-1.43,4.26-.42c.59.56.95.41,1.86-.79,1.11-1.46,1.17-1.47,3-.6,1.58.75,2.08.78,3.24.16s1.64-.57,3.78.68c4.25,2.5,5.2,3.93,5.2,7.85v3.43l2.79,1.51a58.93,58.93,0,0,0,7.42,3.67,2.3,2.3,0,0,1,2.07-.15,1,1,0,0,1,.75-.28,3.1,3.1,0,0,0,2.7-3.46,3.19,3.19,0,0,1,.49-2.36c1.09-1.47,1-3.71-.24-6.57a88.25,88.25,0,0,1-2.81-9.64l-1.77-7.25,1.11-2.16a9.8,9.8,0,0,1,2.25-3,2.91,2.91,0,0,0,1.14-2.1,3,3,0,0,1,1.45-2.25,2.16,2.16,0,0,0,1.21-2.58c-.13-.89,0-1.62.2-1.62s.71-1,1-2.23c.6-2.21.91-2.43,4.19-2.92.87-.13,1.15-.66,1.28-2.4.15-2.05.36-2.31,2.59-3.23a11.69,11.69,0,0,0,3.43-2.11c.88-1,.91-1.34.29-3.08a5.21,5.21,0,0,1-.5-2.19,41.82,41.82,0,0,1,5.55-.59c5.13-.36,5.34-.33,5.64.82.24.9.74,1.19,2.07,1.19,3.1,0,5-1.46,5-3.83,0-.94.25-1.22.85-1a1.7,1.7,0,0,0,2.51-1.34c0-1.6.55-1.62,5-.23a75.48,75.48,0,0,0,7.91,1.95c3.26.56,3.93.52,5.34-.31a4.09,4.09,0,0,1,1.55-.63,2.44,2.44,0,0,1,.62-1.1.6.6,0,0,1,0-.69c1.3-3.14.38-5.17-2.79-6.22-1.68-.55-1.89-.8-1.41-1.69a6.92,6.92,0,0,0,.55-2.71c0-1.64-.29-2-4.36-5-1.13-.84-1.22-1.16-.7-2.52a7.65,7.65,0,0,0-.35-6.54c-.89-1.5-.89-1.66,0-2.64,1.17-1.29,1.21-2.55.11-3.46-.72-.6-.65-.84.56-1.78,2.11-1.66,1.81-3.5-.84-5.26-1.72-1.14-2.23-1.84-2.23-3a6.1,6.1,0,0,0-1.39-3.21c-1.6-1.9-1.71-2.33-.6-2.33a6.21,6.21,0,0,0,2.51-1.44c2.31-1.94,2.34-4.5.1-7.06a8.17,8.17,0,0,1-1.81-3.22A1.75,1.75,0,0,0,412,282c-2.14-.4-4-2.25-5.88-5.95a21.22,21.22,0,0,0-3.48-5l-1.55-1.32,1.14-1.14a3.88,3.88,0,0,0,1.14-2.21,1.6,1.6,0,0,1,1.07-1.42c1.95-.62,2.5-1.78,1.72-3.64a3.59,3.59,0,0,1,0-3.35c.79-1.9,1.61-2,5-.83,2.78,1,4.14.7,5.33-1.12.79-1.2,1-1.25,2.36-.54a18.52,18.52,0,0,0,2.45,1c.52.15,1.25,1.3,1.63,2.55.78,2.6,4.6,6.46,7,7.06a6.08,6.08,0,0,0,3.08-.2c1.17-.44,2.14-.38,3.94.24,2.71.93,5.16.63,6.84-.84a16.25,16.25,0,0,1,3.65-2c2.89-1.18,5-3.22,5-4.79,0-.78.39-1.08,1.37-1.08a3.08,3.08,0,0,0,2.09-.86c.4-.47,1.93-2,3.41-3.48,2-2,2.63-2.94,2.45-3.89s0-1.26,1-1.26a2.93,2.93,0,0,0,1.8-.59c.32-.32,2.2-.64,4.16-.7,3.42-.1,3.56-.16,3.51-1.5a7.73,7.73,0,0,0-.45-2.3c-.3-.68,0-1,1.24-1.23C475.26,241.09,475.76,239.51,474.08,238.07ZM155.8,106.21c1.82-2.08,2.67-4.5,2-5.74-.54-1-.41-1.37,1-2.49,1.88-1.54,2.6-1.64,3.55-.51s4.5,1.1,4.85-.25c.25-1,.65-1.06,3.71-.8,4.44.37,7.35-.92,7.31-3.27,0-.84.27-1.53.64-1.53.75,0,1.34-1.25,1.34-2.82a3.1,3.1,0,0,1,1.53-2c5.89-3.66,5.26-6.34-1.94-8.29-3.07-.83-4.11-.89-6.09-.36-2.26.6-5.79.37-5.78-.39,0-.19.76-.78,1.68-1.3,2.13-1.21,2.56-2.35,1.74-4.63a4.43,4.43,0,0,1-.1-3.28,3.4,3.4,0,0,0,0-2.75c-.51-1.12-.3-1.57,1.69-3.56,2.37-2.37,2.41-2.5,2.5-8.82,0-3.49.17-3.92,1.2-4.07a2.91,2.91,0,0,1,2.18,1,3.87,3.87,0,0,0,2.49,1.14c2.23,0,5.48-3,6.21-5.71.83-3.07,3.62-5.81,6.42-6.3a14.66,14.66,0,0,0,3.94-1.38l1.75-1L202,39.51c2.73,2.79,4.47,3.12,6.47,1.24l1.29-1.21L211,40.75c1.08,1,2,1.21,5.33,1.21,5.81,0,7.09-.8,7.59-4.75.26-2.09.17-3.38-.26-3.9s-.11-1.31,2.11-3.46c1.52-1.47,3.77-3.48,5-4.46a6.19,6.19,0,0,0,2.62-3.79c.31-1.66.66-2.05,2.07-2.34,1.26-.25,2.13-1,3.36-3S241,13.41,242.51,13A9.74,9.74,0,0,0,246,11l1.49-1.43,2.75,3.13c4.42,5,8.73,6.67,9.84,3.73.57-1.52.63-1.54,5.67-1.53h5.09l-.17,1.69a3.25,3.25,0,0,0,1.23,3,2.68,2.68,0,0,1,1.1,2.79c-.47,2.35,1.29,3.5,5.84,3.83,3.83.27,3.85.27,6.23-1.89s2.6-2.17,6.7-2.36c3.76-.17,4.41-.06,5.08.89a6,6,0,0,0,5.06,2.38,12.07,12.07,0,0,1,7.29,2.67l1.18,1.18-1.5,1.39a4.46,4.46,0,0,0-1.5,2.81c0,.78-.27,1.42-.6,1.42s-.45.47-.25,1.09a3.37,3.37,0,0,1-.55,2.46c-.74,1.13-.79,1.77-.29,3.63.64,2.37,1.86,4,3,4a5.72,5.72,0,0,1,2.3,1.67,5.27,5.27,0,0,0,2.83,1.67c1.32,0,4.7-3.09,4.7-4.3,0-.41,1.32-1.32,2.93-2l2.93-1.29,1.51,1.11c1.38,1,1.62,1,2.8.26a11.2,11.2,0,0,0,2.66-3.85c1.71-3.76,1.58-3.61,2.36-2.82,1,1,2.16.8,3.59-.54,1.13-1.06,1.32-1.09,1.63-.29a6.57,6.57,0,0,0,2.26,2.09c2.33,1.44,4.43,1.08,5.34-.9s3.24-1.86,4.47.3c.52.92,1.33,1.67,1.79,1.67a2,2,0,0,1,1.44,1.12c.49.92,1.17,1.12,3.93,1.12,3.29,0,3.33,0,3.33,1.61,0,1.95.68,2.56,3.75,3.38,2.3.61,2.36.7,2.73,3.49.4,3,1.75,4.92,3.51,4.92.76,0,1.2.58,1.54,2,.77,3.24,1.91,3.56,5,1.37l2.64-1.86,1,1.24c1.23,1.52,1.29,2.72.15,3.16a3.49,3.49,0,0,0-1.45,1.44c-.47.88-.36,1.44.52,2.63,1.09,1.48,1.09,1.52.06,2.17-1.36.85-1.34,2.1.07,4.86l1.13,2.21-1.26.84c-3.92,2.61-4.07,2.9-4.28,8.37l-.2,5.12,1.26-.67c1.1-.59,1.39-.5,2.26.65a6.65,6.65,0,0,1,1.17,2.44,2.54,2.54,0,0,0,1.42,1.67,2,2,0,0,1,1.26,1.57,5.62,5.62,0,0,0,.62,2.18c.5.93.44,1.26-.28,1.66-1.2.67-1.13,2,.22,4.08s1.4,2.68,0,2.24c-2.58-.82-4.75,2.79-2.45,4.08,1.43.8.35,1.78-2,1.78-3.31,0-4.22,1-3.79,4.14.35,2.57-.29,4.52-2.51,7.63a3.21,3.21,0,0,0-.28,2.3c.28,1.12.81,1.48,2.59,1.77,1.33.21,2.24.66,2.24,1.11s1.32,1.61,2.92,2.64c2.45,1.58,3,2.22,3.26,4,.55,3.38,1.21,3.8,6.15,3.8,5.11,0,5.06-.3,1.12,6.41a19.73,19.73,0,0,0-2.29,4.86,6.71,6.71,0,0,0,1.67,2.87,10.66,10.66,0,0,1,1.67,2.24c0,1-3.66,2-7,2-3,0-3.84.21-4.62,1.12s-1.65,1.12-6,1.12c-6.38,0-8.15.93-10.07,5.27-1.52,3.44-2.62,4.29-4.69,3.62-.79-.25-2.9-.75-4.68-1.1s-3.33-.93-3.44-1.29-.35-1.34-.53-2.18c-.43-2-1.9-2.33-6.85-1.64a16.22,16.22,0,0,0-6.21,2c-2.62,1.66-4.1,1.83-5.13.59-.59-.71-1.53-.79-5.35-.48-3.22.26-5.15.16-6.32-.32-2.67-1.11-4.28-.28-9.24,4.75-2.56,2.6-4.88,4.72-5.16,4.72-1.64,0-1.64-2.23,0-5.14,1.2-2.13,1.21-2.25.23-3-1.23-.9-.85-2.57,1.12-4.93a5.31,5.31,0,0,0,1.26-4.18A17.56,17.56,0,0,1,311,149a11.83,11.83,0,0,0,.54-5.72c-.32-2.72-.52-3.11-1.6-3.11a3.62,3.62,0,0,0-2.26,1.14c-.83.92-1.59,1.11-3.85,1-2.62-.15-2.9-.31-3.94-2.26a5.72,5.72,0,0,0-2.08-2.41c-.56-.18-2.4.53-4.35,1.68-3.89,2.28-4.24,2.33-7,1l-2-1-1.6,1.92c-1.53,1.84-1.69,1.89-3.46,1.25a13.45,13.45,0,0,0-3.81-.67c-1.78,0-2-.18-2.47-2a6.43,6.43,0,0,0-2-3.15c-2.1-1.56-6.37-1.83-8.83-.56-1.84.95-2,1.2-2.23,4.36-.17,2-.54,3.35-.93,3.35-.8,0-4.34-4.55-4.89-6.29s-2.29-2.78-5.06-3.2c-2.11-.32-2.31-.22-3.63,1.74-2,3-2.69,3.56-4.28,3.56a1.53,1.53,0,0,0-1.68,1c-.25,1-.53.89-3.4-.84-3.4-2-4-2.21-5-1.25-1.71,1.71-3.88-1.77-4.26-6.83-.26-3.48-1.22-4.4-4.61-4.4s-5.23-.82-5.23-2.4c0-1-1.27-2.36-4.86-5.32-4.7-3.88-4.88-4.12-5.72-7.49l-.86-3.48-3.07-.68c-2.65-.59-3.62-.54-7.07.34-4.34,1.11-5.2.86-5.2-1.48,0-2.65-3-2.34-7,.73-3,2.3-5.27,2.83-8.38,2-1.92-.53-2.4-.47-3.76.54l-1.56,1.15-3.33-1.15c-4.16-1.44-5.84-1.45-7.63,0l-1.42,1.11-1.08-2C155.13,107.38,155.1,107,155.8,106.21ZM310.43,184c.33,1.75.22,1.9-2.49,3.27-1.56.79-3,1.85-3.19,2.35a5.23,5.23,0,0,0,.92,3.11c1.26,2.18,1.31,4.07.23,8.59-.23,1,.28,1.63,2.55,3.26,3,2.16,3.51,3.52,2.07,5.58-.43.61-4.31,2.86-8.64,5s-7.87,4.15-7.88,4.46a20.14,20.14,0,0,1-1.37,3.48c-1.27,2.74-1.46,2.9-3,2.59s-1.68-.16-2,1.4c-.52,2.38-1.63,2.2-4.81-.78-2.91-2.72-3-2.75-6.52-1.93-2.62.61-4.58,0-4.58-1.44a.8.8,0,0,0-.78-.82c-1,0-2.57,3.88-2.57,6.18,0,1.69,0,1.7-2.5,1.32-2.18-.33-2.72-.19-4.23,1.09-1,.8-2,1.32-2.25,1.14-.79-.49-1.27,1.34-.57,2.19s.8,2.37.3,6.26a7.06,7.06,0,0,0,.55,4.6c.82,1.58.83,1.93.08,3.37a8.52,8.52,0,0,1-2.8,2.77c-1.65,1-2,1.48-2,3.1,0,2.22,1.57,3.77,4.92,4.84,3.65,1.17,5.12,2.33,5.7,4.48.65,2.43.38,4.22-1.68,10.83-.86,2.76-1.86,6.46-2.22,8.22a25.82,25.82,0,0,1-2,5.75,11.83,11.83,0,0,0-1.36,3.55c0,1.27,1.53,2.66,3.8,3.45s2.35,2.5.44,5.76a17.15,17.15,0,0,0-1.74,5.47,12.5,12.5,0,0,1-1.09,4.13c-1.13,1.55-6.2,1.65-12.29.25-5-1.15-5.38-1.17-6.86-.3a11.62,11.62,0,0,0-2.94,2.93c-2.58,3.77-3.15,3.93-6,1.71a6.9,6.9,0,0,0-4.21-1c-3.17,0-4.22-.66-4.22-2.65a4.69,4.69,0,0,0-1.37-2.68c-1.09-1.09-1.94-1.37-4.15-1.37-3.24,0-5.42.72-7.18,2.37-1,.94-1.26,1.79-1.26,4.17,0,3,0,3-2.37,4.08-2.69,1.22-6,1.43-7,.43a3.46,3.46,0,0,1-.68-2.09c0-1.88-.47-2.46-2.64-3.34-1.54-.62-1.81-1-1.81-2.61a17,17,0,0,0-1.09-4.75c-1-2.63-1-3-.24-4.52.89-1.72,1.1-3.74.89-8.67-.1-2.45-.29-2.93-1.17-2.93a2.59,2.59,0,0,0-1.74.84c-.91,1.1-2.22,1.06-3.9-.11a8,8,0,0,0-3.89-1l-2.53,0-.32-2.36a8.71,8.71,0,0,0-.56-2.51c-.13-.08-1.62-.87-3.31-1.75l-3.07-1.6L170.93,283c-3.4,2.12-6.23,2.68-7.74,1.56-1.06-.79-1.06-.84.09-3.51,1.07-2.46,1.1-2.88.38-4.6a12,12,0,0,1-.79-2.35,27.63,27.63,0,0,1,3.08-4.26c4.32-5.34,4.08-6.57-1.47-7.68a3,3,0,0,1-2.12-1.87,6.37,6.37,0,0,0-2.3-2.55c-2.44-1.44-2.18-3.14.86-5.62,2.68-2.2,3-3.24,1.88-6.41-.93-2.66,0-4.29,3-5.11,4.62-1.28,6.2-4.94,3.68-8.49a7.94,7.94,0,0,1-1.28-3.73c-.06-2.55-2.53-6.2-8-11.85-3.82-4-4.13-4.45-3.85-6.14a17.72,17.72,0,0,1,.68-2.77c.27-.68-.1-1.18-1.35-1.83-.95-.49-1.72-1.15-1.72-1.48,0-.77,2.6-3.17,5.55-5.13s4.9-5.85,4-7.62c-.49-.91-.84-1-2-.56-2.23.85-2.46.69-2.46-1.7V187l-3.77.33c-5,.45-5.83-.16-6.16-4.7-.29-4-1.39-5.47-2.42-3.22-.51,1.13-.83,1.31-1.41.83-.89-.74-1-2.92-.17-4.43.45-.83.82-1,1.58-.55,1.51.81,3.11.15,4.22-1.74,1-1.7,1-1.7,4.81-1.32,5.27.52,7.77-.81,7.77-4.14,0-1,1-1.69,2.75-1.69.73,0,1.15-.77,1.66-3a9.88,9.88,0,0,1,2.92-5.34c2.91-3,4-6.08,3.55-9.9-.31-2.52-.21-3,.66-3.31,1.54-.57,1.85-1.36,1.48-3.8-.42-2.77-1.07-3.63-2.76-3.63-.92,0-1.76-.67-2.79-2.23a5.71,5.71,0,0,1-1.19-4.72c.24-2.12.06-2.74-1.18-4.16-.8-.92-2.16-2.55-3-3.63-1.36-1.74-1.71-1.9-3-1.42a2.94,2.94,0,0,1-2.5,0c-1.23-.66-1.3-1.17-.53-3.85.62-2.15,0-3.39-1.73-3.39-1.51,0-1.29-1.41.48-3s3.55-1.78,7.93-.27l3.33,1.15,1.56-1.15a3.13,3.13,0,0,1,3.51-.59c3.81,1.09,4.42.92,9.78-2.65,3.54-2.36,5.29-2.42,5.29-.17,0,2.47,1.22,2.82,5.74,1.66,3.23-.83,4.43-.9,6.89-.41l3,.6.68,3.29c.66,3.2.8,3.39,5.59,7.32,3.17,2.6,4.91,4.43,4.92,5.15,0,2,.87,2.55,4.91,3a17.88,17.88,0,0,1,4.35.79,9,9,0,0,1,.56,3c.39,5.36,3,9.35,4.85,7.47.94-.94,1.59-.77,5.08,1.33,3,1.83,3.25,1.88,3.52.84a1.49,1.49,0,0,1,1.51-1.11c1.48,0,2.41-.74,4.43-3.49,1.68-2.29,1.89-2.36,5-1.5a3.82,3.82,0,0,1,2.77,2.09c1,2.33,4.92,7.36,5.71,7.36,1,0,1.39-1.3,1.39-4.54,0-2.64.1-2.81,1.93-3.58,4.45-1.86,9.08-.31,10.1,3.38.55,2,.81,2.25,2.52,2.37a22.46,22.46,0,0,1,4.06.81c2.1.65,2.19.62,3.72-1.25l1.56-1.91,2,1c2.74,1.31,3.1,1.26,7-1,1.88-1.1,3.75-1.87,4.16-1.71a7.55,7.55,0,0,1,2,2.56c1.24,2.2,1.37,2.27,4.16,2.27,2.17,0,3.13-.27,3.89-1.12a3.34,3.34,0,0,1,2-1.12c1.49,0,2,4.87.78,8.24a17.68,17.68,0,0,0-.85,5.24,5.28,5.28,0,0,1-1.3,4.22c-1.92,2.29-2.36,4.36-1.08,5.08,1,.54,1,.67-.23,2.78-2.09,3.71-1.23,6.61,1.53,5.14,2.28-1.22,3.64,3,2.44,7.6A14.7,14.7,0,0,0,310.43,184ZM216.15,378.42c-.47,0-1.15.66-1.51,1.46-.64,1.4-.8,1.45-4,1.12-1.82-.19-3.95-.35-4.73-.35-1.31,0-1.34-.06-.42-.73,1.51-1.11.89-2.81-1.25-3.44-1.62-.48-1.81-.72-1.5-2,.92-3.64.93-4.54.1-5.8-1.34-2-6.32-2.32-10.52-.57-3.11,1.29-3.23,1.3-6.82.41-2.49-.61-3.76-1.22-4-1.9a10.17,10.17,0,0,0-1.45-2.43c-1.43-1.82-4.51-1.93-8.78-.31a9.29,9.29,0,0,1-4.05.8,11.36,11.36,0,0,1-3.15-2.86c-2-2.36-2.23-2.5-4.32-2.25-3.6.43-9.87-.82-11.29-2.25-1.67-1.68-3.74-2.11-7-1.45-2.37.49-2.95.4-5-.75-2.64-1.5-4.3-1.64-5.83-.48-1.32,1-4.24,1.07-8,.2-2.43-.56-3.12-.51-5,.36a7.13,7.13,0,0,1-8.18-1.35c-2.71-2.38-4.77-2.25-10.34.67-4.31,2.25-4.73,2.36-8.79,2.23a19.92,19.92,0,0,0-5.85.51c-1.22.5-2.39.49-5,0-3.12-.62-3.66-.58-5.94.45a14.68,14.68,0,0,1-5.77,1.15c-2.94,0-3.45.2-5.1,1.84a8.6,8.6,0,0,0-2.48,5.16c-.35,1.83-.75,3.84-.88,4.47s-1,1.42-2.35,1.89-3.63,2.32-6.09,4.87c-3.46,3.58-4.26,4.14-6.13,4.25s-2.15,0-2.21-1c-.11-1.9-.63-2.32-3.72-3-7.42-1.59-14.06,1.89-10.7,5.61a1.51,1.51,0,0,1,.28,2.1c-.8,1.49-.79,1.54.56,2.8a2.77,2.77,0,0,1,1,2.07c-.18.94-.24.94-1.17,0a3.26,3.26,0,0,1-1-1.57,2,2,0,0,0-.75-1.22,13.13,13.13,0,0,1-1.72-4.33c-.87-3.32-.88-3.87-.14-5.31.83-1.6.69-4.4-.25-5s-.52-1.23.81-1.56c3.65-.92,5.39-4.33,3.36-6.57-.74-.81-.78-1.17-.22-1.84s.57-1.72.3-3.69c-.37-2.71-.3-3,1.43-4.74s1.81-1.95,1.16-4.27a47.11,47.11,0,0,0-2.17-5.63c-1.19-2.58-1.82-3.31-3.05-3.56-.85-.17-1.55-.51-1.55-.76s-.51-.61-1.14-.81c-.8-.25-1-.67-.81-1.4.38-1.2-1.11-2.22-3.25-2.22a2.9,2.9,0,0,1-2-.73c-.33-.4-2.58-1.05-5-1.44-4.31-.7-4.37-.74-4.15-2.23a2.5,2.5,0,0,0-.61-2.21c-.73-.6-.67-.86.47-2a27.31,27.31,0,0,0,3.27-5.14c2.78-5.43,4.73-8.13,7.58-10.51a44.65,44.65,0,0,1,11.19-6.14c.77-.23,2.9-1.06,4.74-1.85,6.54-2.82,9.21-6,9.21-10.88,0-2.9.15-3,5.26-3.52l3.57-.37L55.92,291c2.6,2.67,3.16,2.78,5.66,1.09,1.37-.93,3.59-.92,7.56,0,5.61,1.34,7-.33,6.44-7.75-.31-4.17-.23-4.67,1.27-7.53,1.87-3.58,3.26-4.1,5.85-2.19,1.62,1.19,1.9,1.23,5.51.61,6.75-1.16,7.71-.9,8.45,2.23a11.49,11.49,0,0,0,4.4,5.56c2.67,1.43,4.25,1.54,5.68.42a4.48,4.48,0,0,1,2.93-.93c1.17.13,1.58-.1,1.72-1a9.11,9.11,0,0,1,3-6.14,31.08,31.08,0,0,1,5-4.23c4.71-3,6.13-8,4-14.14-1.58-4.64.14-12.31,3.47-15.44,1.25-1.18,1.91-1.28,8.46-1.39a44.19,44.19,0,0,1,10.15.66,27.07,27.07,0,0,0,6.14.7c2.94-.07,2.89-.1-1.14-.48a41,41,0,0,1-6.14-1c-2-.62-15.22-.54-16.69.1-1.26.55-3.42,4-4.54,7.22a14.42,14.42,0,0,0-.2,9.86c1.87,5.3.51,10.95-3.16,13.08-2.56,1.49-7.1,5.8-8.05,7.65A7.71,7.71,0,0,0,111,281c0,1.25-.18,1.37-1.57,1.1a2.19,2.19,0,0,0-2.3.57c-1,1.21-3.85,1.11-6-.23-1.91-1.17-4-4.13-4-5.64,0-1.32-1.83-2.74-3.52-2.74a46.26,46.26,0,0,0-5.32.66c-3.63.62-3.93.59-5.39-.56-2.34-1.84-3.95-1.58-5.47.88-2.34,3.78-2.75,5.38-2.34,9.24.76,7.06-.47,8.59-5.86,7.3-4-1-6.19-1-7.56,0-2.47,1.67-3,1.56-5.61-1.1l-2.51-2.58-3.6.37a30.75,30.75,0,0,0-4.4.68c-.66.25-.79-.43-.7-3.83a13.75,13.75,0,0,0-.65-5.56,2.11,2.11,0,0,1,.08-2.75c1.09-1.73.52-6.22-1.17-9.07-1.54-2.6-1.53-2.75.17-5.25,1.81-2.66,1.76-3.69-.28-5.51a4.83,4.83,0,0,1-1.67-2.59,2.4,2.4,0,0,0-.84-1.72c-1-.76-4.9-10.09-6.09-14.67-.48-1.85-1.5-5-2.27-7.08a21.75,21.75,0,0,1-1.4-5.5,54.69,54.69,0,0,0-2.24-8.89c-1.9-6-2.19-7.56-1.89-10.1a7.57,7.57,0,0,0-1.11-5.74,12.91,12.91,0,0,1-1.46-3.74c0-.93.15-.92,2.24.15,1.7.87,2.5,1,3.31.57a3.5,3.5,0,0,1,4,.18c1.19,1.19,3.21,2.12,3.81,1.75a6.68,6.68,0,0,0,1.39-2c.56-1.07,1.12-1.51,1.69-1.29a2.21,2.21,0,0,0,1.91-.63c1-.91,1.13-.87,2.74.91l1.69,1.87,1.75-1a7.75,7.75,0,0,1,2.47-1,2.29,2.29,0,0,0,1.42-.84c1.11-1.34,2.56-1,7.13,1.67,2.36,1.38,4.91,2.51,5.67,2.51,1.67,0,5-2.26,6.81-4.55,2.16-2.82,7.74-5,7.74-3.07,0,1,1.83,2.6,3,2.6A1.45,1.45,0,0,0,84,193.77a3.29,3.29,0,0,1,2-1.68c4.42-1.54,4.89-4.12,1.4-7.68-1.29-1.32-2-2.39-1.66-2.39s.93-.63,1.22-1.41A2.78,2.78,0,0,1,88.24,179c.39-.1,1.56-.46,2.6-.81,1.74-.58,2.05-.49,3.79,1a11.8,11.8,0,0,0,2.17,1.66c2.93,0,10.23-7.52,9.4-9.69-.3-.79.13-.92,3.06-.92a10.6,10.6,0,0,0,6.38-1.67l3-1.67,1.6,1.67c1.24,1.3,1.45,1.82.94,2.34a2.38,2.38,0,0,0-.67,1.41,6.09,6.09,0,0,1-1.19,2.36c-1.51,2-1.07,3.19,1.6,4.25a37.58,37.58,0,0,1,3.58,1.65c2.08,1.15,3,1,4.26-.56,1-1.24,1.25-1.31,2.79-.73,1.34.5,1.89.49,2.59-.09,1.2-1,1.11-3.54-.18-5.14-1-1.22-1-1.42-.18-2.82s.77-1.63.11-2.43a5.83,5.83,0,0,0-2.05-1.42,1.85,1.85,0,0,1-1.28-1.65c0-2.15-1-3.32-2.95-3.33-3,0-4.21-.53-3.9-1.71A1.48,1.48,0,0,1,125,159.7c1.67,0,2.44-2.35,1.76-5.35-.46-2-.43-2.61.15-2.83a3.31,3.31,0,0,0,1.26-1.77,17.31,17.31,0,0,1,2.73-4c3-3.4,3.19-4.18,1.77-6.71a5.43,5.43,0,0,1-.75-4.55,48.28,48.28,0,0,0,.5-6.39c0-3.52.26-4.27,1.79-6.42a43,43,0,0,0,2.68-4.28c1.13-2.2,5.27-4.24,7.57-3.73,1.14.25,2-.13,4-1.72A19,19,0,0,1,153,109.2c1.91-.66,2.11-.62,2.72.48a7.39,7.39,0,0,1,.68,2.86c0,1.21.33,1.72,1.15,1.87,1.83.33,2,.92,1.21,3.34-.71,2-.69,2.38.11,3.07,1.6,1.37,2.18,1.52,3.63,1,1.27-.48,1.59-.32,3,1.53.84,1.14,2.07,2.64,2.72,3.32,1,1,1.14,1.75.94,3.91s0,3,1.48,5c1.24,1.71,2.12,2.37,3.14,2.37,1.5,0,1.65.24,2.19,3.49.31,1.87.2,2.16-1.11,2.76s-1.45.81-1.11,3.77c.45,4-.54,6.79-3.51,10a11.35,11.35,0,0,0-2.89,5.1c-.56,2.32-.87,2.73-2.29,3-1.66.33-1.83.56-2.4,3.19-.46,2.13-2.6,2.87-7.06,2.43-3.64-.36-3.8-.32-4.74,1.11-1.32,2-2.78,2.74-4.1,2s-1.88-.08-2.8,2.35c-.48,1.26-.36,1.75.73,3l1.3,1.51.87-1.64c1-1.94,1.31-1.42,1.68,3.06.35,4.28,1.68,5.3,6.36,4.87l3.46-.32.17,2.07c.17,2,.23,2.06,2.22,1.91,1.13-.09,2.21.1,2.4.41s-.15,1.69-.75,3.07c-.83,1.88-1.88,3-4.21,4.49a17.1,17.1,0,0,0-4.06,3.44c-.92,1.4-.9,1.49.28,2.45a8.8,8.8,0,0,0,1.82,1.19c.41.14.41.67,0,1.75-1.1,2.9-.72,3.91,2.8,7.36,5,4.93,8.53,10,8.59,12.51a7.91,7.91,0,0,0,1.28,3.77c2.38,3.34,1.18,7-2.52,7.68a7.87,7.87,0,0,0-3.22,1.39c-1.61,1.44-5,1.94-5.85.87a2.33,2.33,0,0,0-1.61-.81c-.61,0-.5.2.35.54.69.28,1.26.79,1.26,1.13s.71.5,2.11.27l2.11-.36.68,2.55c1,3.88.88,4.47-1.83,6.69-3.09,2.53-3.16,3.73-.42,6.49,1.15,1.16,2.53,2.62,3.07,3.26a3.7,3.7,0,0,0,2.51,1.17c3.88,0,3.76,2-.44,7.22-2.16,2.69-2.76,3.83-2.48,4.72.92,2.89.91,4.42-.06,6.57l-1,2.26,1.36,1.1c1.79,1.45,4.32,1,8-1.29l2.82-1.77,3.07,1.69c2.65,1.46,3.09,1.94,3.25,3.56.27,2.71,1.08,3.43,3.52,3.1a5,5,0,0,1,4,1l1.94,1.32,1.4-1.1c2.1-1.65,2.72-1.4,2.55,1a6.49,6.49,0,0,0,.29,2.83c.54.88,0,4.26-1.08,6.27-.67,1.3-.63,1.83.33,4.35a17.12,17.12,0,0,1,1.09,4.81c0,1.7.28,2.08,2.23,3.07s2.23,1.44,2.23,2.71c0,2.29,1.7,3.59,4.35,3.34l2.18-.21-.75,1.8c-1.87,4.48-.51,6.13,5.59,6.82,6.79.76,8.27,2.4,7.1,7.85-.79,3.69-.78,7.57,0,9.11a21.09,21.09,0,0,0,2.23,3.05,8.13,8.13,0,0,1,1.59,2.31,11.39,11.39,0,0,1-2.26,2.74c-2,2-2.23,2.47-1.91,4.17a10.8,10.8,0,0,1-.24,4.06c-.56,2-.5,2.24,1.07,3.67a5.74,5.74,0,0,1,1.66,2.08,5.29,5.29,0,0,1-2.57,3.89c-1.55.71-1.76,2.88-.5,5.1C217.19,378,217.19,378.42,216.15,378.42ZM403.37,276.74c2.19,3.8,5.36,7.38,6.52,7.38a.78.78,0,0,1,.73.82,7.17,7.17,0,0,0,1.72,2.77c2.45,2.79,2.13,3.69-1.86,5.26-2,.78-2.08,3.24-.22,5.47a9.55,9.55,0,0,1,1.71,3.71,4.11,4.11,0,0,0,2.36,3.29l2,1.16L414.57,308c-1.86,1.45-2.35,3.86-.9,4.41.73.28.73.5,0,1.91-1.11,2.15-1,3.18.29,4s1.37,1.69.43,5.22c-.68,2.55-.67,2.59,1.07,4.05,1,.81,2.34,1.89,3.06,2.39,1.21.85,1.25,1,.57,2.91-.94,2.6-.27,3.86,2.67,5,2.52,1,2.67,1.39,1.27,3.07-.94,1.13-1.13,1.14-5.19.42a68.26,68.26,0,0,1-8-2c-3.51-1.17-3.85-1.19-5.14-.35-.76.5-1.38,1.15-1.38,1.45s-.58.55-1.28.55c-1.72,0-2.62,1-2.62,2.92,0,2.07-1.28,2.5-2.82,1-1.18-1.18-1.52-1.22-7.4-.84a36.56,36.56,0,0,0-7.14.91c-1.46.78-1.77,2.49-.8,4.37s.83,2.12-3,3.41c-2.31.77-2.53,1-2.69,2.86s-.42,2.09-2,2.52c-1.32.37-2.07,1.1-2.9,2.82a5.53,5.53,0,0,1-2.17,2.61c-.82.23-1,.64-.73,1.89s.05,1.76-.76,2.27a2.77,2.77,0,0,0-1.08,2.56c0,1.38-.28,2-1.06,2.16a2.56,2.56,0,0,0-1.43,2,5.08,5.08,0,0,1-1.22,2.4c-1,.8-.89,1.46,1.27,11.09a67.35,67.35,0,0,0,2.5,8.8c1.27,2.88,1.33,4.22.22,5.15a3.29,3.29,0,0,0-.84,2.24,2,2,0,0,1-.88,1.88c-1.35.52-1.46.48-4.72-1.6a15.69,15.69,0,0,0-3.77-2c-.55,0-.64-.78-.36-3.26l.37-3.24-2.86-2.57c-4-3.56-7.51-5.23-9.33-4.4a2.86,2.86,0,0,1-3-.21c-2.06-1.07-3-1.06-3.94,0-.52.62-1.25.78-2.52.54s-2.15,0-3.46,1.07c-2.8,2.35-4.58,1.7-4.58-1.67a3.63,3.63,0,0,0-.92-2.23c-1.31-1.31-3.39-.63-6.06,2-1.71,1.67-2.53,2.1-3.51,1.85-1.94-.51-3.46,1.2-3.46,3.86,0,1.87-.15,2.15-1,1.83-2.54-1-3.81-.93-4.84.21-1.53,1.7-2,1.42-1.35-.83s-.06-3.59-1.73-3.59-1.64-.49-.5-3.72c1-2.84,1-3.2.21-4.43a2.89,2.89,0,0,0-2-1.34c-1.1,0-2.79-2.51-2.79-4.14a2.78,2.78,0,0,0-1.32-1.72c-1.57-1-4-.37-4.49,1.23a4.84,4.84,0,0,1-2,2c-.92.52-1.68,1.39-1.68,1.93,0,.76-.15.83-.67.3a6.19,6.19,0,0,0-3.24-.67c-2.29,0-2.9.3-5.71,2.81-3.71,3.31-4.11,4.24-3,7s1.08,2.64-.2,2a4,4,0,0,1-1.43-2.72c-.84-5-3.93-7.61-9.62-8.22-3.17-.34-3.71-.25-4.83.8a4.4,4.4,0,0,1-1.88,1.18c-.93,0-4.06-4.19-4.06-5.45s-2-4-2.79-4c-1,0-3.91,3-4.79,5a7,7,0,0,1-6,3.94,2.56,2.56,0,0,1-2.87-2.09c-.78-2.5-6.06-3.9-7.61-2-.62.75-.6,1.28.11,3.26.82,2.27.8,2.39-.3,2.87a5.25,5.25,0,0,0-2,2.28c-.76,1.6-.94,1.7-1.89,1s-1-.85.7-2.77a7,7,0,0,0,1.75-3c0-1.78-2.36-3.43-4.92-3.43-1.28,0-2.34-.25-2.34-.56s-.48-.56-1.07-.56a3.64,3.64,0,0,1-3.69-2.27c-1.18-2.28-1-4.28.31-4.7,1.09-.35,2.78-2.91,2.78-4.21a5.57,5.57,0,0,0-1.65-2.18c-1.48-1.39-1.6-1.73-1.13-3.43a17.24,17.24,0,0,0,.41-4.34c-.09-2.19.12-2.64,2-4.24a7.06,7.06,0,0,0,2.07-2.41,7.22,7.22,0,0,0-1.59-2.45c-3.08-3.55-3.52-6-2.24-12.33,1.15-5.71-.45-7.4-7.8-8.24a15.6,15.6,0,0,1-4.88-1.12c-1.86-1.55-.36-6.19,2.61-8.07,2-1.27,2.15-1.52,2.3-4.51.22-4.14,1.68-5.36,6.81-5.68,3.06-.19,3.73-.06,4.74,1a4.24,4.24,0,0,1,1.18,2.53c0,2.15,1.41,3.11,4.56,3.11a7.73,7.73,0,0,1,4.28,1c3.14,2.17,3.68,2,6.43-1.73s3.43-4,9.53-2.62c6.52,1.51,11.14,1.33,12.61-.47a11.23,11.23,0,0,0,1.36-4.41,17.3,17.3,0,0,1,1.74-5.51,9.75,9.75,0,0,0,1.34-3.83c0-1.54,0-1.55,2.93-1.22,10.94,1.24,12.34,1,12.39-2.44,0-1.84.15-2,2.08-2.12,2.39-.2,3.6-1.67,4.14-5,.5-3.1.78-3.38,4.09-4.16,2.82-.66,3-.84,4.57-3.88,2.48-4.91,4.19-5.37,9.9-2.67,3.93,1.86,5.43,2,7,.82s3.49-1,5.56.58c4.37,3.33,5.46,1,3.89-8.18-1.09-6.35-1.09-6.69-.15-7.19a5.78,5.78,0,0,1,2.29-.53,5.42,5.42,0,0,0,2.6-.91c1.41-1,1.41-1.55,0-7.57a10.9,10.9,0,0,1-.2-5.25c.75-3,1.84-3.46,5.1-2.33a33.51,33.51,0,0,0,5.9,1.3c3.86.45,6.32,2,7.8,4.84,1.26,2.45,2.35,2.62,6.39,1.05a32,32,0,0,1,4.9-1.44c2.88-.51,6.8-2.79,7.25-4.22.38-1.18,1.65-1.49,2.24-.55a6.45,6.45,0,0,0,2.21,1.34,4.25,4.25,0,0,1,2.23,1.94c.43,1.36,1,1.48,1.93.37a6.26,6.26,0,0,1,3-1.19,19.91,19.91,0,0,0,4.86-1.71c2.16-1.13,2.82-1.23,4.58-.75,2.45.68,2.94,1.27,1.82,2.21a2.51,2.51,0,0,0-.83,1.67c0,1,4,5,5,5,.31,0,.56,1,.56,2.24,0,2.38.52,2.83,4.07,3.59,2.06.44,2.81,2.51,2.34,6.51l-.36,3.14,2.39,1.32C400.7,272.89,401.89,274.19,403.37,276.74Zm66.09-36.87a3.12,3.12,0,0,0-.81,1.9c0,.87-.27,1-1.33.75-.73-.18-1.48-.1-1.66.19s-.94.41-1.68.27c-1-.19-1.45,0-1.72.91a1.65,1.65,0,0,1-1.38,1.17,2.4,2.4,0,0,0-2.13,3.07c.36,1.87-4.14,6.41-6.35,6.41-1.76,0-2.56.85-2.81,3-.16,1.4-.82,1.94-4.89,4a36.1,36.1,0,0,1-5.31,2.43,10.55,10.55,0,0,1-2.72-1.13c-2-1.08-2.19-1.09-3.71-.19a2.85,2.85,0,0,1-3.28.24c-2.34-1-3.2-2.07-4.38-5.61-.85-2.55-1.3-3.14-2.69-3.54a23.19,23.19,0,0,1-3.25-1.26c-2.2-1.09-2.92-1-4.18.61s-2.5,1.73-5.24.59-4.15-.56-5.82,2.3c-1.09,1.86-1.37,2.94-1.13,4.39s.11,1.93-.47,1.93c-.94,0-1.94,1.71-1.94,3.31,0,.86-.36,1.15-1.39,1.15s-1.39-.28-1.39-1.36c0-3.34-1.32-4.77-5.16-5.59-1.36-.29-1.53-.58-1.53-2.53,0-1.72-.27-2.34-1.26-2.85-2-1-4.32-3.42-4.32-4.45a2.49,2.49,0,0,1,.84-1.64c1.15-1,.19-2-2.43-2.77-1.71-.47-2.41-.36-4.54.75a20.65,20.65,0,0,1-4.75,1.71,8,8,0,0,0-3.16,1.24c-.84.75-1,.71-1.58-.37a5.77,5.77,0,0,0-2.52-2,6.49,6.49,0,0,1-2.22-1.35c-.62-1-2-.61-2.59.76-.74,1.62-3.91,3.46-6.91,4a32.49,32.49,0,0,0-4.9,1.44c-3.21,1.25-5.42,1.35-5.42.25s-2.63-4.11-4.39-5a18.67,18.67,0,0,0-4.82-1.17,27.41,27.41,0,0,1-5.44-1.23q-4.24-1.67-5.38,1.61c-.84,2.4-.77,4.8.22,8.06,1.55,5.09,1.12,5.84-3.74,6.63a5.4,5.4,0,0,0-2.31.73,43.5,43.5,0,0,0,.9,6.86c1.62,9.18.82,11.15-3.26,8-2.07-1.58-4-1.78-5.56-.58s-3.1,1-7-.82a17.58,17.58,0,0,0-5-1.67c-2.06,0-4,1.68-5.43,4.84-1.19,2.53-1.47,2.77-4.17,3.4-3.33.79-4,1.49-4.52,4.72-.44,2.77-1.68,4.33-3.43,4.33-2.4,0-3,.58-3,2.78,0,1.71-.23,2.17-1.26,2.44-2.69.72-15.45-.8-17.39-2.08-1.79-1.17-1.81-2.39-.08-5.64a25.82,25.82,0,0,0,2-5.75c.36-1.76,1.42-5.56,2.35-8.45,1.78-5.54,2.19-10.11,1.09-12.12a8.52,8.52,0,0,0-3.32-2.4c-6.5-2.92-6.55-3-6.73-5.12-.15-1.79.05-2.15,1.78-3.17a8.65,8.65,0,0,0,2.83-2.86c.81-1.57.81-1.86,0-3.48a7.06,7.06,0,0,1-.55-4.6c.49-3.82.42-5.47-.24-6.13s-.73-2.18,0-1.76c.28.17,1.27-.33,2.21-1.11,1.4-1.17,2.17-1.4,4.35-1.26l2.65.17.38-2.58a14.94,14.94,0,0,1,1-3.74c.61-1.15.63-1.14,2,.26,1,1,1.81,1.33,2.65,1.12,5.09-1.22,5.21-1.2,8,1.52,3.11,3,4.47,3.25,5.3.88.48-1.37.86-1.66,2.06-1.53s1.68-.25,3.22-3.39l1.74-3.54,7.18-3.6c7.66-3.84,9.7-5.5,9.68-7.9,0-1.19-.61-1.89-2.84-3.35s-2.78-2.08-2.54-3.07c1.06-4.47,1-6.49-.13-8.37a7.86,7.86,0,0,1-1.18-2.78c0-.48,1.31-1.58,2.93-2.46,2.8-1.51,2.92-1.68,2.77-3.64a19.65,19.65,0,0,1,.65-5.17c.87-3.34.53-5.78-1-7.52-.8-.88-.56-1.27,3-4.92,4.19-4.29,5.86-5.08,8.46-4,1.17.48,3.1.58,6.32.32,3.82-.31,4.76-.22,5.35.48,1,1.24,2.51,1.06,5.16-.61a15.85,15.85,0,0,1,6.68-2c4.77-.61,6-.19,6,2s.7,2.55,9.8,4.29c1.78.34,2.52-.32,4.09-3.64,2.2-4.66,3.43-5.32,10-5.32,4.25,0,5.11-.16,6-1.12s1.72-1.12,4.58-1.12c3.7,0,6.4-1,7.32-2.59.36-.64.93-.81,1.91-.57,1.21.3,1.39.65,1.34,2.56a4.49,4.49,0,0,0,1.28,3.63c1.17,1.24,1.36,2,1.48,6.22.16,5.46.79,6.6,4,7.2,1.49.28,2.94,1.36,5.75,4.28l3.77,3.91,2.55-.38c2.43-.36,2.57-.31,2.92,1.09a2.92,2.92,0,0,0,3.53,2.29,1.7,1.7,0,0,1,1.72.53,3.7,3.7,0,0,0,2.48.85c1.81,0,4.83,1.62,3.09,1.66-.47,0-1.3.77-1.85,1.7-.9,1.52-.92,1.84-.16,3.34s.74,1.71-.06,2.16c-.58.32-.86,1.19-.81,2.49a3.45,3.45,0,0,1-.51,2.36c-1,.64-2.73,5.29-2.73,7.52s1,3.32,3.24,3.32a2.63,2.63,0,0,1,1.78.84c.89,1.08,2.17,1.06,3.39,0,.9-.81,5-2.22,8.4-2.86,1-.2,2.13.2,3.8,1.41a13.85,13.85,0,0,0,3.9,2,7.73,7.73,0,0,1,3.14,2,4.45,4.45,0,0,0,4,1.65c2.68,0,3.69.82,1.64,1.34-1.82.46-2.13,1.76-1.67,7l.39,4.47,2.44,1.08c1.34.59,2.44,1.3,2.44,1.57s1.31,1.34,2.9,2.38a32.87,32.87,0,0,1,3.91,2.88,3.35,3.35,0,0,0,1.7,1c.38,0,1,.66,1.37,1.46C470.14,238.79,470.12,239.2,469.45,239.87Z"/><path class="cls-2" d="M89.45,308.53a8.35,8.35,0,0,0-8.35,8.35c0,4.61,8.35,16.5,8.35,16.5s8.35-11.89,8.35-16.5A8.35,8.35,0,0,0,89.45,308.53Zm.2,12.63a4.07,4.07,0,1,1,4.07-4.07A4.07,4.07,0,0,1,89.65,321.16Z"/><path class="cls-2" d="M139.57,304.35a8.35,8.35,0,0,0-8.35,8.35c0,4.61,8.35,16.5,8.35,16.5s8.35-11.89,8.35-16.5A8.35,8.35,0,0,0,139.57,304.35Zm.2,12.63a4.07,4.07,0,1,1,4.07-4.07A4.07,4.07,0,0,1,139.77,317Z"/><path class="cls-2" d="M145.53,250.69a8.35,8.35,0,0,0-8.35,8.35c0,4.61,8.35,16.5,8.35,16.5s8.35-11.89,8.35-16.5A8.35,8.35,0,0,0,145.53,250.69Zm.2,12.63a4.07,4.07,0,1,1,4.07-4.07A4.07,4.07,0,0,1,145.74,263.32Z"/><path class="cls-2" d="M217.15,314a8.35,8.35,0,0,0-8.35,8.35c0,4.61,8.35,16.5,8.35,16.5s8.35-11.89,8.35-16.5A8.35,8.35,0,0,0,217.15,314Zm.2,12.63a4.07,4.07,0,1,1,4.07-4.07A4.07,4.07,0,0,1,217.36,326.58Z"/><path class="cls-2" d="M89.46,223a8.35,8.35,0,0,0-8.35,8.35c0,4.61,8.35,16.5,8.35,16.5s8.35-11.89,8.35-16.5A8.35,8.35,0,0,0,89.46,223Zm.2,12.63a4.07,4.07,0,1,1,4.07-4.07A4.07,4.07,0,0,1,89.67,235.63Z"/><path class="cls-2" d="M203.81,252.78a8.35,8.35,0,0,0-8.35,8.35c0,4.61,8.35,16.5,8.35,16.5s8.35-11.89,8.35-16.5A8.35,8.35,0,0,0,203.81,252.78Zm.2,12.63a4.07,4.07,0,1,1,4.07-4.07A4.07,4.07,0,0,1,204,265.42Z"/><path class="cls-2" d="M192.08,207.74a8.35,8.35,0,0,0-8.35,8.35c0,4.61,8.35,16.5,8.35,16.5s8.35-11.89,8.35-16.5A8.35,8.35,0,0,0,192.08,207.74Zm.2,12.63a4.07,4.07,0,1,1,4.07-4.07A4.07,4.07,0,0,1,192.28,220.38Z"/><path class="cls-2" d="M221.55,183.35a8.35,8.35,0,0,0-8.35,8.35c0,4.61,8.35,16.5,8.35,16.5s8.35-11.89,8.35-16.5A8.35,8.35,0,0,0,221.55,183.35Zm.2,12.63a4.07,4.07,0,1,1,4.07-4.07A4.07,4.07,0,0,1,221.76,196Z"/><path class="cls-2" d="M242.83,234.25a8.35,8.35,0,0,0-8.35,8.35c0,4.61,8.35,16.5,8.35,16.5s8.35-11.89,8.35-16.5A8.35,8.35,0,0,0,242.83,234.25Zm.2,12.63a4.07,4.07,0,1,1,4.07-4.07A4.07,4.07,0,0,1,243,246.89Z"/><path class="cls-2" d="M316.91,207.12a8.35,8.35,0,0,0-8.35,8.35c0,4.61,8.35,16.5,8.35,16.5s8.35-11.89,8.35-16.5A8.35,8.35,0,0,0,316.91,207.12Zm.2,12.63a4.07,4.07,0,1,1,4.07-4.07A4.07,4.07,0,0,1,317.11,219.76Z"/><path class="cls-2" d="M208.8,130.21a8.35,8.35,0,0,0-8.35,8.35c0,4.61,8.35,16.5,8.35,16.5s8.35-11.89,8.35-16.5A8.35,8.35,0,0,0,208.8,130.21Zm.2,12.63a4.07,4.07,0,1,1,4.07-4.07A4.07,4.07,0,0,1,209,142.84Z"/><path class="cls-2" d="M323.4,91.12A8.35,8.35,0,0,0,315,99.47c0,4.61,8.35,16.5,8.35,16.5s8.35-11.89,8.35-16.5A8.35,8.35,0,0,0,323.4,91.12Zm.2,12.63a4.07,4.07,0,1,1,4.07-4.07A4.07,4.07,0,0,1,323.6,103.75Z"/><path class="cls-2" d="M264.09,81.09a8.35,8.35,0,0,0-8.35,8.35c0,4.61,8.35,16.5,8.35,16.5s8.35-11.89,8.35-16.5A8.35,8.35,0,0,0,264.09,81.09Zm.2,12.63a4.07,4.07,0,1,1,4.07-4.07A4.07,4.07,0,0,1,264.29,93.73Z"/><path class="cls-2" d="M342.08,151.71a8.35,8.35,0,0,0-8.35,8.35c0,4.61,8.35,16.5,8.35,16.5s8.35-11.89,8.35-16.5A8.35,8.35,0,0,0,342.08,151.71Zm.2,12.63a4.07,4.07,0,1,1,4.07-4.07A4.07,4.07,0,0,1,342.28,164.34Z"/><path class="cls-2" d="M394.08,193.71a8.35,8.35,0,0,0-8.35,8.35c0,4.61,8.35,16.5,8.35,16.5s8.35-11.89,8.35-16.5A8.35,8.35,0,0,0,394.08,193.71Zm.2,12.63a4.07,4.07,0,1,1,4.07-4.07A4.07,4.07,0,0,1,394.28,206.34Z"/><path class="cls-2" d="M161.85,159.07a8.35,8.35,0,0,0-8.35,8.35c0,4.61,8.35,16.5,8.35,16.5s8.35-11.89,8.35-16.5A8.35,8.35,0,0,0,161.85,159.07Zm.2,12.63a4.07,4.07,0,1,1,4.07-4.07A4.07,4.07,0,0,1,162.05,171.7Z"/><path class="cls-2" d="M250.36,188.9a8.35,8.35,0,0,0-8.35,8.35c0,4.61,8.35,16.5,8.35,16.5s8.35-11.89,8.35-16.5A8.35,8.35,0,0,0,250.36,188.9Zm.2,12.63a4.07,4.07,0,1,1,4.07-4.07A4.07,4.07,0,0,1,250.57,201.54Z"/><path class="cls-2" d="M280.62,137.57a8.35,8.35,0,0,0-8.35,8.35c0,4.61,8.35,16.5,8.35,16.5s8.35-11.89,8.35-16.5A8.35,8.35,0,0,0,280.62,137.57Zm.2,12.63a4.07,4.07,0,1,1,4.07-4.07A4.07,4.07,0,0,1,280.83,150.21Z"/></g></svg>