<svg xmlns="http://www.w3.org/2000/svg" width="18" height="18" viewBox="0 0 18 18"><defs><style>.cls-1{fill:#3dd89d;}</style></defs><title>xx</title><g id="Layer_2" data-name="Layer 2"><path class="cls-1" d="M0,4.1c0-.27.08-.54.13-.81A4.21,4.21,0,0,1,1.27,1.13L2.32.08l.43.66L4.87,4c.16.24.31.49.47.72a.21.21,0,0,1,0,.22c-.27.72-.54,1.44-.81,2.16a.37.37,0,0,0,0,.34,14.65,14.65,0,0,0,2.19,2.95A14.54,14.54,0,0,0,8.87,12.3c.49.35,1,.65,1.51,1a.27.27,0,0,0,.21,0l2.2-.82a.27.27,0,0,1,.27,0l4,2.56.68.44-.41.41c-.35.34-.69.7-1.07,1a4.1,4.1,0,0,1-1.95.82l-.56.09h-.91l-.08,0a10.28,10.28,0,0,1-3.5-1,16,16,0,0,1-3.09-2,19.8,19.8,0,0,1-2.53-2.41A18.14,18.14,0,0,1,1.83,10,14,14,0,0,1,.63,7.61a9.17,9.17,0,0,1-.5-1.78c0-.29-.09-.59-.13-.88Z"/><path class="cls-1" d="M17.74,9.31H16.33A7.87,7.87,0,0,0,8.5,1.48V.07h.57l.61.08a9.05,9.05,0,0,1,4.61,2,9.1,9.1,0,0,1,2.5,3.12,8.8,8.8,0,0,1,.86,2.9c0,.22.06.44.08.66Z"/><path class="cls-1" d="M14.87,9.29H13.48a5,5,0,0,0-5-5V2.92A6.3,6.3,0,0,1,13,4.78,6.21,6.21,0,0,1,14.87,9.29Z"/><path class="cls-1" d="M8.52,5.78A3.49,3.49,0,0,1,12,9.29H10.77c-.1,0-.14,0-.14-.13a2.12,2.12,0,0,0-2-2c-.07,0-.13,0-.13-.1,0-.42,0-.83,0-1.25A.24.24,0,0,1,8.52,5.78Z"/></g></svg>