<svg xmlns="http://www.w3.org/2000/svg" width="68" height="94" viewBox="0 0 68 94"><defs><style>.cls-1,.cls-2{fill:none;stroke-miterlimit:10;}.cls-1{stroke:#231f20;stroke-width:3px;}.cls-2{stroke:#ccc;stroke-width:4px;}.cls-3{fill:#3dd89d;}</style></defs><title>xx</title><g id="Layer_2" data-name="Layer 2"><path class="cls-1" d="M66.5,35.5c0,6.05.27,11,0,17-.37,8.23-3.21,14.53-8.57,20.72-6.38,7.37-14.15,13-22.16,18.38a3.65,3.65,0,0,1-3.29.11C24.14,86.14,16,80.29,9.51,72.45a32.42,32.42,0,0,1-8-21.95c0-11.31,0-22.69,0-34,0-2.15.23-2.6,2-2.6C14.21,14,23.23,9.66,31.23,2.72a4.32,4.32,0,0,1,5.6,0c5.76,4.86,12,8.9,19.48,10.3a70.42,70.42,0,0,0,7.81.87A2.39,2.39,0,0,1,66.5,16.5C66.51,22.39,66.49,35.5,66.5,35.5Z"/><path class="cls-2" d="M52.3,22.3A46.39,46.39,0,0,1,34,13,44.71,44.71,0,0,1,10,23c0,.86,0,1.36,0,2,0,8.61.07,17.39,0,26a23.54,23.54,0,0,0,3.93,12.91C19,71.8,26.57,76,34,81.35c1.26-.89,2.46-1.69,3.61-2.54,5.81-4.3,11.53-7.7,15.77-13.69C55.91,61.56,57.91,57.34,58,53c.1-4.58,0-7.41,0-12"/><path class="cls-3" d="M55.21,25.23,34.29,45.17l-7.92-8.23-6,6.18,14.2,14.27,26-26.09C58.39,29.21,55.21,25.23,55.21,25.23Z"/></g></svg>