<svg xmlns="http://www.w3.org/2000/svg" width="105" height="105" viewBox="0 0 105 105"><defs><style>.cls-1,.cls-2,.cls-3,.cls-5{fill:none;stroke-miterlimit:10;}.cls-1,.cls-2,.cls-3{stroke:#ccc;stroke-width:4px;}.cls-2{opacity:0.9;}.cls-3{stroke-dasharray:2.01 2 0.02 2 2.01 0;}.cls-4{fill:#3dd89d;}.cls-5{stroke:#231f20;stroke-width:3px;}</style></defs><title>xx</title><g id="Layer_2" data-name="Layer 2"><path class="cls-1" d="M42.82,26.67c.55-.37,13.1-2.51,18.29,1.08,2.2,1.52,8.72-.59,10.78,2.56.1.16.25.29.35.45a2,2,0,0,0,2.21.89c1.14-.13,1.13-2.19,2.06-1.83"/><path class="cls-1" d="M66.09,75.15a11.28,11.28,0,0,0,5-1.81c.73-.44.72-1,0-1.54a2.11,2.11,0,0,0-2.49-.12,4.29,4.29,0,0,1-2.3.57"/><path class="cls-2" d="M41.24,65.8a9.14,9.14,0,0,0-1.91-.11c-2.76.19-2.45-.44-2.78-3.18-.22-1.87-.86-3,1.51-2.45a4.63,4.63,0,0,0,3.13-.46L45,57.85a4.23,4.23,0,0,0-2.51-.33,20.24,20.24,0,0,1-3,.31,1.56,1.56,0,0,1-1.59-1.25A2.16,2.16,0,0,1,39,54a8.82,8.82,0,0,1,1.45-.49c.61-.19.67-.44.21-.89a1.25,1.25,0,0,0-1.5-.17A5.26,5.26,0,0,1,34,51.74c-1.44-1-2.88-1.9-4.26-2.94a7,7,0,0,0-5.56-1.35c-.82.14-1.66.22-2.48.33C20,48,19.63,48.33,19.23,50a6,6,0,0,1-2.51,3.64,7.82,7.82,0,0,0-1.1.81c-.86.86-1.77,1.73-1.61,3.11A36.9,36.9,0,0,0,16.48,67a1.16,1.16,0,0,0,.72.66c1.87.25,3.25,1.39,4.64,2.49,1.69,1.34,3.31,2.76,5,4.07,1.1.84,1.68.66,2.25-.6A23.3,23.3,0,0,0,30,71.1c.34-1.09.78,0,1.7-.73,1.31-1.1,3.19,0,4.29,1.32.69.82,1.52.25,2.5.62,1.26.48,2.31-.93,3.19.12a12.21,12.21,0,0,0,2,1.83c1.07.8,1.51.59,2-.64.62-1.46,1.27-.77,2.07-2.14"/><path class="cls-3" d="M89,19.08A48.59,48.59,0,0,1,101.46,45.2c.21,1.4.36,2.81.54,4.21v6.19c-.09.73-.19,1.46-.27,2.2A48.93,48.93,0,0,1,86.81,88.11a48.48,48.48,0,0,1-25.58,13.1c-1.86.34-3.76.53-5.64.79H49.41c-.38-.06-.76-.16-1.14-.19a48,48,0,0,1-18.8-5.48A49.78,49.78,0,0,1,3.57,60c-.23-1.46-.38-2.93-.57-4.4V49.41c.08-.67.17-1.34.25-2A48.94,48.94,0,0,1,18.6,16.48,48.36,48.36,0,0,1,44,3.76c1.8-.32,3.63-.51,5.45-.76h6.19c1.82.24,3.65.42,5.45.74A48.75,48.75,0,0,1,89,19.08"/><path class="cls-4" d="M45.24,31.57c1.26-.7,2.48-.2,3.71.11L59.64,34.4,69.87,37l5.6,1.43a2.58,2.58,0,0,0,2.6-.86L89.41,26.24a8.05,8.05,0,0,1,4.48-2.46,4.91,4.91,0,0,1,3.89.78,4.28,4.28,0,0,1,1.84,4.1,8.58,8.58,0,0,1-2.54,5.4c-3.75,3.69-7.44,7.44-11.17,11.14A2.91,2.91,0,0,0,85,48.29c1.07,4,2.07,8,3.1,12.06q1.6,6.29,3.19,12.58c.19.73.34,1.47.56,2.19a4.14,4.14,0,0,1,0,3l-4,4c-.85.17-1.18,0-1.67-1l-4.27-8.38L75.48,60.06c-.31-.61-.61-1.22-.95-1.82s-.72-.64-1.27-.29a2.65,2.65,0,0,0-.45.36l-8.89,8.89A3,3,0,0,0,63,70.08c.21,1.12.39,2.24.57,3.37a2.59,2.59,0,0,1-.47,2.24c-.85,1-1.77,1.84-2.69,2.73a.88.88,0,0,1-1.31-.08,2.3,2.3,0,0,1-.33-.47q-2-3.56-3.93-7.14a5,5,0,0,0-2-2.07l-4.1-2.25c-1.15-.63-2.31-1.26-3.44-1.91a1,1,0,0,1-.23-1.76c.79-.8,1.58-1.59,2.4-2.36a2.19,2.19,0,0,1,1.83-.63c1.28.17,2.57.35,3.84.58a3.2,3.2,0,0,0,3.06-1Q60.61,55,65,50.68a2.79,2.79,0,0,0,.46-.57A.85.85,0,0,0,65,48.77L60.75,46.6,49.47,40.85c-2.46-1.26-4.93-2.51-7.39-3.77-.8-.41-.94-.74-.78-1.56Z"/><path class="cls-5" d="M92.88,43.25q.35,1.54.59,3.14c.18,1.17.3,2.35.45,3.52v5.18c-.08.61-.16,1.23-.23,1.84a46,46,0,0,1-.82,4.8M82.65,80.85q-.7.74-1.43,1.45a40.58,40.58,0,0,1-21.41,11c-1.56.28-3.14.44-4.72.66H49.91c-.32-.05-.63-.13-1-.16a40.18,40.18,0,0,1-15.73-4.59A41.67,41.67,0,0,1,11.55,58.77c-.19-1.22-.32-2.46-.48-3.68V49.91c.07-.56.14-1.12.21-1.68A41,41,0,0,1,24.12,22.35,40.47,40.47,0,0,1,45.35,11.7c1.51-.27,3-.43,4.56-.63h5.18c1.52.2,3.05.35,4.56.62A40.8,40.8,0,0,1,83,24.53q.68.74,1.32,1.51"/></g></svg>