<svg xmlns="http://www.w3.org/2000/svg" width="99" height="95" viewBox="0 0 99 95"><defs><style>.cls-1,.cls-3,.cls-4{fill:none;stroke-miterlimit:10;}.cls-1{stroke:#231f20;}.cls-1,.cls-3{stroke-width:3px;}.cls-2{fill:#3dd89d;}.cls-3{stroke:#3dd89d;}.cls-4{stroke:#ccc;stroke-width:4px;}</style></defs><title>xx</title><g id="Layer_2" data-name="Layer 2"><polyline class="cls-1" points="7 36.5 1.5 36.5 1.5 93.5 97.5 93.5 97.5 36.5 92 36.5"/><polyline class="cls-1" points="29.63 25.8 6.5 23.39 6.5 82.45 49.45 86.03 91.5 83.34 91.5 23.39 67.51 25.95"/><line class="cls-1" x1="49.5" y1="60" x2="49.5" y2="86"/><path class="cls-2" d="M64.17,25.69A14.71,14.71,0,0,0,45,11.69a14.23,14.23,0,0,0-9.6,9.75A14.71,14.71,0,0,0,44,39.28v4.66c1.38.48,4,2.06,5.42,1.92,1.89-.1,4.45-1.52,5.58-1.92V39.28A14.66,14.66,0,0,0,64.17,25.69Z"/><line class="cls-3" x1="45" y1="48.5" x2="54" y2="48.5"/><line class="cls-3" x1="44" y1="52.5" x2="55" y2="52.5"/><line class="cls-3" x1="46" y1="56.5" x2="53" y2="56.5"/><line class="cls-3" x1="24.65" y1="18.2" x2="31.78" y2="20.87"/><line class="cls-3" x1="32.67" y1="4.84" x2="38.01" y2="11.97"/><line class="cls-3" x1="49.5" x2="49.5" y2="8"/><line class="cls-3" x1="67.4" y1="5.73" x2="61.61" y2="11.52"/><line class="cls-3" x1="74.52" y1="18.2" x2="67.4" y2="20.87"/><line class="cls-4" x1="62.05" y1="38.68" x2="84.31" y2="36.9"/><line class="cls-4" x1="57.6" y1="47.59" x2="84.31" y2="45.8"/><line class="cls-4" x1="57.6" y1="56.57" x2="84.31" y2="54.79"/><line class="cls-4" x1="57.6" y1="65.48" x2="84.31" y2="63.69"/><line class="cls-4" x1="57.6" y1="73.93" x2="84.31" y2="72.15"/><line class="cls-4" x1="37.12" y1="38.68" x2="14.86" y2="36.9"/><line class="cls-4" x1="41.57" y1="47.59" x2="14.86" y2="45.8"/><line class="cls-4" x1="41.57" y1="56.57" x2="14.86" y2="54.79"/><line class="cls-4" x1="41.57" y1="65.48" x2="14.86" y2="63.69"/><line class="cls-4" x1="41.57" y1="73.93" x2="14.86" y2="72.15"/></g></svg>