<svg xmlns="http://www.w3.org/2000/svg" width="92" height="91" viewBox="0 0 92 91"><defs><style>.cls-1,.cls-3{fill:none;stroke-miterlimit:10;}.cls-1{stroke:#231f20;stroke-width:3px;}.cls-2{fill:#3dd89d;}.cls-3{stroke:#ccc;stroke-width:4px;opacity:0.9;}</style></defs><title>xx</title><g id="Layer_2" data-name="Layer 2"><path class="cls-1" d="M53.41,64.18A15.2,15.2,0,0,0,54.6,65.7C61.29,72.41,68,79.08,74.67,85.82a8.79,8.79,0,0,0,8.69,2.61,8.68,8.68,0,0,0,6.55-6.75,8.35,8.35,0,0,0-1.72-7.27,18.15,18.15,0,0,0-1.41-1.53L67,53.13c-.27-.27-.5-.67-.83-.79a1.58,1.58,0,0,0-1.26,0,21.75,21.75,0,0,0-2,2q-4.29,4.29-8.58,8.58c-.44.44-.94.83-1.41,1.24"/><path class="cls-1" d="M47.89,61.12a9.81,9.81,0,0,0,2-1.19q5.81-5.71,11.53-11.51c1.29-1.3,1.41-2.2.59-3.29a2,2,0,0,0-3.17-.34c-1.21,1.14-2.35,2.35-3.53,3.52l-8.46,8.35c-.14.14-.23.32-.36.47-1.63,1.84-1.11,3.44,1.29,4"/><path class="cls-1" d="M40,33.21c-1.2.15-1.08.77-2-.15-4.52-4.64-10.12-10.22-14.73-14.77a21.81,21.81,0,0,1-4.64-7.44,7.57,7.57,0,0,0-3.56-4.37c-2.59-1.33-5-3-7.55-4.41-1.12-.63-1.45-.87-2.58.33-.46.48-.92,1-1.41,1.41a1.35,1.35,0,0,0-.25,2c1.86,3,3.68,6.07,5.4,9.17.84,1.5,2.4,1.69,3.69,2.3A25.38,25.38,0,0,1,19.86,22C24.4,26.59,30,32.1,34.46,36.71a3.27,3.27,0,0,0,3,1.15"/><path class="cls-2" d="M82.23,25.73c-3.25,2.62-6.53,3.18-10,1.72a3.06,3.06,0,0,0-3.87.89,4.84,4.84,0,0,1-.4.4L29.61,67.06c-1.34,1.34-1.35,2.09-.69,3.67a10,10,0,0,1,.43,6,11.08,11.08,0,0,1-4.45,7c-2.95,2.13-5.44,2.59-8,1.49a3.48,3.48,0,0,1,.26-.61c.55-.92,1.11-1.83,1.68-2.73.46-.73.91-1.47,1.36-2.21,1.93-3.19,1.6-5.49-1.14-7.95a11.12,11.12,0,0,0-5.66-3C11,68.36,9,69.35,7.59,71.71c-.83,1.4-1.78,2.88-2.91,4.52a5.24,5.24,0,0,1-.79.82h0l0,0c-1-.87-1.52-2.25-1.54-4.47a14.61,14.61,0,0,1,4-10.47c3-3.16,7.52-4.26,11.08-2.69a3.09,3.09,0,0,0,3.85-.8c4.08-4.18,8.31-8.38,12-12q3.39-3.36,6.8-6.7,4.6-4.52,9.17-9.06c1.87-1.86,3.71-3.75,5.54-5.64s3.44-3.53,5.17-5.27a3.17,3.17,0,0,0,.67-4,4.69,4.69,0,0,1-.39-1.45,11.57,11.57,0,0,1,4-11,8.59,8.59,0,0,1,7.17-2.27,6.43,6.43,0,0,1,1.39.33,6.16,6.16,0,0,1-.66,1.21l-.51.79C70.73,5,69.8,6.45,69,7.92a5.16,5.16,0,0,0,.55,6.18,12.49,12.49,0,0,0,5.59,3.74,5.47,5.47,0,0,0,6.73-2.21l.34-.6A9.45,9.45,0,0,1,82.84,14,18.92,18.92,0,0,0,84,12.19a10.07,10.07,0,0,1,1.76-2.38,2.47,2.47,0,0,0,.27.13l.14.27.19.36a7.74,7.74,0,0,1,1,4.16C87.17,19.49,85.5,23.1,82.23,25.73Z"/><path class="cls-3" d="M86.21,79.58a2,2,0,0,1-1.78-.69C78.22,72.63,72,66.42,65.76,60.17A5.85,5.85,0,0,1,65,59"/><path class="cls-3" d="M81,84.16a15.22,15.22,0,0,0-1.18-1.52q-9.5-9.54-19-19"/><path class="cls-1" d="M39.19,34.33V36"/></g></svg>