<svg xmlns="http://www.w3.org/2000/svg" width="16" height="17" viewBox="0 0 16 17"><defs><style>.cls-1{fill:#3dd89d;}</style></defs><title>xx</title><g id="Layer_2" data-name="Layer 2"><path class="cls-1" d="M15.45,9.67a.26.26,0,0,1,0-.14c0-.41.08-.82.12-1.16s0-.68-.07-1a7.37,7.37,0,0,0-.75-2.48,7.47,7.47,0,0,0-2.66-3,7.37,7.37,0,0,0-3-1.11A7.54,7.54,0,0,0,7,.83.88.88,0,0,1,6.48.78,4.33,4.33,0,0,0,3.15.5a4.37,4.37,0,0,0-2.51,2A4.33,4.33,0,0,0,0,4.52,4.45,4.45,0,0,0,.55,6.93a.2.2,0,0,1,0,.12,7.81,7.81,0,0,0,0,2.23A7.3,7.3,0,0,0,1.42,12,7.44,7.44,0,0,0,4.8,15.1a7.53,7.53,0,0,0,4.4.62.32.32,0,0,1,.18,0,4.45,4.45,0,0,0,3.45.34,4.47,4.47,0,0,0,3.15-4A4.42,4.42,0,0,0,15.45,9.67Zm-3.94,1.45a2.6,2.6,0,0,1-1.34,1.36,4.46,4.46,0,0,1-1.72.41l-.37,0A5.85,5.85,0,0,1,6,12.57a3,3,0,0,1-1.35-1,1.58,1.58,0,0,1-.35-.9A.8.8,0,0,1,5,9.86a.85.85,0,0,1,.88.28c.16.19.32.39.47.59a1.94,1.94,0,0,0,1.38.73,2.51,2.51,0,0,0,1-.07,1.52,1.52,0,0,0,.82-.54.87.87,0,0,0-.37-1.39,7.12,7.12,0,0,0-.87-.25L6.17,8.66a3,3,0,0,1-.9-.43,2,2,0,0,1-.86-1.3,2.75,2.75,0,0,1,.13-1.58A2.41,2.41,0,0,1,5.87,4.06a4.72,4.72,0,0,1,1.65-.37A5,5,0,0,1,10,4.16,2.74,2.74,0,0,1,11.06,5a1.26,1.26,0,0,1,.27.67.78.78,0,0,1-.71.84,1,1,0,0,1-1-.44,2.18,2.18,0,0,0-.91-.71,2.62,2.62,0,0,0-1.59-.08,1,1,0,0,0-.79.79.7.7,0,0,0,.29.75,2.35,2.35,0,0,0,.87.35l2.09.48a3.07,3.07,0,0,1,1.48.78,2.2,2.2,0,0,1,.64,1.42A2.72,2.72,0,0,1,11.51,11.12Z"/></g></svg>