<svg xmlns="http://www.w3.org/2000/svg" width="35" height="38" viewBox="0 0 35 38"><defs><style>.cls-1{fill:#fff;}</style></defs><title>xx</title><g id="Layer_2" data-name="Layer 2"><path class="cls-1" d="M13.24,27.31A13.89,13.89,0,0,1,13.91,20a22.48,22.48,0,0,1,2-4,25.49,25.49,0,0,0,3-6.58,8.73,8.73,0,0,0-.4-6.24c-.22-.46-.53-.87-.78-1.32a1.85,1.85,0,0,1-.12-.41,1.3,1.3,0,0,1,.46,0,6.55,6.55,0,0,1,3,2.21,8.74,8.74,0,0,1,1.81,4.83,16.33,16.33,0,0,1-2.39,9.32A36.32,36.32,0,0,0,18,22.44a11.61,11.61,0,0,0,.48,10c.46.86,1.07,1.65,1.6,2.48a1.53,1.53,0,0,1,.12.41,1.1,1.1,0,0,1-.42,0,10.88,10.88,0,0,1-6.24-7C13.48,28.26,13.3,27.59,13.24,27.31Z"/><path class="cls-1" d="M24.07,27.31A13.89,13.89,0,0,1,24.74,20a22.48,22.48,0,0,1,2-4,25.49,25.49,0,0,0,3-6.58,8.73,8.73,0,0,0-.4-6.24c-.22-.46-.53-.87-.78-1.32a1.85,1.85,0,0,1-.12-.41,1.3,1.3,0,0,1,.46,0,6.55,6.55,0,0,1,3,2.21,8.74,8.74,0,0,1,1.81,4.83,16.33,16.33,0,0,1-2.39,9.32,36.32,36.32,0,0,0-2.4,4.69,11.61,11.61,0,0,0,.48,10c.46.86,1.07,1.65,1.6,2.48a1.53,1.53,0,0,1,.12.41,1.1,1.1,0,0,1-.42,0,10.88,10.88,0,0,1-6.24-7C24.3,28.26,24.12,27.59,24.07,27.31Z"/><path class="cls-1" d="M2.4,27.31A13.89,13.89,0,0,1,3.07,20a22.48,22.48,0,0,1,2-4A25.49,25.49,0,0,0,8,9.38a8.73,8.73,0,0,0-.4-6.24c-.22-.46-.53-.87-.78-1.32a1.85,1.85,0,0,1-.12-.41,1.3,1.3,0,0,1,.46,0,6.55,6.55,0,0,1,3,2.21,8.74,8.74,0,0,1,1.81,4.83,16.33,16.33,0,0,1-2.39,9.32,36.32,36.32,0,0,0-2.4,4.69,11.61,11.61,0,0,0,.48,10c.46.86,1.07,1.65,1.6,2.48a1.53,1.53,0,0,1,.12.41,1.1,1.1,0,0,1-.42,0,10.88,10.88,0,0,1-6.24-7C2.64,28.26,2.46,27.59,2.4,27.31Z"/></g></svg>