<svg xmlns="http://www.w3.org/2000/svg" width="41" height="35" viewBox="0 0 41 35"><defs><style>.cls-1{fill:#fff;}</style></defs><title>xx</title><g id="Layer_2" data-name="Layer 2"><path class="cls-1" d="M7.63,19.21H6.33a8.58,8.58,0,0,0-3.65-.55,1.3,1.3,0,1,1,0-2.6c1.54,0,3.07,0,4.61.14h.35a1,1,0,0,0-.22-.38l-2.59-2.6a1.23,1.23,0,0,1-.33-1.28,1.24,1.24,0,0,1,1-.92,1.32,1.32,0,0,1,1.24.42c1.45,1.46,2.91,2.92,4.36,4.38a.77.77,0,0,0,.61.25h3.54l3.05,0,.18,0-.14-.27L15,10.09a.58.58,0,0,0-.39-.29l-6-1.59A1.34,1.34,0,0,1,7.54,7,1.3,1.3,0,0,1,9.18,5.65l3.5.92.38.09-.16-.29c-.77-1.33-1.54-2.66-2.3-4a1.31,1.31,0,0,1,.79-2,1.34,1.34,0,0,1,1.49.72l1.78,3.09.67,1.15.44-1.62c.2-.74.39-1.48.6-2.22A1.28,1.28,0,0,1,18,.58a1.26,1.26,0,0,1,.94,1.55c-.45,1.73-.92,3.45-1.38,5.17-.1.37-.2.73-.29,1.1a.47.47,0,0,0,0,.31q1.7,3,3.41,5.92l.09.11.17-.26c1.08-1.87,2.16-3.75,3.25-5.62a.72.72,0,0,0,.08-.61c-.54-2-1.08-4-1.62-6A1.31,1.31,0,0,1,23,.86,1.24,1.24,0,0,1,24.28.6a1.29,1.29,0,0,1,.87,1c.31,1.15.62,2.3.93,3.44,0,.09.05.18.1.32l.2-.32,2.26-3.92A1.31,1.31,0,0,1,29.71.39,1.21,1.21,0,0,1,30.9,1a1.26,1.26,0,0,1,0,1.37c-.57,1-1.15,2-1.72,3l-.76,1.33.26,0,3.6-.95A1.3,1.3,0,1,1,33,8.17c-1.92.52-3.84,1-5.77,1.53a1.34,1.34,0,0,0-.92.71c-1,1.8-2.05,3.57-3.08,5.36l-.16.29H29.9a.58.58,0,0,0,.45-.19c.69-.69,1.39-1.36,2.08-2s1.58-1.61,2.38-2.41a1.27,1.27,0,0,1,1.8-.12,1.29,1.29,0,0,1,.08,1.92l-2.6,2.59a1,1,0,0,1-.25.13.46.46,0,0,1,.09.26h.28c1.56-.14,3.12-.15,4.68-.14a1.29,1.29,0,0,1,1.26,1,1.27,1.27,0,0,1-.72,1.43,1.61,1.61,0,0,1-.62.13,13.63,13.63,0,0,0-4.61.55h-.33c.1-.44.15-.38.21-.32.87.88,1.74,1.75,2.61,2.63a1.3,1.3,0,0,1-.59,2.18,1.32,1.32,0,0,1-1.32-.41c-1.45-1.46-2.91-2.92-4.36-4.39a.77.77,0,0,0-.61-.25,26.24,26.24,0,0,0-6.44.55H23c.07-.42.11-.34.15-.26q1.64,2.83,3.27,5.67a.67.67,0,0,0,.45.34l6,1.61a1.31,1.31,0,1,1-.68,2.52c-1.15-.32-2.31-.62-3.47-.93l-.33-.08.15.28c.72,1.25,1.45,2.49,2.15,3.74a1.88,1.88,0,0,1,.35,1,1.3,1.3,0,0,1-1.88,1.09,1.58,1.58,0,0,1-.65-.68c-.76-1.3-1.51-2.61-2.26-3.92l-.14-.2c0,.12-.07.21-.09.29-.32,1.18-.64,2.36-1,3.54a1.27,1.27,0,0,1-1.37.94,1.24,1.24,0,0,1-1.16-1.1,1.65,1.65,0,0,1,.06-.63c.54-2,1.09-4,1.63-6.07a.56.56,0,0,0,0-.38q-1.68-2.93-3.37-5.85L20.75,20l-.16.25L17.3,25.94a.61.61,0,0,0-.07.51c.55,2,1.09,4,1.64,6a1.29,1.29,0,0,1-.35,1.38,1.25,1.25,0,0,1-1.3.27,1.23,1.23,0,0,1-.84-.9l-1-3.52-.09-.31-.18.28-2.3,4a1.27,1.27,0,0,1-1.64.6,1.29,1.29,0,0,1-.63-1.87c.69-1.21,1.39-2.41,2.08-3.61l.4-.71-.34.08-3.49.94a1.31,1.31,0,0,1-1.55-.67A1.28,1.28,0,0,1,8,26.83a1.68,1.68,0,0,1,.56-.26l6-1.61a.72.72,0,0,0,.49-.37c1.07-1.86,2.14-3.72,3.22-5.58l.19-.34c-.13,0-.23,0-.32.53H12.52a1,1,0,0,0-1-.54.42.42,0,0,0-.26.08c-.24.23-.47.48-.7.72l-.87.88L8.51,21.49c-.65.65-1.28,1.33-2,2a1.25,1.25,0,0,1-1.75-.1,1.28,1.28,0,0,1,0-1.82l2.64-2.66S7.54,18.77,7.63,19.21Z"/></g></svg>