<svg xmlns="http://www.w3.org/2000/svg" width="41" height="43" viewBox="0 0 41 43"><defs><style>.cls-1{fill:none;stroke:#fff;stroke-miterlimit:10;stroke-width:2px;}</style></defs><title>xx</title><g id="Layer_2" data-name="Layer 2"><path class="cls-1" d="M24,26.84V40.46s-.38,1.06-1,1.06H3c-.53,0-.68-.18-.68-.68q0-7.16,0-14.32A.67.67,0,0,1,3,25.85c2.6,0,6.95,0,9.56,0a3.87,3.87,0,0,0,1.7-.44c1.18-.53,2.34-1.1,3.5-1.67s2.08-1.06,3.13-1.59q.71-.36,1.43-.69A3,3,0,0,1,24,21.6v5.24Z"/><path class="cls-1" d="M15.21,41.28c0,.74,0,.76.77.23,0,0,21.55.23,24.13.23.79,0,0,.29,0-.53,0-.46,0-.91,0-1.37a3.24,3.24,0,0,0-.13-.76c-.17-.54-.38-1.07-.54-1.61s-.28-1.12-.42-1.67c-.2-.75-.45-1.48-.61-2.24-.12-.56-1.48-7-2.44-10,.13-.1.16-.28.12-.62-.13-1.06-.26-2.12-.35-3.18-.05-.55-.08-1.47-.07-2,0-1.17.09-1.92.14-3,0-.53-.18-.77-1.24-.53a32.85,32.85,0,0,1-13.58,0c-1.24-.25-.87-.46-.77.28s-.29,2.35,0,3.14-.55.82-.64,1.66c-.13,1.19-.36,2.36-.52,3.54"/><path class="cls-1" d="M15.63,5.78a7.3,7.3,0,0,1-1-.09,2.68,2.68,0,0,0-1.76.41,1.45,1.45,0,0,1-1.68-.43c-.23-.21-.33-.24-.58-.07s-.42.16-.51.09a.64.64,0,0,0-.92,0,2.09,2.09,0,0,0,.54-.19,1.85,1.85,0,0,0-1.86.81,1.61,1.61,0,0,1-2.56-.19A1.07,1.07,0,0,1,5.2,6a3.38,3.38,0,0,1,.72-2.62,2.73,2.73,0,0,0,.43-.24c.18-.15.43-.33.47-.52A1.86,1.86,0,0,1,8.21,1,2.25,2.25,0,0,1,9.58,1c.75.17.67,1.28,1.28.92a1.35,1.35,0,0,1,1.34-.11A2.27,2.27,0,0,0,13.55,2,1,1,0,0,0,14,1.82a1.88,1.88,0,0,1,1.45,0,.81.81,0,0,0,.38.13c.6,0,1.2.05,1.8,0,.86-.06,4,0,4.11.75,0,.34-.32.74-.56,1.08s-2.93.77-3,1a1.42,1.42,0,0,1-1.29.7,3,3,0,0,0-.59.18C16,5.71,15.77,5.75,15.63,5.78Z"/><path class="cls-1" d="M25,10.72a6.62,6.62,0,0,1,1.17-3,3.43,3.43,0,0,1,1.12-.93,7.14,7.14,0,0,1,1.88-.6,12.6,12.6,0,0,1,1.93-.06h1.49a5.75,5.75,0,0,0,1.05,0,2.8,2.8,0,0,0,1.92-1.47c.35-.61.69-1.22,1.05-1.87a1.06,1.06,0,0,1,.39,1,17.33,17.33,0,0,1-.41,2.76,2.52,2.52,0,0,1-1.27,1.61,5.41,5.41,0,0,1-1.37.71A11.68,11.68,0,0,1,31.83,9c-.9,0-1.81.09-2.7,0a4.56,4.56,0,0,0-2.29.44,8.23,8.23,0,0,0-1.27.94C25.41,10.48,25.23,10.57,25,10.72Z"/><rect class="cls-1" x="8" y="31.21" width="12" height="4"/><polygon class="cls-1" points="9.77 26.21 3.42 26.21 4.47 8.21 7.65 8.21 9.77 26.21"/><path class="cls-1" d="M24,26.84V42H23c-9.06,0-11.94,0-21,0a1,1,0,0,1-1-1c0-4.77,0-14,0-14s.63-1,1-1c2.6,0,8-.16,10.59-.12a3.87,3.87,0,0,0,1.7-.44c1.18-.53,2.34-1.1,3.5-1.67s2.08-1.06,3.13-1.59q.71-.36,1.43-.69A3,3,0,0,1,24,21.6v5.24Z"/><path class="cls-1" d="M2,42H40s.11,0,.11-.79c0-.46,0-.91,0-1.37a3.24,3.24,0,0,0-.13-.76c-.17-.54-.38-1.07-.54-1.61s-.28-1.12-.42-1.67c-.2-.75-.45-1.48-.61-2.24-.12-.56-1.48-7-2.44-10,.13-.1.16-.28.12-.62C36,21.88,36.1,21.06,36,20c-.05-.55,0-1.44,0-2,0-1.17,0-2.89,0-4,0-.53-.38-.05-1.44.18a32.85,32.85,0,0,1-13.58,0c-1.24-.25-.87-.46-.77.28a44.2,44.2,0,0,1-.64,4.81c-.13,1.19-.36,2.36-.52,3.54"/><path class="cls-1" d="M15.63,5.78a7.3,7.3,0,0,1-1-.09,2.68,2.68,0,0,0-1.76.41,1.45,1.45,0,0,1-1.68-.43c-.23-.21-.33-.24-.58-.07s-.42.16-.51.09a.64.64,0,0,0-.92,0,2.09,2.09,0,0,0,.54-.19,1.85,1.85,0,0,0-1.86.81,1.61,1.61,0,0,1-2.56-.19A1.07,1.07,0,0,1,5.2,6a3.38,3.38,0,0,1,.72-2.62,2.73,2.73,0,0,0,.43-.24c.18-.15.43-.33.47-.52A1.86,1.86,0,0,1,8.21,1,2.25,2.25,0,0,1,9.58,1c.75.17.67,1.28,1.28.92a1.35,1.35,0,0,1,1.34-.11A2.27,2.27,0,0,0,13.55,2,1,1,0,0,0,14,1.82a1.88,1.88,0,0,1,1.45,0,.81.81,0,0,0,.38.13c.6,0,1.2.05,1.8,0,.86-.06,4,0,4.11.75,0,.34-.32.74-.56,1.08s-2.93.77-3,1a1.42,1.42,0,0,1-1.29.7,3,3,0,0,0-.59.18C16,5.71,15.77,5.75,15.63,5.78Z"/><path class="cls-1" d="M25,10.72a6.62,6.62,0,0,1,1.17-3,3.43,3.43,0,0,1,1.12-.93,7.14,7.14,0,0,1,1.88-.6,12.6,12.6,0,0,1,1.93-.06h1.49a5.75,5.75,0,0,0,1.05,0,2.8,2.8,0,0,0,1.92-1.47c.35-.61.69-1.22,1.05-1.87a1.06,1.06,0,0,1,.39,1,17.33,17.33,0,0,1-.41,2.76,2.52,2.52,0,0,1-1.27,1.61,5.41,5.41,0,0,1-1.37.71A11.68,11.68,0,0,1,31.83,9c-.9,0-1.81.09-2.7,0a4.56,4.56,0,0,0-2.29.44,8.23,8.23,0,0,0-1.27.94C25.41,10.48,25.23,10.57,25,10.72Z"/><polygon class="cls-1" points="10 26 3 26 5 8 8 8 10 26"/><rect class="cls-1" x="8" y="31" width="12" height="4"/></g></svg>