<svg xmlns="http://www.w3.org/2000/svg" width="40" height="40" viewBox="0 0 40 40"><defs><style>.cls-1{fill:#3bd99e;}</style></defs><title>xx</title><g id="Layer_2" data-name="Layer 2"><path class="cls-1" d="M20,0A20,20,0,1,0,40,20,20,20,0,0,0,20,0Zm8.42,22.41q.22.27,1,1h0l0,0A12.72,12.72,0,0,1,32,26.33l.08.16a1.66,1.66,0,0,1,.09.34,1,1,0,0,1,0,.43.63.63,0,0,1-.32.35,1.48,1.48,0,0,1-.75.16l-3.27.05a1.42,1.42,0,0,1-.71-.06,3.08,3.08,0,0,1-.66-.28l-.26-.15a6.1,6.1,0,0,1-.89-.82q-.51-.55-.87-1a4.27,4.27,0,0,0-.78-.74.81.81,0,0,0-.72-.2l-.1,0a1.08,1.08,0,0,0-.22.19,1.6,1.6,0,0,0-.27.38,2.58,2.58,0,0,0-.22.66,4.23,4.23,0,0,0-.08,1,1.29,1.29,0,0,1,0,.35.84.84,0,0,1-.1.24l-.05.06a1,1,0,0,1-.68.28H19.66a5.78,5.78,0,0,1-1.86-.21,7.14,7.14,0,0,1-1.68-.68A15.32,15.32,0,0,1,14.81,26a7.51,7.51,0,0,1-.9-.73L13.59,25l-.35-.38q-.22-.26-.91-1.16T11,21.53q-.66-1-1.56-2.69T7.75,15.37A1,1,0,0,1,7.67,15a.42.42,0,0,1,0-.2l.05-.08a.89.89,0,0,1,.73-.24l3.5,0a1.36,1.36,0,0,1,.29.08.92.92,0,0,1,.2.11l.06,0a.85.85,0,0,1,.31.41q.25.64.59,1.32t.52,1l.2.37q.37.77.71,1.33a6.56,6.56,0,0,0,.62.87,3.06,3.06,0,0,0,.53.49.81.81,0,0,0,.43.18,1,1,0,0,0,.34-.06l.06-.06a2.43,2.43,0,0,0,.15-.28,2.07,2.07,0,0,0,.17-.6q.06-.37.12-1a9.83,9.83,0,0,0,0-1.6,5.89,5.89,0,0,0-.11-.93,2.41,2.41,0,0,0-.18-.59l-.08-.15a1.57,1.57,0,0,0-1.08-.55q-.17,0,.06-.31a1.71,1.71,0,0,1,.48-.38,8.38,8.38,0,0,1,3-.31,8.55,8.55,0,0,1,1.72.17,1.47,1.47,0,0,1,.43.17.68.68,0,0,1,.26.31,2,2,0,0,1,.13.41,2.94,2.94,0,0,1,0,.58q0,.37,0,.7t0,.9q0,.57,0,1.05c0,.09,0,.27,0,.54s0,.47,0,.61,0,.32,0,.52a1.39,1.39,0,0,0,.15.5.84.84,0,0,0,.29.31l.22.05c.08,0,.19,0,.33-.14a4.55,4.55,0,0,0,.48-.44,6.67,6.67,0,0,0,.66-.85q.4-.58.87-1.37A20.85,20.85,0,0,0,26.37,15a.88.88,0,0,1,.13-.22.56.56,0,0,1,.14-.13l.05,0,.06,0,.17,0a.48.48,0,0,1,.25,0l3.67,0a2,2,0,0,1,.82,0,.74.74,0,0,1,.4.21l.08.13q.29.82-1.91,3.75l-.83,1.08a9.63,9.63,0,0,0-1.15,1.67A1,1,0,0,0,28.42,22.41Z"/></g></svg>