<svg xmlns="http://www.w3.org/2000/svg" width="40" height="40" viewBox="0 0 40 40"><defs><style>.cls-1{fill:#6a696b;}</style></defs><title>xx</title><g id="Layer_2" data-name="Layer 2"><path class="cls-1" d="M23.07,18.77l-4.64-2.41a.71.71,0,0,0-1,.63v4.83a.71.71,0,0,0,1,.63L23.07,20a.71.71,0,0,0,0-1.27Z"/><path class="cls-1" d="M20,0A20,20,0,1,0,40,20,20,20,0,0,0,20,0ZM31,21.92c0,2.44-.38,3.85-1.27,4.71s-2.21,1.19-4.63,1.19H14.94c-5,0-5.89-2-5.89-5.9V18.08c0-2,0-3.48.77-4.47s2.27-1.43,5.13-1.43H25.06c2.79,0,4.25.39,5,1.34s.85,2.43.85,4.56Z"/></g></svg>