<?xml version="1.0" encoding="utf-8"?>
<!-- Generator: Adobe Illustrator 21.0.0, SVG Export Plug-In . SVG Version: 6.00 Build 0)  -->
<svg version="1.1" id="Layer_1" xmlns="http://www.w3.org/2000/svg" xmlns:xlink="http://www.w3.org/1999/xlink" x="0px" y="0px"
	 viewBox="0 0 51 37" style="enable-background:new 0 0 51 37;" xml:space="preserve">
<style type="text/css">
	.st0{display:none;}
	.st1{display:inline;fill:#D3D3D3;}
	.st2{fill:#0E1D49;}
	.st3{display:none;clip-path:url(#SVGID_2_);}
	.st4{display:inline;}
	.st5{fill:#221C6B;}
	.st6{clip-path:url(#SVGID_4_);}
	.st7{opacity:0.25;clip-path:url(#SVGID_8_);}
	.st8{fill:#00112D;}
	.st9{opacity:0.6;}
	.st10{fill:#FFFFFF;}
	.st11{clip-path:url(#SVGID_4_);fill:#FFFFFF;}
	.st12{fill:#0BDBA0;}
	.st13{opacity:0.8;clip-path:url(#SVGID_4_);}
	.st14{opacity:0.5;clip-path:url(#SVGID_4_);}
	.st15{opacity:0.7;clip-path:url(#SVGID_4_);}
	.st16{fill:none;stroke:#FFFFFF;stroke-width:2;stroke-miterlimit:10;}
	
		.st17{opacity:0.4;clip-path:url(#SVGID_4_);fill:none;stroke:#FFFFFF;stroke-miterlimit:10;stroke-dasharray:3,3;enable-background:new    ;}
	.st18{fill:#F6F7FB;}
	.st19{fill:none;}
	.st20{fill:none;stroke:#DAE1E8;stroke-width:1.0016;stroke-miterlimit:10;}
	.st21{opacity:0.7;}
	.st22{fill:#1359BF;}
	.st23{clip-path:url(#SVGID_12_);}
	.st24{fill:#2962FF;}
	.st25{fill:none;stroke:#2962FF;stroke-width:3;stroke-miterlimit:10;}
	.st26{fill:none;stroke:#2962FF;stroke-width:2.9921;stroke-miterlimit:10;}
	.st27{fill:none;stroke:#2962FF;stroke-width:2.9614;stroke-miterlimit:10;}
	.st28{fill:none;stroke:#2962FF;stroke-width:2.9758;stroke-miterlimit:10;}
	.st29{fill:none;stroke:#2962FF;stroke-width:2.8477;stroke-miterlimit:10;}
	.st30{fill:none;stroke:#2962FF;stroke-width:3.3482;stroke-miterlimit:10;}
	.st31{clip-path:url(#SVGID_14_);}
	.st32{fill:none;stroke:#2962FF;stroke-width:2.9214;stroke-miterlimit:10;}
	.st33{fill:none;stroke:#2962FF;stroke-width:2.9658;stroke-miterlimit:10;}
	.st34{fill:none;stroke:#2962FF;stroke-width:2.2508;stroke-linecap:square;stroke-miterlimit:10;}
	.st35{fill:none;stroke:#2962FF;stroke-width:3.0914;stroke-miterlimit:10;}
</style>
<g id="Layer_3" class="st0">
	<rect x="-359" y="-353" class="st1" width="453" height="409"/>
	
		<image style="display:inline;overflow:visible;enable-background:new    ;" width="1888" height="1704" xlink:href="../sprite.png"  transform="matrix(0.2399 0 0 0.24 -359 -353)">
	</image>
</g>
<g>
	<g>
		<g>
			<g id="Layer_2">
				<g>
					<path class="st24" d="M50.9,14.1c0-1-0.1-2.3-0.2-3.8s-0.3-2.9-0.6-4.1c-0.3-1.4-1-2.5-2-3.5c-1-0.9-2.2-1.3-3.5-1.6
						c-4-1-10.6-1-19-1s-13.4,0.1-18.7,1C5.6,1.3,4.4,1.8,3.4,2.7S1.8,4.8,1.5,6.2c-0.3,1.2-1,2.4-1.1,4c-0.1,1.5-0.3,2.9-0.3,3.9
						s0,2.4,0,4.2s0,3.2,0,4.2s0.3,3,0.4,4.5s0.7,2.3,1,3.5c0.3,1.4,1,2.5,2,3.5c1,0.9,2.2,1.9,3.5,2.1c4.4,0.5,10.6,0.9,19,0.9
						s14.5-0.4,18.7-0.9c1.3-0.2,2.4-1.1,3.4-2s1.6-2.1,1.9-3.5c0.3-1.2,0.5-2.6,0.6-4.1s0.2-2.8,0.2-3.8s0-2.4,0-4.2
						C50.9,16.5,50.9,15.1,50.9,14.1L50.9,14.1z M34.6,19.7l-13.1,8.2c-0.2,0.2-0.5,0.3-0.9,0.3c-0.2,0-0.5-0.1-0.7-0.2
						c-0.6-0.3-0.9-0.8-0.9-1.5V10.2c0-0.6,0.3-1.2,0.8-1.4c0.6-0.3,1.1-0.3,1.7,0.1l13.1,8.2c0.5,0.3,0.8,0.7,0.8,1.4
						C35.3,18.9,35.1,19.4,34.6,19.7L34.6,19.7z"/>
				</g>
			</g>
		</g>
	</g>
</g>
</svg>
