<svg id="Layer_1" data-name="Layer 1" xmlns="http://www.w3.org/2000/svg" width="31" height="31" viewBox="0 0 31 31"><defs><style>.cls-1{fill:#fff;}</style></defs><title>xx</title><path class="cls-1" d="M10.49,15.65a5.12,5.12,0,1,1,5.12,5.12,5.12,5.12,0,0,1-5.12-5.12m-2.77,0A7.88,7.88,0,1,0,15.6,7.77a7.88,7.88,0,0,0-7.88,7.88M22,7.46A1.84,1.84,0,1,0,23.8,5.62,1.84,1.84,0,0,0,22,7.46M9.4,28.14a8.48,8.48,0,0,1-2.85-.53,4.77,4.77,0,0,1-1.77-1.15A4.74,4.74,0,0,1,3.64,24.7a8.48,8.48,0,0,1-.53-2.85C3,20.24,3,19.75,3,15.65s0-4.58.09-6.2A8.52,8.52,0,0,1,3.64,6.6,4.77,4.77,0,0,1,4.78,4.83,4.74,4.74,0,0,1,6.55,3.69,8.48,8.48,0,0,1,9.4,3.16c1.62-.07,2.1-.09,6.2-.09s4.58,0,6.2.09a8.52,8.52,0,0,1,2.85.53,4.76,4.76,0,0,1,1.77,1.15A4.76,4.76,0,0,1,27.57,6.6a8.48,8.48,0,0,1,.53,2.85c.07,1.62.09,2.1.09,6.2s0,4.58-.09,6.2a8.51,8.51,0,0,1-.53,2.85,5.08,5.08,0,0,1-2.91,2.91,8.48,8.48,0,0,1-2.85.53c-1.62.07-2.1.09-6.2.09s-4.58,0-6.2-.09M9.27.4a11.26,11.26,0,0,0-3.73.71A7.53,7.53,0,0,0,2.83,2.88,7.51,7.51,0,0,0,1.06,5.6,11.26,11.26,0,0,0,.35,9.32C.27,11,.25,11.48.25,15.65s0,4.69.09,6.33a11.26,11.26,0,0,0,.71,3.73,7.5,7.5,0,0,0,1.77,2.72,7.53,7.53,0,0,0,2.72,1.77,11.27,11.27,0,0,0,3.73.71c1.64.07,2.16.09,6.33.09s4.69,0,6.33-.09a11.26,11.26,0,0,0,3.73-.71,7.85,7.85,0,0,0,4.49-4.49A11.23,11.23,0,0,0,30.86,22c.07-1.64.09-2.16.09-6.33s0-4.69-.09-6.33a11.26,11.26,0,0,0-.71-3.73,7.55,7.55,0,0,0-1.77-2.72,7.53,7.53,0,0,0-2.72-1.77A11.24,11.24,0,0,0,21.93.4C20.29.32,19.77.3,15.6.3S10.91.32,9.27.4"/></svg>