<svg id="Layer_1" data-name="Layer 1" xmlns="http://www.w3.org/2000/svg" width="21" height="34" viewBox="0 0 21 34"><defs><style>.cls-1{fill:#fff;}</style></defs><title>xx</title><path class="cls-1" d="M49.4,5.91a3.53,3.53,0,1,1-3.53,3.53A3.54,3.54,0,0,1,49.4,5.91ZM49.4,18a8.54,8.54,0,1,0-8.54-8.53A8.55,8.55,0,0,0,49.4,18m3.45,7a16,16,0,0,0,5-2.05,2.5,2.5,0,0,0-2.66-4.24h0a10.84,10.84,0,0,1-11.49,0,2.5,2.5,0,0,0-3.45.78h0A2.5,2.5,0,0,0,41,22.89a16,16,0,0,0,5,2.05l-4.77,4.77a2.5,2.5,0,1,0,3.54,3.54h0l4.69-4.69,4.69,4.69a2.5,2.5,0,0,0,3.53,0h0a2.5,2.5,0,0,0,0-3.53h0l-4.77-4.77M10.4,5.91A3.53,3.53,0,1,1,6.86,9.44,3.54,3.54,0,0,1,10.4,5.91ZM10.4,18A8.54,8.54,0,1,0,1.86,9.44,8.55,8.55,0,0,0,10.4,18m3.45,7a16,16,0,0,0,5-2.05,2.5,2.5,0,0,0-2.66-4.24h0a10.84,10.84,0,0,1-11.49,0,2.5,2.5,0,0,0-3.45.78h0A2.5,2.5,0,0,0,2,22.89a16,16,0,0,0,5,2.05L2.17,29.71a2.5,2.5,0,1,0,3.54,3.54h0l4.69-4.69,4.69,4.69a2.5,2.5,0,0,0,3.53,0h0a2.5,2.5,0,0,0,0-3.53h0l-4.77-4.77M114.71,17.2a3.48,3.48,0,0,0,1.51-1.9l.65-2.51a.13.13,0,0,0,0-.11.12.12,0,0,0-.1-.05h-1.67a.12.12,0,0,0-.12.09s-.42,2-.63,2.49a2.84,2.84,0,0,1-1,1.19,1.28,1.28,0,0,1-.49.18,3.7,3.7,0,0,1-.55,0h-1.63V12.77a.13.13,0,0,0-.12-.13h-1.67a.13.13,0,0,0-.12.13V23.15a.13.13,0,0,0,.12.13h1.67a.13.13,0,0,0,.12-.13h0V18.29h1.85c.31,0,2.11.23,2.27,1.52l.36,3.38a.13.13,0,0,0,.12.09h1.71a.13.13,0,0,0,.12-.17s-.31-2.29-.57-3.88a2.64,2.64,0,0,0-1.77-2Zm30.77,3.29a.13.13,0,0,0-.09,0,.09.09,0,0,0-.09,0,3.51,3.51,0,0,1-.9.72,2.27,2.27,0,0,1-1.15.31,2.65,2.65,0,0,1-2.12-.87,4,4,0,0,1-.75-2.67,4,4,0,0,1,.75-2.68,2.66,2.66,0,0,1,2.12-.86,2.47,2.47,0,0,1,1.11.27,2.9,2.9,0,0,1,.94.73.13.13,0,0,0,.09,0,.12.12,0,0,0,.09,0l1.08-1.26a.13.13,0,0,0,0-.18,5.65,5.65,0,0,0-1.5-1.07,4.28,4.28,0,0,0-1.89-.41,5.21,5.21,0,0,0-1.74.3,4.07,4.07,0,0,0-1.51,1,4.79,4.79,0,0,0-1.06,1.69,7,7,0,0,0-.4,2.5,6.89,6.89,0,0,0,.4,2.48,4.78,4.78,0,0,0,1.06,1.69,4,4,0,0,0,1.51,1,5.2,5.2,0,0,0,1.74.3,4.32,4.32,0,0,0,1.91-.41,5.42,5.42,0,0,0,1.5-1.09.13.13,0,0,0,0-.18l-1.1-1.23h0Zm8.78,0a.13.13,0,0,0-.09,0,.12.12,0,0,0-.09,0,3.56,3.56,0,0,1-.9.72,2.27,2.27,0,0,1-1.15.31,2.66,2.66,0,0,1-2.12-.87,4,4,0,0,1-.75-2.67,4,4,0,0,1,.75-2.68,2.68,2.68,0,0,1,2.12-.86,2.47,2.47,0,0,1,1.11.27,2.89,2.89,0,0,1,.94.73.12.12,0,0,0,.09,0h0a.12.12,0,0,0,.09,0l1.08-1.26a.13.13,0,0,0,0-.18,5.66,5.66,0,0,0-1.5-1.07,4.3,4.3,0,0,0-1.89-.41,5.22,5.22,0,0,0-1.75.3,4.07,4.07,0,0,0-1.51,1,4.76,4.76,0,0,0-1.06,1.69,7,7,0,0,0-.4,2.5,6.93,6.93,0,0,0,.4,2.48,4.74,4.74,0,0,0,1.06,1.69,4,4,0,0,0,1.51,1,5.22,5.22,0,0,0,1.75.3,4.32,4.32,0,0,0,1.91-.41,5.41,5.41,0,0,0,1.5-1.09.13.13,0,0,0,0-.18l-1.1-1.23h0Zm-19.09-.71a1.69,1.69,0,0,1-.21.89,1.6,1.6,0,0,1-.55.55,2.31,2.31,0,0,1-.79.29,5.26,5.26,0,0,1-.94.08,2.51,2.51,0,0,1-1.58-.41,1.86,1.86,0,0,1-.49-1.33,1.73,1.73,0,0,1,.48-1.28,2.37,2.37,0,0,1,1.44-.37h2.65v1.6h0ZM137.09,16a3.76,3.76,0,0,0-.34-1.69,2.75,2.75,0,0,0-.93-1.07,3.78,3.78,0,0,0-1.34-.55,7.68,7.68,0,0,0-1.58-.16,5.49,5.49,0,0,0-2,.35,3.72,3.72,0,0,0-1.51,1.05.13.13,0,0,0,0,.17l1.06,1.15a.12.12,0,0,0,.09,0,.13.13,0,0,0,.09,0,2.26,2.26,0,0,1,.85-.62A3.73,3.73,0,0,1,133,14.4a2.86,2.86,0,0,1,1.7.39,1.37,1.37,0,0,1,.5,1.18v.53h-3.05a3.79,3.79,0,0,0-1.46.26,3,3,0,0,0-1,.7,3,3,0,0,0-.63,1,5,5,0,0,0-.21,1.46,3.62,3.62,0,0,0,1,2.56,3.87,3.87,0,0,0,2.74.9,5,5,0,0,0,1.82-.3,2.54,2.54,0,0,0,.87-.54l.21.59a.13.13,0,0,0,.12.13h1.67a.13.13,0,0,0,.12-.13,6.3,6.3,0,0,1-.21-1.66V16Zm58.78-3.37h-1.41a.12.12,0,0,0-.1.05l-3.76,5.45-1.29,1.93v-7.3a.13.13,0,0,0-.12-.13h-1.67a.13.13,0,0,0-.12.13V23.15a.13.13,0,0,0,.12.13h1.61a.12.12,0,0,0,.1-.05L194,16.09v7.07a.13.13,0,0,0,.12.13h1.71a.13.13,0,0,0,.12-.13V12.77a.13.13,0,0,0-.13-.13ZM183.67,17.2a3.47,3.47,0,0,0,1.51-1.9l.65-2.51a.13.13,0,0,0,0-.11.12.12,0,0,0-.1-.05H184a.12.12,0,0,0-.12.09s-.42,2-.63,2.49a2.84,2.84,0,0,1-1,1.19,1.28,1.28,0,0,1-.49.18,3.7,3.7,0,0,1-.55,0h-1.63V12.77a.13.13,0,0,0-.12-.13h-1.67a.13.13,0,0,0-.12.13V23.15a.13.13,0,0,0,.12.13h1.67a.13.13,0,0,0,.12-.13h0V18.29h1.85c.31,0,2.11.23,2.27,1.52l.36,3.38a.13.13,0,0,0,.12.09h1.71a.12.12,0,0,0,.1-.05.13.13,0,0,0,0-.11s-.31-2.29-.57-3.88a2.64,2.64,0,0,0-1.77-2Zm-8.14-4.57h-1.41a.12.12,0,0,0-.1.05l-3.76,5.45L169,20.07v-7.3a.13.13,0,0,0-.12-.13h-1.67a.13.13,0,0,0-.12.13V23.15a.13.13,0,0,0,.12.13h1.61a.12.12,0,0,0,.1-.05l4.81-7.14v7.07a.13.13,0,0,0,.12.13h1.71a.13.13,0,0,0,.12-.13V12.77a.13.13,0,0,0-.12-.13Zm-10.74,0h-1.67a.13.13,0,0,0-.12.13v3.82h-4.44V12.77a.13.13,0,0,0-.12-.13h-1.67a.13.13,0,0,0-.12.13V23.15a.13.13,0,0,0,.12.13h1.67a.13.13,0,0,0,.12-.13h0V18.23H163v4.93a.13.13,0,0,0,.12.13h1.67a.13.13,0,0,0,.12-.13h0V12.77a.13.13,0,0,0-.12-.13Zm-59.52,6.64a2.37,2.37,0,0,1-4.74,0V16.7a2.37,2.37,0,0,1,4.74,0v2.58Zm-2.36-6.72a4.24,4.24,0,0,0-4.28,4.19v2.47a4.28,4.28,0,0,0,8.56,0V16.75a4.24,4.24,0,0,0-4.28-4.19ZM84.09,21.5H79.58a4.69,4.69,0,0,0,.49-1.65c.09-.72.22-1.63.28-2.72l.24-2.73h3.51Zm2.9,0H86V12.76a.13.13,0,0,0-.12-.13H79a.13.13,0,0,0-.12.12l-.33,4.42c0,.67-.14,1.24-.19,1.72a7.57,7.57,0,0,1-.19,1.2,2.5,2.5,0,0,1-.36.82,1.62,1.62,0,0,1-.6.57,4.29,4.29,0,0,1-1,.18.13.13,0,0,0-.1.13V26a.13.13,0,0,0,.12.13h1.67A.13.13,0,0,0,78,26v-2.7h7.15V26a.13.13,0,0,0,.12.13H87a.13.13,0,0,0,.13-.13V21.62A.13.13,0,0,0,87,21.5h0Zm9.8-8.86H95.11a.13.13,0,0,0-.12.13v3.82H90.55V12.76a.13.13,0,0,0-.12-.13H88.75a.13.13,0,0,0-.12.13V23.15a.13.13,0,0,0,.12.13h1.67a.13.13,0,0,0,.12-.13V18.23H95v4.93a.13.13,0,0,0,.12.13h1.67a.13.13,0,0,0,.12-.13V12.76a.13.13,0,0,0-.12-.13ZM73.6,19.28a2.37,2.37,0,0,1-4.74,0V16.7a2.37,2.37,0,0,1,4.74,0v2.58Zm-2.36-6.72A4.24,4.24,0,0,0,67,16.75v2.47a4.28,4.28,0,0,0,8.56,0V16.75a4.24,4.24,0,0,0-4.28-4.19Zm56.06.08h-6.78a.13.13,0,0,0-.12.13,53.81,53.81,0,0,1-.35,6.85,2.8,2.8,0,0,1-.4,1.22,1.51,1.51,0,0,1-.63.61,10.27,10.27,0,0,1-1,.41A.13.13,0,0,0,118,22l.45,1.45a.12.12,0,0,0,.12.09h0a5.14,5.14,0,0,0,1.45-.48,3,3,0,0,0,1.1-1,5.26,5.26,0,0,0,.68-1.75,18.51,18.51,0,0,0,.33-2.7l.14-3.2h3.19v8.75a.13.13,0,0,0,.12.13h1.71a.13.13,0,0,0,.12-.13h0V12.76a.13.13,0,0,0-.12-.13"/></svg>