<svg id="Layer_1" data-name="Layer 1" xmlns="http://www.w3.org/2000/svg" width="47" height="26" viewBox="0 0 47 26"><defs><style>.cls-1{fill:#fff;}</style></defs><title>xx</title><path class="cls-1" d="M22.75,25.95h2.72a2.3,2.3,0,0,0,1.24-.54,2,2,0,0,0,.37-1.2S27,20.55,28.74,20s3.82,3.53,6.1,5.1a4.32,4.32,0,0,0,3,.92l6.09-.09s3.18-.2,1.67-2.7C45.5,23,44.74,21.4,41.1,18c-3.82-3.54-3.3-3,1.29-9.1,2.8-3.73,3.92-6,3.57-7s-2.39-.68-2.39-.68l-6.85,0a1.56,1.56,0,0,0-.88.16,1.91,1.91,0,0,0-.6.74,39.77,39.77,0,0,1-2.53,5.34c-3.05,5.18-4.27,5.46-4.77,5.13-1.16-.75-.87-3-.87-4.62,0-5,.76-7.12-1.48-7.66a11.73,11.73,0,0,0-3.2-.32c-2.45,0-4.51,0-5.69.58-.78.38-1.38,1.23-1,1.28a3.08,3.08,0,0,1,2,1A6.61,6.61,0,0,1,18.37,6s.4,5.91-.94,6.65c-.92.5-2.19-.52-4.91-5.23a43.73,43.73,0,0,1-2.45-5.07,2,2,0,0,0-.56-.76A2.83,2.83,0,0,0,8.45,1.2l-6.51,0S1,1.27.6,1.7s0,1.16,0,1.16S5.68,14.79,11.45,20.8a15.64,15.64,0,0,0,11.3,5.15"/></svg>