<svg id="Layer_1" data-name="Layer 1" xmlns="http://www.w3.org/2000/svg" width="50" height="36" viewBox="0 0 50 36"><defs><style>.cls-1{fill:#fff;}</style></defs><title>xx</title><path class="cls-1" d="M20.72,35.39C11.23,35.21,8,35.06,6,34.65a6.47,6.47,0,0,1-3.38-1.76A7.11,7.11,0,0,1,1,29.8a20.18,20.18,0,0,1-.68-4.53,107.61,107.61,0,0,1,0-14.69C.64,7.87.78,4.65,2.81,2.78A6.65,6.65,0,0,1,6.13,1.1C8.08.73,16.4.43,25,.43S41.95.73,43.9,1.1a6.5,6.5,0,0,1,3.89,2.3c1.85,2.91,1.88,6.53,2.07,9.35.08,1.35.08,9,0,10.35-.29,4.47-.53,6.05-1.19,7.69A5.67,5.67,0,0,1,47.3,33a6.55,6.55,0,0,1-3.48,1.78c-8.21.62-15.19.75-23.1.63Zm12.58-18c-4.57-2.44-8.94-4.71-13.42-7v14c4.71-2.56,9.67-4.9,13.44-7l0,0Z"/></svg>