<svg xmlns="http://www.w3.org/2000/svg" viewBox="0 0 10.81 20"><defs><style>.cls-1{fill:#a09f9e;}</style></defs><title>fb</title><g id="Layer_2" data-name="Layer 2"><g id="Layer_1-2" data-name="Layer 1"><path class="cls-1" d="M10.41,0H7.81A4.56,4.56,0,0,0,3,4.92V7.19H.41A.41.41,0,0,0,0,7.6v3.29a.41.41,0,0,0,.41.41H3v8.3a.41.41,0,0,0,.41.41h3.4a.41.41,0,0,0,.41-.41v-8.3h3a.41.41,0,0,0,.41-.41V7.6a.41.41,0,0,0-.12-.29.41.41,0,0,0-.29-.12h-3V5.27c0-.92.22-1.39,1.42-1.39H10.4a.41.41,0,0,0,.41-.41V.41A.41.41,0,0,0,10.41,0Zm0,0"/></g></g></svg>