<svg xmlns="http://www.w3.org/2000/svg" viewBox="0 0 22.16 18"><defs><style>.cls-1{fill:#a09f9e;}</style></defs><title>twitter</title><g id="Layer_2" data-name="Layer 2"><g id="Layer_1-2" data-name="Layer 1"><path class="cls-1" d="M22.16,2.13a9.08,9.08,0,0,1-2.61.72,4.58,4.58,0,0,0,2-2.52,9.06,9.06,0,0,1-2.89,1.1A4.54,4.54,0,0,0,10.8,4.54a4.72,4.72,0,0,0,.12,1A12.9,12.9,0,0,1,1.54.83,4.51,4.51,0,0,0,.93,3.12C.93,4.69,2.66,6.19,3.87,7a9.18,9.18,0,0,1-3-.67v.06a5,5,0,0,0,4,4.62,7.8,7.8,0,0,1-1.53,0,4.59,4.59,0,0,1-.86-.08A4.68,4.68,0,0,0,6.87,14a9.62,9.62,0,0,1-5.79,2A9.75,9.75,0,0,1,0,16a12.86,12.86,0,0,0,7,2A12.84,12.84,0,0,0,19.9,5.07V4.48a9.16,9.16,0,0,0,2.27-2.35Zm0,0"/></g></g></svg>