<svg xmlns="http://www.w3.org/2000/svg" viewBox="0 0 26.08 14.88"><defs><style>.cls-1{fill:#a09f9e;}</style></defs><title>vk</title><g id="Layer_2" data-name="Layer 2"><g id="Layer_1-2" data-name="Layer 1"><path class="cls-1" d="M25.94,13.44l-.09-.17a13.53,13.53,0,0,0-2.59-3l0,0h0q-.87-.83-1.1-1.11A1,1,0,0,1,21.9,8a10.26,10.26,0,0,1,1.22-1.78L24,5.07q2.35-3.12,2-4L26,.94a.79.79,0,0,0-.42-.22,2.12,2.12,0,0,0-.87,0l-3.91,0a.51.51,0,0,0-.27,0l-.18,0-.07,0-.05,0A.59.59,0,0,0,20,1a.93.93,0,0,0-.13.24,22.2,22.2,0,0,1-1.45,3.05q-.5.84-.92,1.46a7.09,7.09,0,0,1-.71.91,4.88,4.88,0,0,1-.52.47c-.15.12-.27.17-.35.15l-.23-.05a.89.89,0,0,1-.31-.33,1.48,1.48,0,0,1-.16-.53q0-.32,0-.55c0-.15,0-.37,0-.65s0-.47,0-.57q0-.52,0-1.12t0-1q0-.35,0-.75a3.13,3.13,0,0,0,0-.62,2.09,2.09,0,0,0-.14-.43.73.73,0,0,0-.28-.33,1.56,1.56,0,0,0-.45-.18A9.1,9.1,0,0,0,12.55,0,8.92,8.92,0,0,0,9.3.33a1.82,1.82,0,0,0-.52.41q-.24.3-.07.33a1.67,1.67,0,0,1,1.15.58l.08.16a2.56,2.56,0,0,1,.19.62,6.27,6.27,0,0,1,.12,1,10.47,10.47,0,0,1,0,1.7q-.07.71-.13,1.1a2.2,2.2,0,0,1-.18.64,2.58,2.58,0,0,1-.16.3l-.07.07a1,1,0,0,1-.37.07.86.86,0,0,1-.46-.19,3.26,3.26,0,0,1-.56-.52,7,7,0,0,1-.66-.93q-.37-.6-.76-1.41l-.22-.39q-.2-.38-.56-1.11T5.51,1.33A.9.9,0,0,0,5.19.9l-.07,0A1,1,0,0,0,4.9.74,1.45,1.45,0,0,0,4.59.65L.87.68A1,1,0,0,0,.1.94L0,1a.44.44,0,0,0,0,.22,1.08,1.08,0,0,0,.08.37Q.9,3.52,1.85,5.3T3.52,8.16q.71,1.09,1.44,2t1,1.24l.37.41.34.33a8,8,0,0,0,1,.78,16.32,16.32,0,0,0,1.4.9,7.6,7.6,0,0,0,1.79.72,6.16,6.16,0,0,0,2,.22h1.56a1.08,1.08,0,0,0,.72-.3l.05-.07a.9.9,0,0,0,.1-.25,1.38,1.38,0,0,0,0-.37,4.51,4.51,0,0,1,.09-1.05,2.76,2.76,0,0,1,.23-.71,1.7,1.7,0,0,1,.29-.4,1.15,1.15,0,0,1,.23-.2l.11,0a.86.86,0,0,1,.77.21,4.55,4.55,0,0,1,.83.79q.39.47.93,1.05a6.48,6.48,0,0,0,1,.87l.27.16a3.28,3.28,0,0,0,.71.3,1.51,1.51,0,0,0,.76.07l3.48-.05a1.57,1.57,0,0,0,.8-.17.67.67,0,0,0,.34-.37,1.05,1.05,0,0,0,0-.46,1.76,1.76,0,0,0-.1-.36Zm0,0"/></g></g></svg>